<svg width="626" height="626" viewBox="0 0 626 626" fill="none" xmlns="http://www.w3.org/2000/svg">
<path d="M626 313C626 485.865 485.865 626 313 626C140.135 626 0 485.865 0 313C0 140.135 140.135 7.62939e-06 313 7.62939e-06C485.865 7.62939e-06 626 140.135 626 313Z" fill="#FF7543"/>
<path d="M547.492 391.833L586.217 407.029L576.359 432.151L571.692 430.319L579.368 410.758L568.198 406.375L562.119 421.865L557.651 420.111L563.729 404.621L545.31 397.393L547.492 391.833Z" fill="white"/>
<path d="M537.852 416.389L574.571 435.942L567.276 449.64C565.622 452.747 563.854 455.008 561.972 456.423C560.091 457.838 558.187 458.577 556.261 458.639C554.334 458.701 552.461 458.247 550.641 457.278C548.256 456.008 546.607 454.263 545.693 452.045C544.763 449.858 544.678 447.294 545.437 444.355L523.445 444.125L523.163 443.974L526.121 438.42L547.514 438.754L551.901 430.516L535.095 421.567L537.852 416.389ZM555.949 432.672L551.587 440.863C550.083 443.687 549.516 445.963 549.885 447.691C550.286 449.435 551.412 450.8 553.263 451.786C555.146 452.788 556.892 452.953 558.5 452.278C560.139 451.62 561.711 449.879 563.215 447.055L567.577 438.864L555.949 432.672Z" fill="white"/>
<path d="M514.034 455.262C516.485 451.813 519.234 449.449 522.282 448.169C525.338 446.938 528.586 446.695 532.026 447.44C535.446 448.213 538.939 449.866 542.503 452.4C546.097 454.954 548.806 457.709 550.632 460.664C552.466 463.669 553.289 466.806 553.103 470.076C552.924 473.396 551.61 476.78 549.158 480.228C546.686 483.706 543.923 486.06 540.867 487.291C537.84 488.542 534.617 488.781 531.197 488.007C527.785 487.284 524.282 485.645 520.689 483.09C517.124 480.557 514.425 477.788 512.591 474.783C510.737 471.807 509.888 468.674 510.046 465.383C510.233 462.114 511.562 458.74 514.034 455.262ZM517.946 458.043C515.433 461.579 514.767 465.031 515.949 468.401C517.139 471.821 519.893 475.066 524.211 478.135C528.529 481.204 532.484 482.728 536.076 482.708C539.676 482.736 542.733 480.983 545.246 477.447C547.759 473.912 548.421 470.434 547.23 467.015C546.049 463.645 543.299 460.425 538.981 457.356C534.663 454.286 530.704 452.737 527.103 452.709C523.512 452.729 520.459 454.507 517.946 458.043Z" fill="white"/>
<path d="M504.364 470.099L534.622 498.647L527.155 506.561L489.004 493.296L488.125 494.227L514.931 519.518L511.197 523.475L480.939 494.926L488.406 487.013L526.558 500.278L527.436 499.347L500.63 474.056L504.364 470.099Z" fill="white"/>
<path d="M471.513 502.452L494.723 530.734L505.401 521.971L508.582 525.846L482.609 547.162L479.428 543.287L490.106 534.524L466.895 506.242L471.513 502.452Z" fill="white"/>
<path d="M456.805 514.25L479.265 549.266L456.819 563.663L454.112 559.444L471.53 548.271L465.167 538.35L451.43 547.161L448.838 543.121L462.575 534.31L454.484 521.695L436.796 533.04L434.089 528.821L456.805 514.25Z" fill="white"/>
<path d="M434.392 528.841L452.294 566.393L442.473 571.075L411.69 544.922L410.534 545.473L426.393 578.74L421.482 581.081L403.581 543.529L413.402 538.848L444.185 565L445.34 564.449L429.482 531.182L434.392 528.841Z" fill="white"/>
<path d="M402.813 543.742L415.355 583.407L402.388 587.507C395.54 589.672 390.038 589.492 385.883 586.965C381.705 584.482 378.624 580.105 376.641 573.834C374.657 567.562 374.656 562.192 376.637 557.725C378.595 553.302 382.997 550.008 389.845 547.843L402.813 543.742ZM398.578 550.339L391.865 552.462C388.441 553.545 385.867 554.955 384.142 556.694C382.394 558.478 381.416 560.633 381.208 563.16C380.967 565.697 381.376 568.644 382.438 572C383.51 575.39 384.869 578.037 386.515 579.941C388.138 581.889 390.171 583.073 392.616 583.493C395.038 583.958 397.961 583.649 401.385 582.566L408.097 580.443L398.578 550.339Z" fill="white"/>
<path d="M352.335 557.562L363.751 598.02L363.778 598.339L357.933 598.836L347.879 562.437L346.603 562.546L341.725 600.215L331.628 601.073L320.351 564.779L319.076 564.887L315.42 602.452L309.893 602.922L309.866 602.603L314.179 560.807L324.542 559.926L335.814 596.168L337.089 596.059L342.025 558.439L352.335 557.562Z" fill="white"/>
<path d="M308.012 560.214L305.286 601.725L278.676 599.977L279.005 594.974L299.654 596.331L300.426 584.569L284.141 583.5L284.456 578.71L300.741 579.779L301.723 564.825L280.755 563.448L281.083 558.445L308.012 560.214Z" fill="white"/>
<path d="M280.91 558.334L273.272 599.227L259.222 596.603C254.433 595.708 251.09 594.143 249.193 591.908C247.254 589.701 246.565 587.095 247.127 584.089C247.479 582.202 248.3 580.619 249.587 579.34C250.84 578.055 252.543 577.36 254.697 577.256L254.932 575.998C252.395 575.054 250.623 573.602 249.615 571.641C248.565 569.709 248.291 567.397 248.794 564.706C249.46 561.141 251.222 558.486 254.08 556.741C256.937 554.996 260.918 554.6 266.021 555.553L280.91 558.334ZM274.262 561.975L265.192 560.281C261.976 559.681 259.531 559.893 257.857 560.919C256.141 561.973 255.057 563.706 254.607 566.117C254.17 568.459 254.547 570.41 255.738 571.971C256.93 573.532 259.116 574.609 262.296 575.203L271.471 576.917L274.262 561.975ZM270.619 581.478L262.231 579.911C259.504 579.402 257.386 579.513 255.875 580.243C254.364 580.974 253.419 582.353 253.041 584.38C252.296 588.364 254.616 590.859 259.998 591.865L268.386 593.431L270.619 581.478Z" fill="white"/>
<path d="M236.714 548.553L221.372 587.22L208.73 582.205C202.054 579.556 197.905 575.94 196.281 571.355C194.611 566.791 194.989 561.452 197.414 555.338C199.84 549.224 203.232 545.061 207.59 542.85C211.902 540.66 217.396 540.888 224.072 543.537L236.714 548.553ZM229.263 550.99L222.719 548.394C219.381 547.069 216.494 546.536 214.059 546.794C211.577 547.071 209.457 548.124 207.699 549.951C205.909 551.765 204.364 554.308 203.066 557.58C201.755 560.885 201.136 563.795 201.209 566.31C201.236 568.846 202.064 571.049 203.693 572.919C205.276 574.81 207.737 576.417 211.075 577.742L217.619 580.338L229.263 550.99Z" fill="white"/>
<path d="M205.369 535.727L185.41 572.227L162.013 559.433L164.418 555.034L182.574 564.962L188.229 554.621L173.91 546.791L176.213 542.579L190.532 550.409L197.723 537.26L179.286 527.178L181.691 522.78L205.369 535.727Z" fill="white"/>
<path d="M173.885 517.186L160.837 558.557L160.652 558.818L155.522 555.172L167.137 518.671L166.094 517.929L135.526 540.958L130.744 537.56L130.929 537.299L165.713 511.377L173.885 517.186Z" fill="white"/>
<path d="M156.237 504.308L128.243 535.079L108.518 517.135L111.891 513.426L127.198 527.351L135.13 518.633L123.058 507.651L126.288 504.1L138.36 515.082L148.445 503.996L132.901 489.856L136.275 486.148L156.237 504.308Z" fill="white"/>
<path d="M135.713 485.331L104.638 512.988L100.667 508.525L127.997 484.202L114.949 469.541L118.694 466.208L135.713 485.331Z" fill="white"/>
<path d="M110.793 453.595C113.207 457.071 114.499 460.459 114.67 463.76C114.792 467.052 113.919 470.19 112.052 473.174C110.165 476.13 107.426 478.854 103.834 481.349C100.212 483.864 96.7019 485.479 93.3029 486.194C89.8543 486.901 86.6236 486.612 83.6107 485.327C80.5484 484.034 77.8105 481.65 75.3972 478.175C72.9636 474.67 71.686 471.272 71.5644 467.98C71.4136 464.708 72.2817 461.595 74.1687 458.639C76.0062 455.675 78.7357 452.936 82.3571 450.421C85.9493 447.926 89.4696 446.326 92.9182 445.62C96.3465 444.884 99.5816 445.148 102.624 446.412C105.637 447.696 108.36 450.091 110.793 453.595ZM106.851 456.333C104.377 452.77 101.354 450.973 97.783 450.942C94.1625 450.902 90.1765 452.393 85.825 455.415C81.4734 458.437 78.6985 461.641 77.5003 465.027C76.2525 468.404 76.8657 471.874 79.3399 475.437C81.814 479 84.8614 480.801 88.4819 480.841C92.0529 480.872 96.0142 479.377 100.366 476.355C104.717 473.333 107.517 470.134 108.765 466.757C109.963 463.371 109.325 459.896 106.851 456.333Z" fill="white"/>
<path d="M100.114 439.053L63.2515 458.334L56.3796 445.196C53.9242 440.501 53.1129 436.572 53.9457 433.408C54.7305 430.229 56.7454 427.791 59.9905 426.093C63.2357 424.396 66.4034 424.123 69.4939 425.275C72.5364 426.413 75.2853 429.328 77.7407 434.023L81.8441 441.868L97.345 433.76L100.114 439.053ZM77.5908 444.092L73.611 436.484C72.0619 433.522 70.4297 431.667 68.7144 430.92C66.9826 430.14 65.0139 430.327 62.8085 431.481C60.6031 432.634 59.3266 434.145 58.979 436.012C58.615 437.847 59.2075 440.246 60.7565 443.207L64.7363 450.816L77.5908 444.092Z" fill="white"/>
<path d="M86.7301 413.018L47.8924 427.924L38.3372 403.028L43.0176 401.232L50.4325 420.551L61.4365 416.328L55.5887 401.091L60.07 399.371L65.9177 414.608L79.9093 409.238L72.3798 389.62L77.0602 387.823L86.7301 413.018Z" fill="white"/>
<path d="M77.0678 387.715L36.7554 397.984L32.924 382.945C32.055 379.534 31.8395 376.672 32.2776 374.359C32.7157 372.046 33.6259 370.218 35.0083 368.875C36.3907 367.532 38.0811 366.606 40.0795 366.097C42.698 365.43 45.0919 365.609 47.261 366.634C49.4213 367.625 51.2103 369.462 52.6279 372.146L69.0421 357.508L69.3522 357.429L70.9059 363.527L54.8647 377.685L57.1688 386.73L75.6195 382.029L77.0678 387.715ZM52.7241 387.862L50.4331 378.869C49.6431 375.769 48.5301 373.704 47.094 372.675C45.6234 371.656 43.8717 371.405 41.8389 371.923C39.7715 372.449 38.3706 373.504 37.6361 375.085C36.8671 376.675 36.8776 379.021 37.6676 382.122L39.9585 391.114L52.7241 387.862Z" fill="white"/>
<path d="M79.0002 232.675L40.3902 217.188L50.4365 192.141L55.0895 194.008L47.2668 213.511L58.4043 217.978L64.5989 202.534L69.0539 204.321L62.8593 219.765L81.2238 227.131L79.0002 232.675Z" fill="white"/>
<path d="M88.7169 208.326L52.144 188.502L59.5398 174.857C61.2172 171.763 63.0019 169.515 64.8937 168.114C66.7856 166.713 68.6948 165.988 70.6215 165.94C72.5481 165.893 74.418 166.36 76.231 167.343C78.6066 168.631 80.2429 170.387 81.1398 172.612C82.0536 174.806 82.12 177.37 81.3389 180.303L103.329 180.697L103.61 180.849L100.611 186.382L79.2211 185.889L74.7734 194.095L91.5126 203.168L88.7169 208.326ZM70.7411 191.909L75.1633 183.75C76.6882 180.937 77.2724 178.665 76.916 176.935C76.5283 175.188 75.4123 173.815 73.5681 172.815C71.6925 171.799 69.9483 171.622 68.3355 172.284C66.6913 172.93 65.1068 174.66 63.5819 177.473L59.1596 185.631L70.7411 191.909Z" fill="white"/>
<path d="M112.55 169.912C110.074 173.342 107.307 175.687 104.251 176.944C101.186 178.153 97.9363 178.372 94.5012 177.603C91.0869 176.804 87.6068 175.125 84.0608 172.566C80.486 169.985 77.7967 167.211 75.9928 164.242C74.181 161.224 73.3803 158.081 73.5909 154.813C73.7935 151.495 75.1329 148.12 77.6094 144.69C80.1066 141.23 82.8876 138.896 85.9523 137.688C88.9881 136.459 92.2131 136.244 95.6274 137.042C99.0336 137.791 102.524 139.455 106.099 142.036C109.645 144.595 112.324 147.384 114.136 150.402C115.968 153.391 116.794 156.531 116.612 159.82C116.402 163.088 115.048 166.452 112.55 169.912ZM108.658 167.102C111.197 163.585 111.888 160.137 110.731 156.759C109.566 153.331 106.836 150.066 102.54 146.965C98.2449 143.865 94.3012 142.311 90.7094 142.306C87.1095 142.251 84.0402 143.982 81.5013 147.499C78.9625 151.016 78.2755 154.489 79.4406 157.917C80.5976 161.296 83.3238 164.535 87.6194 167.636C91.915 170.737 95.8626 172.315 99.4625 172.37C103.054 172.375 106.12 170.62 108.658 167.102Z" fill="white"/>
<path d="M122.169 155.154L92.1188 126.387L99.6426 118.528L137.697 132.07L138.582 131.145L111.961 105.66L115.723 101.731L145.773 130.498L138.249 138.357L100.195 124.815L99.3094 125.74L125.931 151.225L122.169 155.154Z" fill="white"/>
<path d="M155.952 122.316L133.051 93.7826L122.278 102.429L119.141 98.5188L145.345 77.488L148.483 81.3978L137.71 90.0438L160.61 118.577L155.952 122.316Z" fill="white"/>
<path d="M170.135 111.038L147.932 75.8582L170.483 61.6257L173.159 65.8653L155.659 76.9097L161.95 86.8773L175.751 78.167L178.313 82.2262L164.512 90.9364L172.51 103.61L190.281 92.3949L192.956 96.6345L170.135 111.038Z" fill="white"/>
<path d="M192.116 96.7723L174.494 59.0889L184.35 54.4802L214.937 80.8604L216.097 80.3182L200.486 46.9346L205.414 44.6302L223.035 82.3137L213.18 86.9224L182.592 60.5421L181.433 61.0843L197.043 94.468L192.116 96.7723Z" fill="white"/>
<path d="M223.884 81.9073L211.642 42.1495L224.64 38.1472C231.504 36.0335 237.004 36.2558 241.14 38.8142C245.3 41.328 248.347 45.7282 250.283 52.0147C252.219 58.3012 252.179 63.6705 250.165 68.1228C248.174 72.5306 243.746 75.7913 236.882 77.905L223.884 81.9073ZM228.169 75.3424L234.897 73.2706C238.329 72.2138 240.914 70.8225 242.652 69.0968C244.414 67.3267 245.408 65.179 245.635 62.6538C245.896 60.118 245.508 57.1681 244.472 53.804C243.426 50.4059 242.087 47.7489 240.455 45.8332C238.847 43.8729 236.822 42.6735 234.381 42.2348C231.963 41.7518 229.037 42.0386 225.605 43.0955L218.877 45.1673L228.169 75.3424Z" fill="white"/>
<path d="M274.79 68.1255L263.842 27.5382L263.819 27.2191L269.67 26.7895L279.302 63.3021L280.579 63.2084L285.893 25.5983L295.999 24.8563L306.855 61.2791L308.132 61.1853L312.222 23.6651L317.753 23.2589L317.777 23.5781L312.981 65.3213L302.609 66.0829L291.756 29.7133L290.48 29.807L285.109 67.3678L274.79 68.1255Z" fill="white"/>
<path d="M319.181 65.7246L322.387 24.2483L348.975 26.3035L348.588 31.3019L327.957 29.7071L327.048 41.4587L343.32 42.7165L342.95 47.5022L326.678 46.2444L325.523 61.1865L346.474 62.806L346.088 67.8044L319.181 65.7246Z" fill="white"/>
<path d="M345.665 67.6602L353.616 26.827L367.645 29.5586C372.427 30.4895 375.758 32.0798 377.638 34.3295C379.56 36.5511 380.229 39.1626 379.644 42.1641C379.277 44.0487 378.445 45.6253 377.148 46.8941C375.885 48.1696 374.177 48.8513 372.022 48.939L371.778 50.1954C374.307 51.1587 376.068 52.6245 377.061 54.5928C378.096 56.5331 378.352 58.8468 377.829 61.5342C377.136 65.094 375.354 67.7354 372.483 69.4585C369.611 71.1815 365.628 71.547 360.533 70.5549L345.665 67.6602ZM352.341 64.0699L361.398 65.8332C364.609 66.4584 367.055 66.2646 368.737 65.2519C370.461 64.2111 371.558 62.4866 372.027 60.0785C372.482 57.7402 372.12 55.7861 370.94 54.2161C369.761 52.6462 367.583 51.5521 364.407 50.9338L355.246 49.15L352.341 64.0699ZM356.133 44.5956L364.509 46.2264C367.231 46.7564 369.35 46.6619 370.867 45.9429C372.383 45.2239 373.339 43.8523 373.733 41.8281C374.507 37.8495 372.207 35.337 366.833 34.2905L358.457 32.6597L356.133 44.5956Z" fill="white"/>
<path d="M389.833 77.5308L405.464 38.979L418.067 44.089C424.723 46.7877 428.846 50.4351 430.435 55.0314C432.071 59.608 431.653 64.9442 429.182 71.04C426.71 77.1358 423.287 81.2728 418.913 83.4509C414.585 85.6095 409.093 85.3395 402.437 82.6408L389.833 77.5308ZM397.302 75.1492L403.826 77.7944C407.154 79.1438 410.037 79.6987 412.474 79.4592C414.958 79.2002 417.086 78.1636 418.857 76.3496C420.661 74.549 422.225 72.0176 423.547 68.7555C424.883 65.4605 425.524 62.5551 425.47 60.0392C425.462 57.5038 424.65 55.2948 423.035 53.4121C421.466 51.5098 419.017 49.884 415.689 48.5346L409.165 45.8894L397.302 75.1492Z" fill="white"/>
<path d="M422.46 91.1261L442.822 54.85L466.076 67.9023L463.622 72.2741L445.577 62.1454L439.808 72.4237L454.039 80.4117L451.69 84.5975L437.458 76.6094L430.123 89.6781L448.447 99.9634L445.993 104.335L422.46 91.1261Z" fill="white"/>
<path d="M453.546 109.772L467.046 68.5459L467.234 68.2871L472.324 71.9892L460.31 108.361L461.345 109.114L492.163 86.4209L496.908 89.872L496.719 90.1307L461.654 115.67L453.546 109.772Z" fill="white"/>
<path d="M470.748 122.466L498.965 91.8982L518.559 109.986L515.159 113.67L499.954 99.6337L491.959 108.294L503.951 119.364L500.695 122.891L488.703 111.821L478.538 122.834L493.978 137.087L490.578 140.771L470.748 122.466Z" fill="white"/>
<path d="M490.942 141.283L522.218 113.853L526.157 118.344L498.65 142.468L511.591 157.224L507.822 160.53L490.942 141.283Z" fill="white"/>
<path d="M515.998 173.544C513.61 170.051 512.343 166.654 512.196 163.352C512.098 160.059 512.994 156.927 514.882 153.956C516.791 151.015 519.55 148.31 523.161 145.842C526.801 143.354 530.322 141.765 533.727 141.074C537.18 140.393 540.409 140.705 543.412 142.012C546.465 143.327 549.185 145.732 551.573 149.224C553.981 152.747 555.234 156.154 555.331 159.447C555.458 162.72 554.567 165.827 552.659 168.768C550.8 171.719 548.05 174.438 544.41 176.926C540.8 179.394 537.268 180.969 533.814 181.65C530.381 182.361 527.148 182.073 524.115 180.787C521.112 179.481 518.406 177.066 515.998 173.544ZM519.961 170.835C522.409 174.416 525.418 176.235 528.989 176.292C532.609 176.359 536.606 174.897 540.979 171.907C545.353 168.917 548.151 165.734 549.374 162.357C550.646 158.989 550.059 155.514 547.611 151.933C545.163 148.352 542.128 146.529 538.508 146.462C534.938 146.405 530.966 147.872 526.592 150.861C522.219 153.851 519.396 157.03 518.123 160.398C516.9 163.775 517.513 167.254 519.961 170.835Z" fill="white"/>
<path d="M526.997 188.769L564.071 169.899L570.797 183.112C573.2 187.833 573.968 191.771 573.1 194.926C572.28 198.096 570.238 200.512 566.974 202.173C563.71 203.835 560.54 204.072 557.462 202.885C554.433 201.715 551.716 198.768 549.313 194.047L545.297 186.157L529.707 194.092L526.997 188.769ZM549.575 183.98L553.47 191.632C554.986 194.611 556.598 196.483 558.304 197.25C560.028 198.049 561.998 197.884 564.216 196.755C566.434 195.626 567.727 194.13 568.096 192.267C568.48 190.435 567.914 188.03 566.398 185.052L562.503 177.399L549.575 183.98Z" fill="white"/>
<path d="M540.202 215.048L579.205 200.58L588.48 225.582L583.779 227.326L576.583 207.924L565.532 212.024L571.208 227.325L566.707 228.994L561.031 213.693L546.98 218.905L554.289 238.607L549.588 240.35L540.202 215.048Z" fill="white"/>
<path d="M549.666 240.566L590.093 230.756L593.753 245.839C594.583 249.26 594.766 252.124 594.301 254.432C593.837 256.74 592.906 258.557 591.508 259.884C590.11 261.211 588.41 262.118 586.406 262.604C583.779 263.241 581.388 263.035 579.231 261.985C577.082 260.97 575.314 259.112 573.927 256.412L557.347 270.862L557.036 270.938L555.552 264.822L571.753 250.848L569.553 241.777L551.049 246.267L549.666 240.566ZM574.01 240.696L576.198 249.714C576.953 252.824 578.042 254.901 579.466 255.946C580.925 256.982 582.674 257.253 584.713 256.758C586.786 256.255 588.199 255.217 588.951 253.644C589.738 252.063 589.755 249.718 589 246.608L586.812 237.59L574.01 240.696Z" fill="white"/>
</svg>
