<svg width="373" height="120" viewBox="0 0 373 120" fill="none" xmlns="http://www.w3.org/2000/svg">
<g filter="url(#filter0_f_14_4)">
<mask id="path-1-outside-1_14_4" maskUnits="userSpaceOnUse" x="0" y="0" width="373" height="120" fill="black">
<rect fill="white" width="373" height="120"/>
<path d="M4.10667 93V9.8H22.0267V78.92H56.8V93H4.10667ZM80.275 94.6C69.6794 94.6 61.7506 91.5778 56.4883 85.5333C51.2972 79.4178 48.7017 71.24 48.7017 61C48.7017 50.76 51.2972 42.6178 56.4883 36.5733C61.7506 30.4578 69.6794 27.4 80.275 27.4C90.8706 27.4 98.7639 30.4578 103.955 36.5733C109.217 42.6178 111.848 50.76 111.848 61C111.848 71.24 109.217 79.4178 103.955 85.5333C98.7639 91.5778 90.8706 94.6 80.275 94.6ZM80.275 83.08C84.9683 83.08 88.4172 81.2311 90.6217 77.5333C92.8261 73.8356 93.9283 68.2889 93.9283 60.8933C93.9283 53.5689 92.8261 48.0933 90.6217 44.4667C88.4172 40.7689 84.9683 38.92 80.275 38.92C75.5817 38.92 72.1328 40.7689 69.9283 44.4667C67.7239 48.0933 66.6217 53.5689 66.6217 60.8933C66.6217 68.2889 67.7239 73.8356 69.9283 77.5333C72.1328 81.2311 75.5817 83.08 80.275 83.08ZM132.303 94.28C126.33 94.28 121.423 92.8578 117.583 90.0133C113.743 87.0978 110.899 83.1156 109.05 78.0667C107.201 73.0178 106.277 67.2933 106.277 60.8933C106.277 54.28 107.201 48.4844 109.05 43.5067C110.97 38.5289 113.85 34.6533 117.69 31.88C121.53 29.1067 126.366 27.72 132.197 27.72C136.677 27.72 140.339 28.6089 143.183 30.3867C146.099 32.0933 148.303 34.4044 149.797 37.32H152.357V29H168.357V93H152.357V84.68H149.797C148.303 87.3822 146.134 89.6578 143.29 91.5067C140.446 93.3556 136.783 94.28 132.303 94.28ZM136.783 82.12C141.121 82.12 144.57 80.2356 147.13 76.4667C149.761 72.6267 151.077 67.4711 151.077 61C151.077 54.4578 149.761 49.3022 147.13 45.5333C144.57 41.7644 141.121 39.88 136.783 39.88C132.872 39.88 129.779 41.6578 127.503 45.2133C125.299 48.6978 124.197 53.96 124.197 61C124.197 68.04 125.299 73.3378 127.503 76.8933C129.779 80.3778 132.872 82.12 136.783 82.12ZM192.702 94.28C186.871 94.28 182.071 92.8578 178.302 90.0133C174.533 87.0978 171.724 83.1156 169.875 78.0667C168.026 73.0178 167.102 67.2933 167.102 60.8933C167.102 54.28 168.026 48.4844 169.875 43.5067C171.795 38.5289 174.639 34.6533 178.408 31.88C182.248 29.1067 187.013 27.72 192.702 27.72C196.897 27.72 200.311 28.4667 202.942 29.96C205.644 31.4533 207.777 33.48 209.342 36.04H211.902V7.66666H229.182V93H213.182V84.68H210.622C209.128 87.3822 206.959 89.6578 204.115 91.5067C201.271 93.3556 197.466 94.28 192.702 94.28ZM197.608 82.12C201.946 82.12 205.395 80.2356 207.955 76.4667C210.586 72.6267 211.902 67.4711 211.902 61C211.902 54.4578 210.586 49.3022 207.955 45.5333C205.395 41.7644 201.946 39.88 197.608 39.88C193.697 39.88 190.604 41.6578 188.328 45.2133C186.124 48.6978 185.022 53.96 185.022 61C185.022 68.04 186.124 73.3378 188.328 76.8933C190.604 80.3778 193.697 82.12 197.608 82.12ZM232.193 93V29H249.473V93H232.193ZM240.833 21.64C237.776 21.64 235.464 20.8578 233.9 19.2933C232.336 17.6578 231.553 15.56 231.553 13C231.553 10.44 232.336 8.37777 233.9 6.81333C235.464 5.17778 237.776 4.36 240.833 4.36C243.891 4.36 246.202 5.17778 247.767 6.81333C249.331 8.37777 250.113 10.44 250.113 13C250.113 15.56 249.331 17.6578 247.767 19.2933C246.202 20.8578 243.891 21.64 240.833 21.64ZM252.518 93V29H268.518V38.6H271.078C272.358 35.4 274.314 32.7333 276.945 30.6C279.647 28.4667 283.594 27.4 288.785 27.4C295.896 27.4 301.229 29.64 304.785 34.12C308.341 38.6 310.118 44.68 310.118 52.36V93H292.838V55.24C292.838 50.8311 292.056 47.4533 290.492 45.1067C288.927 42.6889 286.367 41.48 282.812 41.48C278.687 41.48 275.487 43.1156 273.212 46.3867C270.936 49.5867 269.798 53.6044 269.798 58.44V93H252.518ZM339.312 115.933C333.338 115.933 328.503 115.187 324.805 113.693C321.178 112.271 318.369 110.458 316.378 108.253C314.458 106.049 313.107 103.809 312.325 101.533C311.543 99.2578 311.081 97.2667 310.938 95.56H327.792C328.147 97.6222 329.143 99.5067 330.778 101.213C332.414 102.92 335.187 103.773 339.098 103.773C343.507 103.773 346.814 102.458 349.018 99.8267C351.223 97.2667 352.325 93.6044 352.325 88.84V81.2667H349.765C348.769 84.3244 346.921 86.7422 344.218 88.52C341.516 90.2267 337.961 91.08 333.552 91.08C325.232 91.08 318.867 88.2 314.458 82.44C310.121 76.6089 307.952 68.8578 307.952 59.1867C307.952 53 308.912 47.5244 310.832 42.76C312.752 37.9244 315.632 34.1556 319.472 31.4533C323.312 28.7511 328.112 27.4 333.872 27.4C338.281 27.4 341.801 28.2533 344.432 29.96C347.134 31.5956 349.125 33.8356 350.405 36.68H352.965V29H368.965V88.2C368.965 97.0178 366.547 103.844 361.712 108.68C356.876 113.516 349.409 115.933 339.312 115.933ZM338.245 78.92C342.441 78.92 345.712 77.1422 348.058 73.5867C350.476 70.0311 351.685 65.2311 351.685 59.1867C351.685 53.1422 350.476 48.3778 348.058 44.8933C345.712 41.3378 342.441 39.56 338.245 39.56C334.334 39.56 331.205 41.1956 328.858 44.4667C326.583 47.7378 325.445 52.6444 325.445 59.1867C325.445 65.8711 326.583 70.8489 328.858 74.12C331.205 77.32 334.334 78.92 338.245 78.92Z"/>
</mask>
<path d="M4.10667 93V9.8H22.0267V78.92H56.8V93H4.10667ZM80.275 94.6C69.6794 94.6 61.7506 91.5778 56.4883 85.5333C51.2972 79.4178 48.7017 71.24 48.7017 61C48.7017 50.76 51.2972 42.6178 56.4883 36.5733C61.7506 30.4578 69.6794 27.4 80.275 27.4C90.8706 27.4 98.7639 30.4578 103.955 36.5733C109.217 42.6178 111.848 50.76 111.848 61C111.848 71.24 109.217 79.4178 103.955 85.5333C98.7639 91.5778 90.8706 94.6 80.275 94.6ZM80.275 83.08C84.9683 83.08 88.4172 81.2311 90.6217 77.5333C92.8261 73.8356 93.9283 68.2889 93.9283 60.8933C93.9283 53.5689 92.8261 48.0933 90.6217 44.4667C88.4172 40.7689 84.9683 38.92 80.275 38.92C75.5817 38.92 72.1328 40.7689 69.9283 44.4667C67.7239 48.0933 66.6217 53.5689 66.6217 60.8933C66.6217 68.2889 67.7239 73.8356 69.9283 77.5333C72.1328 81.2311 75.5817 83.08 80.275 83.08ZM132.303 94.28C126.33 94.28 121.423 92.8578 117.583 90.0133C113.743 87.0978 110.899 83.1156 109.05 78.0667C107.201 73.0178 106.277 67.2933 106.277 60.8933C106.277 54.28 107.201 48.4844 109.05 43.5067C110.97 38.5289 113.85 34.6533 117.69 31.88C121.53 29.1067 126.366 27.72 132.197 27.72C136.677 27.72 140.339 28.6089 143.183 30.3867C146.099 32.0933 148.303 34.4044 149.797 37.32H152.357V29H168.357V93H152.357V84.68H149.797C148.303 87.3822 146.134 89.6578 143.29 91.5067C140.446 93.3556 136.783 94.28 132.303 94.28ZM136.783 82.12C141.121 82.12 144.57 80.2356 147.13 76.4667C149.761 72.6267 151.077 67.4711 151.077 61C151.077 54.4578 149.761 49.3022 147.13 45.5333C144.57 41.7644 141.121 39.88 136.783 39.88C132.872 39.88 129.779 41.6578 127.503 45.2133C125.299 48.6978 124.197 53.96 124.197 61C124.197 68.04 125.299 73.3378 127.503 76.8933C129.779 80.3778 132.872 82.12 136.783 82.12ZM192.702 94.28C186.871 94.28 182.071 92.8578 178.302 90.0133C174.533 87.0978 171.724 83.1156 169.875 78.0667C168.026 73.0178 167.102 67.2933 167.102 60.8933C167.102 54.28 168.026 48.4844 169.875 43.5067C171.795 38.5289 174.639 34.6533 178.408 31.88C182.248 29.1067 187.013 27.72 192.702 27.72C196.897 27.72 200.311 28.4667 202.942 29.96C205.644 31.4533 207.777 33.48 209.342 36.04H211.902V7.66666H229.182V93H213.182V84.68H210.622C209.128 87.3822 206.959 89.6578 204.115 91.5067C201.271 93.3556 197.466 94.28 192.702 94.28ZM197.608 82.12C201.946 82.12 205.395 80.2356 207.955 76.4667C210.586 72.6267 211.902 67.4711 211.902 61C211.902 54.4578 210.586 49.3022 207.955 45.5333C205.395 41.7644 201.946 39.88 197.608 39.88C193.697 39.88 190.604 41.6578 188.328 45.2133C186.124 48.6978 185.022 53.96 185.022 61C185.022 68.04 186.124 73.3378 188.328 76.8933C190.604 80.3778 193.697 82.12 197.608 82.12ZM232.193 93V29H249.473V93H232.193ZM240.833 21.64C237.776 21.64 235.464 20.8578 233.9 19.2933C232.336 17.6578 231.553 15.56 231.553 13C231.553 10.44 232.336 8.37777 233.9 6.81333C235.464 5.17778 237.776 4.36 240.833 4.36C243.891 4.36 246.202 5.17778 247.767 6.81333C249.331 8.37777 250.113 10.44 250.113 13C250.113 15.56 249.331 17.6578 247.767 19.2933C246.202 20.8578 243.891 21.64 240.833 21.64ZM252.518 93V29H268.518V38.6H271.078C272.358 35.4 274.314 32.7333 276.945 30.6C279.647 28.4667 283.594 27.4 288.785 27.4C295.896 27.4 301.229 29.64 304.785 34.12C308.341 38.6 310.118 44.68 310.118 52.36V93H292.838V55.24C292.838 50.8311 292.056 47.4533 290.492 45.1067C288.927 42.6889 286.367 41.48 282.812 41.48C278.687 41.48 275.487 43.1156 273.212 46.3867C270.936 49.5867 269.798 53.6044 269.798 58.44V93H252.518ZM339.312 115.933C333.338 115.933 328.503 115.187 324.805 113.693C321.178 112.271 318.369 110.458 316.378 108.253C314.458 106.049 313.107 103.809 312.325 101.533C311.543 99.2578 311.081 97.2667 310.938 95.56H327.792C328.147 97.6222 329.143 99.5067 330.778 101.213C332.414 102.92 335.187 103.773 339.098 103.773C343.507 103.773 346.814 102.458 349.018 99.8267C351.223 97.2667 352.325 93.6044 352.325 88.84V81.2667H349.765C348.769 84.3244 346.921 86.7422 344.218 88.52C341.516 90.2267 337.961 91.08 333.552 91.08C325.232 91.08 318.867 88.2 314.458 82.44C310.121 76.6089 307.952 68.8578 307.952 59.1867C307.952 53 308.912 47.5244 310.832 42.76C312.752 37.9244 315.632 34.1556 319.472 31.4533C323.312 28.7511 328.112 27.4 333.872 27.4C338.281 27.4 341.801 28.2533 344.432 29.96C347.134 31.5956 349.125 33.8356 350.405 36.68H352.965V29H368.965V88.2C368.965 97.0178 366.547 103.844 361.712 108.68C356.876 113.516 349.409 115.933 339.312 115.933ZM338.245 78.92C342.441 78.92 345.712 77.1422 348.058 73.5867C350.476 70.0311 351.685 65.2311 351.685 59.1867C351.685 53.1422 350.476 48.3778 348.058 44.8933C345.712 41.3378 342.441 39.56 338.245 39.56C334.334 39.56 331.205 41.1956 328.858 44.4667C326.583 47.7378 325.445 52.6444 325.445 59.1867C325.445 65.8711 326.583 70.8489 328.858 74.12C331.205 77.32 334.334 78.92 338.245 78.92Z" fill="#1C1C1C"/>
<path d="M4.10667 93H0.106667V97H4.10667V93ZM4.10667 9.8V5.8H0.106667V9.8H4.10667ZM22.0267 9.8H26.0267V5.8H22.0267V9.8ZM22.0267 78.92H18.0267V82.92H22.0267V78.92ZM56.8 78.92H60.8V74.92H56.8V78.92ZM56.8 93V97H60.8V93H56.8ZM8.10667 93V9.8H0.106667V93H8.10667ZM4.10667 13.8H22.0267V5.8H4.10667V13.8ZM18.0267 9.8V78.92H26.0267V9.8H18.0267ZM22.0267 82.92H56.8V74.92H22.0267V82.92ZM52.8 78.92V93H60.8V78.92H52.8ZM56.8 89H4.10667V97H56.8V89ZM56.4883 85.5333L53.4388 88.1219L53.455 88.1409L53.4714 88.1598L56.4883 85.5333ZM56.4883 36.5733L53.4563 33.9644L53.4538 33.9672L56.4883 36.5733ZM103.955 36.5733L100.905 39.1619L100.922 39.1809L100.938 39.1998L103.955 36.5733ZM103.955 85.5333L100.923 82.9244L100.92 82.9272L103.955 85.5333ZM90.6217 44.4667L87.1859 46.5149L87.1947 46.5297L87.2036 46.5443L90.6217 44.4667ZM69.9283 44.4667L73.3464 46.5443L73.3553 46.5297L73.3641 46.5149L69.9283 44.4667ZM69.9283 77.5333L73.3641 75.4851L73.3641 75.4851L69.9283 77.5333ZM80.275 90.6C70.4415 90.6 63.7821 87.8194 59.5052 82.9069L53.4714 88.1598C59.7191 95.3361 68.9174 98.6 80.275 98.6V90.6ZM59.5378 82.9448C55.1142 77.7334 52.7017 70.5603 52.7017 61H44.7017C44.7017 71.9197 47.4802 81.1021 53.4388 88.1219L59.5378 82.9448ZM52.7017 61C52.7017 51.4371 55.1152 44.3116 59.5228 39.1794L53.4538 33.9672C47.4793 40.9239 44.7017 50.0829 44.7017 61H52.7017ZM59.5204 39.1823C63.8014 34.207 70.456 31.4 80.275 31.4V23.4C68.9029 23.4 59.6997 26.7085 53.4563 33.9644L59.5204 39.1823ZM80.275 31.4C90.0973 31.4 96.7005 34.208 100.905 39.1619L107.005 33.9848C100.827 26.7075 91.6438 23.4 80.275 23.4V31.4ZM100.938 39.1998C105.406 44.3322 107.848 51.45 107.848 61H115.848C115.848 50.07 113.028 40.9034 106.972 33.9469L100.938 39.1998ZM107.848 61C107.848 70.5475 105.407 77.713 100.923 82.9244L106.987 88.1423C113.027 81.1226 115.848 71.9325 115.848 61H107.848ZM100.92 82.9272C96.7199 87.8184 90.112 90.6 80.275 90.6V98.6C91.6291 98.6 100.808 95.3372 106.99 88.1394L100.92 82.9272ZM80.275 87.08C86.2239 87.08 91.0562 84.616 94.0575 79.5816L87.1859 75.4851C85.7783 77.8462 83.7128 79.08 80.275 79.08V87.08ZM94.0575 79.5816C96.8096 74.9651 97.9283 68.5556 97.9283 60.8933H89.9283C89.9283 68.0221 88.8426 72.706 87.1859 75.4851L94.0575 79.5816ZM97.9283 60.8933C97.9283 53.3028 96.8103 46.947 94.0398 42.389L87.2036 46.5443C88.8419 49.2396 89.9283 53.835 89.9283 60.8933H97.9283ZM94.0575 42.4184C91.0562 37.384 86.2239 34.92 80.275 34.92V42.92C83.7128 42.92 85.7783 44.1538 87.1859 46.5149L94.0575 42.4184ZM80.275 34.92C74.3261 34.92 69.4938 37.384 66.4925 42.4184L73.3641 46.5149C74.7717 44.1538 76.8372 42.92 80.275 42.92V34.92ZM66.5102 42.389C63.7397 46.947 62.6217 53.3028 62.6217 60.8933H70.6217C70.6217 53.835 71.7081 49.2396 73.3464 46.5443L66.5102 42.389ZM62.6217 60.8933C62.6217 68.5556 63.7404 74.9651 66.4925 79.5816L73.3641 75.4851C71.7074 72.706 70.6217 68.0221 70.6217 60.8933H62.6217ZM66.4925 79.5816C69.4939 84.616 74.3261 87.08 80.275 87.08V79.08C76.8372 79.08 74.7717 77.8462 73.3641 75.4851L66.4925 79.5816ZM117.583 90.0133L115.164 93.1991L115.183 93.2135L115.202 93.2276L117.583 90.0133ZM109.05 78.0667L105.294 79.4421L105.294 79.4421L109.05 78.0667ZM109.05 43.5067L105.318 42.0672L105.309 42.0905L105.3 42.1139L109.05 43.5067ZM117.69 31.88L115.348 28.6373L115.348 28.6373L117.69 31.88ZM143.183 30.3867L141.063 33.7787L141.113 33.8094L141.163 33.8387L143.183 30.3867ZM149.797 37.32L146.236 39.1435L147.351 41.32H149.797V37.32ZM152.357 37.32V41.32H156.357V37.32H152.357ZM152.357 29V25H148.357V29H152.357ZM168.357 29H172.357V25H168.357V29ZM168.357 93V97H172.357V93H168.357ZM152.357 93H148.357V97H152.357V93ZM152.357 84.68H156.357V80.68H152.357V84.68ZM149.797 84.68V80.68H147.437L146.296 82.7453L149.797 84.68ZM143.29 91.5067L141.11 88.1529L141.11 88.1529L143.29 91.5067ZM147.13 76.4667L143.83 74.2057L143.826 74.2124L143.821 74.2191L147.13 76.4667ZM147.13 45.5333L143.821 47.7809L143.836 47.802L143.85 47.823L147.13 45.5333ZM127.503 45.2133L124.134 43.0571L124.129 43.0659L124.123 43.0748L127.503 45.2133ZM127.503 76.8933L124.104 79.0011L124.129 79.0411L124.154 79.0805L127.503 76.8933ZM132.303 90.28C126.97 90.28 122.959 89.0175 119.964 86.7991L115.202 93.2276C119.888 96.698 125.69 98.28 132.303 98.28V90.28ZM120.002 86.8275C116.841 84.4272 114.423 81.1067 112.806 76.6912L105.294 79.4421C107.375 85.1244 110.646 89.7684 115.164 93.1991L120.002 86.8275ZM112.806 76.6912C111.146 72.1579 110.277 66.9112 110.277 60.8933H102.277C102.277 67.6755 103.256 73.8777 105.294 79.4421L112.806 76.6912ZM110.277 60.8933C110.277 54.6432 111.151 49.3372 112.8 44.8994L105.3 42.1139C103.251 47.6317 102.277 53.9168 102.277 60.8933H110.277ZM112.782 44.9462C114.459 40.5971 116.897 37.3866 120.032 35.1227L115.348 28.6373C110.803 31.9201 107.481 36.4606 105.318 42.0672L112.782 44.9462ZM120.032 35.1227C123.046 32.9458 127.009 31.72 132.197 31.72V23.72C125.722 23.72 120.014 25.2675 115.348 28.6373L120.032 35.1227ZM132.197 31.72C136.172 31.72 139.034 32.5106 141.063 33.7787L145.303 26.9947C141.643 24.7072 137.181 23.72 132.197 23.72V31.72ZM141.163 33.8387C143.442 35.173 145.102 36.9285 146.236 39.1435L153.357 35.4965C151.505 31.8804 148.756 29.0136 145.204 26.9346L141.163 33.8387ZM149.797 41.32H152.357V33.32H149.797V41.32ZM156.357 37.32V29H148.357V37.32H156.357ZM152.357 33H168.357V25H152.357V33ZM164.357 29V93H172.357V29H164.357ZM168.357 89H152.357V97H168.357V89ZM156.357 93V84.68H148.357V93H156.357ZM152.357 80.68H149.797V88.68H152.357V80.68ZM146.296 82.7453C145.15 84.818 143.46 86.6255 141.11 88.1529L145.47 94.8604C148.809 92.6901 151.456 89.9464 153.298 86.6147L146.296 82.7453ZM141.11 88.1529C139.092 89.4646 136.253 90.28 132.303 90.28V98.28C137.314 98.28 141.799 97.2466 145.47 94.8604L141.11 88.1529ZM136.783 86.12C142.524 86.12 147.179 83.5136 150.439 78.7142L143.821 74.2191C141.961 76.9575 139.718 78.12 136.783 78.12V86.12ZM150.43 78.7276C153.663 74.0082 155.077 67.9732 155.077 61H147.077C147.077 66.969 145.859 71.2451 143.83 74.2057L150.43 78.7276ZM155.077 61C155.077 53.9723 153.67 47.9136 150.41 43.2436L143.85 47.823C145.852 50.6909 147.077 54.9432 147.077 61H155.077ZM150.439 43.2858C147.179 38.4864 142.524 35.88 136.783 35.88V43.88C139.718 43.88 141.961 45.0425 143.821 47.7809L150.439 43.2858ZM136.783 35.88C131.384 35.88 127.075 38.4617 124.134 43.0571L130.872 47.3695C132.482 44.8539 134.361 43.88 136.783 43.88V35.88ZM124.123 43.0748C121.319 47.5071 120.197 53.6768 120.197 61H128.197C128.197 54.2432 129.279 49.8885 130.884 47.3519L124.123 43.0748ZM120.197 61C120.197 68.3328 121.322 74.5151 124.104 79.0011L130.903 74.7856C129.275 72.1605 128.197 67.7472 128.197 61H120.197ZM124.154 79.0805C127.112 83.6093 131.421 86.12 136.783 86.12V78.12C134.323 78.12 132.446 77.1462 130.852 74.7062L124.154 79.0805ZM178.302 90.0133L175.854 93.1772L175.873 93.1917L175.892 93.2061L178.302 90.0133ZM169.875 78.0667L166.119 79.4421L166.119 79.4421L169.875 78.0667ZM169.875 43.5067L166.143 42.0672L166.134 42.0905L166.125 42.1139L169.875 43.5067ZM178.408 31.88L176.066 28.6373L176.052 28.6477L176.038 28.6582L178.408 31.88ZM202.942 29.96L200.967 33.4387L200.987 33.45L201.007 33.461L202.942 29.96ZM209.342 36.04L205.929 38.1258L207.098 40.04H209.342V36.04ZM211.902 36.04V40.04H215.902V36.04H211.902ZM211.902 7.66666V3.66666H207.902V7.66666H211.902ZM229.182 7.66666H233.182V3.66666H229.182V7.66666ZM229.182 93V97H233.182V93H229.182ZM213.182 93H209.182V97H213.182V93ZM213.182 84.68H217.182V80.68H213.182V84.68ZM210.622 84.68V80.68H208.262L207.121 82.7453L210.622 84.68ZM204.115 91.5067L201.935 88.1529L201.935 88.1529L204.115 91.5067ZM207.955 76.4667L204.655 74.2057L204.651 74.2124L204.646 74.2191L207.955 76.4667ZM207.955 45.5333L204.646 47.7809L204.661 47.802L204.675 47.823L207.955 45.5333ZM188.328 45.2133L184.959 43.0571L184.954 43.0659L184.948 43.0748L188.328 45.2133ZM188.328 76.8933L184.929 79.0011L184.954 79.0411L184.979 79.0805L188.328 76.8933ZM192.702 90.28C187.532 90.28 183.636 89.0282 180.711 86.8206L175.892 93.2061C180.505 96.6874 186.209 98.28 192.702 98.28V90.28ZM180.749 86.8495C177.65 84.4522 175.255 81.126 173.631 76.6912L166.119 79.4421C168.193 85.1051 171.415 89.7433 175.854 93.1772L180.749 86.8495ZM173.631 76.6912C171.971 72.1579 171.102 66.9112 171.102 60.8933H163.102C163.102 67.6755 164.081 73.8777 166.119 79.4421L173.631 76.6912ZM171.102 60.8933C171.102 54.6432 171.976 49.3372 173.625 44.8994L166.125 42.1139C164.076 47.6317 163.102 53.9168 163.102 60.8933H171.102ZM173.607 44.9462C175.292 40.5777 177.707 37.362 180.779 35.1017L176.038 28.6582C171.572 31.9446 168.298 36.48 166.143 42.0672L173.607 44.9462ZM180.75 35.1227C183.781 32.9341 187.681 31.72 192.702 31.72V23.72C186.345 23.72 180.716 25.2792 176.066 28.6373L180.75 35.1227ZM192.702 31.72C196.46 31.72 199.127 32.394 200.967 33.4387L204.916 26.4813C201.495 24.5393 197.335 23.72 192.702 23.72V31.72ZM201.007 33.461C203.12 34.6289 204.737 36.1755 205.929 38.1258L212.755 33.9542C210.818 30.7845 208.167 28.2777 204.876 26.459L201.007 33.461ZM209.342 40.04H211.902V32.04H209.342V40.04ZM215.902 36.04V7.66666H207.902V36.04H215.902ZM211.902 11.6667H229.182V3.66666H211.902V11.6667ZM225.182 7.66666V93H233.182V7.66666H225.182ZM229.182 89H213.182V97H229.182V89ZM217.182 93V84.68H209.182V93H217.182ZM213.182 80.68H210.622V88.68H213.182V80.68ZM207.121 82.7453C205.975 84.818 204.285 86.6255 201.935 88.1529L206.295 94.8604C209.634 92.6901 212.281 89.9464 214.123 86.6147L207.121 82.7453ZM201.935 88.1529C199.952 89.4418 196.993 90.28 192.702 90.28V98.28C197.94 98.28 202.589 97.2694 206.295 94.8604L201.935 88.1529ZM197.608 86.12C203.349 86.12 208.004 83.5136 211.264 78.7142L204.646 74.2191C202.786 76.9575 200.543 78.12 197.608 78.12V86.12ZM211.255 78.7276C214.488 74.0082 215.902 67.9732 215.902 61H207.902C207.902 66.969 206.684 71.2451 204.655 74.2057L211.255 78.7276ZM215.902 61C215.902 53.9723 214.495 47.9136 211.235 43.2436L204.675 47.823C206.677 50.6909 207.902 54.9432 207.902 61H215.902ZM211.264 43.2858C208.004 38.4864 203.349 35.88 197.608 35.88V43.88C200.543 43.88 202.786 45.0425 204.646 47.7809L211.264 43.2858ZM197.608 35.88C192.209 35.88 187.9 38.4617 184.959 43.0571L191.697 47.3695C193.307 44.8539 195.186 43.88 197.608 43.88V35.88ZM184.948 43.0748C182.144 47.5071 181.022 53.6768 181.022 61H189.022C189.022 54.2432 190.104 49.8885 191.709 47.3519L184.948 43.0748ZM181.022 61C181.022 68.3328 182.147 74.5151 184.929 79.0011L191.728 74.7856C190.1 72.1605 189.022 67.7472 189.022 61H181.022ZM184.979 79.0805C187.937 83.6093 192.246 86.12 197.608 86.12V78.12C195.148 78.12 193.271 77.1462 191.677 74.7062L184.979 79.0805ZM232.193 93H228.193V97H232.193V93ZM232.193 29V25H228.193V29H232.193ZM249.473 29H253.473V25H249.473V29ZM249.473 93V97H253.473V93H249.473ZM233.9 19.2933L231.009 22.0582L231.04 22.0903L231.072 22.1218L233.9 19.2933ZM233.9 6.81333L236.728 9.64176L236.76 9.61034L236.791 9.57822L233.9 6.81333ZM247.767 6.81333L244.876 9.57822L244.907 9.61034L244.938 9.64176L247.767 6.81333ZM247.767 19.2933L250.595 22.1218L250.627 22.0903L250.657 22.0582L247.767 19.2933ZM236.193 93V29H228.193V93H236.193ZM232.193 33H249.473V25H232.193V33ZM245.473 29V93H253.473V29H245.473ZM249.473 89H232.193V97H249.473V89ZM240.833 17.64C238.423 17.64 237.294 17.0303 236.728 16.4649L231.072 22.1218C233.635 24.6853 237.128 25.64 240.833 25.64V17.64ZM236.791 16.5284C236.033 15.7366 235.553 14.6761 235.553 13H227.553C227.553 16.4439 228.638 19.5789 231.009 22.0582L236.791 16.5284ZM235.553 13C235.553 11.3205 236.033 10.3375 236.728 9.64176L231.072 3.9849C228.638 6.41808 227.553 9.55952 227.553 13H235.553ZM236.791 9.57822C237.364 8.97852 238.47 8.36 240.833 8.36V0.360001C237.081 0.360001 233.565 1.37704 231.009 4.04844L236.791 9.57822ZM240.833 8.36C243.196 8.36 244.302 8.97852 244.876 9.57822L250.657 4.04844C248.102 1.37704 244.586 0.360001 240.833 0.360001V8.36ZM244.938 9.64176C245.634 10.3375 246.113 11.3205 246.113 13H254.113C254.113 9.55952 253.028 6.41809 250.595 3.9849L244.938 9.64176ZM246.113 13C246.113 14.6761 245.634 15.7366 244.876 16.5284L250.657 22.0582C253.029 19.5789 254.113 16.4439 254.113 13H246.113ZM244.938 16.4649C244.373 17.0303 243.244 17.64 240.833 17.64V25.64C244.539 25.64 248.032 24.6853 250.595 22.1218L244.938 16.4649ZM252.518 93H248.518V97H252.518V93ZM252.518 29V25H248.518V29H252.518ZM268.518 29H272.518V25H268.518V29ZM268.518 38.6H264.518V42.6H268.518V38.6ZM271.078 38.6V42.6H273.786L274.792 40.0856L271.078 38.6ZM276.945 30.6L274.466 27.4605L274.446 27.4766L274.426 27.493L276.945 30.6ZM304.785 34.12L307.918 31.6334L307.918 31.6334L304.785 34.12ZM310.118 93V97H314.118V93H310.118ZM292.838 93H288.838V97H292.838V93ZM290.492 45.1067L287.133 47.2797L287.148 47.3027L287.163 47.3255L290.492 45.1067ZM273.212 46.3867L276.471 48.7048L276.483 48.6879L276.495 48.6709L273.212 46.3867ZM269.798 93V97H273.798V93H269.798ZM256.518 93V29H248.518V93H256.518ZM252.518 33H268.518V25H252.518V33ZM264.518 29V38.6H272.518V29H264.518ZM268.518 42.6H271.078V34.6H268.518V42.6ZM274.792 40.0856C275.823 37.5075 277.373 35.4028 279.464 33.707L274.426 27.493C271.255 30.0638 268.893 33.2925 267.364 37.1144L274.792 40.0856ZM279.424 33.7395C281.141 32.384 284.057 31.4 288.785 31.4V23.4C283.13 23.4 278.154 24.5493 274.466 27.4605L279.424 33.7395ZM288.785 31.4C295.002 31.4 299.037 33.3123 301.652 36.6066L307.918 31.6334C303.422 25.9677 296.79 23.4 288.785 23.4V31.4ZM301.652 36.6066C304.48 40.1705 306.118 45.2742 306.118 52.36H314.118C314.118 44.0858 312.201 37.0295 307.918 31.6334L301.652 36.6066ZM306.118 52.36V93H314.118V52.36H306.118ZM310.118 89H292.838V97H310.118V89ZM296.838 93V55.24H288.838V93H296.838ZM296.838 55.24C296.838 50.4519 296.005 46.1656 293.82 42.8879L287.163 47.3255C288.107 48.741 288.838 51.2103 288.838 55.24H296.838ZM293.85 42.9337C291.37 39.1012 287.36 37.48 282.812 37.48V45.48C285.375 45.48 286.484 46.2765 287.133 47.2797L293.85 42.9337ZM282.812 37.48C277.432 37.48 272.982 39.7123 269.928 44.1024L276.495 48.6709C277.992 46.5188 279.942 45.48 282.812 45.48V37.48ZM269.952 44.0686C267.093 48.0889 265.798 52.9686 265.798 58.44H273.798C273.798 54.2403 274.779 51.0845 276.471 48.7048L269.952 44.0686ZM265.798 58.44V93H273.798V58.44H265.798ZM269.798 89H252.518V97H269.798V89ZM324.805 113.693L326.303 109.984L326.284 109.977L326.265 109.969L324.805 113.693ZM316.378 108.253L313.362 110.88L313.386 110.908L313.41 110.934L316.378 108.253ZM312.325 101.533L308.542 102.834L308.542 102.834L312.325 101.533ZM310.938 95.56V91.56H306.591L306.952 95.8922L310.938 95.56ZM327.792 95.56L331.734 94.8804L331.161 91.56H327.792V95.56ZM330.778 101.213L333.666 98.4457L333.666 98.4457L330.778 101.213ZM349.018 99.8267L345.987 97.2166L345.97 97.2371L345.952 97.2578L349.018 99.8267ZM352.325 81.2667H356.325V77.2667H352.325V81.2667ZM349.765 81.2667V77.2667H346.861L345.962 80.0283L349.765 81.2667ZM344.218 88.52L346.354 91.902L346.386 91.8821L346.417 91.8617L344.218 88.52ZM314.458 82.44L311.249 84.8275L311.265 84.8495L311.282 84.8713L314.458 82.44ZM310.832 42.76L314.542 44.2551L314.546 44.2456L314.549 44.2361L310.832 42.76ZM319.472 31.4533L317.17 28.1821L317.17 28.1821L319.472 31.4533ZM344.432 29.96L342.255 33.3158L342.307 33.3497L342.36 33.382L344.432 29.96ZM350.405 36.68L346.757 38.3215L347.819 40.68H350.405V36.68ZM352.965 36.68V40.68H356.965V36.68H352.965ZM352.965 29V25H348.965V29H352.965ZM368.965 29H372.965V25H368.965V29ZM361.712 108.68L364.54 111.508L364.54 111.508L361.712 108.68ZM348.058 73.5867L344.751 71.3374L344.735 71.3603L344.72 71.3833L348.058 73.5867ZM348.058 44.8933L344.72 47.0967L344.746 47.1355L344.772 47.1737L348.058 44.8933ZM328.858 44.4667L325.608 42.135L325.591 42.1586L325.575 42.1824L328.858 44.4667ZM328.858 74.12L325.575 76.4043L325.603 76.4452L325.633 76.4855L328.858 74.12ZM339.312 111.933C333.62 111.933 329.349 111.215 326.303 109.984L323.307 117.402C327.656 119.159 333.056 119.933 339.312 119.933V111.933ZM326.265 109.969C323.043 108.706 320.814 107.197 319.347 105.572L313.41 110.934C315.925 113.719 319.314 115.837 323.345 117.417L326.265 109.969ZM319.395 105.626C317.742 103.729 316.691 101.928 316.108 100.233L308.542 102.834C309.524 105.689 311.174 108.369 313.362 110.88L319.395 105.626ZM316.108 100.233C315.393 98.1549 315.031 96.5017 314.925 95.2278L306.952 95.8922C307.13 98.0317 307.692 100.361 308.542 102.834L316.108 100.233ZM310.938 99.56H327.792V91.56H310.938V99.56ZM323.85 96.2396C324.358 99.1864 325.777 101.776 327.89 103.981L333.666 98.4457C332.508 97.2373 331.937 96.058 331.734 94.8804L323.85 96.2396ZM327.89 103.981C330.649 106.859 334.778 107.773 339.098 107.773V99.7733C335.596 99.7733 334.179 98.9809 333.666 98.4457L327.89 103.981ZM339.098 107.773C344.328 107.773 348.914 106.179 352.084 102.396L345.952 97.2578C344.713 98.7363 342.687 99.7733 339.098 99.7733V107.773ZM352.049 102.437C355.093 98.9021 356.325 94.1731 356.325 88.84H348.325C348.325 93.0357 347.352 95.6313 345.987 97.2166L352.049 102.437ZM356.325 88.84V81.2667H348.325V88.84H356.325ZM352.325 77.2667H349.765V85.2667H352.325V77.2667ZM345.962 80.0283C345.249 82.2177 343.969 83.8961 342.02 85.1783L346.417 91.8617C349.872 89.5883 352.29 86.4311 353.568 82.505L345.962 80.0283ZM342.082 85.138C340.219 86.3152 337.481 87.08 333.552 87.08V95.08C338.44 95.08 342.814 94.1381 346.354 91.902L342.082 85.138ZM333.552 87.08C326.269 87.08 321.169 84.6258 317.635 80.0087L311.282 84.8713C316.566 91.7742 324.194 95.08 333.552 95.08V87.08ZM317.668 80.0525C313.99 75.1081 311.952 68.2801 311.952 59.1867H303.952C303.952 69.4355 306.252 78.1097 311.249 84.8275L317.668 80.0525ZM311.952 59.1867C311.952 53.4101 312.848 48.458 314.542 44.2551L307.122 41.2649C304.975 46.5909 303.952 52.5899 303.952 59.1867H311.952ZM314.549 44.2361C316.214 40.0429 318.638 36.9312 321.774 34.7246L317.17 28.1821C312.625 31.3799 309.289 35.806 307.114 41.2839L314.549 44.2361ZM321.774 34.7246C324.8 32.595 328.746 31.4 333.872 31.4V23.4C327.477 23.4 321.824 24.9072 317.17 28.1821L321.774 34.7246ZM333.872 31.4C337.809 31.4 340.485 32.1678 342.255 33.3158L346.608 26.6042C343.116 24.3389 338.752 23.4 333.872 23.4V31.4ZM342.36 33.382C344.378 34.6033 345.815 36.2266 346.757 38.3215L354.053 35.0385C352.435 31.4445 349.89 28.5878 346.503 26.538L342.36 33.382ZM350.405 40.68H352.965V32.68H350.405V40.68ZM356.965 36.68V29H348.965V36.68H356.965ZM352.965 33H368.965V25H352.965V33ZM364.965 29V88.2H372.965V29H364.965ZM364.965 88.2C364.965 96.2779 362.769 101.966 358.883 105.852L364.54 111.508C370.326 105.723 372.965 97.7577 372.965 88.2H364.965ZM358.883 105.852C355.091 109.644 348.851 111.933 339.312 111.933V119.933C349.968 119.933 358.661 117.387 364.54 111.508L358.883 105.852ZM338.245 82.92C343.809 82.92 348.324 80.4464 351.397 75.79L344.72 71.3833C343.1 73.838 341.072 74.92 338.245 74.92V82.92ZM351.366 75.8359C354.384 71.3979 355.685 65.7196 355.685 59.1867H347.685C347.685 64.7426 346.568 68.6643 344.751 71.3374L351.366 75.8359ZM355.685 59.1867C355.685 52.6602 354.386 46.9966 351.345 42.613L344.772 47.1737C346.566 49.7589 347.685 53.6243 347.685 59.1867H355.685ZM351.397 42.69C348.324 38.0336 343.809 35.56 338.245 35.56V43.56C341.072 43.56 343.1 44.642 344.72 47.0967L351.397 42.69ZM338.245 35.56C333.001 35.56 328.68 37.853 325.608 42.135L332.109 46.7983C333.73 44.5381 335.667 43.56 338.245 43.56V35.56ZM325.575 42.1824C322.62 46.4303 321.445 52.3039 321.445 59.1867H329.445C329.445 52.985 330.546 49.0453 332.142 46.7509L325.575 42.1824ZM321.445 59.1867C321.445 66.1898 322.612 72.1456 325.575 76.4043L332.142 71.8357C330.553 69.5522 329.445 65.5524 329.445 59.1867H321.445ZM325.633 76.4855C328.72 80.6952 333.038 82.92 338.245 82.92V74.92C335.63 74.92 333.69 73.9448 332.084 71.7545L325.633 76.4855Z" fill="white" fill-opacity="0.58" mask="url(#path-1-outside-1_14_4)"/>
</g>
<defs>
<filter id="filter0_f_14_4" x="0.106689" y="0.360001" width="372.858" height="119.573" filterUnits="userSpaceOnUse" color-interpolation-filters="sRGB">
<feFlood flood-opacity="0" result="BackgroundImageFix"/>
<feBlend mode="normal" in="SourceGraphic" in2="BackgroundImageFix" result="shape"/>
<feGaussianBlur stdDeviation="2" result="effect1_foregroundBlur_14_4"/>
</filter>
</defs>
</svg>
