<svg width="621" height="621" viewBox="0 0 621 621" fill="none" xmlns="http://www.w3.org/2000/svg">
<path d="M620.122 310.276C620.122 481.484 481.33 620.276 310.122 620.276C138.913 620.276 0.121582 481.484 0.121582 310.276C0.121582 139.067 138.913 0.275658 310.122 0.275658C481.33 0.275658 620.122 139.067 620.122 310.276Z" fill="white"/>
<path d="M581.056 344.078L604.267 347.045L603.628 352.044L584.345 349.579L583.105 359.28L579.177 358.778L581.056 344.078Z" fill="black"/>
<path d="M576.723 367.526C577.281 364.599 578.534 362.568 580.481 361.432C582.444 360.321 584.84 360.034 587.669 360.574C590.498 361.114 592.611 362.26 594.008 364.012C595.42 365.788 595.847 368.14 595.288 371.067C594.73 373.995 593.469 376.014 591.506 377.126C589.559 378.261 587.171 378.559 584.342 378.019C581.513 377.48 579.392 376.322 577.98 374.546C576.584 372.793 576.165 370.453 576.723 367.526ZM579.906 368.133C579.658 369.43 579.987 370.48 580.893 371.284C581.798 372.088 583.273 372.685 585.316 373.074C587.339 373.46 588.91 373.444 590.028 373.026C591.166 372.612 591.858 371.757 592.106 370.46C592.353 369.164 592.024 368.113 591.119 367.31C590.233 366.509 588.778 365.916 586.755 365.53C584.711 365.141 583.121 365.153 581.983 365.567C580.846 365.981 580.153 366.837 579.906 368.133Z" fill="black"/>
<path d="M573.017 382.935C573.438 381.308 574.171 380.073 575.216 379.228C576.281 378.387 577.565 377.894 579.07 377.746C580.575 377.598 582.199 377.75 583.942 378.201C585.742 378.667 587.255 379.327 588.48 380.181C589.7 381.055 590.553 382.112 591.037 383.353C591.522 384.594 591.559 386.008 591.148 387.596C590.832 388.816 590.332 389.75 589.647 390.4C588.977 391.073 588.193 391.511 587.294 391.712L587.113 392.409L589.378 392.995L588.251 397.352L570.825 392.842L571.953 388.485L574.218 389.071L574.398 388.374C573.768 387.777 573.301 387.026 572.998 386.122C572.695 385.217 572.702 384.155 573.017 382.935ZM576.012 385.011C575.707 386.193 575.977 387.264 576.823 388.227C577.683 389.214 578.994 389.936 580.756 390.392C582.537 390.853 584.034 390.858 585.245 390.407C586.452 389.975 587.208 389.169 587.513 387.988C587.789 386.923 587.523 385.956 586.715 385.086C585.922 384.24 584.567 383.569 582.65 383.073C580.733 382.577 579.213 382.503 578.089 382.853C576.98 383.227 576.288 383.947 576.012 385.011Z" fill="black"/>
<path d="M567.548 400.429C568.066 398.873 568.872 397.719 569.966 396.966C571.079 396.219 572.391 395.823 573.903 395.778C575.414 395.733 577.024 395.995 578.732 396.564C580.497 397.151 581.961 397.913 583.125 398.848C584.283 399.803 585.064 400.906 585.47 402.158C585.869 403.429 585.815 404.824 585.31 406.342C584.937 407.462 584.435 408.306 583.803 408.876C583.164 409.464 582.434 409.853 581.612 410.043L581.384 410.727L588.956 413.247L587.421 417.858L564.649 410.278L566.07 406.008L568.291 406.747L568.518 406.064C567.93 405.426 567.515 404.645 567.274 403.721C567.034 402.798 567.125 401.701 567.548 400.429ZM570.357 402.819C569.972 403.976 570.168 405.064 570.947 406.082C571.738 407.125 572.997 407.934 574.724 408.509C576.469 409.09 577.962 409.197 579.201 408.83C580.435 408.482 581.244 407.729 581.629 406.571C581.977 405.528 581.777 404.544 581.03 403.621C580.296 402.723 578.99 401.962 577.111 401.336C575.233 400.711 573.721 400.534 572.576 400.807C571.444 401.105 570.705 401.775 570.357 402.819Z" fill="black"/>
<path d="M563.415 412.335L580.122 419.036L578.312 423.546L561.606 416.846L563.415 412.335ZM581.138 422.062C581.458 421.263 581.905 420.742 582.477 420.497C583.068 420.26 583.697 420.276 584.365 420.544C585.034 420.812 585.49 421.232 585.735 421.804C585.998 422.384 585.969 423.073 585.649 423.871C585.329 424.669 584.873 425.187 584.283 425.424C583.71 425.668 583.09 425.657 582.422 425.389C581.754 425.121 581.288 424.697 581.025 424.117C580.78 423.545 580.818 422.86 581.138 422.062Z" fill="black"/>
<path d="M560.005 420.425L576.422 427.806L574.577 431.91L572.114 430.803L571.819 431.46C572.492 432.157 572.951 432.966 573.195 433.887C573.43 434.827 573.249 435.962 572.65 437.294C571.83 439.118 570.64 440.227 569.081 440.623C567.522 441.018 565.757 440.773 563.787 439.887L553.362 435.2L555.355 430.768L565.041 435.123C566.172 435.631 567.129 435.82 567.911 435.689C568.712 435.567 569.317 435.05 569.727 434.137C570.203 433.079 570.152 432.07 569.576 431.109C569.017 430.156 568.118 429.401 566.877 428.843L558.012 424.858L560.005 420.425Z" fill="black"/>
<path d="M542.755 440.643C543.545 439.16 544.37 438.058 545.229 437.338C546.062 436.625 546.883 436.168 547.694 435.965C548.495 435.78 549.229 435.74 549.898 435.847C550.566 435.954 551.121 436.102 551.564 436.293L549.336 440.476C548.777 440.292 548.177 440.29 547.538 440.47C546.898 440.651 546.319 441.226 545.802 442.197C545.219 443.292 545.109 444.287 545.471 445.182C545.815 446.067 546.578 446.825 547.761 447.455L549.641 448.456L549.979 447.821C549.352 447.169 548.996 446.391 548.912 445.485C548.846 444.588 549.104 443.593 549.687 442.498C550.786 440.433 552.343 439.234 554.355 438.901C556.376 438.595 558.587 439.081 560.988 440.359C562.524 441.177 563.756 442.139 564.685 443.246C565.632 444.362 566.187 445.575 566.35 446.885C566.513 448.196 566.214 449.566 565.453 450.996C564.87 452.091 564.193 452.852 563.421 453.279C562.658 453.734 561.839 453.932 560.963 453.874L560.625 454.509L562.531 455.524L560.416 459.496L545.72 451.67C543.531 450.505 542.156 449.002 541.595 447.162C541.034 445.323 541.421 443.15 542.755 440.643ZM552.085 445.271C551.53 446.313 551.539 447.36 552.112 448.412C552.675 449.482 553.706 450.417 555.207 451.216C556.707 452.015 558.05 452.345 559.234 452.205C560.427 452.093 561.301 451.516 561.856 450.474C562.373 449.503 562.38 448.51 561.879 447.495C561.367 446.498 560.3 445.567 558.676 444.702C557.016 443.818 555.63 443.443 554.517 443.575C553.413 443.735 552.602 444.3 552.085 445.271Z" fill="black"/>
<path d="M507.211 499.181L524.055 515.424L520.557 519.052L506.563 505.557L499.774 512.597L496.924 509.849L507.211 499.181Z" fill="black"/>
<path d="M490.043 515.11C492.233 513.088 494.448 512.2 496.689 512.446C498.928 512.719 501.025 513.914 502.978 516.03C504.932 518.147 505.949 520.324 506.029 522.564C506.108 524.832 505.053 526.976 502.863 528.997C500.673 531.019 498.459 531.893 496.219 531.619C493.979 531.374 491.882 530.193 489.928 528.077C487.975 525.961 486.958 523.769 486.879 521.501C486.799 519.261 487.854 517.131 490.043 515.11ZM492.241 517.49C491.271 518.386 490.911 519.426 491.161 520.611C491.411 521.795 492.241 523.152 493.652 524.68C495.049 526.194 496.322 527.115 497.469 527.444C498.63 527.788 499.695 527.512 500.665 526.617C501.635 525.721 501.995 524.681 501.746 523.497C501.509 522.327 500.692 520.985 499.295 519.471C497.884 517.943 496.598 517.007 495.437 516.663C494.276 516.319 493.211 516.595 492.241 517.49Z" fill="black"/>
<path d="M477.692 525.409C478.999 524.353 480.323 523.796 481.666 523.739C483.021 523.698 484.348 524.065 485.645 524.843C486.942 525.62 488.157 526.708 489.288 528.108C490.458 529.555 491.281 530.985 491.756 532.401C492.217 533.829 492.272 535.186 491.923 536.472C491.573 537.757 490.761 538.916 489.486 539.947C488.506 540.739 487.548 541.192 486.612 541.306C485.672 541.449 484.781 541.333 483.939 540.96L483.379 541.412L484.85 543.232L481.351 546.061L470.034 532.064L473.533 529.235L475.004 531.055L475.564 530.602C475.413 529.747 475.485 528.866 475.78 527.958C476.075 527.051 476.713 526.201 477.692 525.409ZM478.863 528.861C477.914 529.628 477.493 530.65 477.6 531.927C477.703 533.232 478.327 534.592 479.472 536.007C480.629 537.438 481.828 538.333 483.07 538.692C484.296 539.063 485.384 538.866 486.332 538.099C487.188 537.407 487.55 536.471 487.419 535.291C487.285 534.139 486.595 532.793 485.35 531.254C484.105 529.714 482.928 528.75 481.817 528.363C480.703 528.003 479.718 528.169 478.863 528.861Z" fill="black"/>
<path d="M462.786 536.242C464.13 535.301 465.465 534.855 466.792 534.903C468.131 534.967 469.42 535.431 470.66 536.297C471.901 537.162 473.037 538.332 474.069 539.806C475.135 541.33 475.857 542.815 476.234 544.26C476.594 545.717 476.564 547.068 476.142 548.315C475.705 549.574 474.83 550.661 473.52 551.579C472.553 552.255 471.646 552.634 470.799 552.714C469.935 552.806 469.117 552.683 468.344 552.345L467.754 552.758L472.329 559.296L468.348 562.082L454.586 542.419L458.273 539.839L459.615 541.756L460.205 541.344C460.113 540.48 460.246 539.606 460.603 538.721C460.961 537.836 461.688 537.01 462.786 536.242ZM463.616 539.835C462.617 540.534 462.126 541.525 462.144 542.806C462.157 544.115 462.685 545.515 463.729 547.006C464.784 548.514 465.918 549.49 467.132 549.934C468.33 550.39 469.429 550.268 470.428 549.568C471.329 548.937 471.755 548.029 471.706 546.843C471.652 545.684 471.058 544.294 469.922 542.672C468.787 541.05 467.679 540.006 466.598 539.543C465.511 539.107 464.518 539.204 463.616 539.835Z" fill="black"/>
<path d="M452.254 543.41L461.693 558.737L457.555 561.286L448.116 545.959L452.254 543.41ZM460.709 561.774C461.442 561.323 462.111 561.17 462.716 561.313C463.332 561.474 463.828 561.861 464.206 562.475C464.584 563.088 464.7 563.697 464.556 564.302C464.423 564.925 463.99 565.461 463.258 565.912C462.526 566.363 461.851 566.508 461.236 566.347C460.63 566.203 460.139 565.825 459.761 565.212C459.384 564.599 459.262 563.981 459.395 563.358C459.539 562.753 459.977 562.225 460.709 561.774Z" fill="black"/>
<path d="M444.881 547.763L453.691 563.46L449.767 565.662L448.445 563.308L447.818 563.66C447.944 564.621 447.832 565.544 447.48 566.43C447.111 567.325 446.29 568.13 445.017 568.845C443.273 569.823 441.656 570.008 440.167 569.399C438.679 568.79 437.406 567.543 436.348 565.66L430.754 555.692L434.992 553.314L440.19 562.575C440.797 563.656 441.454 564.377 442.161 564.737C442.877 565.114 443.671 565.058 444.543 564.569C445.555 564.001 446.115 563.16 446.222 562.044C446.34 560.946 446.066 559.804 445.4 558.618L440.643 550.142L444.881 547.763Z" fill="black"/>
<path d="M418.838 553.816C420.354 553.093 421.672 552.697 422.792 552.629C423.885 552.551 424.817 552.671 425.59 552.99C426.344 553.317 426.958 553.722 427.432 554.205C427.906 554.689 428.264 555.138 428.507 555.554L424.228 557.594C423.888 557.113 423.408 556.755 422.786 556.52C422.164 556.285 421.357 556.404 420.364 556.877C419.244 557.411 418.564 558.145 418.323 559.08C418.073 559.996 418.236 561.06 418.813 562.269L419.73 564.192L420.38 563.882C420.262 562.985 420.439 562.148 420.91 561.369C421.389 560.609 422.189 559.962 423.308 559.428C425.42 558.421 427.385 558.382 429.201 559.311C431.008 560.266 432.497 561.972 433.667 564.427C434.416 565.998 434.835 567.504 434.924 568.946C435.022 570.406 434.747 571.711 434.099 572.862C433.451 574.013 432.396 574.937 430.934 575.634C429.815 576.168 428.818 576.377 427.943 576.262C427.059 576.174 426.282 575.846 425.613 575.279L424.963 575.589L425.893 577.539L421.831 579.475L414.666 564.445C413.599 562.207 413.386 560.181 414.029 558.368C414.671 556.555 416.274 555.038 418.838 553.816ZM423.588 563.084C422.523 563.591 421.908 564.439 421.742 565.625C421.559 566.82 421.833 568.185 422.564 569.72C423.296 571.255 424.179 572.318 425.215 572.91C426.241 573.528 427.287 573.584 428.352 573.076C429.345 572.603 429.941 571.809 430.141 570.694C430.323 569.589 430.018 568.205 429.226 566.544C428.417 564.847 427.526 563.721 426.552 563.166C425.569 562.638 424.581 562.61 423.588 563.084Z" fill="black"/>
<path d="M365.105 577.743L369.753 600.676L364.813 601.677L360.952 582.625L351.367 584.567L350.581 580.686L365.105 577.743Z" fill="black"/>
<path d="M341.985 581.058C344.936 580.646 347.262 581.18 348.963 582.659C350.647 584.161 351.688 586.338 352.086 589.19C352.484 592.042 352.078 594.411 350.867 596.297C349.639 598.205 347.549 599.365 344.598 599.777C341.646 600.189 339.329 599.644 337.645 598.142C335.944 596.663 334.895 594.497 334.497 591.645C334.098 588.793 334.513 586.412 335.741 584.504C336.952 582.619 339.034 581.47 341.985 581.058ZM342.433 584.267C341.126 584.45 340.237 585.099 339.766 586.214C339.296 587.33 339.205 588.918 339.492 590.978C339.777 593.018 340.297 594.501 341.052 595.425C341.81 596.369 342.842 596.75 344.15 596.568C345.457 596.385 346.346 595.736 346.816 594.621C347.289 593.525 347.383 591.957 347.099 589.916C346.811 587.856 346.288 586.354 345.531 585.41C344.773 584.466 343.74 584.085 342.433 584.267Z" fill="black"/>
<path d="M326.053 582.493C327.728 582.37 329.134 582.668 330.269 583.387C331.406 584.126 332.286 585.184 332.909 586.562C333.532 587.94 333.909 589.527 334.041 591.322C334.177 593.177 334.037 594.822 333.621 596.256C333.185 597.692 332.457 598.838 331.437 599.695C330.417 600.552 329.089 601.041 327.453 601.161C326.197 601.253 325.151 601.079 324.317 600.639C323.464 600.221 322.798 599.618 322.319 598.831L321.601 598.883L321.772 601.217L317.284 601.547L315.966 583.595L320.454 583.265L320.625 585.599L321.343 585.546C321.707 584.758 322.268 584.075 323.028 583.498C323.788 582.92 324.796 582.586 326.053 582.493ZM325.046 585.996C323.83 586.086 322.901 586.685 322.261 587.795C321.602 588.927 321.339 590.4 321.472 592.215C321.607 594.05 322.082 595.469 322.898 596.472C323.693 597.476 324.7 597.934 325.916 597.845C327.013 597.764 327.844 597.202 328.409 596.157C328.956 595.135 329.157 593.636 329.012 591.661C328.867 589.687 328.449 588.223 327.757 587.271C327.047 586.341 326.143 585.916 325.046 585.996Z" fill="black"/>
<path d="M307.628 582.942C309.268 582.929 310.621 583.319 311.687 584.111C312.754 584.922 313.552 586.036 314.083 587.452C314.614 588.868 314.887 590.476 314.901 592.276C314.915 594.136 314.668 595.768 314.158 597.172C313.629 598.576 312.838 599.672 311.784 600.46C310.71 601.249 309.373 601.649 307.773 601.661C306.593 601.671 305.631 601.468 304.888 601.054C304.125 600.64 303.52 600.074 303.075 599.358L302.355 599.363L302.417 607.343L297.557 607.381L297.371 583.381L301.871 583.346L301.889 585.686L302.609 585.681C303.023 584.918 303.628 584.273 304.424 583.747C305.22 583.221 306.288 582.952 307.628 582.942ZM306.275 586.373C305.055 586.382 304.089 586.919 303.377 587.985C302.645 589.071 302.287 590.523 302.301 592.343C302.315 594.183 302.696 595.63 303.444 596.685C304.172 597.739 305.146 598.262 306.366 598.252C307.466 598.244 308.333 597.737 308.965 596.732C309.577 595.747 309.876 594.265 309.861 592.285C309.845 590.305 309.524 588.818 308.896 587.822C308.248 586.847 307.375 586.364 306.275 586.373Z" fill="black"/>
<path d="M293.704 582.793L292.732 600.766L287.879 600.504L288.851 582.53L293.704 582.793ZM290.194 602.702C291.053 602.749 291.69 603.003 292.106 603.466C292.52 603.949 292.708 604.551 292.669 605.269C292.63 605.988 292.379 606.556 291.916 606.971C291.452 607.407 290.79 607.601 289.932 607.555C289.073 607.509 288.436 607.244 288.022 606.761C287.606 606.298 287.418 605.707 287.457 604.988C287.495 604.269 287.747 603.691 288.211 603.256C288.674 602.84 289.335 602.656 290.194 602.702Z" fill="black"/>
<path d="M285.294 582.17L283.562 600.086L279.083 599.653L279.342 596.966L278.626 596.897C278.181 597.758 277.561 598.451 276.767 598.977C275.953 599.501 274.819 599.693 273.366 599.553C271.375 599.36 269.943 598.589 269.069 597.238C268.194 595.888 267.861 594.138 268.069 591.988L269.169 580.611L274.007 581.079L272.985 591.649C272.865 592.883 272.993 593.85 273.367 594.55C273.74 595.269 274.424 595.676 275.419 595.773C276.574 595.884 277.514 595.513 278.239 594.659C278.963 593.825 279.39 592.731 279.521 591.377L280.457 581.702L285.294 582.17Z" fill="black"/>
<path d="M260.385 572.281C262.043 572.552 263.351 572.978 264.31 573.56C265.252 574.119 265.95 574.75 266.403 575.452C266.836 576.15 267.109 576.833 267.224 577.501C267.338 578.168 267.376 578.741 267.338 579.221L262.66 578.458C262.655 577.87 262.464 577.302 262.087 576.754C261.71 576.206 260.979 575.844 259.893 575.667C258.669 575.467 257.692 575.682 256.961 576.313C256.233 576.924 255.761 577.89 255.546 579.213L255.203 581.315L255.913 581.431C256.328 580.627 256.951 580.04 257.781 579.669C258.609 579.317 259.634 579.242 260.858 579.441C263.168 579.818 264.804 580.905 265.767 582.704C266.707 584.519 266.958 586.769 266.52 589.453C266.24 591.171 265.726 592.647 264.977 593.883C264.225 595.138 263.255 596.054 262.067 596.63C260.879 597.206 259.485 597.364 257.886 597.103C256.662 596.903 255.724 596.507 255.071 595.914C254.395 595.338 253.943 594.626 253.717 593.779L253.006 593.663L252.659 595.794L248.217 595.07L250.898 578.637C251.297 576.19 252.277 574.404 253.838 573.281C255.4 572.157 257.582 571.824 260.385 572.281ZM259.005 582.604C257.84 582.414 256.852 582.759 256.039 583.64C255.207 584.518 254.654 585.795 254.381 587.473C254.107 589.151 254.227 590.528 254.74 591.605C255.231 592.698 256.058 593.34 257.223 593.53C258.308 593.707 259.251 593.394 260.05 592.593C260.83 591.788 261.368 590.477 261.664 588.661C261.967 586.806 261.877 585.372 261.393 584.361C260.887 583.367 260.09 582.781 259.005 582.604Z" fill="black"/>
<path d="M202.732 561.353L193.456 582.836L188.829 580.838L196.536 562.991L187.557 559.114L189.127 555.479L202.732 561.353Z" fill="black"/>
<path d="M181.815 550.89C184.476 552.232 186.084 553.995 186.64 556.18C187.169 558.373 186.785 560.755 185.488 563.327C184.191 565.898 182.508 567.614 180.439 568.475C178.343 569.344 175.965 569.108 173.304 567.766C170.643 566.424 169.048 564.656 168.519 562.463C167.963 560.279 168.334 557.901 169.631 555.329C170.928 552.758 172.624 551.037 174.72 550.168C176.789 549.308 179.154 549.548 181.815 550.89ZM180.356 553.783C179.177 553.189 178.077 553.216 177.055 553.866C176.033 554.515 175.054 555.768 174.117 557.626C173.19 559.465 172.773 560.98 172.867 562.17C172.952 563.377 173.584 564.278 174.763 564.873C175.942 565.467 177.042 565.44 178.064 564.79C179.077 564.159 180.047 562.923 180.975 561.084C181.911 559.227 182.337 557.694 182.252 556.487C182.166 555.279 181.534 554.378 180.356 553.783Z" fill="black"/>
<path d="M167.921 542.987C169.368 543.842 170.352 544.888 170.875 546.126C171.388 547.381 171.507 548.752 171.233 550.24C170.958 551.727 170.363 553.245 169.448 554.795C168.502 556.396 167.449 557.668 166.289 558.608C165.112 559.539 163.86 560.066 162.533 560.188C161.207 560.31 159.838 559.954 158.426 559.12C157.341 558.479 156.581 557.74 156.147 556.903C155.685 556.072 155.481 555.197 155.537 554.278L154.917 553.912L153.727 555.926L149.852 553.637L159.008 538.14L162.882 540.428L161.692 542.443L162.312 542.809C163.06 542.369 163.911 542.128 164.864 542.087C165.817 542.046 166.836 542.346 167.921 542.987ZM165.097 545.291C164.046 544.67 162.942 544.633 161.783 545.18C160.596 545.733 159.54 546.793 158.614 548.36C157.678 549.945 157.26 551.381 157.358 552.67C157.438 553.949 158.004 554.899 159.054 555.519C160.001 556.079 161.005 556.091 162.064 555.555C163.097 555.027 164.116 553.91 165.123 552.206C166.131 550.501 166.621 549.06 166.596 547.884C166.544 546.715 166.044 545.85 165.097 545.291Z" fill="black"/>
<path d="M152.632 532.906C153.986 533.831 154.874 534.924 155.298 536.182C155.71 537.457 155.73 538.828 155.358 540.293C154.986 541.759 154.292 543.235 153.277 544.721C152.227 546.257 151.092 547.455 149.873 548.318C148.637 549.169 147.361 549.617 146.046 549.663C144.714 549.697 143.388 549.263 142.067 548.36C141.093 547.694 140.419 546.979 140.045 546.215C139.655 545.439 139.481 544.63 139.524 543.787L138.93 543.381L134.426 549.969L130.414 547.226L143.959 527.413L147.674 529.952L146.353 531.884L146.947 532.291C147.723 531.9 148.588 531.716 149.542 531.738C150.496 531.76 151.526 532.15 152.632 532.906ZM149.563 534.95C148.555 534.262 147.456 534.152 146.263 534.621C145.043 535.095 143.919 536.083 142.892 537.585C141.853 539.104 141.34 540.51 141.353 541.803C141.349 543.084 141.851 544.069 142.858 544.758C143.766 545.379 144.767 545.457 145.859 544.992C146.924 544.533 148.015 543.487 149.133 541.852C150.25 540.217 150.835 538.812 150.888 537.637C150.912 536.467 150.471 535.571 149.563 534.95Z" fill="black"/>
<path d="M142.198 525.539L131.137 539.74L127.303 536.753L138.364 522.553L142.198 525.539ZM127.948 539.88C128.627 540.408 129.004 540.981 129.081 541.598C129.146 542.232 128.957 542.832 128.514 543.4C128.072 543.968 127.542 544.291 126.924 544.368C126.295 544.46 125.64 544.242 124.962 543.714C124.283 543.185 123.912 542.604 123.847 541.971C123.771 541.354 123.954 540.761 124.396 540.193C124.838 539.625 125.375 539.295 126.004 539.202C126.622 539.125 127.27 539.351 127.948 539.88Z" fill="black"/>
<path d="M135.623 520.237L124.052 534.026L120.605 531.133L122.341 529.065L121.789 528.602C120.935 529.06 120.032 529.281 119.079 529.265C118.111 529.236 117.068 528.753 115.95 527.814C114.418 526.528 113.674 525.082 113.717 523.474C113.761 521.866 114.478 520.234 115.866 518.58L123.213 509.824L126.936 512.948L120.11 521.083C119.312 522.033 118.87 522.902 118.783 523.691C118.683 524.494 119.016 525.218 119.782 525.86C120.671 526.606 121.656 526.832 122.737 526.539C123.806 526.261 124.778 525.601 125.652 524.559L131.9 517.113L135.623 520.237Z" fill="black"/>
<path d="M120.769 497.974C121.979 499.14 122.812 500.235 123.269 501.259C123.726 502.255 123.94 503.171 123.913 504.006C123.871 504.827 123.707 505.544 123.422 506.157C123.136 506.771 122.841 507.264 122.536 507.638L119.124 504.347C119.455 503.86 119.621 503.284 119.623 502.62C119.625 501.955 119.23 501.241 118.439 500.477C117.546 499.616 116.62 499.237 115.66 499.339C114.714 499.427 113.775 499.954 112.845 500.918L111.367 502.451L111.885 502.951C112.684 502.526 113.53 502.398 114.424 502.566C115.304 502.748 116.191 503.269 117.083 504.13C118.768 505.754 119.494 507.58 119.262 509.606C119.002 511.634 117.928 513.627 116.04 515.584C114.832 516.837 113.569 517.758 112.25 518.348C110.917 518.952 109.598 519.153 108.293 518.95C106.988 518.748 105.753 518.084 104.586 516.959C103.694 516.099 103.148 515.239 102.948 514.38C102.721 513.521 102.755 512.679 103.051 511.853L102.533 511.353L101.033 512.908L97.7941 509.784L109.352 497.799C111.073 496.014 112.895 495.104 114.818 495.069C116.741 495.034 118.725 496.002 120.769 497.974ZM113.759 505.675C112.91 504.856 111.9 504.578 110.731 504.839C109.548 505.087 108.366 505.823 107.186 507.047C106.006 508.27 105.32 509.471 105.13 510.648C104.91 511.826 105.226 512.825 106.075 513.644C106.867 514.407 107.82 514.687 108.933 514.483C110.033 514.265 111.221 513.494 112.498 512.169C113.803 510.816 114.545 509.586 114.722 508.48C114.872 507.374 114.551 506.439 113.759 505.675Z" fill="black"/>
<path d="M79.4691 456.392L59.6806 468.881L56.9907 464.619L73.4304 454.244L68.2106 445.973L71.5594 443.86L79.4691 456.392Z" fill="black"/>
<path d="M67.9588 435.619C69.3885 438.234 69.7126 440.598 68.9311 442.712C68.1225 444.819 66.4548 446.563 63.9279 447.944C61.401 449.326 59.0415 449.784 56.8495 449.319C54.6303 448.846 52.8058 447.302 51.3761 444.687C49.9464 442.072 49.6358 439.712 50.4444 437.606C51.2259 435.492 52.8801 433.744 55.407 432.362C57.9339 430.98 60.3069 430.526 62.5261 430.999C64.7181 431.465 66.529 433.005 67.9588 435.619ZM65.116 437.174C64.4827 436.016 63.5611 435.414 62.3511 435.369C61.1412 435.324 59.6237 435.8 57.7988 436.798C55.9913 437.787 54.7889 438.798 54.1914 439.831C53.5764 440.874 53.5855 441.974 54.2188 443.133C54.8522 444.291 55.7738 444.892 56.9837 444.937C58.1761 444.992 59.676 444.525 61.4835 443.537C63.3084 442.539 64.5284 441.518 65.1434 440.475C65.7585 439.432 65.7493 438.332 65.116 437.174Z" fill="black"/>
<path d="M61.0987 421.55C61.8103 423.072 62.0325 424.491 61.7653 425.808C61.48 427.134 60.8043 428.333 59.7383 429.406C58.6723 430.478 57.324 431.396 55.6934 432.158C54.0086 432.946 52.4219 433.401 50.9334 433.523C49.4365 433.627 48.106 433.355 46.9419 432.707C45.7779 432.059 44.8485 430.992 44.1538 429.507C43.6201 428.365 43.4103 427.326 43.5243 426.39C43.6118 425.444 43.938 424.607 44.5028 423.879L44.1979 423.227L42.0782 424.218L40.172 420.142L56.4773 412.517L58.3835 416.593L56.2638 417.585L56.5688 418.237C57.4351 418.295 58.2733 418.577 59.0832 419.081C59.8931 419.586 60.5649 420.409 61.0987 421.55ZM57.4669 421.857C56.9501 420.752 56.0592 420.098 54.794 419.895C53.5022 419.682 52.032 419.961 50.3833 420.732C48.7166 421.511 47.5598 422.461 46.9131 423.58C46.2578 424.681 46.1886 425.784 46.7054 426.89C47.1714 427.886 47.9928 428.462 49.1698 428.618C50.3201 428.765 51.7921 428.419 53.5857 427.58C55.3793 426.741 56.5977 425.829 57.2409 424.844C57.8575 423.849 57.9329 422.854 57.4669 421.857Z" fill="black"/>
<path d="M54.2507 404.763C54.8441 406.292 54.9596 407.695 54.5973 408.973C54.2164 410.258 53.4581 411.399 52.3225 412.398C51.1868 413.396 49.78 414.221 48.1019 414.873C46.368 415.546 44.7543 415.893 43.261 415.915C41.7605 415.918 40.4549 415.566 39.3442 414.86C38.2263 414.136 37.3779 413.028 36.799 411.536C36.372 410.436 36.2205 409.465 36.3443 408.623C36.4608 407.763 36.7751 406.997 37.2871 406.326L37.0266 405.655L29.5873 408.543L27.8288 404.012L50.2028 395.328L51.831 399.523L49.6495 400.37L49.91 401.041C50.7705 401.158 51.5879 401.495 52.3621 402.053C53.1363 402.61 53.7658 403.514 54.2507 404.763ZM50.5631 404.714C50.1217 403.576 49.2766 402.864 48.0279 402.576C46.7533 402.277 45.2677 402.457 43.571 403.115C41.8557 403.781 40.6378 404.651 39.9173 405.724C39.1897 406.779 39.0465 407.875 39.488 409.012C39.886 410.038 40.6669 410.668 41.8307 410.903C42.9686 411.126 44.4605 410.88 46.3064 410.163C48.1522 409.447 49.4291 408.619 50.137 407.679C50.8191 406.728 50.9611 405.739 50.5631 404.714Z" fill="black"/>
<path d="M49.6841 392.414L32.5217 397.841L31.0564 393.207L48.2188 387.78L49.6841 392.414ZM29.8154 396.148C30.0747 396.968 30.0609 397.654 29.774 398.206C29.4681 398.764 28.9719 399.152 28.2854 399.369C27.5989 399.586 26.9795 399.551 26.4274 399.264C25.8561 398.984 25.4408 398.433 25.1815 397.613C24.9222 396.793 24.9456 396.104 25.2515 395.546C25.5384 394.994 26.025 394.609 26.7115 394.392C27.398 394.175 28.0269 394.207 28.5982 394.488C29.1503 394.774 29.5561 395.328 29.8154 396.148Z" fill="black"/>
<path d="M47.3396 384.579L29.9842 389.353L28.7907 385.014L31.394 384.298L31.2031 383.604C30.2398 383.495 29.3708 383.164 28.596 382.609C27.816 382.036 27.2323 381.045 26.8451 379.637C26.3147 377.709 26.5243 376.096 27.4739 374.797C28.4236 373.499 29.9397 372.563 32.0224 371.99L43.0431 368.959L44.332 373.645L34.0923 376.462C32.8968 376.79 32.0391 377.254 31.5195 377.854C30.9805 378.458 30.8436 379.243 31.1089 380.207C31.4165 381.325 32.0987 382.071 33.1555 382.444C34.193 382.823 35.3674 382.831 36.6787 382.471L46.0506 379.893L47.3396 384.579Z" fill="black"/>
<path d="M47.7391 357.881C48.0727 359.527 48.137 360.902 47.9319 362.005C47.7425 363.084 47.3995 363.959 46.9031 364.631C46.4027 365.284 45.8607 365.781 45.2772 366.124C44.6936 366.467 44.1706 366.705 43.7081 366.84L42.7667 362.194C43.3153 361.981 43.7791 361.601 44.1582 361.055C44.5373 360.509 44.6176 359.697 44.3991 358.619C44.1529 357.403 43.6055 356.565 42.7571 356.105C41.9283 355.64 40.8573 355.541 39.544 355.807L37.4564 356.23L37.5994 356.936C38.4979 357.039 39.2676 357.414 39.9086 358.059C40.53 358.709 40.9638 359.641 41.2101 360.857C41.6748 363.15 41.2364 365.065 39.895 366.602C38.5299 368.124 36.5145 369.155 33.8487 369.695C32.1434 370.04 30.5804 370.082 29.1599 369.818C27.7197 369.559 26.52 368.976 25.5606 368.068C24.6012 367.161 23.9607 365.913 23.639 364.325C23.3927 363.11 23.4313 362.092 23.7548 361.272C24.0547 360.435 24.5609 359.761 25.2735 359.25L25.1305 358.544L23.0135 358.973L22.1198 354.563L38.4381 351.256C40.8687 350.763 42.8855 351.049 44.4885 352.111C46.0915 353.174 47.175 355.097 47.7391 357.881ZM37.596 360.242C37.3617 359.086 36.6889 358.283 35.5778 357.835C34.4626 357.367 33.072 357.302 31.4059 357.64C29.7397 357.977 28.4939 358.577 27.6685 359.438C26.8195 360.283 26.5122 361.284 26.7465 362.441C26.965 363.519 27.5906 364.29 28.6234 364.754C29.6522 365.199 31.0682 365.238 32.8716 364.873C34.7141 364.499 36.0227 363.908 36.7972 363.098C37.5482 362.272 37.8145 361.32 37.596 360.242Z" fill="black"/>
<path d="M37.9174 289.206L14.5941 287.312L15.0019 282.289L34.3782 283.862L35.1695 274.114L39.1165 274.434L37.9174 289.206Z" fill="black"/>
<path d="M40.9998 266.507C40.5878 269.458 39.4377 271.55 37.5495 272.78C35.6442 273.989 33.2653 274.394 30.413 273.996C27.5606 273.597 25.3935 272.558 23.9117 270.877C22.4128 269.173 21.8693 266.846 22.2812 263.894C22.6931 260.943 23.8518 258.863 25.7571 257.655C27.6453 256.424 30.0156 256.008 32.868 256.406C35.7203 256.804 37.896 257.855 39.3949 259.558C40.8767 261.239 41.4117 263.556 40.9998 266.507ZM37.7909 266.059C37.9733 264.752 37.5924 263.719 36.6481 262.961C35.7038 262.204 34.2016 261.681 32.1416 261.393C30.1014 261.109 28.5333 261.203 27.4374 261.676C26.3217 262.146 25.6726 263.035 25.4901 264.342C25.3076 265.65 25.6886 266.682 26.6329 267.44C27.5574 268.195 29.0397 268.715 31.08 269C33.14 269.287 34.7279 269.196 35.8436 268.726C36.9593 268.255 37.6084 267.367 37.7909 266.059Z" fill="black"/>
<path d="M43.9166 250.952C43.5767 252.597 42.9057 253.868 41.9037 254.764C40.8821 255.655 39.6234 256.212 38.1276 256.434C36.6317 256.656 35.0024 256.585 33.2397 256.221C31.4181 255.844 29.8745 255.26 28.6087 254.467C27.3469 253.655 26.4433 252.641 25.898 251.426C25.3527 250.21 25.2459 248.8 25.5778 247.193C25.8327 245.96 26.286 245.001 26.9375 244.319C27.5735 243.613 28.3355 243.138 29.2235 242.892L29.3692 242.187L27.0776 241.714L27.9882 237.307L45.6158 240.949L44.7053 245.356L42.4137 244.882L42.268 245.587C42.9273 246.153 43.4306 246.879 43.778 247.768C44.1253 248.657 44.1716 249.718 43.9166 250.952ZM40.8223 249.026C41.0692 247.831 40.7464 246.774 39.854 245.854C38.9461 244.911 37.6009 244.256 35.8186 243.887C34.0167 243.515 32.5218 243.584 31.334 244.094C30.1502 244.585 29.4349 245.427 29.188 246.622C28.9655 247.699 29.2791 248.653 30.1289 249.482C30.9632 250.287 32.3498 250.89 34.2889 251.291C36.2279 251.692 37.7498 251.689 38.8546 251.285C39.9438 250.856 40.5997 250.103 40.8223 249.026Z" fill="black"/>
<path d="M48.4954 233.186C48.0545 234.765 47.3062 235.958 46.2507 236.764C45.1759 237.564 43.8847 238.024 42.3772 238.143C40.8697 238.262 39.249 238.08 37.5153 237.596C35.7238 237.096 34.2237 236.407 33.0151 235.53C31.8119 234.633 30.9771 233.57 30.5108 232.339C30.0499 231.089 30.0346 229.694 30.4648 228.152C30.782 227.016 31.2424 226.148 31.8459 225.548C32.4548 224.929 33.1651 224.504 33.9769 224.274L34.1705 223.58L26.4844 221.435L27.7911 216.754L50.9073 223.207L49.6974 227.541L47.4435 226.912L47.25 227.605C47.869 228.214 48.3215 228.974 48.6072 229.884C48.893 230.795 48.8557 231.895 48.4954 233.186ZM45.5724 230.937C45.9004 229.762 45.6507 228.685 44.8234 227.707C43.9821 226.704 42.685 225.957 40.932 225.468C39.1598 224.973 37.6637 224.94 36.4437 225.368C35.2292 225.776 34.4579 226.568 34.1299 227.743C33.8341 228.802 34.0818 229.775 34.8729 230.66C35.6501 231.521 36.9922 232.217 38.8993 232.75C40.8064 233.282 42.3249 233.384 43.4548 233.056C44.5708 232.703 45.2766 231.997 45.5724 230.937Z" fill="black"/>
<path d="M52.4094 219.945L35.4185 214.003L37.0228 209.415L54.0138 215.357L52.4094 219.945ZM34.2667 211.026C33.9828 211.838 33.5606 212.379 33 212.649C32.4205 212.912 31.791 212.925 31.1113 212.687C30.4317 212.45 29.9568 212.051 29.6867 211.49C29.3978 210.923 29.3952 210.233 29.6791 209.422C29.963 208.61 30.3947 208.072 30.9742 207.809C31.5348 207.539 32.1549 207.522 32.8345 207.76C33.5141 207.998 33.9984 208.4 34.2874 208.967C34.5575 209.528 34.5506 210.214 34.2667 211.026Z" fill="black"/>
<path d="M55.0585 212.69L38.3025 206.115L39.9464 201.926L42.4598 202.912L42.7228 202.242C42.0165 201.578 41.5193 200.792 41.2311 199.884C40.9502 198.957 41.0764 197.814 41.6098 196.455C42.3404 194.593 43.4748 193.427 45.013 192.957C46.5513 192.486 48.3257 192.645 50.3364 193.434L60.9765 197.61L59.2011 202.134L49.3151 198.254C48.1608 197.801 47.1961 197.659 46.4209 197.828C45.6272 197.989 45.0477 198.535 44.6824 199.466C44.2586 200.545 44.358 201.551 44.9807 202.483C45.5847 203.408 46.5197 204.118 47.7857 204.615L56.8339 208.166L55.0585 212.69Z" fill="black"/>
<path d="M71.1484 191.934C70.4311 193.453 69.6605 194.593 68.8367 195.354C68.0395 196.106 67.241 196.602 66.4412 196.844C65.65 197.068 64.9181 197.142 64.2454 197.068C63.5728 196.994 63.0109 196.872 62.5597 196.703L64.5835 192.417C65.1507 192.574 65.7495 192.547 66.38 192.336C67.0104 192.125 67.5605 191.522 68.0301 190.528C68.5596 189.406 68.6221 188.407 68.2176 187.531C67.8312 186.663 67.0322 185.943 65.8205 185.371L63.8944 184.461L63.587 185.112C64.2451 185.733 64.638 186.493 64.7656 187.394C64.8752 188.286 64.6653 189.293 64.1358 190.414C63.1367 192.53 61.64 193.803 59.6457 194.233C57.6418 194.636 55.41 194.256 52.9504 193.095C51.377 192.352 50.0997 191.45 49.1185 190.39C48.1193 189.321 47.5066 188.136 47.2804 186.835C47.0543 185.534 47.2871 184.151 47.9788 182.686C48.5082 181.565 49.1479 180.772 49.8979 180.308C50.6384 179.817 51.4471 179.579 52.3243 179.595L52.6317 178.944L50.6785 178.022L52.5998 173.953L67.6559 181.062C69.8985 182.121 71.3443 183.555 71.9935 185.366C72.6426 187.176 72.3609 189.366 71.1484 191.934ZM61.6068 187.76C62.1106 186.693 62.0513 185.648 61.4288 184.624C60.8149 183.582 59.7393 182.698 58.202 181.973C56.6647 181.247 55.3079 180.982 54.1313 181.178C52.9453 181.348 52.1003 181.967 51.5965 183.034C51.1269 184.029 51.1671 185.021 51.7172 186.01C52.2759 186.982 53.3872 187.86 55.051 188.646C56.7511 189.449 58.1537 189.757 59.2589 189.571C60.3545 189.359 61.1372 188.755 61.6068 187.76Z" fill="black"/>
<path d="M110.336 124.214L93.3161 108.156L96.7749 104.49L110.915 117.831L117.626 110.717L120.507 113.435L110.336 124.214Z" fill="black"/>
<path d="M126.969 108.364C124.801 110.41 122.596 111.322 120.353 111.101C118.11 110.852 116.001 109.68 114.024 107.585C112.048 105.49 111.008 103.323 110.903 101.085C110.799 98.8183 111.831 96.6624 113.998 94.6174C116.166 92.5723 118.371 91.6744 120.613 91.9235C122.856 92.1443 124.966 93.3022 126.942 95.397C128.919 97.4918 129.959 99.6725 130.063 101.939C130.168 104.178 129.136 106.319 126.969 108.364ZM124.745 106.008C125.705 105.102 126.054 104.058 125.791 102.876C125.528 101.694 124.683 100.347 123.256 98.8339C121.842 97.3355 120.56 96.4281 119.409 96.1117C118.244 95.7807 117.182 96.0682 116.222 96.974C115.262 97.8799 114.913 98.9238 115.176 100.106C115.425 101.273 116.256 102.606 117.67 104.104C119.097 105.617 120.393 106.539 121.558 106.87C122.723 107.201 123.785 106.914 124.745 106.008Z" fill="black"/>
<path d="M139.335 97.7097C138.041 98.7802 136.722 99.3513 135.38 99.4229C134.025 99.4791 132.695 99.1257 131.389 98.3627C130.084 97.5997 128.857 96.5245 127.71 95.1373C126.525 93.7038 125.687 92.2819 125.196 90.8716C124.72 89.4485 124.649 88.0923 124.985 86.803C125.32 85.5137 126.12 84.3465 127.384 83.3015C128.355 82.4986 129.308 82.0349 130.243 81.9105C131.181 81.7579 132.073 81.8638 132.919 82.2281L133.474 81.7694L131.983 79.9659L135.451 77.0985L146.921 90.9709L143.453 93.8384L141.962 92.035L141.407 92.4937C141.567 93.3471 141.505 94.229 141.22 95.1396C140.935 96.0501 140.306 96.9068 139.335 97.7097ZM138.127 94.271C139.067 93.4936 139.477 92.4671 139.357 91.1914C139.239 89.8875 138.6 88.5342 137.44 87.1316C136.268 85.7135 135.059 84.8317 133.813 84.4864C132.583 84.1282 131.497 84.3378 130.557 85.1152C129.709 85.8162 129.357 86.7559 129.501 87.9344C129.648 89.0847 130.352 90.4229 131.614 91.9489C132.876 93.4748 134.064 94.4256 135.179 94.8012C136.297 95.1487 137.279 94.972 138.127 94.271Z" fill="black"/>
<path d="M154.781 86.1488C153.448 87.1038 152.118 87.5647 150.79 87.5316C149.451 87.4823 148.156 87.0318 146.907 86.1802C145.657 85.3286 144.508 84.1712 143.46 82.7079C142.377 81.1958 141.639 79.7192 141.247 78.2783C140.87 76.8257 140.886 75.4737 141.294 74.2223C141.717 72.9593 142.58 71.862 143.88 70.9302C144.84 70.2431 145.742 69.8548 146.588 69.7653C147.451 69.6642 148.271 69.7782 149.048 70.1073L149.633 69.688L144.986 63.2006L148.937 60.3705L162.913 79.8815L159.254 82.5019L157.892 80.5996L157.306 81.0189C157.408 81.8813 157.284 82.7568 156.937 83.6454C156.589 84.534 155.871 85.3685 154.781 86.1488ZM153.912 82.5648C154.904 81.8544 155.383 80.8587 155.352 79.5777C155.324 78.2688 154.781 76.8745 153.721 75.395C152.649 73.8991 151.504 72.9358 150.285 72.505C149.083 72.0625 147.986 72.1965 146.994 72.9069C146.099 73.5475 145.683 74.4606 145.745 75.6462C145.812 76.804 146.422 78.1877 147.575 79.7973C148.728 81.407 149.848 82.4378 150.934 82.8897C152.025 83.3137 153.018 83.2054 153.912 82.5648Z" fill="black"/>
<path d="M164.354 79.4005L154.747 64.1786L158.857 61.5847L168.464 76.8066L164.354 79.4005ZM155.697 61.1311C154.97 61.5901 154.303 61.751 153.696 61.6137C153.079 61.4595 152.578 61.078 152.193 60.4691C151.809 59.8603 151.686 59.2524 151.823 58.6454C151.949 58.0216 152.376 57.4802 153.104 57.0212C153.831 56.5622 154.503 56.4098 155.121 56.5639C155.728 56.7012 156.223 57.0743 156.608 57.6831C156.992 58.292 157.121 58.9084 156.994 59.5322C156.857 60.1391 156.425 60.6721 155.697 61.1311Z" fill="black"/>
<path d="M172.137 74.6452L163.153 59.0472L167.053 56.8013L168.4 59.141L169.024 58.7817C168.887 57.8221 168.989 56.8977 169.331 56.0084C169.69 55.1092 170.502 54.2952 171.767 53.5666C173.5 52.5684 175.115 52.3657 176.61 52.9585C178.106 53.5513 179.392 54.7836 180.47 56.6553L186.175 66.5601L181.963 68.9856L176.663 59.7828C176.044 58.7083 175.379 57.9948 174.669 57.6425C173.948 57.2728 173.154 57.3375 172.288 57.8366C171.283 58.4155 170.732 59.2633 170.637 60.38C170.532 61.4793 170.818 62.6182 171.497 63.7967L176.348 72.2196L172.137 74.6452Z" fill="black"/>
<path d="M197.384 68.6064C195.876 69.3461 194.562 69.7565 193.444 69.8373C192.352 69.9274 191.418 69.8173 190.642 69.5073C189.884 69.1884 189.266 68.7901 188.786 68.3124C188.307 67.8346 187.944 67.3891 187.696 66.9758L191.952 64.8885C192.297 65.3652 192.782 65.7178 193.406 65.9462C194.031 66.1746 194.837 66.0466 195.824 65.5622C196.938 65.0162 197.61 64.2745 197.84 63.3371C198.08 62.4176 197.905 61.3563 197.315 60.1533L196.377 58.2409L195.73 58.5579C195.858 59.4534 195.69 60.2929 195.228 61.0764C194.757 61.8421 193.965 62.4979 192.852 63.0439C190.751 64.0743 188.787 64.1353 186.96 63.2268C185.143 62.2916 183.635 60.6029 182.437 58.1609C181.671 56.5986 181.235 55.0971 181.13 53.6562C181.016 52.1974 181.277 50.889 181.912 49.7311C182.547 48.5732 183.591 47.6375 185.046 46.9242C186.159 46.3781 187.154 46.1577 188.029 46.2628C188.914 46.3411 189.695 46.6601 190.37 47.2199L191.016 46.9028L190.065 44.9635L194.106 42.982L201.437 57.9308C202.529 60.1574 202.764 62.1807 202.142 64.0006C201.52 65.8205 199.934 67.3558 197.384 68.6064ZM192.531 59.3921C193.59 58.8725 194.196 58.0184 194.348 56.83C194.518 55.6327 194.229 54.2709 193.481 52.7446C192.732 51.2183 191.837 50.1649 190.795 49.5845C189.762 48.9773 188.716 48.9335 187.656 49.4531C186.669 49.9375 186.081 50.738 185.894 51.8546C185.724 52.9624 186.044 54.3424 186.855 55.9944C187.683 57.6823 188.586 58.7983 189.566 59.3425C190.555 59.8599 191.543 59.8765 192.531 59.3921Z" fill="black"/>
<path d="M250.437 43.8012L245.527 20.922L250.455 19.8645L254.534 38.8718L264.096 36.8199L264.927 40.6917L250.437 43.8012Z" fill="black"/>
<path d="M274.451 39.9768C271.504 40.4226 269.172 39.9159 267.455 38.4564C265.754 36.9742 264.688 34.8094 264.257 31.9618C263.826 29.1142 264.205 26.7408 265.394 24.8414C266.6 22.9194 268.676 21.7354 271.623 21.2895C274.569 20.8436 276.893 21.3618 278.594 22.844C280.312 24.3034 281.386 26.4569 281.817 29.3045C282.248 32.1521 281.86 34.5369 280.654 36.459C279.465 38.3583 277.397 39.5309 274.451 39.9768ZM273.966 36.7732C275.271 36.5757 276.152 35.9165 276.61 34.7954C277.067 33.6743 277.14 32.0855 276.829 30.0289C276.521 27.9921 275.984 26.5158 275.218 25.6001C274.45 24.6646 273.413 24.2955 272.108 24.493C270.803 24.6905 269.921 25.3498 269.464 26.4709C269.003 27.5722 268.927 29.1412 269.236 31.178C269.547 33.2346 270.087 34.7307 270.855 35.6662C271.624 36.6017 272.661 36.9707 273.966 36.7732Z" fill="black"/>
<path d="M290.539 38.2985C288.865 38.4409 287.456 38.1593 286.312 37.4537C285.166 36.7282 284.274 35.68 283.636 34.3092C282.997 32.9383 282.602 31.3562 282.449 29.5626C282.292 27.7093 282.413 26.0632 282.812 24.6241C283.231 23.1834 283.946 22.0287 284.956 21.16C285.966 20.2912 287.288 19.7874 288.922 19.6484C290.178 19.5416 291.225 19.7034 292.065 20.1338C292.922 20.5426 293.595 21.1377 294.083 21.9192L294.801 21.8582L294.602 19.5266L299.086 19.1452L300.612 37.0805L296.128 37.4618L295.93 35.1302L295.212 35.1913C294.858 35.9841 294.305 36.6735 293.551 37.2594C292.798 37.8454 291.794 38.1917 290.539 38.2985ZM291.504 34.784C292.72 34.6806 293.642 34.0703 294.269 32.9531C294.915 31.8143 295.161 30.3382 295.006 28.5247C294.851 26.6913 294.359 25.2779 293.532 24.2844C292.725 23.2893 291.713 22.8434 290.497 22.9468C289.401 23.04 288.577 23.6119 288.024 24.6626C287.489 25.6916 287.306 27.1925 287.474 29.1654C287.641 31.1383 288.077 32.5966 288.779 33.5405C289.5 34.4627 290.408 34.8772 291.504 34.784Z" fill="black"/>
<path d="M308.06 37.6221C306.421 37.6538 305.063 37.2799 303.988 36.5005C302.912 35.7011 302.101 34.5966 301.554 33.1869C301.006 31.7772 300.715 30.1725 300.68 28.3728C300.645 26.5132 300.873 24.8784 301.366 23.4687C301.879 22.0585 302.658 20.9533 303.702 20.153C304.767 19.3523 306.099 18.9365 307.699 18.9056C308.879 18.8828 309.843 19.0743 310.591 19.4799C311.359 19.8852 311.97 20.4435 312.423 21.1548L313.143 21.141L312.989 13.1624L317.848 13.0686L318.311 37.0642L313.812 37.151L313.767 34.8115L313.047 34.8254C312.642 35.5933 312.044 36.245 311.255 36.7803C310.465 37.3157 309.4 37.5963 308.06 37.6221ZM309.374 34.1761C310.594 34.1526 311.553 33.604 312.253 32.5303C312.972 31.4362 313.314 29.9793 313.279 28.1596C313.243 26.32 312.845 24.8774 312.085 23.8319C311.345 22.786 310.365 22.2748 309.145 22.2983C308.045 22.3196 307.185 22.8363 306.564 23.8484C305.963 24.8402 305.682 26.3259 305.72 28.3055C305.758 30.2852 306.097 31.7689 306.736 32.7568C307.395 33.7242 308.274 34.1973 309.374 34.1761Z" fill="black"/>
<path d="M323.198 37.5824L324.031 19.6017L328.886 19.8267L328.053 37.8074L323.198 37.5824ZM326.554 17.6464C325.695 17.6066 325.056 17.3568 324.637 16.8969C324.219 16.417 324.026 15.8174 324.059 15.0982C324.093 14.379 324.339 13.8098 324.799 13.3906C325.26 12.9515 325.92 12.7518 326.779 12.7916C327.638 12.8314 328.277 13.0913 328.695 13.5712C329.114 14.0311 329.307 14.6206 329.274 15.3399C329.241 16.0591 328.993 16.6383 328.533 17.0774C328.073 17.4966 327.413 17.6862 326.554 17.6464Z" fill="black"/>
<path d="M331.468 38.0873L332.993 20.1521L337.477 20.5335L337.248 23.2237L337.966 23.2848C338.401 22.4185 339.012 21.7178 339.8 21.1827C340.608 20.6493 341.74 20.4444 343.195 20.5681C345.187 20.7376 346.629 21.4925 347.518 22.8327C348.408 24.1729 348.761 25.9191 348.578 28.0714L347.609 39.4602L342.767 39.0484L343.667 28.4666C343.772 27.231 343.633 26.2658 343.251 25.5709C342.87 24.8561 342.181 24.4563 341.185 24.3715C340.029 24.2732 339.093 24.6553 338.378 25.5177C337.664 26.3603 337.249 27.4591 337.134 28.8142L336.31 38.4992L331.468 38.0873Z" fill="black"/>
<path d="M355.11 47.454C353.449 47.2026 352.135 46.7915 351.17 46.2206C350.221 45.6725 349.516 45.0501 349.056 44.3533C348.614 43.6594 348.333 42.9797 348.211 42.314C348.089 41.6482 348.045 41.0751 348.077 40.5945L352.764 41.3037C352.776 41.8922 352.973 42.4581 353.356 43.0015C353.739 43.5449 354.475 43.8989 355.562 44.0635C356.788 44.2491 357.763 44.0224 358.487 43.3835C359.208 42.7643 359.668 41.7923 359.869 40.4674L360.187 38.3614L359.475 38.2536C359.07 39.0621 358.454 39.6566 357.628 40.0373C356.805 40.3982 355.78 40.4858 354.554 40.3003C352.24 39.9502 350.592 38.8815 349.608 37.0942C348.647 35.2901 348.37 33.0434 348.777 30.354C349.037 28.6336 349.535 27.1513 350.269 25.9072C351.007 24.6433 351.966 23.7164 353.148 23.1266C354.329 22.5367 355.721 22.363 357.323 22.6054C358.549 22.7909 359.492 23.1763 360.151 23.7617C360.834 24.3302 361.293 25.0369 361.53 25.8817L362.242 25.9895L362.565 23.8538L367.014 24.5271L364.523 40.9897C364.152 43.4417 363.192 45.2384 361.644 46.3796C360.096 47.5208 357.918 47.8789 355.11 47.454ZM356.371 37.1163C357.537 37.2929 358.522 36.9361 359.324 36.0461C360.146 35.1591 360.684 33.8752 360.939 32.1943C361.193 30.5135 361.057 29.1377 360.531 28.067C360.029 26.9795 359.194 26.3475 358.027 26.1709C356.939 26.0063 356 26.3295 355.21 27.1404C354.44 27.9543 353.917 29.2708 353.642 31.0901C353.36 32.949 353.467 34.3811 353.962 35.3865C354.48 36.3751 355.283 36.9517 356.371 37.1163Z" fill="black"/>
<path d="M431.179 65.4987L441.717 44.6055L446.217 46.875L437.463 64.2325L446.195 68.6365L444.412 72.1722L431.179 65.4987Z" fill="black"/>
<path d="M451.327 77.0427C448.75 75.5459 447.249 73.6909 446.823 71.4775C446.424 69.2569 446.948 66.9014 448.395 64.411C449.841 61.9206 451.623 60.3071 453.739 59.5704C455.883 58.8265 458.243 59.2029 460.82 60.6996C463.397 62.1964 464.884 64.0551 465.283 66.2757C465.709 68.4891 465.198 70.8409 463.752 73.3313C462.305 75.8217 460.51 77.4388 458.367 78.1828C456.25 78.9195 453.904 78.5394 451.327 77.0427ZM452.954 74.241C454.096 74.904 455.196 74.9416 456.254 74.3537C457.313 73.7658 458.364 72.5725 459.409 70.7739C460.444 68.9926 460.949 67.5053 460.925 66.3119C460.911 65.1011 460.334 64.1643 459.192 63.5013C458.051 62.8383 456.951 62.8008 455.893 63.3887C454.844 63.9593 453.803 65.1352 452.768 66.9165C451.723 68.7151 451.208 70.2198 451.221 71.4305C451.235 72.6412 451.813 73.578 452.954 74.241Z" fill="black"/>
<path d="M465.239 85.997C463.845 85.0591 462.924 83.9568 462.474 82.6901C462.036 81.4069 461.998 80.031 462.359 78.5626C462.72 77.0942 463.403 75.6133 464.408 74.12C465.447 72.5768 466.573 71.3697 467.786 70.4985C469.015 69.6384 470.296 69.1863 471.627 69.1422C472.959 69.098 474.305 69.5337 475.665 70.4493C476.711 71.1527 477.426 71.9352 477.81 72.7966C478.223 73.6527 478.374 74.5381 478.265 75.4529L478.862 75.8548L480.168 73.9135L483.902 76.4258L473.853 91.3594L470.119 88.8471L471.426 86.9057L470.828 86.5038C470.056 86.8998 469.192 87.0902 468.238 87.075C467.284 87.0598 466.284 86.7005 465.239 85.997ZM468.194 83.8631C469.206 84.5442 470.307 84.646 471.496 84.1686C472.713 83.6857 473.829 82.6892 474.845 81.1793C475.872 79.6527 476.375 78.2432 476.353 76.9506C476.347 75.6692 475.838 74.688 474.826 74.0069C473.914 73.3927 472.913 73.3219 471.823 73.7942C470.762 74.2611 469.678 75.3159 468.573 76.9586C467.468 78.6013 466.893 80.0106 466.849 81.1864C466.833 82.3567 467.281 83.249 468.194 83.8631Z" fill="black"/>
<path d="M479.257 96.3982C477.96 95.3951 477.136 94.253 476.787 92.9718C476.45 91.6747 476.51 90.3054 476.967 88.864C477.424 87.4225 478.203 85.9897 479.304 84.5656C480.442 83.094 481.644 81.9634 482.912 81.1738C484.195 80.3965 485.495 80.0234 486.811 80.0546C488.142 80.098 489.441 80.609 490.707 81.5876C491.64 82.3093 492.271 83.0625 492.6 83.8474C492.944 84.6445 493.07 85.4624 492.978 86.3012L493.548 86.7415L498.428 80.428L502.273 83.4004L487.595 102.388L484.035 99.6362L485.466 97.7849L484.896 97.3445C484.099 97.6889 483.225 97.8222 482.274 97.7443C481.323 97.6664 480.318 97.2177 479.257 96.3982ZM482.441 94.5364C483.406 95.2825 484.498 95.4565 485.716 95.0582C486.962 94.6563 488.141 93.7354 489.254 92.2955C490.38 90.8398 490.974 89.4663 491.037 88.1751C491.115 86.8961 490.672 85.8835 489.707 85.1374C488.836 84.4646 487.842 84.3281 486.724 84.7278C485.635 85.124 484.484 86.1053 483.273 87.6718C482.062 89.2383 481.396 90.6067 481.275 91.7771C481.182 92.9439 481.571 93.8636 482.441 94.5364Z" fill="black"/>
<path d="M489.912 104.832L501.781 91.2993L505.435 94.5038L493.566 108.037L489.912 104.832ZM504.973 91.3453C504.326 90.7782 503.982 90.1843 503.942 89.5633C503.914 88.9274 504.138 88.3387 504.613 87.7974C505.087 87.2561 505.635 86.9651 506.256 86.9245C506.89 86.8687 507.53 87.1244 508.177 87.6915C508.824 88.2585 509.161 88.86 509.188 89.496C509.229 90.1169 509.012 90.698 508.537 91.2393C508.062 91.7807 507.508 92.0792 506.874 92.1349C506.253 92.1756 505.619 91.9124 504.973 91.3453Z" fill="black"/>
<path d="M496.589 110.866L508.989 97.8184L512.251 100.918L510.391 102.876L510.913 103.372C511.794 102.967 512.709 102.802 513.659 102.877C514.623 102.966 515.634 103.513 516.693 104.519C518.142 105.897 518.796 107.387 518.653 108.989C518.509 110.591 517.694 112.175 516.206 113.741L508.332 122.026L504.809 118.678L512.125 110.98C512.979 110.081 513.474 109.241 513.61 108.459C513.759 107.663 513.472 106.921 512.747 106.232C511.906 105.433 510.937 105.146 509.839 105.372C508.755 105.584 507.745 106.182 506.808 107.168L500.112 114.214L496.589 110.866Z" fill="black"/>
<path d="M509.472 133.255C508.332 132.021 507.564 130.879 507.167 129.83C506.769 128.809 506.608 127.883 506.684 127.051C506.773 126.233 506.978 125.527 507.299 124.931C507.621 124.335 507.944 123.86 508.269 123.505L511.484 126.988C511.126 127.455 510.927 128.02 510.886 128.684C510.845 129.347 511.198 130.083 511.944 130.891C512.785 131.802 513.688 132.235 514.652 132.189C515.602 132.156 516.569 131.685 517.553 130.776L519.119 129.331L518.63 128.802C517.808 129.18 516.956 129.259 516.073 129.04C515.205 128.807 514.35 128.235 513.509 127.324C511.922 125.604 511.303 123.739 511.652 121.729C512.03 119.721 513.218 117.794 515.217 115.949C516.495 114.769 517.81 113.922 519.161 113.41C520.526 112.885 521.855 112.761 523.146 113.039C524.437 113.317 525.632 114.051 526.73 115.242C527.572 116.153 528.067 117.043 528.216 117.912C528.393 118.783 528.31 119.622 527.967 120.429L528.455 120.958L530.042 119.493L533.094 122.799L520.86 134.093C519.038 135.775 517.166 136.578 515.244 136.501C513.322 136.424 511.398 135.342 509.472 133.255ZM516.918 125.974C517.718 126.841 518.709 127.178 519.892 126.984C521.088 126.806 522.31 126.14 523.56 124.987C524.809 123.834 525.563 122.675 525.822 121.511C526.109 120.347 525.852 119.332 525.052 118.465C524.306 117.657 523.371 117.322 522.247 117.461C521.137 117.615 519.906 118.316 518.554 119.564C517.172 120.839 516.361 122.024 516.119 123.118C515.905 124.214 516.171 125.165 516.918 125.974Z" fill="black"/>
<path d="M549.18 178.317L569.711 167.091L572.129 171.513L555.073 180.839L559.765 189.42L556.291 191.32L549.18 178.317Z" fill="black"/>
<path d="M559.224 199.336C557.952 196.641 557.768 194.261 558.674 192.197C559.606 190.143 561.374 188.5 563.978 187.271C566.583 186.041 568.965 185.724 571.126 186.318C573.313 186.922 575.043 188.571 576.315 191.266C577.587 193.961 577.757 196.335 576.826 198.39C575.92 200.454 574.165 202.101 571.561 203.331C568.957 204.56 566.561 204.873 564.374 204.269C562.213 203.675 560.497 202.03 559.224 199.336ZM562.154 197.952C562.718 199.146 563.602 199.801 564.807 199.918C566.012 200.034 567.555 199.648 569.436 198.76C571.299 197.881 572.559 196.943 573.217 195.947C573.893 194.942 573.949 193.843 573.385 192.649C572.822 191.456 571.937 190.801 570.732 190.684C569.545 190.559 568.02 190.936 566.157 191.816C564.276 192.704 562.998 193.65 562.322 194.655C561.647 195.659 561.591 196.759 562.154 197.952Z" fill="black"/>
<path d="M565.069 213.346C564.449 211.785 564.312 210.354 564.658 209.056C565.021 207.749 565.767 206.593 566.896 205.586C568.024 204.579 569.424 203.743 571.097 203.079C572.826 202.393 574.437 202.034 575.93 202.001C577.431 201.987 578.743 202.337 579.866 203.054C580.989 203.77 581.853 204.89 582.458 206.415C582.923 207.586 583.07 208.635 582.901 209.563C582.757 210.503 582.381 211.319 581.774 212.011L582.04 212.681L584.215 211.818L585.874 216L569.143 222.639L567.484 218.456L569.659 217.593L569.393 216.924C568.532 216.814 567.712 216.483 566.933 215.931C566.155 215.379 565.534 214.517 565.069 213.346ZM568.713 213.256C569.162 214.39 570.013 215.096 571.264 215.375C572.54 215.664 574.025 215.473 575.716 214.802C577.427 214.124 578.638 213.245 579.35 212.166C580.07 211.106 580.205 210.009 579.755 208.875C579.349 207.852 578.564 207.228 577.398 207.002C576.259 206.787 574.769 207.045 572.928 207.775C571.088 208.505 569.817 209.343 569.116 210.288C568.441 211.244 568.307 212.234 568.713 213.256Z" fill="black"/>
<path d="M570.953 230.534C570.452 228.972 570.421 227.564 570.86 226.311C571.317 225.051 572.143 223.957 573.336 223.028C574.53 222.1 575.984 221.361 577.698 220.812C579.47 220.244 581.101 219.995 582.593 220.063C584.091 220.15 585.373 220.579 586.439 221.351C587.512 222.141 588.292 223.298 588.78 224.822C589.14 225.946 589.233 226.924 589.059 227.757C588.891 228.609 588.531 229.354 587.98 229.993L588.199 230.679L595.799 228.244L597.281 232.872L574.426 240.195L573.053 235.909L575.281 235.195L575.062 234.509C574.21 234.341 573.414 233.956 572.675 233.353C571.936 232.749 571.362 231.81 570.953 230.534ZM574.631 230.804C575.003 231.966 575.804 232.728 577.033 233.09C578.287 233.466 579.781 233.376 581.514 232.82C583.266 232.259 584.534 231.464 585.318 230.436C586.108 229.427 586.316 228.342 585.944 227.18C585.609 226.132 584.867 225.456 583.719 225.152C582.597 224.86 581.093 225.017 579.207 225.621C577.322 226.225 575.997 226.975 575.234 227.87C574.496 228.779 574.295 229.757 574.631 230.804Z" fill="black"/>
<path d="M574.994 243.855L592.454 239.477L593.635 244.192L576.176 248.569L574.994 243.855ZM595.052 241.331C594.843 240.497 594.899 239.813 595.218 239.279C595.558 238.74 596.076 238.384 596.775 238.208C597.473 238.033 598.089 238.106 598.623 238.425C599.176 238.74 599.557 239.315 599.766 240.149C599.976 240.983 599.911 241.67 599.571 242.208C599.252 242.742 598.743 243.097 598.044 243.272C597.346 243.447 596.72 243.377 596.167 243.062C595.633 242.742 595.262 242.165 595.052 241.331Z" fill="black"/>
<path d="M576.831 251.664L594.445 247.955L595.372 252.358L592.73 252.915L592.878 253.619C593.833 253.786 594.68 254.17 595.42 254.77C596.164 255.39 596.686 256.414 596.987 257.843C597.399 259.8 597.092 261.398 596.065 262.636C595.038 263.874 593.468 264.716 591.354 265.161L580.17 267.516L579.168 262.761L589.56 260.572C590.773 260.317 591.658 259.906 592.213 259.339C592.788 258.768 592.972 257.994 592.766 257.015C592.527 255.88 591.891 255.094 590.859 254.658C589.846 254.217 588.675 254.137 587.344 254.417L577.833 256.42L576.831 251.664Z" fill="black"/>
<path d="M574.873 278.598C574.641 276.934 574.661 275.558 574.933 274.47C575.188 273.405 575.584 272.552 576.12 271.912C576.66 271.291 577.231 270.828 577.835 270.521C578.438 270.215 578.975 270.009 579.445 269.903L580.1 274.597C579.539 274.777 579.053 275.127 578.641 275.649C578.229 276.171 578.1 276.977 578.252 278.066C578.423 279.294 578.918 280.164 579.737 280.676C580.535 281.19 581.598 281.355 582.926 281.17L585.035 280.875L584.936 280.162C584.045 280.004 583.3 279.583 582.7 278.899C582.119 278.213 581.743 277.256 581.572 276.028C581.248 273.71 581.803 271.825 583.236 270.373C584.692 268.938 586.766 268.033 589.46 267.657C591.184 267.416 592.746 267.471 594.148 267.82C595.57 268.167 596.731 268.823 597.633 269.787C598.535 270.752 599.098 272.037 599.322 273.641C599.494 274.869 599.393 275.883 599.02 276.682C598.669 277.498 598.123 278.14 597.38 278.607L597.48 279.32L599.619 279.022L600.241 283.478L583.751 285.78C581.295 286.123 579.299 285.715 577.764 284.556C576.229 283.397 575.265 281.411 574.873 278.598ZM585.141 276.862C585.304 278.031 585.927 278.873 587.008 279.388C588.093 279.924 589.477 280.074 591.161 279.839C592.844 279.604 594.124 279.082 595.001 278.273C595.9 277.481 596.268 276.501 596.105 275.332C595.953 274.243 595.376 273.435 594.373 272.908C593.374 272.401 591.963 272.275 590.14 272.53C588.278 272.789 586.936 273.3 586.113 274.061C585.313 274.839 584.989 275.773 585.141 276.862Z" fill="black"/>
<path d="M602.13 314.275C602.13 319.246 598.101 323.275 593.13 323.275C588.16 323.275 584.13 319.246 584.13 314.275C584.13 309.305 588.16 305.275 593.13 305.275C598.101 305.275 602.13 309.305 602.13 314.275Z" fill="black"/>
<path d="M551.13 147.275C551.13 152.246 547.101 156.275 542.13 156.275C537.16 156.275 533.13 152.246 533.13 147.275C533.13 142.305 537.16 138.275 542.13 138.275C547.101 138.275 551.13 142.305 551.13 147.275Z" fill="black"/>
<path d="M401.13 40.2753C401.13 45.2459 397.101 49.2753 392.13 49.2753C387.16 49.2753 383.13 45.2459 383.13 40.2753C383.13 35.3048 387.16 31.2753 392.13 31.2753C397.101 31.2753 401.13 35.3048 401.13 40.2753Z" fill="black"/>
<path d="M229.13 41.2753C229.13 46.2459 225.101 50.2753 220.13 50.2753C215.16 50.2753 211.13 46.2459 211.13 41.2753C211.13 36.3048 215.16 32.2753 220.13 32.2753C225.101 32.2753 229.13 36.3048 229.13 41.2753Z" fill="black"/>
<path d="M87.1304 150.275C87.1304 155.246 83.1009 159.275 78.1304 159.275C73.1598 159.275 69.1304 155.246 69.1304 150.275C69.1304 145.305 73.1598 141.275 78.1304 141.275C83.1009 141.275 87.1304 145.305 87.1304 150.275Z" fill="black"/>
<path d="M37.1304 320.275C37.1304 325.246 33.1009 329.275 28.1304 329.275C23.1598 329.275 19.1304 325.246 19.1304 320.275C19.1304 315.305 23.1598 311.275 28.1304 311.275C33.1009 311.275 37.1304 315.305 37.1304 320.275Z" fill="black"/>
<path d="M97.1304 482.275C97.1304 487.246 93.1009 491.275 88.1304 491.275C83.1598 491.275 79.1304 487.246 79.1304 482.275C79.1304 477.305 83.1598 473.275 88.1304 473.275C93.1009 473.275 97.1304 477.305 97.1304 482.275Z" fill="black"/>
<path d="M234.13 582.275C234.13 587.246 230.101 591.275 225.13 591.275C220.16 591.275 216.13 587.246 216.13 582.275C216.13 577.305 220.16 573.275 225.13 573.275C230.101 573.275 234.13 577.305 234.13 582.275Z" fill="black"/>
<path d="M403.13 580.275C403.13 585.246 399.101 589.275 394.13 589.275C389.16 589.275 385.13 585.246 385.13 580.275C385.13 575.305 389.16 571.275 394.13 571.275C399.101 571.275 403.13 575.305 403.13 580.275Z" fill="black"/>
<path d="M544.13 485.275C544.13 490.246 540.101 494.275 535.13 494.275C530.16 494.275 526.13 490.246 526.13 485.275C526.13 480.305 530.16 476.275 535.13 476.275C540.101 476.275 544.13 480.305 544.13 485.275Z" fill="black"/>
</svg>
