<svg width="730" height="140" viewBox="0 0 730 140" fill="none" xmlns="http://www.w3.org/2000/svg">
<g filter="url(#filter0_d_13_17)">
<mask id="path-1-outside-1_13_17" maskUnits="userSpaceOnUse" x="0.279999" y="0.0799561" width="726" height="140" fill="black">
<rect fill="white" x="0.279999" y="0.0799561" width="726" height="140"/>
<path d="M43.832 135.92C33.208 135.92 23.992 132.976 16.056 127.088C8.12 121.2 4.28 114.288 4.28 106.48C4.28 104.176 6.328 101.36 10.68 98.032C14.904 94.704 19.512 92.016 24.504 89.712C29.368 87.408 32.952 86.384 35.256 86.384C37.304 86.512 38.968 87.28 40.248 88.56C41.528 89.84 42.04 91.632 41.784 93.936C41.4 96.496 41.144 98.544 41.016 100.08C40.76 101.616 40.632 103.536 40.632 106.096C40.504 108.656 40.632 110.704 40.888 112.24C41.144 113.776 41.656 115.568 42.424 117.488C43.192 119.536 44.088 121.072 45.368 122.096C46.648 123.12 48.312 124.016 50.36 124.784C52.408 125.552 54.84 125.936 57.656 125.936C62.648 125.936 67 124.272 70.712 120.944C74.424 117.616 76.344 113.52 76.344 108.656C76.344 102.768 74.168 97.904 69.816 94.32C65.464 90.736 59.704 87.792 52.28 85.488C47.928 84.208 44.344 83.056 41.528 82.032C38.712 81.136 35.512 79.984 31.928 78.448C28.216 76.912 25.272 75.504 22.968 73.968C20.664 72.56 18.36 70.768 15.8 68.592C13.24 66.544 11.32 64.24 9.912 61.808C8.504 59.504 7.352 56.688 6.456 53.488C5.56 50.288 5.176 46.832 5.176 42.992C5.176 32.24 9.016 23.152 16.824 15.472C24.632 7.91996 33.976 4.07996 44.728 4.07996C47.8 4.07996 52.536 4.97597 58.808 6.63996C64.952 8.43196 70.072 9.19997 74.168 9.19997C77.496 9.19997 80.568 8.43196 83.64 6.63996C86.584 4.97597 88.504 4.07996 89.528 4.07996C92.216 4.07996 93.112 6.89597 92.344 12.4C91.32 19.056 88.632 25.328 84.28 31.088C80.056 36.72 75.704 39.536 71.224 39.536C67 39.536 62.648 38.768 58.168 37.104C53.688 35.568 49.848 33.776 46.648 31.856C43.448 30.064 39.736 28.272 35.512 26.608C31.288 25.072 27.32 24.176 23.48 24.176C21.048 24.176 19 25.072 17.336 26.864C15.672 28.656 14.904 30.704 14.904 33.136C14.904 35.056 15.288 36.848 16.312 38.384C17.336 40.048 18.488 41.456 20.024 42.48C21.432 43.632 23.48 44.656 26.04 45.552C28.6 46.576 30.904 47.344 33.08 47.856C35.256 48.368 38.072 48.88 41.4 49.392C44.728 49.904 47.544 50.288 49.848 50.544C52.024 50.8 54.84 51.056 58.424 51.312C69.176 52.336 77.88 56.176 84.536 62.704C91.192 69.36 94.52 77.552 94.52 87.28C94.52 93.296 93.496 99.056 91.448 104.56C89.4 110.192 86.456 115.312 82.616 120.048C78.648 124.912 73.272 128.752 66.616 131.568C59.96 134.512 52.28 135.92 43.832 135.92Z"/>
<path d="M104.406 21.104C104.406 17.264 104.022 14.192 103.254 11.888C102.486 9.58396 101.078 7.66396 99.03 5.99997H137.174C139.606 5.99997 141.526 7.27996 143.062 9.58396C144.598 11.888 145.366 14.448 145.366 17.136C145.366 22.384 144.086 27.504 141.782 32.624C139.35 37.744 136.406 42.352 133.078 46.448C129.75 50.544 126.294 54.64 122.966 58.736C119.51 62.832 116.566 67.184 114.262 71.792C111.83 76.4 110.678 81.008 110.678 85.616C110.678 90.736 112.214 95.088 115.414 98.544C118.614 102.128 122.326 104.56 126.678 105.84C130.902 107.248 135.382 107.888 140.246 107.888C146.902 107.888 152.406 105.84 156.758 101.616C161.11 97.392 163.414 91.504 163.414 83.952V21.104C163.414 17.264 163.03 14.192 162.262 11.888C161.494 9.58396 160.086 7.66396 158.038 5.99997H202.07C200.022 7.66396 198.614 9.58396 197.846 11.888C197.078 14.192 196.694 17.264 196.694 21.104V86.768C196.694 94.32 195.67 101.104 193.622 106.992C191.574 112.88 188.886 117.616 185.814 121.2C182.614 124.784 178.902 127.6 174.678 129.904C170.326 132.208 166.23 133.872 162.39 134.64C158.422 135.536 154.454 135.92 150.358 135.92C146.262 135.92 142.166 135.536 138.326 134.64C134.358 133.872 130.262 132.208 126.166 129.904C121.942 127.6 118.23 124.784 115.158 121.2C111.958 117.616 109.398 112.88 107.35 106.992C105.302 101.104 104.406 94.32 104.406 86.768V21.104Z"/>
<path d="M209.135 21.104C209.135 14.064 207.599 9.07196 204.655 5.99997H259.695C271.343 5.99997 280.303 9.19997 286.575 15.344C292.719 21.488 295.919 29.04 295.919 37.744C295.919 45.936 292.719 53.36 286.319 60.016C279.919 66.672 271.215 70 260.335 70C254.959 70 248.175 69.104 240.111 67.312C231.919 65.52 227.055 64.496 225.263 64.496C223.215 64.496 222.319 65.264 222.319 66.544C222.319 67.184 222.575 67.696 223.087 68.208C223.599 68.72 224.367 69.104 225.391 69.488C226.415 70 227.567 70.384 228.847 70.64C229.999 71.024 231.535 71.408 233.327 71.664C235.119 71.92 236.655 72.176 238.191 72.432C239.727 72.688 241.519 72.816 243.695 73.072C245.871 73.328 247.663 73.456 249.071 73.584C250.479 73.712 252.271 73.84 254.575 74.096C256.751 74.352 258.415 74.48 259.439 74.48C284.527 77.04 297.199 87.536 297.199 106.096C297.199 113.776 294.127 120.304 288.111 125.808C281.967 131.312 274.671 134 265.967 134H204.655C207.599 131.056 209.135 126.064 209.135 118.896V21.104ZM250.351 31.6C241.391 31.6 233.327 33.392 226.415 36.848C219.375 40.432 215.919 44.656 215.919 49.648C215.919 52.464 217.199 54.768 219.759 56.304C222.319 57.968 225.391 58.736 229.103 58.736C239.343 58.736 247.663 56.944 254.063 53.104C260.463 49.392 263.791 45.424 263.791 41.072C263.791 38.512 262.511 36.208 260.207 34.416C257.775 32.624 254.447 31.6 250.351 31.6ZM217.583 74.48C216.559 74.48 216.047 74.992 216.047 75.888C216.047 76.4 216.175 76.912 216.559 77.68C216.943 78.448 217.455 79.216 218.223 80.24C218.991 81.264 219.631 82.032 220.271 82.8C220.911 83.568 221.807 84.592 222.831 85.744C223.855 87.024 224.623 87.792 225.135 88.304C227.695 91.376 229.743 93.68 231.151 95.216C232.559 96.752 234.735 98.8 237.551 101.36C240.367 103.92 243.183 105.84 245.999 106.992C248.815 108.272 251.631 108.784 254.575 108.784C258.031 108.784 260.591 107.888 262.255 105.968C263.919 104.176 264.815 102 264.815 99.696C264.815 92.4 256.367 86.128 239.599 80.88C236.783 80.112 233.967 79.216 230.895 78.192C227.823 77.168 225.647 76.528 224.367 76.016C223.087 75.632 221.807 75.248 220.527 74.992C219.247 74.736 218.351 74.48 217.583 74.48Z"/>
<path d="M294.625 134C296.161 132.72 297.697 130.544 299.233 127.6C300.769 124.656 301.793 122.096 302.561 119.92C303.201 117.744 304.353 114.16 305.889 109.168C310.753 93.04 314.465 78.832 317.153 66.672C319.841 54.64 323.041 38.64 326.625 18.928C327.649 13.168 326.625 8.81596 323.809 5.99997H380.513C377.569 8.81596 376.673 13.168 377.697 18.928C381.281 38.64 384.353 54.64 387.041 66.672C389.729 78.832 393.569 93.04 398.433 109.168C399.969 114.16 400.993 117.744 401.761 119.92C402.401 122.096 403.425 124.656 404.961 127.6C406.497 130.544 408.033 132.72 409.697 134H356.833C359.905 130.544 361.441 125.936 361.441 120.048C361.441 115.184 360.033 104.688 357.217 88.56H338.401C340.321 93.296 341.729 97.008 342.753 99.568C343.777 102.256 344.673 105.584 345.697 109.552C346.721 113.52 347.233 117.104 347.233 120.432C347.233 124.144 346.465 127.344 345.057 130.032C343.649 132.72 341.217 134 337.889 134H294.625ZM335.969 82.8H356.065C349.409 48.368 343.009 31.088 336.993 31.088C331.105 31.088 328.161 37.744 328.161 50.928C328.161 59.376 330.721 70 335.969 82.8Z"/>
<path d="M409.75 134C411.286 132.72 412.822 130.544 414.358 127.6C415.894 124.656 416.918 122.096 417.686 119.92C418.326 117.744 419.478 114.16 421.014 109.168C425.878 93.04 429.59 78.832 432.278 66.672C434.966 54.64 438.166 38.64 441.75 18.928C442.774 13.168 441.75 8.81596 438.934 5.99997H495.638C492.694 8.81596 491.798 13.168 492.822 18.928C496.406 38.64 499.478 54.64 502.166 66.672C504.854 78.832 508.694 93.04 513.558 109.168C515.094 114.16 516.118 117.744 516.886 119.92C517.526 122.096 518.55 124.656 520.086 127.6C521.622 130.544 523.158 132.72 524.822 134H471.958C475.03 130.544 476.566 125.936 476.566 120.048C476.566 115.184 475.158 104.688 472.342 88.56H453.526C455.446 93.296 456.854 97.008 457.878 99.568C458.902 102.256 459.798 105.584 460.822 109.552C461.846 113.52 462.358 117.104 462.358 120.432C462.358 124.144 461.59 127.344 460.182 130.032C458.774 132.72 456.342 134 453.014 134H409.75ZM451.094 82.8H471.19C464.534 48.368 458.134 31.088 452.118 31.088C446.23 31.088 443.286 37.744 443.286 50.928C443.286 59.376 445.846 70 451.094 82.8Z"/>
<path d="M561.832 135.92C551.208 135.92 541.992 132.976 534.056 127.088C526.12 121.2 522.28 114.288 522.28 106.48C522.28 104.176 524.328 101.36 528.68 98.032C532.904 94.704 537.512 92.016 542.504 89.712C547.368 87.408 550.952 86.384 553.256 86.384C555.304 86.512 556.968 87.28 558.248 88.56C559.528 89.84 560.04 91.632 559.784 93.936C559.4 96.496 559.144 98.544 559.016 100.08C558.76 101.616 558.632 103.536 558.632 106.096C558.504 108.656 558.632 110.704 558.888 112.24C559.144 113.776 559.656 115.568 560.424 117.488C561.192 119.536 562.088 121.072 563.368 122.096C564.648 123.12 566.312 124.016 568.36 124.784C570.408 125.552 572.84 125.936 575.656 125.936C580.648 125.936 585 124.272 588.712 120.944C592.424 117.616 594.344 113.52 594.344 108.656C594.344 102.768 592.168 97.904 587.816 94.32C583.464 90.736 577.704 87.792 570.28 85.488C565.928 84.208 562.344 83.056 559.528 82.032C556.712 81.136 553.512 79.984 549.928 78.448C546.216 76.912 543.272 75.504 540.968 73.968C538.664 72.56 536.36 70.768 533.8 68.592C531.24 66.544 529.32 64.24 527.912 61.808C526.504 59.504 525.352 56.688 524.456 53.488C523.56 50.288 523.176 46.832 523.176 42.992C523.176 32.24 527.016 23.152 534.824 15.472C542.632 7.91996 551.976 4.07996 562.728 4.07996C565.8 4.07996 570.536 4.97597 576.808 6.63996C582.952 8.43196 588.072 9.19997 592.168 9.19997C595.496 9.19997 598.568 8.43196 601.64 6.63996C604.584 4.97597 606.504 4.07996 607.528 4.07996C610.216 4.07996 611.112 6.89597 610.344 12.4C609.32 19.056 606.632 25.328 602.28 31.088C598.056 36.72 593.704 39.536 589.224 39.536C585 39.536 580.648 38.768 576.168 37.104C571.688 35.568 567.848 33.776 564.648 31.856C561.448 30.064 557.736 28.272 553.512 26.608C549.288 25.072 545.32 24.176 541.48 24.176C539.048 24.176 537 25.072 535.336 26.864C533.672 28.656 532.904 30.704 532.904 33.136C532.904 35.056 533.288 36.848 534.312 38.384C535.336 40.048 536.488 41.456 538.024 42.48C539.432 43.632 541.48 44.656 544.04 45.552C546.6 46.576 548.904 47.344 551.08 47.856C553.256 48.368 556.072 48.88 559.4 49.392C562.728 49.904 565.544 50.288 567.848 50.544C570.024 50.8 572.84 51.056 576.424 51.312C587.176 52.336 595.88 56.176 602.536 62.704C609.192 69.36 612.52 77.552 612.52 87.28C612.52 93.296 611.496 99.056 609.448 104.56C607.4 110.192 604.456 115.312 600.616 120.048C596.648 124.912 591.272 128.752 584.616 131.568C577.96 134.512 570.28 135.92 561.832 135.92Z"/>
<path d="M647.238 134H617.03C619.974 131.056 621.51 126.064 621.51 118.896V21.104C621.51 14.064 619.974 9.07196 617.03 5.99997H650.95C652.486 5.99997 654.022 7.02396 655.558 9.07196C656.966 11.12 657.734 13.168 657.734 15.344C657.734 19.696 656.71 23.28 654.662 26.352C652.614 29.424 650.054 31.728 647.11 33.264C644.166 34.8 641.222 36.208 638.406 37.488C635.462 38.768 633.03 40.176 630.982 41.84C628.934 43.504 627.91 45.424 627.91 47.728C627.91 48.496 628.038 49.008 628.55 49.52C629.062 50.032 629.574 50.288 630.342 50.288C631.366 50.288 633.286 49.648 635.846 48.112C638.406 46.704 642.374 45.296 647.494 43.76C652.614 42.224 658.758 41.456 666.054 41.456C673.222 41.456 679.366 42.224 684.614 43.76C689.862 45.296 693.83 46.704 696.646 48.112C699.334 49.648 701.254 50.288 702.406 50.288C703.046 50.288 703.558 50.032 704.07 49.52C704.582 49.008 704.838 48.496 704.838 47.728C704.838 45.424 703.814 43.504 701.766 41.84C699.718 40.176 697.158 38.768 694.214 37.488C691.27 36.208 688.326 34.8 685.51 33.264C682.566 31.728 680.134 29.424 678.086 26.352C676.038 23.28 675.014 19.696 675.014 15.344C675.014 13.168 675.654 11.12 677.19 9.07196C678.598 7.02396 680.134 5.99997 681.798 5.99997H715.718C712.646 9.07196 711.238 14.064 711.238 21.104V118.896C711.238 126.064 712.646 131.056 715.718 134H685.51C680.774 134 677.318 132.976 675.27 130.672C673.222 128.368 672.198 125.68 672.198 122.608C672.198 118 673.222 113.392 675.526 108.656C677.83 104.048 680.518 99.824 683.718 95.984C686.79 92.144 689.99 88.56 693.19 85.104C696.39 81.776 699.078 78.448 701.382 75.12C703.686 71.92 704.838 69.104 704.838 66.672C704.838 65.264 704.198 64.496 702.918 64.496C702.15 64.496 700.87 65.136 699.078 66.16C697.286 67.312 695.238 68.464 693.062 69.744C690.758 71.024 687.174 72.304 682.31 73.328C677.446 74.48 671.814 74.992 665.542 74.992C659.142 74.992 653.638 74.48 648.902 73.328C644.166 72.304 640.838 71.024 638.79 69.744C636.742 68.464 634.95 67.312 633.414 66.16C631.75 65.136 630.598 64.496 629.83 64.496C628.55 64.496 627.91 65.264 627.91 66.672C627.91 69.104 628.934 71.92 631.238 75.12C633.542 78.448 636.23 81.776 639.43 85.104C642.502 88.56 645.702 92.144 648.902 95.984C652.102 99.824 654.79 104.048 657.094 108.656C659.398 113.392 660.55 118 660.55 122.608C660.55 125.68 659.398 128.368 657.35 130.672C655.302 132.976 651.846 134 647.238 134Z"/>
</mask>
<path d="M43.832 135.92C33.208 135.92 23.992 132.976 16.056 127.088C8.12 121.2 4.28 114.288 4.28 106.48C4.28 104.176 6.328 101.36 10.68 98.032C14.904 94.704 19.512 92.016 24.504 89.712C29.368 87.408 32.952 86.384 35.256 86.384C37.304 86.512 38.968 87.28 40.248 88.56C41.528 89.84 42.04 91.632 41.784 93.936C41.4 96.496 41.144 98.544 41.016 100.08C40.76 101.616 40.632 103.536 40.632 106.096C40.504 108.656 40.632 110.704 40.888 112.24C41.144 113.776 41.656 115.568 42.424 117.488C43.192 119.536 44.088 121.072 45.368 122.096C46.648 123.12 48.312 124.016 50.36 124.784C52.408 125.552 54.84 125.936 57.656 125.936C62.648 125.936 67 124.272 70.712 120.944C74.424 117.616 76.344 113.52 76.344 108.656C76.344 102.768 74.168 97.904 69.816 94.32C65.464 90.736 59.704 87.792 52.28 85.488C47.928 84.208 44.344 83.056 41.528 82.032C38.712 81.136 35.512 79.984 31.928 78.448C28.216 76.912 25.272 75.504 22.968 73.968C20.664 72.56 18.36 70.768 15.8 68.592C13.24 66.544 11.32 64.24 9.912 61.808C8.504 59.504 7.352 56.688 6.456 53.488C5.56 50.288 5.176 46.832 5.176 42.992C5.176 32.24 9.016 23.152 16.824 15.472C24.632 7.91996 33.976 4.07996 44.728 4.07996C47.8 4.07996 52.536 4.97597 58.808 6.63996C64.952 8.43196 70.072 9.19997 74.168 9.19997C77.496 9.19997 80.568 8.43196 83.64 6.63996C86.584 4.97597 88.504 4.07996 89.528 4.07996C92.216 4.07996 93.112 6.89597 92.344 12.4C91.32 19.056 88.632 25.328 84.28 31.088C80.056 36.72 75.704 39.536 71.224 39.536C67 39.536 62.648 38.768 58.168 37.104C53.688 35.568 49.848 33.776 46.648 31.856C43.448 30.064 39.736 28.272 35.512 26.608C31.288 25.072 27.32 24.176 23.48 24.176C21.048 24.176 19 25.072 17.336 26.864C15.672 28.656 14.904 30.704 14.904 33.136C14.904 35.056 15.288 36.848 16.312 38.384C17.336 40.048 18.488 41.456 20.024 42.48C21.432 43.632 23.48 44.656 26.04 45.552C28.6 46.576 30.904 47.344 33.08 47.856C35.256 48.368 38.072 48.88 41.4 49.392C44.728 49.904 47.544 50.288 49.848 50.544C52.024 50.8 54.84 51.056 58.424 51.312C69.176 52.336 77.88 56.176 84.536 62.704C91.192 69.36 94.52 77.552 94.52 87.28C94.52 93.296 93.496 99.056 91.448 104.56C89.4 110.192 86.456 115.312 82.616 120.048C78.648 124.912 73.272 128.752 66.616 131.568C59.96 134.512 52.28 135.92 43.832 135.92Z" fill="black" fill-opacity="0.04" shape-rendering="crispEdges"/>
<path d="M104.406 21.104C104.406 17.264 104.022 14.192 103.254 11.888C102.486 9.58396 101.078 7.66396 99.03 5.99997H137.174C139.606 5.99997 141.526 7.27996 143.062 9.58396C144.598 11.888 145.366 14.448 145.366 17.136C145.366 22.384 144.086 27.504 141.782 32.624C139.35 37.744 136.406 42.352 133.078 46.448C129.75 50.544 126.294 54.64 122.966 58.736C119.51 62.832 116.566 67.184 114.262 71.792C111.83 76.4 110.678 81.008 110.678 85.616C110.678 90.736 112.214 95.088 115.414 98.544C118.614 102.128 122.326 104.56 126.678 105.84C130.902 107.248 135.382 107.888 140.246 107.888C146.902 107.888 152.406 105.84 156.758 101.616C161.11 97.392 163.414 91.504 163.414 83.952V21.104C163.414 17.264 163.03 14.192 162.262 11.888C161.494 9.58396 160.086 7.66396 158.038 5.99997H202.07C200.022 7.66396 198.614 9.58396 197.846 11.888C197.078 14.192 196.694 17.264 196.694 21.104V86.768C196.694 94.32 195.67 101.104 193.622 106.992C191.574 112.88 188.886 117.616 185.814 121.2C182.614 124.784 178.902 127.6 174.678 129.904C170.326 132.208 166.23 133.872 162.39 134.64C158.422 135.536 154.454 135.92 150.358 135.92C146.262 135.92 142.166 135.536 138.326 134.64C134.358 133.872 130.262 132.208 126.166 129.904C121.942 127.6 118.23 124.784 115.158 121.2C111.958 117.616 109.398 112.88 107.35 106.992C105.302 101.104 104.406 94.32 104.406 86.768V21.104Z" fill="black" fill-opacity="0.04" shape-rendering="crispEdges"/>
<path d="M209.135 21.104C209.135 14.064 207.599 9.07196 204.655 5.99997H259.695C271.343 5.99997 280.303 9.19997 286.575 15.344C292.719 21.488 295.919 29.04 295.919 37.744C295.919 45.936 292.719 53.36 286.319 60.016C279.919 66.672 271.215 70 260.335 70C254.959 70 248.175 69.104 240.111 67.312C231.919 65.52 227.055 64.496 225.263 64.496C223.215 64.496 222.319 65.264 222.319 66.544C222.319 67.184 222.575 67.696 223.087 68.208C223.599 68.72 224.367 69.104 225.391 69.488C226.415 70 227.567 70.384 228.847 70.64C229.999 71.024 231.535 71.408 233.327 71.664C235.119 71.92 236.655 72.176 238.191 72.432C239.727 72.688 241.519 72.816 243.695 73.072C245.871 73.328 247.663 73.456 249.071 73.584C250.479 73.712 252.271 73.84 254.575 74.096C256.751 74.352 258.415 74.48 259.439 74.48C284.527 77.04 297.199 87.536 297.199 106.096C297.199 113.776 294.127 120.304 288.111 125.808C281.967 131.312 274.671 134 265.967 134H204.655C207.599 131.056 209.135 126.064 209.135 118.896V21.104ZM250.351 31.6C241.391 31.6 233.327 33.392 226.415 36.848C219.375 40.432 215.919 44.656 215.919 49.648C215.919 52.464 217.199 54.768 219.759 56.304C222.319 57.968 225.391 58.736 229.103 58.736C239.343 58.736 247.663 56.944 254.063 53.104C260.463 49.392 263.791 45.424 263.791 41.072C263.791 38.512 262.511 36.208 260.207 34.416C257.775 32.624 254.447 31.6 250.351 31.6ZM217.583 74.48C216.559 74.48 216.047 74.992 216.047 75.888C216.047 76.4 216.175 76.912 216.559 77.68C216.943 78.448 217.455 79.216 218.223 80.24C218.991 81.264 219.631 82.032 220.271 82.8C220.911 83.568 221.807 84.592 222.831 85.744C223.855 87.024 224.623 87.792 225.135 88.304C227.695 91.376 229.743 93.68 231.151 95.216C232.559 96.752 234.735 98.8 237.551 101.36C240.367 103.92 243.183 105.84 245.999 106.992C248.815 108.272 251.631 108.784 254.575 108.784C258.031 108.784 260.591 107.888 262.255 105.968C263.919 104.176 264.815 102 264.815 99.696C264.815 92.4 256.367 86.128 239.599 80.88C236.783 80.112 233.967 79.216 230.895 78.192C227.823 77.168 225.647 76.528 224.367 76.016C223.087 75.632 221.807 75.248 220.527 74.992C219.247 74.736 218.351 74.48 217.583 74.48Z" fill="black" fill-opacity="0.04" shape-rendering="crispEdges"/>
<path d="M294.625 134C296.161 132.72 297.697 130.544 299.233 127.6C300.769 124.656 301.793 122.096 302.561 119.92C303.201 117.744 304.353 114.16 305.889 109.168C310.753 93.04 314.465 78.832 317.153 66.672C319.841 54.64 323.041 38.64 326.625 18.928C327.649 13.168 326.625 8.81596 323.809 5.99997H380.513C377.569 8.81596 376.673 13.168 377.697 18.928C381.281 38.64 384.353 54.64 387.041 66.672C389.729 78.832 393.569 93.04 398.433 109.168C399.969 114.16 400.993 117.744 401.761 119.92C402.401 122.096 403.425 124.656 404.961 127.6C406.497 130.544 408.033 132.72 409.697 134H356.833C359.905 130.544 361.441 125.936 361.441 120.048C361.441 115.184 360.033 104.688 357.217 88.56H338.401C340.321 93.296 341.729 97.008 342.753 99.568C343.777 102.256 344.673 105.584 345.697 109.552C346.721 113.52 347.233 117.104 347.233 120.432C347.233 124.144 346.465 127.344 345.057 130.032C343.649 132.72 341.217 134 337.889 134H294.625ZM335.969 82.8H356.065C349.409 48.368 343.009 31.088 336.993 31.088C331.105 31.088 328.161 37.744 328.161 50.928C328.161 59.376 330.721 70 335.969 82.8Z" fill="black" fill-opacity="0.04" shape-rendering="crispEdges"/>
<path d="M409.75 134C411.286 132.72 412.822 130.544 414.358 127.6C415.894 124.656 416.918 122.096 417.686 119.92C418.326 117.744 419.478 114.16 421.014 109.168C425.878 93.04 429.59 78.832 432.278 66.672C434.966 54.64 438.166 38.64 441.75 18.928C442.774 13.168 441.75 8.81596 438.934 5.99997H495.638C492.694 8.81596 491.798 13.168 492.822 18.928C496.406 38.64 499.478 54.64 502.166 66.672C504.854 78.832 508.694 93.04 513.558 109.168C515.094 114.16 516.118 117.744 516.886 119.92C517.526 122.096 518.55 124.656 520.086 127.6C521.622 130.544 523.158 132.72 524.822 134H471.958C475.03 130.544 476.566 125.936 476.566 120.048C476.566 115.184 475.158 104.688 472.342 88.56H453.526C455.446 93.296 456.854 97.008 457.878 99.568C458.902 102.256 459.798 105.584 460.822 109.552C461.846 113.52 462.358 117.104 462.358 120.432C462.358 124.144 461.59 127.344 460.182 130.032C458.774 132.72 456.342 134 453.014 134H409.75ZM451.094 82.8H471.19C464.534 48.368 458.134 31.088 452.118 31.088C446.23 31.088 443.286 37.744 443.286 50.928C443.286 59.376 445.846 70 451.094 82.8Z" fill="black" fill-opacity="0.04" shape-rendering="crispEdges"/>
<path d="M561.832 135.92C551.208 135.92 541.992 132.976 534.056 127.088C526.12 121.2 522.28 114.288 522.28 106.48C522.28 104.176 524.328 101.36 528.68 98.032C532.904 94.704 537.512 92.016 542.504 89.712C547.368 87.408 550.952 86.384 553.256 86.384C555.304 86.512 556.968 87.28 558.248 88.56C559.528 89.84 560.04 91.632 559.784 93.936C559.4 96.496 559.144 98.544 559.016 100.08C558.76 101.616 558.632 103.536 558.632 106.096C558.504 108.656 558.632 110.704 558.888 112.24C559.144 113.776 559.656 115.568 560.424 117.488C561.192 119.536 562.088 121.072 563.368 122.096C564.648 123.12 566.312 124.016 568.36 124.784C570.408 125.552 572.84 125.936 575.656 125.936C580.648 125.936 585 124.272 588.712 120.944C592.424 117.616 594.344 113.52 594.344 108.656C594.344 102.768 592.168 97.904 587.816 94.32C583.464 90.736 577.704 87.792 570.28 85.488C565.928 84.208 562.344 83.056 559.528 82.032C556.712 81.136 553.512 79.984 549.928 78.448C546.216 76.912 543.272 75.504 540.968 73.968C538.664 72.56 536.36 70.768 533.8 68.592C531.24 66.544 529.32 64.24 527.912 61.808C526.504 59.504 525.352 56.688 524.456 53.488C523.56 50.288 523.176 46.832 523.176 42.992C523.176 32.24 527.016 23.152 534.824 15.472C542.632 7.91996 551.976 4.07996 562.728 4.07996C565.8 4.07996 570.536 4.97597 576.808 6.63996C582.952 8.43196 588.072 9.19997 592.168 9.19997C595.496 9.19997 598.568 8.43196 601.64 6.63996C604.584 4.97597 606.504 4.07996 607.528 4.07996C610.216 4.07996 611.112 6.89597 610.344 12.4C609.32 19.056 606.632 25.328 602.28 31.088C598.056 36.72 593.704 39.536 589.224 39.536C585 39.536 580.648 38.768 576.168 37.104C571.688 35.568 567.848 33.776 564.648 31.856C561.448 30.064 557.736 28.272 553.512 26.608C549.288 25.072 545.32 24.176 541.48 24.176C539.048 24.176 537 25.072 535.336 26.864C533.672 28.656 532.904 30.704 532.904 33.136C532.904 35.056 533.288 36.848 534.312 38.384C535.336 40.048 536.488 41.456 538.024 42.48C539.432 43.632 541.48 44.656 544.04 45.552C546.6 46.576 548.904 47.344 551.08 47.856C553.256 48.368 556.072 48.88 559.4 49.392C562.728 49.904 565.544 50.288 567.848 50.544C570.024 50.8 572.84 51.056 576.424 51.312C587.176 52.336 595.88 56.176 602.536 62.704C609.192 69.36 612.52 77.552 612.52 87.28C612.52 93.296 611.496 99.056 609.448 104.56C607.4 110.192 604.456 115.312 600.616 120.048C596.648 124.912 591.272 128.752 584.616 131.568C577.96 134.512 570.28 135.92 561.832 135.92Z" fill="black" fill-opacity="0.04" shape-rendering="crispEdges"/>
<path d="M647.238 134H617.03C619.974 131.056 621.51 126.064 621.51 118.896V21.104C621.51 14.064 619.974 9.07196 617.03 5.99997H650.95C652.486 5.99997 654.022 7.02396 655.558 9.07196C656.966 11.12 657.734 13.168 657.734 15.344C657.734 19.696 656.71 23.28 654.662 26.352C652.614 29.424 650.054 31.728 647.11 33.264C644.166 34.8 641.222 36.208 638.406 37.488C635.462 38.768 633.03 40.176 630.982 41.84C628.934 43.504 627.91 45.424 627.91 47.728C627.91 48.496 628.038 49.008 628.55 49.52C629.062 50.032 629.574 50.288 630.342 50.288C631.366 50.288 633.286 49.648 635.846 48.112C638.406 46.704 642.374 45.296 647.494 43.76C652.614 42.224 658.758 41.456 666.054 41.456C673.222 41.456 679.366 42.224 684.614 43.76C689.862 45.296 693.83 46.704 696.646 48.112C699.334 49.648 701.254 50.288 702.406 50.288C703.046 50.288 703.558 50.032 704.07 49.52C704.582 49.008 704.838 48.496 704.838 47.728C704.838 45.424 703.814 43.504 701.766 41.84C699.718 40.176 697.158 38.768 694.214 37.488C691.27 36.208 688.326 34.8 685.51 33.264C682.566 31.728 680.134 29.424 678.086 26.352C676.038 23.28 675.014 19.696 675.014 15.344C675.014 13.168 675.654 11.12 677.19 9.07196C678.598 7.02396 680.134 5.99997 681.798 5.99997H715.718C712.646 9.07196 711.238 14.064 711.238 21.104V118.896C711.238 126.064 712.646 131.056 715.718 134H685.51C680.774 134 677.318 132.976 675.27 130.672C673.222 128.368 672.198 125.68 672.198 122.608C672.198 118 673.222 113.392 675.526 108.656C677.83 104.048 680.518 99.824 683.718 95.984C686.79 92.144 689.99 88.56 693.19 85.104C696.39 81.776 699.078 78.448 701.382 75.12C703.686 71.92 704.838 69.104 704.838 66.672C704.838 65.264 704.198 64.496 702.918 64.496C702.15 64.496 700.87 65.136 699.078 66.16C697.286 67.312 695.238 68.464 693.062 69.744C690.758 71.024 687.174 72.304 682.31 73.328C677.446 74.48 671.814 74.992 665.542 74.992C659.142 74.992 653.638 74.48 648.902 73.328C644.166 72.304 640.838 71.024 638.79 69.744C636.742 68.464 634.95 67.312 633.414 66.16C631.75 65.136 630.598 64.496 629.83 64.496C628.55 64.496 627.91 65.264 627.91 66.672C627.91 69.104 628.934 71.92 631.238 75.12C633.542 78.448 636.23 81.776 639.43 85.104C642.502 88.56 645.702 92.144 648.902 95.984C652.102 99.824 654.79 104.048 657.094 108.656C659.398 113.392 660.55 118 660.55 122.608C660.55 125.68 659.398 128.368 657.35 130.672C655.302 132.976 651.846 134 647.238 134Z" fill="black" fill-opacity="0.04" shape-rendering="crispEdges"/>
<path d="M43.832 135.92C33.208 135.92 23.992 132.976 16.056 127.088C8.12 121.2 4.28 114.288 4.28 106.48C4.28 104.176 6.328 101.36 10.68 98.032C14.904 94.704 19.512 92.016 24.504 89.712C29.368 87.408 32.952 86.384 35.256 86.384C37.304 86.512 38.968 87.28 40.248 88.56C41.528 89.84 42.04 91.632 41.784 93.936C41.4 96.496 41.144 98.544 41.016 100.08C40.76 101.616 40.632 103.536 40.632 106.096C40.504 108.656 40.632 110.704 40.888 112.24C41.144 113.776 41.656 115.568 42.424 117.488C43.192 119.536 44.088 121.072 45.368 122.096C46.648 123.12 48.312 124.016 50.36 124.784C52.408 125.552 54.84 125.936 57.656 125.936C62.648 125.936 67 124.272 70.712 120.944C74.424 117.616 76.344 113.52 76.344 108.656C76.344 102.768 74.168 97.904 69.816 94.32C65.464 90.736 59.704 87.792 52.28 85.488C47.928 84.208 44.344 83.056 41.528 82.032C38.712 81.136 35.512 79.984 31.928 78.448C28.216 76.912 25.272 75.504 22.968 73.968C20.664 72.56 18.36 70.768 15.8 68.592C13.24 66.544 11.32 64.24 9.912 61.808C8.504 59.504 7.352 56.688 6.456 53.488C5.56 50.288 5.176 46.832 5.176 42.992C5.176 32.24 9.016 23.152 16.824 15.472C24.632 7.91996 33.976 4.07996 44.728 4.07996C47.8 4.07996 52.536 4.97597 58.808 6.63996C64.952 8.43196 70.072 9.19997 74.168 9.19997C77.496 9.19997 80.568 8.43196 83.64 6.63996C86.584 4.97597 88.504 4.07996 89.528 4.07996C92.216 4.07996 93.112 6.89597 92.344 12.4C91.32 19.056 88.632 25.328 84.28 31.088C80.056 36.72 75.704 39.536 71.224 39.536C67 39.536 62.648 38.768 58.168 37.104C53.688 35.568 49.848 33.776 46.648 31.856C43.448 30.064 39.736 28.272 35.512 26.608C31.288 25.072 27.32 24.176 23.48 24.176C21.048 24.176 19 25.072 17.336 26.864C15.672 28.656 14.904 30.704 14.904 33.136C14.904 35.056 15.288 36.848 16.312 38.384C17.336 40.048 18.488 41.456 20.024 42.48C21.432 43.632 23.48 44.656 26.04 45.552C28.6 46.576 30.904 47.344 33.08 47.856C35.256 48.368 38.072 48.88 41.4 49.392C44.728 49.904 47.544 50.288 49.848 50.544C52.024 50.8 54.84 51.056 58.424 51.312C69.176 52.336 77.88 56.176 84.536 62.704C91.192 69.36 94.52 77.552 94.52 87.28C94.52 93.296 93.496 99.056 91.448 104.56C89.4 110.192 86.456 115.312 82.616 120.048C78.648 124.912 73.272 128.752 66.616 131.568C59.96 134.512 52.28 135.92 43.832 135.92Z" stroke="black" stroke-width="8" shape-rendering="crispEdges" mask="url(#path-1-outside-1_13_17)"/>
<path d="M104.406 21.104C104.406 17.264 104.022 14.192 103.254 11.888C102.486 9.58396 101.078 7.66396 99.03 5.99997H137.174C139.606 5.99997 141.526 7.27996 143.062 9.58396C144.598 11.888 145.366 14.448 145.366 17.136C145.366 22.384 144.086 27.504 141.782 32.624C139.35 37.744 136.406 42.352 133.078 46.448C129.75 50.544 126.294 54.64 122.966 58.736C119.51 62.832 116.566 67.184 114.262 71.792C111.83 76.4 110.678 81.008 110.678 85.616C110.678 90.736 112.214 95.088 115.414 98.544C118.614 102.128 122.326 104.56 126.678 105.84C130.902 107.248 135.382 107.888 140.246 107.888C146.902 107.888 152.406 105.84 156.758 101.616C161.11 97.392 163.414 91.504 163.414 83.952V21.104C163.414 17.264 163.03 14.192 162.262 11.888C161.494 9.58396 160.086 7.66396 158.038 5.99997H202.07C200.022 7.66396 198.614 9.58396 197.846 11.888C197.078 14.192 196.694 17.264 196.694 21.104V86.768C196.694 94.32 195.67 101.104 193.622 106.992C191.574 112.88 188.886 117.616 185.814 121.2C182.614 124.784 178.902 127.6 174.678 129.904C170.326 132.208 166.23 133.872 162.39 134.64C158.422 135.536 154.454 135.92 150.358 135.92C146.262 135.92 142.166 135.536 138.326 134.64C134.358 133.872 130.262 132.208 126.166 129.904C121.942 127.6 118.23 124.784 115.158 121.2C111.958 117.616 109.398 112.88 107.35 106.992C105.302 101.104 104.406 94.32 104.406 86.768V21.104Z" stroke="black" stroke-width="8" shape-rendering="crispEdges" mask="url(#path-1-outside-1_13_17)"/>
<path d="M209.135 21.104C209.135 14.064 207.599 9.07196 204.655 5.99997H259.695C271.343 5.99997 280.303 9.19997 286.575 15.344C292.719 21.488 295.919 29.04 295.919 37.744C295.919 45.936 292.719 53.36 286.319 60.016C279.919 66.672 271.215 70 260.335 70C254.959 70 248.175 69.104 240.111 67.312C231.919 65.52 227.055 64.496 225.263 64.496C223.215 64.496 222.319 65.264 222.319 66.544C222.319 67.184 222.575 67.696 223.087 68.208C223.599 68.72 224.367 69.104 225.391 69.488C226.415 70 227.567 70.384 228.847 70.64C229.999 71.024 231.535 71.408 233.327 71.664C235.119 71.92 236.655 72.176 238.191 72.432C239.727 72.688 241.519 72.816 243.695 73.072C245.871 73.328 247.663 73.456 249.071 73.584C250.479 73.712 252.271 73.84 254.575 74.096C256.751 74.352 258.415 74.48 259.439 74.48C284.527 77.04 297.199 87.536 297.199 106.096C297.199 113.776 294.127 120.304 288.111 125.808C281.967 131.312 274.671 134 265.967 134H204.655C207.599 131.056 209.135 126.064 209.135 118.896V21.104ZM250.351 31.6C241.391 31.6 233.327 33.392 226.415 36.848C219.375 40.432 215.919 44.656 215.919 49.648C215.919 52.464 217.199 54.768 219.759 56.304C222.319 57.968 225.391 58.736 229.103 58.736C239.343 58.736 247.663 56.944 254.063 53.104C260.463 49.392 263.791 45.424 263.791 41.072C263.791 38.512 262.511 36.208 260.207 34.416C257.775 32.624 254.447 31.6 250.351 31.6ZM217.583 74.48C216.559 74.48 216.047 74.992 216.047 75.888C216.047 76.4 216.175 76.912 216.559 77.68C216.943 78.448 217.455 79.216 218.223 80.24C218.991 81.264 219.631 82.032 220.271 82.8C220.911 83.568 221.807 84.592 222.831 85.744C223.855 87.024 224.623 87.792 225.135 88.304C227.695 91.376 229.743 93.68 231.151 95.216C232.559 96.752 234.735 98.8 237.551 101.36C240.367 103.92 243.183 105.84 245.999 106.992C248.815 108.272 251.631 108.784 254.575 108.784C258.031 108.784 260.591 107.888 262.255 105.968C263.919 104.176 264.815 102 264.815 99.696C264.815 92.4 256.367 86.128 239.599 80.88C236.783 80.112 233.967 79.216 230.895 78.192C227.823 77.168 225.647 76.528 224.367 76.016C223.087 75.632 221.807 75.248 220.527 74.992C219.247 74.736 218.351 74.48 217.583 74.48Z" stroke="black" stroke-width="8" shape-rendering="crispEdges" mask="url(#path-1-outside-1_13_17)"/>
<path d="M294.625 134C296.161 132.72 297.697 130.544 299.233 127.6C300.769 124.656 301.793 122.096 302.561 119.92C303.201 117.744 304.353 114.16 305.889 109.168C310.753 93.04 314.465 78.832 317.153 66.672C319.841 54.64 323.041 38.64 326.625 18.928C327.649 13.168 326.625 8.81596 323.809 5.99997H380.513C377.569 8.81596 376.673 13.168 377.697 18.928C381.281 38.64 384.353 54.64 387.041 66.672C389.729 78.832 393.569 93.04 398.433 109.168C399.969 114.16 400.993 117.744 401.761 119.92C402.401 122.096 403.425 124.656 404.961 127.6C406.497 130.544 408.033 132.72 409.697 134H356.833C359.905 130.544 361.441 125.936 361.441 120.048C361.441 115.184 360.033 104.688 357.217 88.56H338.401C340.321 93.296 341.729 97.008 342.753 99.568C343.777 102.256 344.673 105.584 345.697 109.552C346.721 113.52 347.233 117.104 347.233 120.432C347.233 124.144 346.465 127.344 345.057 130.032C343.649 132.72 341.217 134 337.889 134H294.625ZM335.969 82.8H356.065C349.409 48.368 343.009 31.088 336.993 31.088C331.105 31.088 328.161 37.744 328.161 50.928C328.161 59.376 330.721 70 335.969 82.8Z" stroke="black" stroke-width="8" shape-rendering="crispEdges" mask="url(#path-1-outside-1_13_17)"/>
<path d="M409.75 134C411.286 132.72 412.822 130.544 414.358 127.6C415.894 124.656 416.918 122.096 417.686 119.92C418.326 117.744 419.478 114.16 421.014 109.168C425.878 93.04 429.59 78.832 432.278 66.672C434.966 54.64 438.166 38.64 441.75 18.928C442.774 13.168 441.75 8.81596 438.934 5.99997H495.638C492.694 8.81596 491.798 13.168 492.822 18.928C496.406 38.64 499.478 54.64 502.166 66.672C504.854 78.832 508.694 93.04 513.558 109.168C515.094 114.16 516.118 117.744 516.886 119.92C517.526 122.096 518.55 124.656 520.086 127.6C521.622 130.544 523.158 132.72 524.822 134H471.958C475.03 130.544 476.566 125.936 476.566 120.048C476.566 115.184 475.158 104.688 472.342 88.56H453.526C455.446 93.296 456.854 97.008 457.878 99.568C458.902 102.256 459.798 105.584 460.822 109.552C461.846 113.52 462.358 117.104 462.358 120.432C462.358 124.144 461.59 127.344 460.182 130.032C458.774 132.72 456.342 134 453.014 134H409.75ZM451.094 82.8H471.19C464.534 48.368 458.134 31.088 452.118 31.088C446.23 31.088 443.286 37.744 443.286 50.928C443.286 59.376 445.846 70 451.094 82.8Z" stroke="black" stroke-width="8" shape-rendering="crispEdges" mask="url(#path-1-outside-1_13_17)"/>
<path d="M561.832 135.92C551.208 135.92 541.992 132.976 534.056 127.088C526.12 121.2 522.28 114.288 522.28 106.48C522.28 104.176 524.328 101.36 528.68 98.032C532.904 94.704 537.512 92.016 542.504 89.712C547.368 87.408 550.952 86.384 553.256 86.384C555.304 86.512 556.968 87.28 558.248 88.56C559.528 89.84 560.04 91.632 559.784 93.936C559.4 96.496 559.144 98.544 559.016 100.08C558.76 101.616 558.632 103.536 558.632 106.096C558.504 108.656 558.632 110.704 558.888 112.24C559.144 113.776 559.656 115.568 560.424 117.488C561.192 119.536 562.088 121.072 563.368 122.096C564.648 123.12 566.312 124.016 568.36 124.784C570.408 125.552 572.84 125.936 575.656 125.936C580.648 125.936 585 124.272 588.712 120.944C592.424 117.616 594.344 113.52 594.344 108.656C594.344 102.768 592.168 97.904 587.816 94.32C583.464 90.736 577.704 87.792 570.28 85.488C565.928 84.208 562.344 83.056 559.528 82.032C556.712 81.136 553.512 79.984 549.928 78.448C546.216 76.912 543.272 75.504 540.968 73.968C538.664 72.56 536.36 70.768 533.8 68.592C531.24 66.544 529.32 64.24 527.912 61.808C526.504 59.504 525.352 56.688 524.456 53.488C523.56 50.288 523.176 46.832 523.176 42.992C523.176 32.24 527.016 23.152 534.824 15.472C542.632 7.91996 551.976 4.07996 562.728 4.07996C565.8 4.07996 570.536 4.97597 576.808 6.63996C582.952 8.43196 588.072 9.19997 592.168 9.19997C595.496 9.19997 598.568 8.43196 601.64 6.63996C604.584 4.97597 606.504 4.07996 607.528 4.07996C610.216 4.07996 611.112 6.89597 610.344 12.4C609.32 19.056 606.632 25.328 602.28 31.088C598.056 36.72 593.704 39.536 589.224 39.536C585 39.536 580.648 38.768 576.168 37.104C571.688 35.568 567.848 33.776 564.648 31.856C561.448 30.064 557.736 28.272 553.512 26.608C549.288 25.072 545.32 24.176 541.48 24.176C539.048 24.176 537 25.072 535.336 26.864C533.672 28.656 532.904 30.704 532.904 33.136C532.904 35.056 533.288 36.848 534.312 38.384C535.336 40.048 536.488 41.456 538.024 42.48C539.432 43.632 541.48 44.656 544.04 45.552C546.6 46.576 548.904 47.344 551.08 47.856C553.256 48.368 556.072 48.88 559.4 49.392C562.728 49.904 565.544 50.288 567.848 50.544C570.024 50.8 572.84 51.056 576.424 51.312C587.176 52.336 595.88 56.176 602.536 62.704C609.192 69.36 612.52 77.552 612.52 87.28C612.52 93.296 611.496 99.056 609.448 104.56C607.4 110.192 604.456 115.312 600.616 120.048C596.648 124.912 591.272 128.752 584.616 131.568C577.96 134.512 570.28 135.92 561.832 135.92Z" stroke="black" stroke-width="8" shape-rendering="crispEdges" mask="url(#path-1-outside-1_13_17)"/>
<path d="M647.238 134H617.03C619.974 131.056 621.51 126.064 621.51 118.896V21.104C621.51 14.064 619.974 9.07196 617.03 5.99997H650.95C652.486 5.99997 654.022 7.02396 655.558 9.07196C656.966 11.12 657.734 13.168 657.734 15.344C657.734 19.696 656.71 23.28 654.662 26.352C652.614 29.424 650.054 31.728 647.11 33.264C644.166 34.8 641.222 36.208 638.406 37.488C635.462 38.768 633.03 40.176 630.982 41.84C628.934 43.504 627.91 45.424 627.91 47.728C627.91 48.496 628.038 49.008 628.55 49.52C629.062 50.032 629.574 50.288 630.342 50.288C631.366 50.288 633.286 49.648 635.846 48.112C638.406 46.704 642.374 45.296 647.494 43.76C652.614 42.224 658.758 41.456 666.054 41.456C673.222 41.456 679.366 42.224 684.614 43.76C689.862 45.296 693.83 46.704 696.646 48.112C699.334 49.648 701.254 50.288 702.406 50.288C703.046 50.288 703.558 50.032 704.07 49.52C704.582 49.008 704.838 48.496 704.838 47.728C704.838 45.424 703.814 43.504 701.766 41.84C699.718 40.176 697.158 38.768 694.214 37.488C691.27 36.208 688.326 34.8 685.51 33.264C682.566 31.728 680.134 29.424 678.086 26.352C676.038 23.28 675.014 19.696 675.014 15.344C675.014 13.168 675.654 11.12 677.19 9.07196C678.598 7.02396 680.134 5.99997 681.798 5.99997H715.718C712.646 9.07196 711.238 14.064 711.238 21.104V118.896C711.238 126.064 712.646 131.056 715.718 134H685.51C680.774 134 677.318 132.976 675.27 130.672C673.222 128.368 672.198 125.68 672.198 122.608C672.198 118 673.222 113.392 675.526 108.656C677.83 104.048 680.518 99.824 683.718 95.984C686.79 92.144 689.99 88.56 693.19 85.104C696.39 81.776 699.078 78.448 701.382 75.12C703.686 71.92 704.838 69.104 704.838 66.672C704.838 65.264 704.198 64.496 702.918 64.496C702.15 64.496 700.87 65.136 699.078 66.16C697.286 67.312 695.238 68.464 693.062 69.744C690.758 71.024 687.174 72.304 682.31 73.328C677.446 74.48 671.814 74.992 665.542 74.992C659.142 74.992 653.638 74.48 648.902 73.328C644.166 72.304 640.838 71.024 638.79 69.744C636.742 68.464 634.95 67.312 633.414 66.16C631.75 65.136 630.598 64.496 629.83 64.496C628.55 64.496 627.91 65.264 627.91 66.672C627.91 69.104 628.934 71.92 631.238 75.12C633.542 78.448 636.23 81.776 639.43 85.104C642.502 88.56 645.702 92.144 648.902 95.984C652.102 99.824 654.79 104.048 657.094 108.656C659.398 113.392 660.55 118 660.55 122.608C660.55 125.68 659.398 128.368 657.35 130.672C655.302 132.976 651.846 134 647.238 134Z" stroke="black" stroke-width="8" shape-rendering="crispEdges" mask="url(#path-1-outside-1_13_17)"/>
</g>
<defs>
<filter id="filter0_d_13_17" x="0.279999" y="0.0799561" width="729.393" height="139.84" filterUnits="userSpaceOnUse" color-interpolation-filters="sRGB">
<feFlood flood-opacity="0" result="BackgroundImageFix"/>
<feColorMatrix in="SourceAlpha" type="matrix" values="0 0 0 0 0 0 0 0 0 0 0 0 0 0 0 0 0 0 127 0" result="hardAlpha"/>
<feOffset dx="4"/>
<feComposite in2="hardAlpha" operator="out"/>
<feColorMatrix type="matrix" values="0 0 0 0 0 0 0 0 0 0 0 0 0 0 0 0 0 0 1 0"/>
<feBlend mode="normal" in2="BackgroundImageFix" result="effect1_dropShadow_13_17"/>
<feBlend mode="normal" in="SourceGraphic" in2="effect1_dropShadow_13_17" result="shape"/>
</filter>
</defs>
</svg>
