<svg width="470" height="117" viewBox="0 0 470 117" fill="none" xmlns="http://www.w3.org/2000/svg">
<mask id="path-1-outside-1_5_20" maskUnits="userSpaceOnUse" x="0" y="0" width="470" height="117" fill="black">
<rect fill="white" width="470" height="117"/>
<path d="M31.0041 56.3125C33.5666 57.5312 36.0041 58.9219 38.3166 60.4844C40.6603 62.0469 42.9572 63.9375 45.2072 66.1562C47.4572 68.3438 49.3947 70.6875 51.0197 73.1875C52.6447 75.6562 53.9572 78.4844 54.9572 81.6719C55.9572 84.8594 56.4416 88.1562 56.4103 91.5625C56.3791 95.1562 55.7541 98.3906 54.5353 101.266C53.3166 104.141 51.6603 106.5 49.5666 108.344C47.5041 110.156 45.1916 111.609 42.6291 112.703C40.0978 113.766 37.3635 114.469 34.426 114.812C34.3947 114.812 34.3166 114.812 34.1916 114.812C34.0666 114.844 33.9885 114.859 33.9572 114.859C33.8322 114.922 33.7541 114.953 33.7228 114.953C31.0978 115.203 28.5197 115.266 25.9885 115.141C23.4885 115.047 21.0041 114.594 18.5353 113.781C16.0666 112.938 13.7697 111.844 11.6447 110.5C9.5197 109.156 7.53533 107.391 5.69158 105.203C3.84783 102.984 2.30095 100.438 1.05095 97.5625C0.894701 97.1875 1.09783 96.9531 1.66033 96.8594C2.22283 96.7344 2.59783 96.8594 2.78533 97.2344C4.22283 100.547 6.03533 103.375 8.22283 105.719C10.4416 108.062 12.8791 109.859 15.5353 111.109C18.1916 112.359 20.9416 113.203 23.7853 113.641C26.6603 114.078 29.6447 114.141 32.7385 113.828C37.551 113.203 41.551 110.672 44.7385 106.234C47.9572 101.766 49.4572 96.5 49.2385 90.4375C49.1135 86.875 48.3947 83.4844 47.0822 80.2656C45.801 77.0156 44.0978 74.1719 41.9728 71.7344C39.8791 69.2656 37.6135 67.125 35.176 65.3125C32.7385 63.4688 30.1447 61.8906 27.3947 60.5781C27.3635 60.5469 27.3166 60.5156 27.2541 60.4844C27.2228 60.4531 27.1916 60.4375 27.1603 60.4375C26.9103 60.3125 26.7385 60.2188 26.6447 60.1562H26.5978L26.5041 60.1094C26.4416 60.0781 26.4103 60.0469 26.4103 60.0156H26.3635C23.801 58.7969 21.3478 57.4062 19.0041 55.8438C16.6916 54.2812 14.4103 52.4062 12.1603 50.2188C9.91033 48.0312 7.97283 45.6875 6.34783 43.1875C4.72283 40.6875 3.41033 37.8438 2.41033 34.6562C1.44158 31.4688 0.972826 28.1719 1.00408 24.7656C1.03533 21.1719 1.66033 17.9375 2.87908 15.0625C4.09783 12.1562 5.73845 9.79688 7.80095 7.98438C9.8947 6.14062 12.2072 4.6875 14.7385 3.625C17.301 2.53125 20.051 1.8125 22.9885 1.46875H23.4572C23.5822 1.40625 23.6603 1.375 23.6916 1.375C26.3166 1.125 28.8791 1.0625 31.3791 1.1875C33.9103 1.28125 36.4103 1.75 38.8791 2.59375C41.3478 3.40625 43.6447 4.48438 45.7697 5.82812C47.8947 7.17188 49.8791 8.95312 51.7228 11.1719C53.5666 13.3594 55.1135 15.8906 56.3635 18.7656C56.5197 19.1406 56.3166 19.375 55.7541 19.4688C55.1916 19.5938 54.8166 19.4688 54.6291 19.0938C53.1916 15.7812 51.3635 12.9531 49.1447 10.6094C46.9572 8.26562 44.5353 6.46875 41.8791 5.21875C39.2228 3.96875 36.4572 3.125 33.5822 2.6875C30.7385 2.25 27.7697 2.1875 24.676 2.5C19.8635 3.125 15.8478 5.67188 12.6291 10.1406C9.41033 14.5781 7.91033 19.8281 8.12908 25.8906C8.25408 29.4531 8.9572 32.8594 10.2385 36.1094C11.551 39.3281 13.2697 42.1719 15.3947 44.6406C17.5197 47.0781 19.801 49.2188 22.2385 51.0625C24.676 52.875 27.2697 54.4375 30.0197 55.75C30.051 55.75 30.0822 55.7656 30.1135 55.7969C30.176 55.8281 30.2228 55.8438 30.2541 55.8438C30.3166 55.875 30.3947 55.9375 30.4885 56.0312C30.6135 56.125 30.6916 56.1719 30.7228 56.1719H30.8166H30.7697C30.801 56.2031 30.8322 56.2188 30.8635 56.2188C30.8947 56.2188 30.926 56.2344 30.9572 56.2656L31.0041 56.3125Z"/>
<path d="M121.52 1.1875H128.738V114.531H121.52V47.2188C117.801 65.4062 112.317 80.8438 105.067 93.5312C99.7228 102.906 94.2228 109.297 88.5666 112.703C83.1603 115.953 78.4884 115.922 74.5509 112.609C69.4572 108.297 66.4103 99.1562 65.4103 85.1875C65.1916 82.0938 65.0822 78.7812 65.0822 75.25L64.1916 1.1875H71.2697C71.2697 8.40625 71.3322 18.125 71.4572 30.3438C71.6134 42.5312 71.7697 52.9219 71.9259 61.5156L72.1603 74.4062C72.1603 90.9375 74.4103 101.781 78.9103 106.938C82.0978 110.594 86.0353 110.938 90.7228 107.969C95.6603 104.844 100.567 98.6562 105.442 89.4062C111.973 76.9375 116.91 61.8594 120.254 44.1719L121.52 36.8594V1.1875Z"/>
<path d="M174.442 57.9531C180.629 59.2969 185.754 62.4531 189.817 67.4219C193.91 72.3906 195.957 78.6406 195.957 86.1719C195.957 90.5156 195.223 94.5156 193.754 98.1719C192.285 101.797 190.317 104.797 187.848 107.172C185.379 109.547 182.551 111.422 179.363 112.797C176.176 114.141 172.832 114.859 169.332 114.953C164.02 114.953 153.317 114.844 137.223 114.625C137.192 114.625 137.035 114.578 136.754 114.484H136.473V1.1875H143.692V1.23438C160.098 1.07812 168.645 1 169.332 1C172.832 1.09375 176.176 1.82812 179.363 3.20312C182.551 4.54688 185.379 6.40625 187.848 8.78125C190.317 11.1562 192.285 14.1719 193.754 17.8281C195.223 21.4531 195.957 25.4375 195.957 29.7812C195.957 33.5938 195.395 37.1406 194.27 40.4219C193.145 43.7031 191.582 46.5156 189.582 48.8594C187.613 51.1719 185.332 53.1094 182.738 54.6719C180.176 56.2031 177.41 57.2969 174.442 57.9531ZM166.66 2.40625C164.192 2.40625 160.254 2.42188 154.848 2.45312C149.442 2.45312 145.723 2.45312 143.692 2.45312V57.1094C145.723 57.1094 149.442 57.125 154.848 57.1562C160.254 57.1875 164.192 57.2031 166.66 57.2031C171.254 57.2031 175.457 55.6875 179.27 52.6562C183.113 49.5938 185.879 45.5 187.567 40.375C188.692 36.8438 189.254 33.3125 189.254 29.7812C189.254 26.0938 188.692 22.5625 187.567 19.1875C185.91 14.0938 183.16 10.0312 179.317 7C175.473 3.9375 171.254 2.40625 166.66 2.40625ZM187.567 96.7656C188.692 93.3906 189.254 89.8594 189.254 86.1719C189.254 82.4844 188.692 78.9531 187.567 75.5781C185.879 70.4531 183.113 66.375 179.27 63.3438C175.457 60.2812 171.254 58.75 166.66 58.75C164.192 58.75 160.254 58.7656 154.848 58.7969C149.442 58.8281 145.723 58.8438 143.692 58.8438V113.5C145.723 113.5 149.442 113.516 154.848 113.547C160.254 113.547 164.192 113.547 166.66 113.547C171.254 113.547 175.473 112.031 179.317 109C183.16 105.938 185.91 101.859 187.567 96.7656Z"/>
<path d="M263.973 113.828C264.035 114.078 263.942 114.281 263.692 114.438C263.473 114.562 263.207 114.594 262.895 114.531C262.613 114.469 262.442 114.328 262.379 114.109C261.973 112.578 261.363 110.312 260.551 107.312C259.738 104.281 259.145 102 258.77 100.469C258.145 98.0938 257.207 94.5312 255.957 89.7812C254.738 85 253.817 81.4219 253.192 79.0469C250.379 79.0469 244.567 79.0781 235.754 79.1406C226.942 79.1719 220.129 79.1719 215.317 79.1406C214.254 83.0781 212.676 88.9844 210.582 96.8594C208.52 104.734 206.973 110.641 205.942 114.578L199.192 114.531C199.567 113.031 200.207 110.562 201.113 107.125C202.02 103.688 202.676 101.203 203.082 99.6719C204.582 93.8594 208.301 79.4375 214.238 56.4062C220.207 33.3438 224.817 15.5781 228.067 3.10938C228.285 2.23438 228.926 1.65625 229.988 1.375C231.082 1.0625 232.145 1.10938 233.176 1.51562C234.238 1.89062 234.863 2.5 235.051 3.34375C235.082 3.375 235.129 3.45312 235.192 3.57812C235.598 5.07812 236.192 7.35938 236.973 10.4219C237.785 13.4531 238.379 15.7344 238.754 17.2656C241.535 27.9844 245.723 44.0781 251.317 65.5469C256.942 86.9844 261.16 103.078 263.973 113.828ZM215.598 77.9688C217.66 78.0312 223.863 78.0469 234.207 78.0156C244.582 77.9531 250.801 77.9219 252.863 77.9219C250.801 70.0469 247.707 58.25 243.582 42.5312C239.457 26.7812 236.363 14.9844 234.301 7.14062C233.207 11.3594 232.254 15 231.442 18.0625C229.692 24.7188 227.051 34.7031 223.52 48.0156C220.02 61.3281 217.379 71.3125 215.598 77.9688Z"/>
<path d="M334.567 113.828C334.629 114.078 334.535 114.281 334.285 114.438C334.067 114.562 333.801 114.594 333.488 114.531C333.207 114.469 333.035 114.328 332.973 114.109C332.567 112.578 331.957 110.312 331.145 107.312C330.332 104.281 329.738 102 329.363 100.469C328.738 98.0938 327.801 94.5312 326.551 89.7812C325.332 85 324.41 81.4219 323.785 79.0469C320.973 79.0469 315.16 79.0781 306.348 79.1406C297.535 79.1719 290.723 79.1719 285.91 79.1406C284.848 83.0781 283.27 88.9844 281.176 96.8594C279.113 104.734 277.567 110.641 276.535 114.578L269.785 114.531C270.16 113.031 270.801 110.562 271.707 107.125C272.613 103.688 273.27 101.203 273.676 99.6719C275.176 93.8594 278.895 79.4375 284.832 56.4062C290.801 33.3438 295.41 15.5781 298.66 3.10938C298.879 2.23438 299.52 1.65625 300.582 1.375C301.676 1.0625 302.738 1.10938 303.77 1.51562C304.832 1.89062 305.457 2.5 305.645 3.34375C305.676 3.375 305.723 3.45312 305.785 3.57812C306.192 5.07812 306.785 7.35938 307.567 10.4219C308.379 13.4531 308.973 15.7344 309.348 17.2656C312.129 27.9844 316.317 44.0781 321.91 65.5469C327.535 86.9844 331.754 103.078 334.567 113.828ZM286.192 77.9688C288.254 78.0312 294.457 78.0469 304.801 78.0156C315.176 77.9531 321.395 77.9219 323.457 77.9219C321.395 70.0469 318.301 58.25 314.176 42.5312C310.051 26.7812 306.957 14.9844 304.895 7.14062C303.801 11.3594 302.848 15 302.035 18.0625C300.285 24.7188 297.645 34.7031 294.113 48.0156C290.613 61.3281 287.973 71.3125 286.192 77.9688Z"/>
<path d="M370.379 56.3125C372.942 57.5312 375.379 58.9219 377.692 60.4844C380.035 62.0469 382.332 63.9375 384.582 66.1562C386.832 68.3438 388.77 70.6875 390.395 73.1875C392.02 75.6562 393.332 78.4844 394.332 81.6719C395.332 84.8594 395.817 88.1562 395.785 91.5625C395.754 95.1562 395.129 98.3906 393.91 101.266C392.692 104.141 391.035 106.5 388.942 108.344C386.879 110.156 384.567 111.609 382.004 112.703C379.473 113.766 376.738 114.469 373.801 114.812C373.77 114.812 373.692 114.812 373.567 114.812C373.442 114.844 373.363 114.859 373.332 114.859C373.207 114.922 373.129 114.953 373.098 114.953C370.473 115.203 367.895 115.266 365.363 115.141C362.863 115.047 360.379 114.594 357.91 113.781C355.442 112.938 353.145 111.844 351.02 110.5C348.895 109.156 346.91 107.391 345.067 105.203C343.223 102.984 341.676 100.438 340.426 97.5625C340.27 97.1875 340.473 96.9531 341.035 96.8594C341.598 96.7344 341.973 96.8594 342.16 97.2344C343.598 100.547 345.41 103.375 347.598 105.719C349.817 108.062 352.254 109.859 354.91 111.109C357.567 112.359 360.317 113.203 363.16 113.641C366.035 114.078 369.02 114.141 372.113 113.828C376.926 113.203 380.926 110.672 384.113 106.234C387.332 101.766 388.832 96.5 388.613 90.4375C388.488 86.875 387.77 83.4844 386.457 80.2656C385.176 77.0156 383.473 74.1719 381.348 71.7344C379.254 69.2656 376.988 67.125 374.551 65.3125C372.113 63.4688 369.52 61.8906 366.77 60.5781C366.738 60.5469 366.692 60.5156 366.629 60.4844C366.598 60.4531 366.567 60.4375 366.535 60.4375C366.285 60.3125 366.113 60.2188 366.02 60.1562H365.973L365.879 60.1094C365.817 60.0781 365.785 60.0469 365.785 60.0156H365.738C363.176 58.7969 360.723 57.4062 358.379 55.8438C356.067 54.2812 353.785 52.4062 351.535 50.2188C349.285 48.0312 347.348 45.6875 345.723 43.1875C344.098 40.6875 342.785 37.8438 341.785 34.6562C340.817 31.4688 340.348 28.1719 340.379 24.7656C340.41 21.1719 341.035 17.9375 342.254 15.0625C343.473 12.1562 345.113 9.79688 347.176 7.98438C349.27 6.14062 351.582 4.6875 354.113 3.625C356.676 2.53125 359.426 1.8125 362.363 1.46875H362.832C362.957 1.40625 363.035 1.375 363.067 1.375C365.692 1.125 368.254 1.0625 370.754 1.1875C373.285 1.28125 375.785 1.75 378.254 2.59375C380.723 3.40625 383.02 4.48438 385.145 5.82812C387.27 7.17188 389.254 8.95312 391.098 11.1719C392.942 13.3594 394.488 15.8906 395.738 18.7656C395.895 19.1406 395.692 19.375 395.129 19.4688C394.567 19.5938 394.192 19.4688 394.004 19.0938C392.567 15.7812 390.738 12.9531 388.52 10.6094C386.332 8.26562 383.91 6.46875 381.254 5.21875C378.598 3.96875 375.832 3.125 372.957 2.6875C370.113 2.25 367.145 2.1875 364.051 2.5C359.238 3.125 355.223 5.67188 352.004 10.1406C348.785 14.5781 347.285 19.8281 347.504 25.8906C347.629 29.4531 348.332 32.8594 349.613 36.1094C350.926 39.3281 352.645 42.1719 354.77 44.6406C356.895 47.0781 359.176 49.2188 361.613 51.0625C364.051 52.875 366.645 54.4375 369.395 55.75C369.426 55.75 369.457 55.7656 369.488 55.7969C369.551 55.8281 369.598 55.8438 369.629 55.8438C369.692 55.875 369.77 55.9375 369.863 56.0312C369.988 56.125 370.067 56.1719 370.098 56.1719H370.192H370.145C370.176 56.2031 370.207 56.2188 370.238 56.2188C370.27 56.2188 370.301 56.2344 370.332 56.2656L370.379 56.3125Z"/>
<path d="M460.988 1.1875H468.207V114.531H460.988V60.9062H410.785V114.531H403.567V1.1875H410.785V59.8281H460.988V1.1875Z"/>
</mask>
<path d="M31.0041 56.3125C33.5666 57.5312 36.0041 58.9219 38.3166 60.4844C40.6603 62.0469 42.9572 63.9375 45.2072 66.1562C47.4572 68.3438 49.3947 70.6875 51.0197 73.1875C52.6447 75.6562 53.9572 78.4844 54.9572 81.6719C55.9572 84.8594 56.4416 88.1562 56.4103 91.5625C56.3791 95.1562 55.7541 98.3906 54.5353 101.266C53.3166 104.141 51.6603 106.5 49.5666 108.344C47.5041 110.156 45.1916 111.609 42.6291 112.703C40.0978 113.766 37.3635 114.469 34.426 114.812C34.3947 114.812 34.3166 114.812 34.1916 114.812C34.0666 114.844 33.9885 114.859 33.9572 114.859C33.8322 114.922 33.7541 114.953 33.7228 114.953C31.0978 115.203 28.5197 115.266 25.9885 115.141C23.4885 115.047 21.0041 114.594 18.5353 113.781C16.0666 112.938 13.7697 111.844 11.6447 110.5C9.5197 109.156 7.53533 107.391 5.69158 105.203C3.84783 102.984 2.30095 100.438 1.05095 97.5625C0.894701 97.1875 1.09783 96.9531 1.66033 96.8594C2.22283 96.7344 2.59783 96.8594 2.78533 97.2344C4.22283 100.547 6.03533 103.375 8.22283 105.719C10.4416 108.062 12.8791 109.859 15.5353 111.109C18.1916 112.359 20.9416 113.203 23.7853 113.641C26.6603 114.078 29.6447 114.141 32.7385 113.828C37.551 113.203 41.551 110.672 44.7385 106.234C47.9572 101.766 49.4572 96.5 49.2385 90.4375C49.1135 86.875 48.3947 83.4844 47.0822 80.2656C45.801 77.0156 44.0978 74.1719 41.9728 71.7344C39.8791 69.2656 37.6135 67.125 35.176 65.3125C32.7385 63.4688 30.1447 61.8906 27.3947 60.5781C27.3635 60.5469 27.3166 60.5156 27.2541 60.4844C27.2228 60.4531 27.1916 60.4375 27.1603 60.4375C26.9103 60.3125 26.7385 60.2188 26.6447 60.1562H26.5978L26.5041 60.1094C26.4416 60.0781 26.4103 60.0469 26.4103 60.0156H26.3635C23.801 58.7969 21.3478 57.4062 19.0041 55.8438C16.6916 54.2812 14.4103 52.4062 12.1603 50.2188C9.91033 48.0312 7.97283 45.6875 6.34783 43.1875C4.72283 40.6875 3.41033 37.8438 2.41033 34.6562C1.44158 31.4688 0.972826 28.1719 1.00408 24.7656C1.03533 21.1719 1.66033 17.9375 2.87908 15.0625C4.09783 12.1562 5.73845 9.79688 7.80095 7.98438C9.8947 6.14062 12.2072 4.6875 14.7385 3.625C17.301 2.53125 20.051 1.8125 22.9885 1.46875H23.4572C23.5822 1.40625 23.6603 1.375 23.6916 1.375C26.3166 1.125 28.8791 1.0625 31.3791 1.1875C33.9103 1.28125 36.4103 1.75 38.8791 2.59375C41.3478 3.40625 43.6447 4.48438 45.7697 5.82812C47.8947 7.17188 49.8791 8.95312 51.7228 11.1719C53.5666 13.3594 55.1135 15.8906 56.3635 18.7656C56.5197 19.1406 56.3166 19.375 55.7541 19.4688C55.1916 19.5938 54.8166 19.4688 54.6291 19.0938C53.1916 15.7812 51.3635 12.9531 49.1447 10.6094C46.9572 8.26562 44.5353 6.46875 41.8791 5.21875C39.2228 3.96875 36.4572 3.125 33.5822 2.6875C30.7385 2.25 27.7697 2.1875 24.676 2.5C19.8635 3.125 15.8478 5.67188 12.6291 10.1406C9.41033 14.5781 7.91033 19.8281 8.12908 25.8906C8.25408 29.4531 8.9572 32.8594 10.2385 36.1094C11.551 39.3281 13.2697 42.1719 15.3947 44.6406C17.5197 47.0781 19.801 49.2188 22.2385 51.0625C24.676 52.875 27.2697 54.4375 30.0197 55.75C30.051 55.75 30.0822 55.7656 30.1135 55.7969C30.176 55.8281 30.2228 55.8438 30.2541 55.8438C30.3166 55.875 30.3947 55.9375 30.4885 56.0312C30.6135 56.125 30.6916 56.1719 30.7228 56.1719H30.8166H30.7697C30.801 56.2031 30.8322 56.2188 30.8635 56.2188C30.8947 56.2188 30.926 56.2344 30.9572 56.2656L31.0041 56.3125Z" fill="black"/>
<path d="M121.52 1.1875H128.738V114.531H121.52V47.2188C117.801 65.4062 112.317 80.8438 105.067 93.5312C99.7228 102.906 94.2228 109.297 88.5666 112.703C83.1603 115.953 78.4884 115.922 74.5509 112.609C69.4572 108.297 66.4103 99.1562 65.4103 85.1875C65.1916 82.0938 65.0822 78.7812 65.0822 75.25L64.1916 1.1875H71.2697C71.2697 8.40625 71.3322 18.125 71.4572 30.3438C71.6134 42.5312 71.7697 52.9219 71.9259 61.5156L72.1603 74.4062C72.1603 90.9375 74.4103 101.781 78.9103 106.938C82.0978 110.594 86.0353 110.938 90.7228 107.969C95.6603 104.844 100.567 98.6562 105.442 89.4062C111.973 76.9375 116.91 61.8594 120.254 44.1719L121.52 36.8594V1.1875Z" fill="black"/>
<path d="M174.442 57.9531C180.629 59.2969 185.754 62.4531 189.817 67.4219C193.91 72.3906 195.957 78.6406 195.957 86.1719C195.957 90.5156 195.223 94.5156 193.754 98.1719C192.285 101.797 190.317 104.797 187.848 107.172C185.379 109.547 182.551 111.422 179.363 112.797C176.176 114.141 172.832 114.859 169.332 114.953C164.02 114.953 153.317 114.844 137.223 114.625C137.192 114.625 137.035 114.578 136.754 114.484H136.473V1.1875H143.692V1.23438C160.098 1.07812 168.645 1 169.332 1C172.832 1.09375 176.176 1.82812 179.363 3.20312C182.551 4.54688 185.379 6.40625 187.848 8.78125C190.317 11.1562 192.285 14.1719 193.754 17.8281C195.223 21.4531 195.957 25.4375 195.957 29.7812C195.957 33.5938 195.395 37.1406 194.27 40.4219C193.145 43.7031 191.582 46.5156 189.582 48.8594C187.613 51.1719 185.332 53.1094 182.738 54.6719C180.176 56.2031 177.41 57.2969 174.442 57.9531ZM166.66 2.40625C164.192 2.40625 160.254 2.42188 154.848 2.45312C149.442 2.45312 145.723 2.45312 143.692 2.45312V57.1094C145.723 57.1094 149.442 57.125 154.848 57.1562C160.254 57.1875 164.192 57.2031 166.66 57.2031C171.254 57.2031 175.457 55.6875 179.27 52.6562C183.113 49.5938 185.879 45.5 187.567 40.375C188.692 36.8438 189.254 33.3125 189.254 29.7812C189.254 26.0938 188.692 22.5625 187.567 19.1875C185.91 14.0938 183.16 10.0312 179.317 7C175.473 3.9375 171.254 2.40625 166.66 2.40625ZM187.567 96.7656C188.692 93.3906 189.254 89.8594 189.254 86.1719C189.254 82.4844 188.692 78.9531 187.567 75.5781C185.879 70.4531 183.113 66.375 179.27 63.3438C175.457 60.2812 171.254 58.75 166.66 58.75C164.192 58.75 160.254 58.7656 154.848 58.7969C149.442 58.8281 145.723 58.8438 143.692 58.8438V113.5C145.723 113.5 149.442 113.516 154.848 113.547C160.254 113.547 164.192 113.547 166.66 113.547C171.254 113.547 175.473 112.031 179.317 109C183.16 105.938 185.91 101.859 187.567 96.7656Z" fill="black"/>
<path d="M263.973 113.828C264.035 114.078 263.942 114.281 263.692 114.438C263.473 114.562 263.207 114.594 262.895 114.531C262.613 114.469 262.442 114.328 262.379 114.109C261.973 112.578 261.363 110.312 260.551 107.312C259.738 104.281 259.145 102 258.77 100.469C258.145 98.0938 257.207 94.5312 255.957 89.7812C254.738 85 253.817 81.4219 253.192 79.0469C250.379 79.0469 244.567 79.0781 235.754 79.1406C226.942 79.1719 220.129 79.1719 215.317 79.1406C214.254 83.0781 212.676 88.9844 210.582 96.8594C208.52 104.734 206.973 110.641 205.942 114.578L199.192 114.531C199.567 113.031 200.207 110.562 201.113 107.125C202.02 103.688 202.676 101.203 203.082 99.6719C204.582 93.8594 208.301 79.4375 214.238 56.4062C220.207 33.3438 224.817 15.5781 228.067 3.10938C228.285 2.23438 228.926 1.65625 229.988 1.375C231.082 1.0625 232.145 1.10938 233.176 1.51562C234.238 1.89062 234.863 2.5 235.051 3.34375C235.082 3.375 235.129 3.45312 235.192 3.57812C235.598 5.07812 236.192 7.35938 236.973 10.4219C237.785 13.4531 238.379 15.7344 238.754 17.2656C241.535 27.9844 245.723 44.0781 251.317 65.5469C256.942 86.9844 261.16 103.078 263.973 113.828ZM215.598 77.9688C217.66 78.0312 223.863 78.0469 234.207 78.0156C244.582 77.9531 250.801 77.9219 252.863 77.9219C250.801 70.0469 247.707 58.25 243.582 42.5312C239.457 26.7812 236.363 14.9844 234.301 7.14062C233.207 11.3594 232.254 15 231.442 18.0625C229.692 24.7188 227.051 34.7031 223.52 48.0156C220.02 61.3281 217.379 71.3125 215.598 77.9688Z" fill="black"/>
<path d="M334.567 113.828C334.629 114.078 334.535 114.281 334.285 114.438C334.067 114.562 333.801 114.594 333.488 114.531C333.207 114.469 333.035 114.328 332.973 114.109C332.567 112.578 331.957 110.312 331.145 107.312C330.332 104.281 329.738 102 329.363 100.469C328.738 98.0938 327.801 94.5312 326.551 89.7812C325.332 85 324.41 81.4219 323.785 79.0469C320.973 79.0469 315.16 79.0781 306.348 79.1406C297.535 79.1719 290.723 79.1719 285.91 79.1406C284.848 83.0781 283.27 88.9844 281.176 96.8594C279.113 104.734 277.567 110.641 276.535 114.578L269.785 114.531C270.16 113.031 270.801 110.562 271.707 107.125C272.613 103.688 273.27 101.203 273.676 99.6719C275.176 93.8594 278.895 79.4375 284.832 56.4062C290.801 33.3438 295.41 15.5781 298.66 3.10938C298.879 2.23438 299.52 1.65625 300.582 1.375C301.676 1.0625 302.738 1.10938 303.77 1.51562C304.832 1.89062 305.457 2.5 305.645 3.34375C305.676 3.375 305.723 3.45312 305.785 3.57812C306.192 5.07812 306.785 7.35938 307.567 10.4219C308.379 13.4531 308.973 15.7344 309.348 17.2656C312.129 27.9844 316.317 44.0781 321.91 65.5469C327.535 86.9844 331.754 103.078 334.567 113.828ZM286.192 77.9688C288.254 78.0312 294.457 78.0469 304.801 78.0156C315.176 77.9531 321.395 77.9219 323.457 77.9219C321.395 70.0469 318.301 58.25 314.176 42.5312C310.051 26.7812 306.957 14.9844 304.895 7.14062C303.801 11.3594 302.848 15 302.035 18.0625C300.285 24.7188 297.645 34.7031 294.113 48.0156C290.613 61.3281 287.973 71.3125 286.192 77.9688Z" fill="black"/>
<path d="M370.379 56.3125C372.942 57.5312 375.379 58.9219 377.692 60.4844C380.035 62.0469 382.332 63.9375 384.582 66.1562C386.832 68.3438 388.77 70.6875 390.395 73.1875C392.02 75.6562 393.332 78.4844 394.332 81.6719C395.332 84.8594 395.817 88.1562 395.785 91.5625C395.754 95.1562 395.129 98.3906 393.91 101.266C392.692 104.141 391.035 106.5 388.942 108.344C386.879 110.156 384.567 111.609 382.004 112.703C379.473 113.766 376.738 114.469 373.801 114.812C373.77 114.812 373.692 114.812 373.567 114.812C373.442 114.844 373.363 114.859 373.332 114.859C373.207 114.922 373.129 114.953 373.098 114.953C370.473 115.203 367.895 115.266 365.363 115.141C362.863 115.047 360.379 114.594 357.91 113.781C355.442 112.938 353.145 111.844 351.02 110.5C348.895 109.156 346.91 107.391 345.067 105.203C343.223 102.984 341.676 100.438 340.426 97.5625C340.27 97.1875 340.473 96.9531 341.035 96.8594C341.598 96.7344 341.973 96.8594 342.16 97.2344C343.598 100.547 345.41 103.375 347.598 105.719C349.817 108.062 352.254 109.859 354.91 111.109C357.567 112.359 360.317 113.203 363.16 113.641C366.035 114.078 369.02 114.141 372.113 113.828C376.926 113.203 380.926 110.672 384.113 106.234C387.332 101.766 388.832 96.5 388.613 90.4375C388.488 86.875 387.77 83.4844 386.457 80.2656C385.176 77.0156 383.473 74.1719 381.348 71.7344C379.254 69.2656 376.988 67.125 374.551 65.3125C372.113 63.4688 369.52 61.8906 366.77 60.5781C366.738 60.5469 366.692 60.5156 366.629 60.4844C366.598 60.4531 366.567 60.4375 366.535 60.4375C366.285 60.3125 366.113 60.2188 366.02 60.1562H365.973L365.879 60.1094C365.817 60.0781 365.785 60.0469 365.785 60.0156H365.738C363.176 58.7969 360.723 57.4062 358.379 55.8438C356.067 54.2812 353.785 52.4062 351.535 50.2188C349.285 48.0312 347.348 45.6875 345.723 43.1875C344.098 40.6875 342.785 37.8438 341.785 34.6562C340.817 31.4688 340.348 28.1719 340.379 24.7656C340.41 21.1719 341.035 17.9375 342.254 15.0625C343.473 12.1562 345.113 9.79688 347.176 7.98438C349.27 6.14062 351.582 4.6875 354.113 3.625C356.676 2.53125 359.426 1.8125 362.363 1.46875H362.832C362.957 1.40625 363.035 1.375 363.067 1.375C365.692 1.125 368.254 1.0625 370.754 1.1875C373.285 1.28125 375.785 1.75 378.254 2.59375C380.723 3.40625 383.02 4.48438 385.145 5.82812C387.27 7.17188 389.254 8.95312 391.098 11.1719C392.942 13.3594 394.488 15.8906 395.738 18.7656C395.895 19.1406 395.692 19.375 395.129 19.4688C394.567 19.5938 394.192 19.4688 394.004 19.0938C392.567 15.7812 390.738 12.9531 388.52 10.6094C386.332 8.26562 383.91 6.46875 381.254 5.21875C378.598 3.96875 375.832 3.125 372.957 2.6875C370.113 2.25 367.145 2.1875 364.051 2.5C359.238 3.125 355.223 5.67188 352.004 10.1406C348.785 14.5781 347.285 19.8281 347.504 25.8906C347.629 29.4531 348.332 32.8594 349.613 36.1094C350.926 39.3281 352.645 42.1719 354.77 44.6406C356.895 47.0781 359.176 49.2188 361.613 51.0625C364.051 52.875 366.645 54.4375 369.395 55.75C369.426 55.75 369.457 55.7656 369.488 55.7969C369.551 55.8281 369.598 55.8438 369.629 55.8438C369.692 55.875 369.77 55.9375 369.863 56.0312C369.988 56.125 370.067 56.1719 370.098 56.1719H370.192H370.145C370.176 56.2031 370.207 56.2188 370.238 56.2188C370.27 56.2188 370.301 56.2344 370.332 56.2656L370.379 56.3125Z" fill="black"/>
<path d="M460.988 1.1875H468.207V114.531H460.988V60.9062H410.785V114.531H403.567V1.1875H410.785V59.8281H460.988V1.1875Z" fill="black"/>
<path d="M31.0041 56.3125C33.5666 57.5312 36.0041 58.9219 38.3166 60.4844C40.6603 62.0469 42.9572 63.9375 45.2072 66.1562C47.4572 68.3438 49.3947 70.6875 51.0197 73.1875C52.6447 75.6562 53.9572 78.4844 54.9572 81.6719C55.9572 84.8594 56.4416 88.1562 56.4103 91.5625C56.3791 95.1562 55.7541 98.3906 54.5353 101.266C53.3166 104.141 51.6603 106.5 49.5666 108.344C47.5041 110.156 45.1916 111.609 42.6291 112.703C40.0978 113.766 37.3635 114.469 34.426 114.812C34.3947 114.812 34.3166 114.812 34.1916 114.812C34.0666 114.844 33.9885 114.859 33.9572 114.859C33.8322 114.922 33.7541 114.953 33.7228 114.953C31.0978 115.203 28.5197 115.266 25.9885 115.141C23.4885 115.047 21.0041 114.594 18.5353 113.781C16.0666 112.938 13.7697 111.844 11.6447 110.5C9.5197 109.156 7.53533 107.391 5.69158 105.203C3.84783 102.984 2.30095 100.438 1.05095 97.5625C0.894701 97.1875 1.09783 96.9531 1.66033 96.8594C2.22283 96.7344 2.59783 96.8594 2.78533 97.2344C4.22283 100.547 6.03533 103.375 8.22283 105.719C10.4416 108.062 12.8791 109.859 15.5353 111.109C18.1916 112.359 20.9416 113.203 23.7853 113.641C26.6603 114.078 29.6447 114.141 32.7385 113.828C37.551 113.203 41.551 110.672 44.7385 106.234C47.9572 101.766 49.4572 96.5 49.2385 90.4375C49.1135 86.875 48.3947 83.4844 47.0822 80.2656C45.801 77.0156 44.0978 74.1719 41.9728 71.7344C39.8791 69.2656 37.6135 67.125 35.176 65.3125C32.7385 63.4688 30.1447 61.8906 27.3947 60.5781C27.3635 60.5469 27.3166 60.5156 27.2541 60.4844C27.2228 60.4531 27.1916 60.4375 27.1603 60.4375C26.9103 60.3125 26.7385 60.2188 26.6447 60.1562H26.5978L26.5041 60.1094C26.4416 60.0781 26.4103 60.0469 26.4103 60.0156H26.3635C23.801 58.7969 21.3478 57.4062 19.0041 55.8438C16.6916 54.2812 14.4103 52.4062 12.1603 50.2188C9.91033 48.0312 7.97283 45.6875 6.34783 43.1875C4.72283 40.6875 3.41033 37.8438 2.41033 34.6562C1.44158 31.4688 0.972826 28.1719 1.00408 24.7656C1.03533 21.1719 1.66033 17.9375 2.87908 15.0625C4.09783 12.1562 5.73845 9.79688 7.80095 7.98438C9.8947 6.14062 12.2072 4.6875 14.7385 3.625C17.301 2.53125 20.051 1.8125 22.9885 1.46875H23.4572C23.5822 1.40625 23.6603 1.375 23.6916 1.375C26.3166 1.125 28.8791 1.0625 31.3791 1.1875C33.9103 1.28125 36.4103 1.75 38.8791 2.59375C41.3478 3.40625 43.6447 4.48438 45.7697 5.82812C47.8947 7.17188 49.8791 8.95312 51.7228 11.1719C53.5666 13.3594 55.1135 15.8906 56.3635 18.7656C56.5197 19.1406 56.3166 19.375 55.7541 19.4688C55.1916 19.5938 54.8166 19.4688 54.6291 19.0938C53.1916 15.7812 51.3635 12.9531 49.1447 10.6094C46.9572 8.26562 44.5353 6.46875 41.8791 5.21875C39.2228 3.96875 36.4572 3.125 33.5822 2.6875C30.7385 2.25 27.7697 2.1875 24.676 2.5C19.8635 3.125 15.8478 5.67188 12.6291 10.1406C9.41033 14.5781 7.91033 19.8281 8.12908 25.8906C8.25408 29.4531 8.9572 32.8594 10.2385 36.1094C11.551 39.3281 13.2697 42.1719 15.3947 44.6406C17.5197 47.0781 19.801 49.2188 22.2385 51.0625C24.676 52.875 27.2697 54.4375 30.0197 55.75C30.051 55.75 30.0822 55.7656 30.1135 55.7969C30.176 55.8281 30.2228 55.8438 30.2541 55.8438C30.3166 55.875 30.3947 55.9375 30.4885 56.0312C30.6135 56.125 30.6916 56.1719 30.7228 56.1719H30.8166H30.7697C30.801 56.2031 30.8322 56.2188 30.8635 56.2188C30.8947 56.2188 30.926 56.2344 30.9572 56.2656L31.0041 56.3125Z" stroke="black" stroke-width="2" mask="url(#path-1-outside-1_5_20)"/>
<path d="M121.52 1.1875H128.738V114.531H121.52V47.2188C117.801 65.4062 112.317 80.8438 105.067 93.5312C99.7228 102.906 94.2228 109.297 88.5666 112.703C83.1603 115.953 78.4884 115.922 74.5509 112.609C69.4572 108.297 66.4103 99.1562 65.4103 85.1875C65.1916 82.0938 65.0822 78.7812 65.0822 75.25L64.1916 1.1875H71.2697C71.2697 8.40625 71.3322 18.125 71.4572 30.3438C71.6134 42.5312 71.7697 52.9219 71.9259 61.5156L72.1603 74.4062C72.1603 90.9375 74.4103 101.781 78.9103 106.938C82.0978 110.594 86.0353 110.938 90.7228 107.969C95.6603 104.844 100.567 98.6562 105.442 89.4062C111.973 76.9375 116.91 61.8594 120.254 44.1719L121.52 36.8594V1.1875Z" stroke="black" stroke-width="2" mask="url(#path-1-outside-1_5_20)"/>
<path d="M174.442 57.9531C180.629 59.2969 185.754 62.4531 189.817 67.4219C193.91 72.3906 195.957 78.6406 195.957 86.1719C195.957 90.5156 195.223 94.5156 193.754 98.1719C192.285 101.797 190.317 104.797 187.848 107.172C185.379 109.547 182.551 111.422 179.363 112.797C176.176 114.141 172.832 114.859 169.332 114.953C164.02 114.953 153.317 114.844 137.223 114.625C137.192 114.625 137.035 114.578 136.754 114.484H136.473V1.1875H143.692V1.23438C160.098 1.07812 168.645 1 169.332 1C172.832 1.09375 176.176 1.82812 179.363 3.20312C182.551 4.54688 185.379 6.40625 187.848 8.78125C190.317 11.1562 192.285 14.1719 193.754 17.8281C195.223 21.4531 195.957 25.4375 195.957 29.7812C195.957 33.5938 195.395 37.1406 194.27 40.4219C193.145 43.7031 191.582 46.5156 189.582 48.8594C187.613 51.1719 185.332 53.1094 182.738 54.6719C180.176 56.2031 177.41 57.2969 174.442 57.9531ZM166.66 2.40625C164.192 2.40625 160.254 2.42188 154.848 2.45312C149.442 2.45312 145.723 2.45312 143.692 2.45312V57.1094C145.723 57.1094 149.442 57.125 154.848 57.1562C160.254 57.1875 164.192 57.2031 166.66 57.2031C171.254 57.2031 175.457 55.6875 179.27 52.6562C183.113 49.5938 185.879 45.5 187.567 40.375C188.692 36.8438 189.254 33.3125 189.254 29.7812C189.254 26.0938 188.692 22.5625 187.567 19.1875C185.91 14.0938 183.16 10.0312 179.317 7C175.473 3.9375 171.254 2.40625 166.66 2.40625ZM187.567 96.7656C188.692 93.3906 189.254 89.8594 189.254 86.1719C189.254 82.4844 188.692 78.9531 187.567 75.5781C185.879 70.4531 183.113 66.375 179.27 63.3438C175.457 60.2812 171.254 58.75 166.66 58.75C164.192 58.75 160.254 58.7656 154.848 58.7969C149.442 58.8281 145.723 58.8438 143.692 58.8438V113.5C145.723 113.5 149.442 113.516 154.848 113.547C160.254 113.547 164.192 113.547 166.66 113.547C171.254 113.547 175.473 112.031 179.317 109C183.16 105.938 185.91 101.859 187.567 96.7656Z" stroke="black" stroke-width="2" mask="url(#path-1-outside-1_5_20)"/>
<path d="M263.973 113.828C264.035 114.078 263.942 114.281 263.692 114.438C263.473 114.562 263.207 114.594 262.895 114.531C262.613 114.469 262.442 114.328 262.379 114.109C261.973 112.578 261.363 110.312 260.551 107.312C259.738 104.281 259.145 102 258.77 100.469C258.145 98.0938 257.207 94.5312 255.957 89.7812C254.738 85 253.817 81.4219 253.192 79.0469C250.379 79.0469 244.567 79.0781 235.754 79.1406C226.942 79.1719 220.129 79.1719 215.317 79.1406C214.254 83.0781 212.676 88.9844 210.582 96.8594C208.52 104.734 206.973 110.641 205.942 114.578L199.192 114.531C199.567 113.031 200.207 110.562 201.113 107.125C202.02 103.688 202.676 101.203 203.082 99.6719C204.582 93.8594 208.301 79.4375 214.238 56.4062C220.207 33.3438 224.817 15.5781 228.067 3.10938C228.285 2.23438 228.926 1.65625 229.988 1.375C231.082 1.0625 232.145 1.10938 233.176 1.51562C234.238 1.89062 234.863 2.5 235.051 3.34375C235.082 3.375 235.129 3.45312 235.192 3.57812C235.598 5.07812 236.192 7.35938 236.973 10.4219C237.785 13.4531 238.379 15.7344 238.754 17.2656C241.535 27.9844 245.723 44.0781 251.317 65.5469C256.942 86.9844 261.16 103.078 263.973 113.828ZM215.598 77.9688C217.66 78.0312 223.863 78.0469 234.207 78.0156C244.582 77.9531 250.801 77.9219 252.863 77.9219C250.801 70.0469 247.707 58.25 243.582 42.5312C239.457 26.7812 236.363 14.9844 234.301 7.14062C233.207 11.3594 232.254 15 231.442 18.0625C229.692 24.7188 227.051 34.7031 223.52 48.0156C220.02 61.3281 217.379 71.3125 215.598 77.9688Z" stroke="black" stroke-width="2" mask="url(#path-1-outside-1_5_20)"/>
<path d="M334.567 113.828C334.629 114.078 334.535 114.281 334.285 114.438C334.067 114.562 333.801 114.594 333.488 114.531C333.207 114.469 333.035 114.328 332.973 114.109C332.567 112.578 331.957 110.312 331.145 107.312C330.332 104.281 329.738 102 329.363 100.469C328.738 98.0938 327.801 94.5312 326.551 89.7812C325.332 85 324.41 81.4219 323.785 79.0469C320.973 79.0469 315.16 79.0781 306.348 79.1406C297.535 79.1719 290.723 79.1719 285.91 79.1406C284.848 83.0781 283.27 88.9844 281.176 96.8594C279.113 104.734 277.567 110.641 276.535 114.578L269.785 114.531C270.16 113.031 270.801 110.562 271.707 107.125C272.613 103.688 273.27 101.203 273.676 99.6719C275.176 93.8594 278.895 79.4375 284.832 56.4062C290.801 33.3438 295.41 15.5781 298.66 3.10938C298.879 2.23438 299.52 1.65625 300.582 1.375C301.676 1.0625 302.738 1.10938 303.77 1.51562C304.832 1.89062 305.457 2.5 305.645 3.34375C305.676 3.375 305.723 3.45312 305.785 3.57812C306.192 5.07812 306.785 7.35938 307.567 10.4219C308.379 13.4531 308.973 15.7344 309.348 17.2656C312.129 27.9844 316.317 44.0781 321.91 65.5469C327.535 86.9844 331.754 103.078 334.567 113.828ZM286.192 77.9688C288.254 78.0312 294.457 78.0469 304.801 78.0156C315.176 77.9531 321.395 77.9219 323.457 77.9219C321.395 70.0469 318.301 58.25 314.176 42.5312C310.051 26.7812 306.957 14.9844 304.895 7.14062C303.801 11.3594 302.848 15 302.035 18.0625C300.285 24.7188 297.645 34.7031 294.113 48.0156C290.613 61.3281 287.973 71.3125 286.192 77.9688Z" stroke="black" stroke-width="2" mask="url(#path-1-outside-1_5_20)"/>
<path d="M370.379 56.3125C372.942 57.5312 375.379 58.9219 377.692 60.4844C380.035 62.0469 382.332 63.9375 384.582 66.1562C386.832 68.3438 388.77 70.6875 390.395 73.1875C392.02 75.6562 393.332 78.4844 394.332 81.6719C395.332 84.8594 395.817 88.1562 395.785 91.5625C395.754 95.1562 395.129 98.3906 393.91 101.266C392.692 104.141 391.035 106.5 388.942 108.344C386.879 110.156 384.567 111.609 382.004 112.703C379.473 113.766 376.738 114.469 373.801 114.812C373.77 114.812 373.692 114.812 373.567 114.812C373.442 114.844 373.363 114.859 373.332 114.859C373.207 114.922 373.129 114.953 373.098 114.953C370.473 115.203 367.895 115.266 365.363 115.141C362.863 115.047 360.379 114.594 357.91 113.781C355.442 112.938 353.145 111.844 351.02 110.5C348.895 109.156 346.91 107.391 345.067 105.203C343.223 102.984 341.676 100.438 340.426 97.5625C340.27 97.1875 340.473 96.9531 341.035 96.8594C341.598 96.7344 341.973 96.8594 342.16 97.2344C343.598 100.547 345.41 103.375 347.598 105.719C349.817 108.062 352.254 109.859 354.91 111.109C357.567 112.359 360.317 113.203 363.16 113.641C366.035 114.078 369.02 114.141 372.113 113.828C376.926 113.203 380.926 110.672 384.113 106.234C387.332 101.766 388.832 96.5 388.613 90.4375C388.488 86.875 387.77 83.4844 386.457 80.2656C385.176 77.0156 383.473 74.1719 381.348 71.7344C379.254 69.2656 376.988 67.125 374.551 65.3125C372.113 63.4688 369.52 61.8906 366.77 60.5781C366.738 60.5469 366.692 60.5156 366.629 60.4844C366.598 60.4531 366.567 60.4375 366.535 60.4375C366.285 60.3125 366.113 60.2188 366.02 60.1562H365.973L365.879 60.1094C365.817 60.0781 365.785 60.0469 365.785 60.0156H365.738C363.176 58.7969 360.723 57.4062 358.379 55.8438C356.067 54.2812 353.785 52.4062 351.535 50.2188C349.285 48.0312 347.348 45.6875 345.723 43.1875C344.098 40.6875 342.785 37.8438 341.785 34.6562C340.817 31.4688 340.348 28.1719 340.379 24.7656C340.41 21.1719 341.035 17.9375 342.254 15.0625C343.473 12.1562 345.113 9.79688 347.176 7.98438C349.27 6.14062 351.582 4.6875 354.113 3.625C356.676 2.53125 359.426 1.8125 362.363 1.46875H362.832C362.957 1.40625 363.035 1.375 363.067 1.375C365.692 1.125 368.254 1.0625 370.754 1.1875C373.285 1.28125 375.785 1.75 378.254 2.59375C380.723 3.40625 383.02 4.48438 385.145 5.82812C387.27 7.17188 389.254 8.95312 391.098 11.1719C392.942 13.3594 394.488 15.8906 395.738 18.7656C395.895 19.1406 395.692 19.375 395.129 19.4688C394.567 19.5938 394.192 19.4688 394.004 19.0938C392.567 15.7812 390.738 12.9531 388.52 10.6094C386.332 8.26562 383.91 6.46875 381.254 5.21875C378.598 3.96875 375.832 3.125 372.957 2.6875C370.113 2.25 367.145 2.1875 364.051 2.5C359.238 3.125 355.223 5.67188 352.004 10.1406C348.785 14.5781 347.285 19.8281 347.504 25.8906C347.629 29.4531 348.332 32.8594 349.613 36.1094C350.926 39.3281 352.645 42.1719 354.77 44.6406C356.895 47.0781 359.176 49.2188 361.613 51.0625C364.051 52.875 366.645 54.4375 369.395 55.75C369.426 55.75 369.457 55.7656 369.488 55.7969C369.551 55.8281 369.598 55.8438 369.629 55.8438C369.692 55.875 369.77 55.9375 369.863 56.0312C369.988 56.125 370.067 56.1719 370.098 56.1719H370.192H370.145C370.176 56.2031 370.207 56.2188 370.238 56.2188C370.27 56.2188 370.301 56.2344 370.332 56.2656L370.379 56.3125Z" stroke="black" stroke-width="2" mask="url(#path-1-outside-1_5_20)"/>
<path d="M460.988 1.1875H468.207V114.531H460.988V60.9062H410.785V114.531H403.567V1.1875H410.785V59.8281H460.988V1.1875Z" stroke="black" stroke-width="2" mask="url(#path-1-outside-1_5_20)"/>
</svg>
