<svg width="46" height="46" viewBox="0 0 46 46" fill="none" xmlns="http://www.w3.org/2000/svg">
<path d="M27.103 10.0311L33.4547 4.89191L32.1799 12.9623L32.019 13.981L33.0377 13.8201L41.1081 12.5453L35.9689 18.897L35.3201 19.6988L36.2829 20.0688L43.9094 23L36.2829 25.9312L35.3201 26.3012L35.9689 27.103L41.1081 33.4547L33.0377 32.1799L32.019 32.019L32.1799 33.0377L33.4547 41.1081L27.103 35.9689L26.3012 35.3201L25.9312 36.2829L23 43.9094L20.0688 36.2829L19.6988 35.3201L18.897 35.9689L12.5453 41.1081L13.8201 33.0377L13.981 32.019L12.9623 32.1799L4.89191 33.4547L10.0311 27.103L10.6799 26.3012L9.71712 25.9312L2.09058 23L9.71712 20.0688L10.6799 19.6988L10.0311 18.897L4.89191 12.5453L12.9623 13.8201L13.981 13.981L13.8201 12.9623L12.5453 4.89191L18.897 10.0311L19.6988 10.6799L20.0688 9.71712L23 2.09058L25.9312 9.71712L26.3012 10.6799L27.103 10.0311Z" fill="#FF4911" stroke="black" stroke-width="1.5"/>
</svg>
