<svg width="128" height="128" viewBox="0 0 128 128" fill="none" xmlns="http://www.w3.org/2000/svg">
<g filter="url(#filter0_d_18_112)">
<path d="M68.005 46.0817C64.5122 50.5626 61.1196 55.1175 57.5799 59.5624C54.3072 54.5291 51.0508 49.7705 47.8969 44.6207C47.1334 43.374 46.4467 41.668 45.1894 40.8212C44.3367 40.247 43.852 43.7736 43.7603 44.1748C43.2323 46.4844 43.0756 48.7621 43.0842 51.1226C43.0917 53.1728 43.8229 54.8964 44.1053 56.9022C44.3947 58.9569 41.9972 56.4884 41.1498 55.9362C40.1201 55.2651 39.1311 54.7748 38.0453 54.1942C35.7871 52.9867 33.4325 52.0159 31.1274 50.9127C27.7956 49.3181 24.6775 47.1189 21.4295 45.3443C19.4311 44.2524 21.1228 46.0648 21.6559 46.8026C23.0599 48.7459 24.3997 50.7132 25.8535 52.6287C28.6104 56.261 31.5935 59.3459 34.9408 62.4947C37.0752 64.5025 40.2611 66.5982 41.8528 69.1312C41.98 69.3336 41.9532 69.7023 41.9125 69.9274C41.7912 70.5999 41.0264 71.2693 40.6184 71.7817C39.2892 73.4508 37.892 74.9353 36.4129 76.4665C36.1777 76.71 33.1837 79.8416 34.5975 79.6403C37.9279 79.1661 41.0705 78.2177 44.2394 77.0938C46.3763 76.3358 48.5612 75.5334 50.7909 75.0805C52.1867 74.797 51.6419 75.6045 51.6489 76.7315C51.6608 78.6805 51.0259 80.616 50.5954 82.5024C50.0733 84.7902 49.6733 87.1026 49.3684 89.4313C48.9969 92.2681 48.5023 95.1378 48.3368 97.9948C48.1641 100.977 47.5484 103.93 47.4465 106.908C47.3697 109.152 47.6007 109.237 48.8446 107.675L55.6603 99.1162C57.2969 97.0611 59.0184 95.0485 60.5472 92.9108C61.7324 91.2536 62.6207 89.4169 63.7836 87.7463C64.2007 87.1471 68.0717 81.7952 68.6502 82.4377C70.4841 84.474 71.296 88.1465 72.0859 90.6879C72.7836 92.9325 72.9816 95.3457 74.0729 97.4558C74.6574 98.586 75.3311 99.7747 75.8188 98.1523C76.8128 94.8456 77.252 91.3498 77.9376 87.9714C78.158 86.8854 78.4089 85.8116 78.4612 84.7C78.4735 84.4396 78.3037 83.6855 78.4807 83.4375C78.7894 83.005 81.0187 83.5 81.3539 83.498C85.9888 83.4695 90.4672 83.7924 95.0699 84.3419C97.6227 84.6467 100.12 85.4062 102.688 85.5518C103.011 85.5701 106.688 85.5995 105.411 84.4706C104.14 83.3458 101.927 82.7007 100.436 82.0056C95.5705 79.7371 90.8137 77.2461 85.9391 74.989C83.8051 74.0009 81.4542 73.2293 79.6991 71.59C78.9408 70.8817 85.0834 65.7612 85.4983 65.3625C89.5119 61.5051 93.0428 57.6914 95.4322 52.6591C95.9977 51.4681 91.8865 52.3036 91.1627 52.6552C87.247 54.5572 83.9153 57.3054 80.1136 59.3762C78.7306 60.1295 77.5539 60.9753 76.3541 61.9877C75.7893 62.4643 75.0955 63.2227 74.3676 63.4733C74.1066 63.5632 74.3128 62.1816 74.3377 62.0435C74.6793 60.1509 74.6934 58.3811 75.1329 56.5053C75.6397 54.3422 75.78 52.1338 76.3854 49.98C77.4595 46.1585 78.8228 42.3919 80.0474 38.6179C81.0278 35.5961 82.4603 32.7968 83.3066 29.7103C83.8322 27.7937 85.1314 24.7685 84.6407 22.7388C84.387 21.6896 83.3546 22.703 83.0621 23.0702C80.3694 26.4514 78.382 30.5809 76.2993 34.3367C73.9578 38.5591 70.9647 42.2847 68.005 46.0817Z" fill="#FF44DD" stroke="black" stroke-width="2" stroke-linecap="round"/>
</g>
<defs>
<filter id="filter0_d_18_112" x="6.10352e-05" y="0" width="131.957" height="131.791" filterUnits="userSpaceOnUse" color-interpolation-filters="sRGB">
<feFlood flood-opacity="0" result="BackgroundImageFix"/>
<feColorMatrix in="SourceAlpha" type="matrix" values="0 0 0 0 0 0 0 0 0 0 0 0 0 0 0 0 0 0 127 0" result="hardAlpha"/>
<feOffset dx="4" dy="4"/>
<feComposite in2="hardAlpha" operator="out"/>
<feColorMatrix type="matrix" values="0 0 0 0 0 0 0 0 0 0 0 0 0 0 0 0 0 0 1 0"/>
<feBlend mode="normal" in2="BackgroundImageFix" result="effect1_dropShadow_18_112"/>
<feBlend mode="normal" in="SourceGraphic" in2="effect1_dropShadow_18_112" result="shape"/>
</filter>
</defs>
</svg>
