<svg width="620" height="620" viewBox="0 0 620 620" fill="none" xmlns="http://www.w3.org/2000/svg">
<path d="M619.997 310C619.997 481.208 481.205 620 309.997 620C138.788 620 -0.0032959 481.208 -0.0032959 310C-0.0032959 138.791 138.788 -0.000305176 309.997 -0.000305176C481.205 -0.000305176 619.997 138.791 619.997 310Z" fill="white"/>
<path d="M581.264 341.048L604.537 343.479L603.505 353.355C603.297 355.345 602.841 356.926 602.135 358.099C601.447 359.294 600.576 360.128 599.521 360.601C598.484 361.096 597.319 361.276 596.026 361.14C594.554 360.987 593.321 360.466 592.328 359.578C591.335 358.69 590.689 357.466 590.389 355.906L579.46 360.043L579.281 360.025L579.836 354.713L590.178 350.998L590.593 347.03L580.746 346.001L581.264 341.048ZM594.233 347.41L593.793 351.617C593.658 352.91 593.772 353.937 594.135 354.699C594.496 355.481 595.243 355.931 596.377 356.049C597.53 356.17 598.355 355.884 598.849 355.192C599.364 354.501 599.688 353.52 599.821 352.247L600.26 348.04L594.233 347.41Z" fill="black"/>
<path d="M576.75 367.096C577.239 364.298 578.45 362.307 580.383 361.122C582.313 359.958 584.716 359.627 587.592 360.13C589.523 360.468 591.121 361.082 592.386 361.973C593.648 362.884 594.543 364.036 595.071 365.428C595.596 366.839 595.698 368.461 595.377 370.293C594.915 372.933 593.764 374.813 591.924 375.933C590.08 377.072 587.611 377.371 584.518 376.83L583.514 376.654L585.623 364.597C584.108 364.434 582.859 364.611 581.875 365.129C580.907 365.671 580.322 366.523 580.118 367.685C579.956 368.611 580.103 369.398 580.558 370.046C581.01 370.714 581.585 371.2 582.282 371.505L581.486 376.056C580.434 375.689 579.498 375.119 578.679 374.347C577.86 373.574 577.261 372.586 576.883 371.383C576.504 370.18 576.46 368.751 576.75 367.096ZM588.637 365.125L587.345 372.512C588.698 372.668 589.791 372.514 590.623 372.05C591.475 371.59 591.998 370.809 592.191 369.705C592.38 368.622 592.179 367.683 591.587 366.889C591.011 366.119 590.028 365.53 588.637 365.125Z" fill="black"/>
<path d="M573.203 381.914C573.593 380.279 574.303 379.03 575.331 378.165C576.38 377.305 577.655 376.787 579.157 376.611C580.659 376.434 582.285 376.555 584.036 376.973C585.845 377.405 587.37 378.036 588.611 378.867C589.848 379.717 590.72 380.758 591.228 381.989C591.736 383.221 591.8 384.634 591.419 386.229C591.127 387.455 590.644 388.399 589.972 389.061C589.315 389.747 588.539 390.199 587.644 390.418L587.477 391.118L589.753 391.661L588.708 396.038L571.2 391.86L572.244 387.483L574.521 388.026L574.688 387.326C574.046 386.741 573.565 385.999 573.245 385.1C572.925 384.201 572.911 383.139 573.203 381.914ZM576.237 383.933C575.954 385.12 576.245 386.186 577.109 387.133C577.987 388.103 579.312 388.799 581.082 389.222C582.872 389.649 584.368 389.626 585.571 389.152C586.769 388.698 587.51 387.877 587.793 386.69C588.048 385.62 587.764 384.658 586.94 383.804C586.13 382.973 584.763 382.328 582.837 381.868C580.911 381.409 579.39 381.365 578.273 381.735C577.171 382.131 576.493 382.863 576.237 383.933Z" fill="black"/>
<path d="M567.761 399.498C568.249 397.932 569.033 396.763 570.113 395.989C571.211 395.222 572.516 394.801 574.026 394.728C575.536 394.654 577.151 394.886 578.869 395.422C580.645 395.976 582.123 396.71 583.305 397.623C584.48 398.556 585.283 399.644 585.711 400.888C586.134 402.152 586.107 403.547 585.631 405.074C585.279 406.201 584.793 407.055 584.171 407.636C583.544 408.236 582.821 408.639 582.003 408.845L581.788 409.532L589.406 411.909L587.958 416.549L565.048 409.399L566.388 405.104L568.622 405.801L568.837 405.113C568.236 404.486 567.807 403.713 567.549 402.794C567.291 401.876 567.361 400.777 567.761 399.498ZM570.614 401.834C570.251 402.999 570.468 404.082 571.265 405.085C572.076 406.114 573.35 406.899 575.087 407.441C576.843 407.989 578.338 408.068 579.57 407.677C580.796 407.306 581.591 406.538 581.955 405.373C582.283 404.323 582.064 403.343 581.3 402.435C580.55 401.551 579.229 400.814 577.339 400.224C575.449 399.634 573.934 399.486 572.795 399.78C571.669 400.099 570.942 400.784 570.614 401.834Z" fill="black"/>
<path d="M557.416 410.637L557.472 410.659C558.053 411.424 558.74 412.273 559.533 413.208C560.327 414.142 561.099 414.993 561.851 415.761L580.697 416.518L580.864 416.584L579.111 421.052L573.404 420.811C572.494 420.776 571.528 420.719 570.506 420.64C569.485 420.561 568.221 420.388 566.715 420.119L566.452 420.789C567.739 421.616 568.783 422.349 569.586 422.986C570.389 423.623 571.135 424.239 571.826 424.832L576.174 428.536L574.508 432.781L574.34 432.715L562.058 421.966C560.441 420.557 559.096 419.277 558.022 418.126C556.923 416.985 556.103 416.062 555.564 415.356L557.416 410.637Z" fill="black"/>
<path d="M551.648 437.251C552.338 437.084 553.085 437.046 553.889 437.138C554.685 437.248 555.761 437.645 557.119 438.33L565.342 442.477L566.45 440.281L569.503 441.821L568.369 444.071L572.387 446.097L570.239 450.356L566.221 448.33L564.91 450.928L561.857 449.388L563.167 446.79L555.399 442.872C553.988 442.161 552.827 441.777 551.915 441.72C551.003 441.663 550.193 441.736 549.486 441.939L549.325 441.858L551.648 437.251Z" fill="black"/>
<path d="M543.818 450.512C545.258 447.903 547.079 446.361 549.282 445.886C551.494 445.438 553.86 445.91 556.382 447.301C558.904 448.692 560.556 450.438 561.339 452.537C562.131 454.664 561.807 457.032 560.367 459.641C558.928 462.25 557.102 463.779 554.891 464.227C552.688 464.701 550.325 464.243 547.803 462.852C545.282 461.461 543.625 459.702 542.834 457.575C542.051 455.476 542.379 453.121 543.818 450.512ZM546.655 452.077C546.018 453.233 546.004 454.333 546.615 455.379C547.227 456.424 548.443 457.449 550.264 458.453C552.068 459.448 553.566 459.921 554.759 459.871C555.969 459.83 556.893 459.232 557.53 458.076C558.168 456.92 558.181 455.82 557.57 454.775C556.976 453.739 555.777 452.724 553.974 451.729C552.152 450.724 550.637 450.242 549.427 450.283C548.217 450.323 547.293 450.921 546.655 452.077Z" fill="black"/>
<path d="M530.228 471.53L553.322 478.983L553.47 479.086L550.561 483.275L531.638 477.074L531.227 477.665L543.682 493.181L540.91 497.173L540.762 497.07L525.711 478.035L530.228 471.53Z" fill="black"/>
<path d="M520.867 483.416L534.864 494.734L531.808 498.513L517.811 487.195L520.867 483.416ZM534.946 497.925C535.486 497.256 536.066 496.889 536.685 496.824C537.319 496.771 537.916 496.971 538.476 497.423C539.036 497.876 539.349 498.412 539.414 499.03C539.495 499.662 539.266 500.312 538.725 500.981C538.184 501.649 537.597 502.01 536.962 502.063C536.343 502.129 535.754 501.935 535.194 501.482C534.634 501.03 534.314 500.488 534.233 499.856C534.167 499.237 534.405 498.594 534.946 497.925Z" fill="black"/>
<path d="M509.854 495.573C511.711 493.425 513.773 492.339 516.04 492.315C518.294 492.307 520.526 493.258 522.735 495.167C524.218 496.449 525.274 497.797 525.901 499.212C526.516 500.642 526.692 502.089 526.43 503.555C526.155 505.035 525.41 506.479 524.193 507.886C522.441 509.914 520.488 510.935 518.333 510.95C516.166 510.981 513.895 509.969 511.519 507.916L510.747 507.249L518.751 497.988C517.535 497.07 516.372 496.58 515.262 496.52C514.154 496.487 513.214 496.917 512.442 497.81C511.827 498.521 511.549 499.271 511.606 500.061C511.651 500.866 511.894 501.579 512.336 502.199L509.315 505.694C508.601 504.839 508.091 503.869 507.785 502.785C507.479 501.702 507.473 500.547 507.766 499.32C508.06 498.093 508.756 496.844 509.854 495.573ZM521.066 499.989L516.162 505.664C517.243 506.492 518.26 506.922 519.212 506.952C520.179 506.995 521.029 506.592 521.762 505.745C522.481 504.913 522.79 504.004 522.69 503.019C522.592 502.062 522.051 501.052 521.066 499.989Z" fill="black"/>
<path d="M502.646 503.482L517.438 514.044L517.46 514.065L514.325 517.293L502.511 508.788L502.01 509.304L510.604 521.124L505.211 526.675L493.147 518.428L492.645 518.945L501.49 530.506L498.564 533.519L498.542 533.498L487.555 519.019L493.073 513.338L505.243 521.605L505.745 521.088L497.128 509.163L502.646 503.482Z" fill="black"/>
<path d="M460.799 537.624L473.934 556.99L465.716 562.564C464.061 563.686 462.557 564.356 461.205 564.572C459.848 564.816 458.649 564.686 457.608 564.184C456.561 563.71 455.673 562.935 454.943 561.859C454.112 560.634 453.717 559.356 453.756 558.025C453.795 556.693 454.315 555.41 455.315 554.176L445.109 548.483L445.008 548.334L449.428 545.337L458.932 550.852L462.235 548.613L456.678 540.419L460.799 537.624ZM464.289 551.642L460.788 554.016C459.712 554.746 459 555.495 458.651 556.263C458.286 557.043 458.423 557.904 459.063 558.848C459.714 559.808 460.464 560.254 461.312 560.186C462.171 560.135 463.131 559.75 464.19 559.031L467.691 556.657L464.289 551.642Z" fill="black"/>
<path d="M437.596 551.133C440.052 549.706 442.355 549.352 444.506 550.068C446.639 550.795 448.44 552.421 449.906 554.946C450.891 556.64 451.449 558.259 451.582 559.801C451.697 561.353 451.392 562.779 450.667 564.079C449.924 565.389 448.749 566.512 447.141 567.446C444.823 568.792 442.644 569.121 440.602 568.434C438.543 567.756 436.725 566.06 435.148 563.344L434.636 562.462L445.22 556.315C444.37 555.051 443.43 554.209 442.4 553.789C441.363 553.397 440.334 553.498 439.314 554.09C438.501 554.562 437.993 555.181 437.79 555.947C437.57 556.722 437.567 557.475 437.783 558.205L433.789 560.526C433.392 559.484 433.225 558.401 433.289 557.277C433.353 556.153 433.724 555.059 434.401 553.995C435.078 552.931 436.143 551.977 437.596 551.133ZM446.757 558.961L440.271 562.728C441.024 563.863 441.845 564.601 442.736 564.939C443.636 565.295 444.571 565.192 445.539 564.629C446.49 564.077 447.079 563.318 447.305 562.354C447.525 561.417 447.342 560.286 446.757 558.961Z" fill="black"/>
<path d="M423.88 557.952C425.383 557.201 426.796 556.942 428.119 557.175C429.452 557.425 430.668 558.07 431.768 559.107C432.868 560.145 433.82 561.469 434.625 563.079C435.456 564.743 435.952 566.318 436.113 567.802C436.256 569.296 436.018 570.633 435.401 571.814C434.783 572.994 433.741 573.951 432.274 574.684C431.147 575.247 430.114 575.484 429.175 575.394C428.227 575.331 427.382 575.027 426.639 574.481L425.995 574.803L427.041 576.896L423.016 578.908L414.97 562.806L418.995 560.795L420.041 562.888L420.685 562.566C420.721 561.699 420.981 560.853 421.464 560.031C421.947 559.208 422.753 558.515 423.88 557.952ZM424.281 561.574C423.19 562.12 422.559 563.027 422.389 564.297C422.21 565.594 422.527 567.057 423.34 568.685C424.163 570.331 425.142 571.462 426.278 572.08C427.396 572.706 428.5 572.747 429.592 572.201C430.576 571.71 431.13 570.873 431.256 569.693C431.372 568.539 430.988 567.077 430.103 565.305C429.218 563.534 428.275 562.34 427.273 561.723C426.263 561.132 425.265 561.083 424.281 561.574Z" fill="black"/>
<path d="M406.945 565.066C408.458 564.433 409.857 564.281 411.144 564.609C412.438 564.956 413.6 565.685 414.628 566.794C415.656 567.903 416.517 569.288 417.212 570.948C417.93 572.664 418.32 574.268 418.381 575.76C418.423 577.26 418.106 578.574 417.429 579.703C416.734 580.839 415.649 581.717 414.173 582.334C413.084 582.79 412.118 582.967 411.273 582.865C410.41 582.771 409.636 582.477 408.952 581.983L408.288 582.261L411.369 589.622L406.886 591.499L397.619 569.36L401.77 567.622L402.674 569.781L403.338 569.503C403.432 568.639 403.748 567.814 404.285 567.025C404.822 566.236 405.709 565.583 406.945 565.066ZM406.992 568.754C405.867 569.225 405.177 570.088 404.922 571.344C404.656 572.626 404.875 574.106 405.578 575.785C406.288 577.483 407.189 578.677 408.281 579.369C409.354 580.069 410.454 580.184 411.579 579.712C412.594 579.288 413.203 578.491 413.408 577.321C413.601 576.178 413.316 574.693 412.551 572.866C411.787 571.04 410.925 569.785 409.967 569.102C408.999 568.445 408.007 568.329 406.992 568.754Z" fill="black"/>
<path d="M392.256 564.134L392.275 564.191C392.067 565.129 391.863 566.202 391.663 567.412C391.463 568.621 391.313 569.761 391.213 570.83L402.817 585.699L402.876 585.869L398.333 587.42L394.828 582.91C394.267 582.193 393.686 581.419 393.085 580.589C392.485 579.758 391.8 578.681 391.032 577.359L390.35 577.591C390.551 579.108 390.668 580.378 390.7 581.402C390.733 582.427 390.746 583.394 390.74 584.305L390.724 590.017L386.408 591.489L386.35 591.319L386.613 574.999C386.642 572.855 386.749 571.001 386.934 569.438C387.093 567.862 387.268 566.64 387.458 565.772L392.256 564.134Z" fill="black"/>
<path d="M368.082 576.875C368.655 577.293 369.166 577.84 369.615 578.514C370.044 579.193 370.435 580.272 370.788 581.75L372.926 590.709L375.318 590.138L376.112 593.464L373.661 594.049L374.706 598.426L370.066 599.533L369.021 595.156L366.191 595.832L365.397 592.505L368.228 591.83L366.208 583.367C365.841 581.83 365.386 580.695 364.84 579.962C364.295 579.228 363.717 578.657 363.105 578.248L363.063 578.073L368.082 576.875Z" fill="black"/>
<path d="M352.657 579.459C355.58 578.879 357.933 579.278 359.716 580.657C361.483 582.059 362.647 584.173 363.208 586.998C363.77 589.823 363.5 592.211 362.399 594.163C361.283 596.138 359.263 597.416 356.34 597.997C353.417 598.578 351.072 598.167 349.305 596.764C347.522 595.385 346.35 593.283 345.789 590.459C345.228 587.634 345.505 585.234 346.622 583.258C347.723 581.306 349.734 580.04 352.657 579.459ZM353.289 582.637C351.994 582.894 351.144 583.593 350.738 584.734C350.333 585.875 350.333 587.466 350.738 589.506C351.14 591.526 351.744 592.976 352.551 593.856C353.361 594.755 354.414 595.076 355.709 594.819C357.003 594.562 357.854 593.863 358.259 592.722C358.668 591.601 358.672 590.03 358.271 588.009C357.866 585.969 357.258 584.5 356.447 583.6C355.636 582.701 354.583 582.38 353.289 582.637Z" fill="black"/>
<path d="M328.292 582.496L337.458 604.965L337.475 605.144L332.397 605.615L324.958 587.144L324.241 587.21L320.388 606.73L315.549 607.179L315.532 607L320.406 583.227L328.292 582.496Z" fill="black"/>
<path d="M313.078 582.992L313.425 600.989L308.566 601.083L308.218 583.086L313.078 582.992ZM311.035 603.105C311.895 603.089 312.549 603.296 312.998 603.728C313.447 604.179 313.678 604.765 313.692 605.484C313.706 606.204 313.497 606.788 313.065 607.237C312.634 607.705 311.989 607.948 311.129 607.964C310.269 607.981 309.615 607.764 309.166 607.312C308.718 606.881 308.487 606.305 308.473 605.585C308.459 604.865 308.667 604.271 309.098 603.803C309.53 603.354 310.175 603.122 311.035 603.105Z" fill="black"/>
<path d="M295.619 582.36C298.459 582.404 300.615 583.288 302.089 585.011C303.542 586.733 304.247 589.054 304.201 591.974C304.171 593.934 303.815 595.608 303.134 596.998C302.432 598.387 301.436 599.452 300.144 600.192C298.833 600.932 297.247 601.288 295.387 601.259C292.707 601.218 290.67 600.376 289.275 598.734C287.861 597.092 287.177 594.702 287.226 591.562L287.242 590.542L299.48 590.731C299.404 589.21 299.032 588.004 298.366 587.113C297.679 586.243 296.746 585.798 295.566 585.78C294.626 585.765 293.872 586.034 293.303 586.585C292.715 587.136 292.325 587.78 292.133 588.517L287.514 588.446C287.711 587.349 288.127 586.335 288.761 585.405C289.396 584.475 290.277 583.728 291.406 583.165C292.535 582.603 293.939 582.334 295.619 582.36ZM299.433 593.791L291.934 593.675C291.993 595.036 292.316 596.091 292.905 596.84C293.493 597.609 294.347 598.003 295.467 598.02C296.567 598.037 297.462 597.691 298.153 596.981C298.824 596.291 299.251 595.228 299.433 593.791Z" fill="black"/>
<path d="M284.666 581.886L286.073 600.008L286.071 600.038L281.583 599.708L280.513 585.191L279.795 585.138L276.257 599.317L268.538 598.751L267.109 584.207L266.391 584.154L263.212 598.36L259.023 598.052L259.026 598.022L263.064 580.3L270.963 580.88L272.445 595.518L273.163 595.571L276.767 581.306L284.666 581.886Z" fill="black"/>
<path d="M231.961 571.706L225.499 594.196L215.955 591.454C214.033 590.902 212.556 590.176 211.525 589.276C210.468 588.39 209.8 587.386 209.518 586.265C209.212 585.157 209.239 583.978 209.598 582.729C210.006 581.307 210.735 580.184 211.783 579.361C212.831 578.539 214.149 578.116 215.736 578.094L213.574 566.61L213.623 566.437L218.756 567.912L220.606 578.744L224.441 579.846L227.175 570.331L231.961 571.706ZM223.43 583.364L219.365 582.196C218.115 581.837 217.084 581.769 216.27 581.993C215.438 582.212 214.864 582.869 214.549 583.964C214.229 585.079 214.366 585.941 214.961 586.549C215.551 587.176 216.461 587.666 217.691 588.02L221.757 589.188L223.43 583.364Z" fill="black"/>
<path d="M206.775 562.535C209.442 563.513 211.186 565.058 212.009 567.17C212.814 569.276 212.713 571.699 211.708 574.441C211.033 576.281 210.145 577.745 209.043 578.832C207.923 579.912 206.631 580.589 205.168 580.862C203.685 581.128 202.071 580.94 200.325 580.3C197.809 579.377 196.163 577.911 195.387 575.901C194.593 573.885 194.736 571.402 195.817 568.454L196.169 567.497L207.66 571.71C208.09 570.249 208.137 568.988 207.801 567.928C207.44 566.879 206.706 566.152 205.598 565.746C204.715 565.422 203.915 565.427 203.196 565.76C202.459 566.086 201.878 566.565 201.455 567.198L197.117 565.608C197.665 564.637 198.391 563.817 199.297 563.148C200.203 562.479 201.281 562.065 202.532 561.906C203.784 561.747 205.198 561.956 206.775 562.535ZM206.607 574.583L199.565 572.001C199.172 573.306 199.13 574.409 199.439 575.31C199.74 576.23 200.417 576.883 201.468 577.268C202.501 577.647 203.461 577.616 204.347 577.174C205.208 576.744 205.961 575.88 206.607 574.583Z" fill="black"/>
<path d="M192.759 556.393C194.299 557.065 195.404 557.983 196.074 559.148C196.736 560.332 197.021 561.678 196.93 563.188C196.839 564.697 196.433 566.277 195.714 567.927C194.97 569.632 194.08 571.022 193.044 572.097C191.989 573.164 190.811 573.84 189.509 574.123C188.207 574.406 186.804 574.219 185.301 573.564C184.146 573.06 183.302 572.419 182.769 571.641C182.209 570.873 181.901 570.029 181.844 569.11L181.184 568.822L180.248 570.967L176.124 569.167L183.321 552.669L187.445 554.468L186.51 556.613L187.17 556.901C187.858 556.372 188.673 556.029 189.615 555.873C190.556 555.716 191.604 555.889 192.759 556.393ZM190.236 559.024C189.118 558.536 188.017 558.634 186.933 559.318C185.823 560.012 184.904 561.193 184.177 562.861C183.441 564.548 183.2 566.025 183.455 567.292C183.691 568.552 184.368 569.425 185.486 569.913C186.495 570.353 187.492 570.243 188.478 569.582C189.439 568.932 190.314 567.699 191.106 565.884C191.898 564.069 192.209 562.58 192.041 561.415C191.846 560.261 191.245 559.464 190.236 559.024Z" fill="black"/>
<path d="M176.515 547.936C177.968 548.696 178.979 549.676 179.547 550.876C180.107 552.094 180.287 553.453 180.09 554.952C179.893 556.451 179.377 557.998 178.543 559.593C177.681 561.242 176.695 562.565 175.585 563.565C174.458 564.555 173.244 565.15 171.943 565.35C170.624 565.541 169.256 565.265 167.838 564.524C166.793 563.977 166.039 563.346 165.578 562.631C165.1 561.906 164.832 561.123 164.776 560.281L164.138 559.947L160.439 567.019L156.133 564.766L167.256 543.5L171.244 545.585L170.159 547.659L170.797 547.992C171.522 547.514 172.359 547.229 173.309 547.139C174.259 547.049 175.327 547.315 176.515 547.936ZM173.707 550.327C172.626 549.761 171.521 549.781 170.391 550.387C169.235 551.001 168.235 552.114 167.392 553.727C166.539 555.357 166.195 556.814 166.359 558.096C166.506 559.369 167.12 560.288 168.201 560.854C169.175 561.363 170.178 561.324 171.209 560.734C172.212 560.153 173.173 558.985 174.091 557.231C175.008 555.476 175.424 554.012 175.338 552.839C175.225 551.674 174.682 550.837 173.707 550.327Z" fill="black"/>
<path d="M167.85 536.094L167.819 536.145C166.964 536.584 166.008 537.114 164.95 537.733C163.893 538.352 162.92 538.965 162.034 539.572L158.02 558.002L157.926 558.155L153.83 555.653L155.057 550.075C155.249 549.185 155.473 548.243 155.727 547.251C155.982 546.258 156.373 545.043 156.898 543.607L156.284 543.232C155.246 544.355 154.344 545.257 153.577 545.937C152.81 546.617 152.074 547.246 151.37 547.824L146.968 551.462L143.077 549.086L143.17 548.932L155.887 538.701C157.555 537.352 159.049 536.249 160.369 535.392C161.683 534.507 162.734 533.86 163.523 533.451L167.85 536.094Z" fill="black"/>
<path d="M142.596 525.744C142.643 526.452 142.552 527.194 142.322 527.971C142.077 528.736 141.501 529.728 140.593 530.948L135.094 538.336L137.068 539.805L135.026 542.548L133.004 541.043L130.317 544.653L126.491 541.805L129.178 538.195L126.843 536.458L128.885 533.714L131.22 535.452L136.414 528.473C137.358 527.205 137.936 526.127 138.148 525.238C138.361 524.35 138.428 523.539 138.35 522.808L138.457 522.663L142.596 525.744Z" fill="black"/>
<path d="M130.723 515.555C133.04 517.428 134.24 519.491 134.322 521.744C134.376 523.999 133.497 526.247 131.686 528.486C129.875 530.726 127.868 532.048 125.664 532.452C123.431 532.858 121.157 532.125 118.839 530.251C116.522 528.378 115.337 526.313 115.283 524.058C115.201 521.805 116.065 519.559 117.876 517.32C119.687 515.08 121.708 513.757 123.941 513.35C126.145 512.946 128.406 513.681 130.723 515.555ZM128.686 518.074C127.659 517.244 126.578 517.039 125.442 517.458C124.306 517.876 123.084 518.895 121.776 520.512C120.481 522.114 119.754 523.506 119.595 524.689C119.423 525.888 119.85 526.902 120.877 527.732C121.903 528.562 122.984 528.767 124.12 528.349C125.244 527.945 126.453 526.943 127.748 525.341C129.056 523.723 129.796 522.315 129.968 521.117C130.139 519.918 129.712 518.904 128.686 518.074Z" fill="black"/>
<path d="M112.693 498.846L101.415 520.333L101.288 520.461L97.656 516.881L106.989 499.29L106.477 498.785L89.0665 508.415L85.6051 505.004L85.7314 504.876L107.052 493.287L112.693 498.846Z" fill="black"/>
<path d="M102.48 487.41L88.9044 499.229L85.7132 495.564L99.289 483.744L102.48 487.41ZM85.7476 498.756C86.3123 499.404 86.5732 500.039 86.5302 500.66C86.4722 501.294 86.1717 501.847 85.6287 502.32C85.0856 502.792 84.5037 503.007 83.8829 502.964C83.2471 502.935 82.6468 502.595 82.0821 501.947C81.5174 501.298 81.2641 500.657 81.3221 500.023C81.365 499.402 81.658 498.855 82.201 498.383C82.7441 497.91 83.3335 497.688 83.9694 497.718C84.5901 497.761 85.1829 498.107 85.7476 498.756Z" fill="black"/>
<path d="M92.571 474.701C94.3727 476.897 95.0923 479.113 94.7298 481.351C94.3546 483.574 93.0384 485.611 90.7812 487.464C89.2661 488.707 87.7581 489.518 86.2572 489.896C84.7436 490.258 83.2871 490.186 81.8876 489.679C80.4754 489.156 79.1793 488.176 77.9993 486.738C76.2991 484.666 75.6247 482.568 75.9761 480.442C76.3149 478.301 77.6978 476.235 80.1251 474.243L80.9135 473.596L88.6786 483.057C89.7901 482.016 90.4703 480.953 90.7192 479.869C90.9399 478.782 90.6759 477.783 89.9273 476.871C89.331 476.144 88.6387 475.742 87.8506 475.665C87.0498 475.571 86.3062 475.69 85.62 476.02L82.6891 472.449C83.6536 471.89 84.6958 471.553 85.8158 471.435C86.9357 471.318 88.0751 471.509 89.234 472.007C90.3929 472.504 91.5052 473.403 92.571 474.701ZM86.3132 484.999L81.5552 479.201C80.5547 480.126 79.9587 481.055 79.7673 481.988C79.5605 482.934 79.8123 483.84 80.5228 484.706C81.2207 485.556 82.0636 486.015 83.0515 486.084C84.0113 486.15 85.0986 485.789 86.3132 484.999Z" fill="black"/>
<path d="M85.937 466.074L72.9644 478.806L72.9401 478.823L70.3063 475.174L80.7354 465.019L80.314 464.435L67.1808 470.845L62.6506 464.569L72.8691 454.122L72.4477 453.538L59.5252 460.239L57.067 456.834L57.0913 456.816L73.2596 448.512L77.8951 454.934L67.6388 465.482L68.0602 466.066L81.3015 459.653L85.937 466.074Z" fill="black"/>
<path d="M59.7564 419.354L38.4142 428.95L34.3423 419.893C33.5222 418.069 33.1224 416.472 33.1429 415.104C33.137 413.725 33.4711 412.566 34.1453 411.627C34.7931 410.678 35.7098 409.937 36.8955 409.404C38.2454 408.797 39.5727 408.627 40.8776 408.896C42.1825 409.165 43.3563 409.898 44.3991 411.095L51.7682 402.026L51.9324 401.952L54.1221 406.823L47.0487 415.233L48.6849 418.872L57.7143 414.812L59.7564 419.354ZM45.3468 420.373L43.6122 416.515C43.0791 415.329 42.4643 414.498 41.7677 414.022C41.063 413.527 40.1907 413.514 39.151 413.981C38.093 414.457 37.5242 415.118 37.4446 415.965C37.3467 416.821 37.5602 417.832 38.0851 419L39.8197 422.858L45.3468 420.373Z" fill="black"/>
<path d="M50.5278 394.311C51.5055 396.977 51.4545 399.307 50.3748 401.301C49.2883 403.276 47.3742 404.766 44.6327 405.771C42.7925 406.446 41.1016 406.714 39.56 406.577C38.0115 406.42 36.6601 405.872 35.5059 404.932C34.3448 403.973 33.4441 402.62 32.8038 400.874C31.8811 398.358 31.9359 396.154 32.968 394.263C33.9932 392.354 35.9798 390.858 38.9279 389.777L39.8855 389.426L44.0994 400.918C45.492 400.301 46.4844 399.521 47.0765 398.58C47.643 397.627 47.7231 396.596 47.3168 395.488C46.9932 394.606 46.4721 393.998 45.7536 393.665C45.0281 393.313 44.2871 393.18 43.5303 393.266L41.9398 388.928C43.0345 388.719 44.1299 388.743 45.2259 389.002C46.3219 389.26 47.3349 389.815 48.265 390.667C49.1952 391.519 49.9494 392.734 50.5278 394.311ZM41.2264 401.971L38.6444 394.93C37.3951 395.473 36.5263 396.154 36.0381 396.972C35.5311 397.797 35.4705 398.735 35.856 399.787C36.2347 400.819 36.8791 401.531 37.7892 401.922C38.6736 402.3 39.8194 402.317 41.2264 401.971Z" fill="black"/>
<path d="M46.0989 379.311C46.5751 380.922 46.5826 382.359 46.1215 383.621C45.6413 384.889 44.7939 385.974 43.5796 386.875C42.3652 387.776 40.8949 388.482 39.1687 388.992C37.385 389.519 35.7481 389.732 34.2581 389.63C32.7625 389.509 31.4876 389.041 30.4335 388.226C29.3794 387.412 28.6199 386.218 28.1551 384.645C27.798 383.437 27.7458 382.378 27.9985 381.469C28.2264 380.547 28.6741 379.768 29.3414 379.133L29.1373 378.442L26.8933 379.106L25.6178 374.79L42.8797 369.688L44.1551 374.004L41.9111 374.667L42.1152 375.358C42.963 375.545 43.7497 375.949 44.4751 376.568C45.2005 377.188 45.7418 378.102 46.0989 379.311ZM42.4621 379.072C42.1163 377.902 41.3331 377.122 40.1125 376.732C38.867 376.328 37.3716 376.384 35.6262 376.9C33.8617 377.422 32.576 378.187 31.7692 379.197C30.9568 380.188 30.7234 381.269 31.0692 382.439C31.381 383.494 32.1071 384.186 33.2475 384.517C34.363 384.833 35.8702 384.711 37.769 384.15C39.6678 383.589 41.0088 382.869 41.7921 381.991C42.5505 381.1 42.7738 380.127 42.4621 379.072Z" fill="black"/>
<path d="M42.0635 361.427C42.4198 363.028 42.3227 364.433 41.7721 365.641C41.202 366.854 40.2804 367.869 39.0073 368.685C37.7342 369.501 36.2191 370.104 34.4621 370.495C32.6465 370.899 30.999 371 29.5195 370.796C28.0356 370.573 26.7978 370.029 25.8061 369.164C24.8101 368.279 24.1383 367.056 23.7907 365.494C23.5343 364.343 23.5307 363.36 23.7799 362.546C24.0248 361.713 24.4508 361.004 25.058 360.418L24.9016 359.715L17.1122 361.449L16.0563 356.705L39.483 351.491L40.4607 355.883L38.1766 356.391L38.333 357.094C39.1661 357.339 39.9234 357.795 40.6048 358.463C41.2861 359.131 41.7724 360.119 42.0635 361.427ZM38.4254 360.823C38.1603 359.632 37.4323 358.801 36.2412 358.328C35.0262 357.841 33.5304 357.794 31.7539 358.19C29.9579 358.59 28.6229 359.266 27.749 360.218C26.8707 361.151 26.5641 362.213 26.8292 363.404C27.0682 364.478 27.7452 365.219 28.8604 365.626C29.9517 366.018 31.4637 365.999 33.3964 365.569C35.3291 365.139 36.7162 364.513 37.5576 363.69C38.3751 362.853 38.6644 361.897 38.4254 360.823Z" fill="black"/>
<path d="M45.5164 347.023L45.4571 347.032C44.5715 346.66 43.5514 346.269 42.3967 345.857C41.2421 345.445 40.1474 345.095 39.1126 344.806L22.4179 353.583L22.2399 353.61L21.5217 348.864L26.5826 346.217C27.3881 345.792 28.2528 345.357 29.1769 344.914C30.101 344.471 31.2821 343.989 32.7204 343.468L32.6126 342.756C31.0846 342.684 29.8137 342.572 28.7998 342.422C27.786 342.272 26.8315 342.113 25.9363 341.946L20.3187 340.914L19.6365 336.406L19.8144 336.379L35.8274 339.538C37.9324 339.948 39.7378 340.383 41.2436 340.843C42.7661 341.28 43.9375 341.669 44.7578 342.01L45.5164 347.023Z" fill="black"/>
<path d="M37.1785 321.198C36.666 321.689 36.0385 322.096 35.296 322.419C34.5523 322.723 33.4217 322.919 31.9043 323.006L22.7097 323.539L22.852 325.995L19.4377 326.193L19.292 323.677L14.7995 323.937L14.5236 319.175L19.016 318.915L18.8477 316.01L22.262 315.812L22.4303 318.717L31.1158 318.214C32.6931 318.123 33.8907 317.873 34.7084 317.465C35.5262 317.057 36.1902 316.588 36.7004 316.057L36.8801 316.047L37.1785 321.198Z" fill="black"/>
<path d="M37.3074 305.474C37.3649 308.453 36.5581 310.699 34.8869 312.212C33.1954 313.705 30.9099 314.479 28.0305 314.535C25.151 314.59 22.8474 313.904 21.1195 312.477C19.3713 311.031 18.4684 308.818 18.4109 305.839C18.3534 302.859 19.1704 300.623 20.8619 299.13C22.533 297.617 24.8083 296.833 27.6877 296.778C30.5672 296.722 32.8811 297.418 34.6293 298.864C36.3572 300.291 37.2498 302.494 37.3074 305.474ZM34.068 305.536C34.0425 304.217 33.5039 303.257 32.4521 302.657C31.4003 302.057 29.8346 301.777 27.755 301.817C25.6954 301.857 24.1617 302.197 23.1538 302.836C22.126 303.476 21.6248 304.456 21.6503 305.776C21.6757 307.096 22.2144 308.056 23.2661 308.655C24.2979 309.256 25.8436 309.536 27.9032 309.496C29.9828 309.456 31.5366 309.116 32.5644 308.476C33.5922 307.836 34.0934 306.856 34.068 305.536Z" fill="black"/>
<path d="M38.4864 280.38L14.7722 285.528L14.5927 285.514L15.0054 280.43L34.484 276.293L34.5423 275.575L15.9812 268.41L16.3744 263.566L16.5538 263.58L39.1273 272.486L38.4864 280.38Z" fill="black"/>
<path d="M40.7521 264.525L22.9759 261.695L23.7399 256.896L41.5161 259.725L40.7521 264.525ZM21.3136 258.97C21.1784 259.819 20.859 260.427 20.3553 260.792C19.8318 261.154 19.2146 261.279 18.5035 261.166C17.7925 261.053 17.2543 260.744 16.8889 260.24C16.5038 259.734 16.3789 259.056 16.514 258.206C16.6492 257.357 16.9786 256.751 17.502 256.389C18.0057 256.024 18.6131 255.897 19.3241 256.011C20.0352 256.124 20.5832 256.434 20.9684 256.941C21.3337 257.444 21.4488 258.121 21.3136 258.97Z" fill="black"/>
<path d="M44.086 249.126C43.5539 251.916 42.3123 253.888 40.3614 255.043C38.4142 256.179 36.0065 256.473 33.1382 255.926C31.2129 255.558 29.6245 254.919 28.3729 254.009C27.1251 253.079 26.2479 251.914 25.7411 250.514C25.2382 249.094 25.1609 247.471 25.5094 245.644C26.0115 243.012 27.1913 241.15 29.0486 240.058C30.9097 238.947 33.3825 238.686 36.4669 239.274L37.4688 239.465L35.1756 251.489C36.6874 251.675 37.9392 251.517 38.931 251.014C39.9069 250.487 40.5054 249.645 40.7265 248.486C40.9026 247.562 40.7681 246.773 40.323 246.118C39.8815 245.443 39.3142 244.948 38.6211 244.633L39.4867 240.095C40.5335 240.478 41.4605 241.062 42.2677 241.847C43.0748 242.632 43.6584 243.629 44.0183 244.838C44.3782 246.047 44.4007 247.476 44.086 249.126ZM32.1697 250.915L33.5749 243.548C32.224 243.372 31.1289 243.509 30.2896 243.96C29.4307 244.407 28.8963 245.181 28.6864 246.281C28.4803 247.361 28.6672 248.303 29.247 249.106C29.811 249.885 30.7852 250.488 32.1697 250.915Z" fill="black"/>
<path d="M46.3328 238.822L28.2451 237.031L28.216 237.023L29.327 232.663L43.8071 234.154L43.9848 233.456L30.6453 227.488L32.5561 219.988L47.1251 221.13L47.3028 220.432L33.8744 214.813L34.9112 210.743L34.9403 210.75L51.6801 217.832L49.7249 225.507L35.0539 224.401L34.8761 225.099L48.2881 231.147L46.3328 238.822Z" fill="black"/>
<path d="M69.7093 180.279L49.0552 169.281L53.7225 160.516C54.6626 158.751 55.68 157.457 56.7748 156.635C57.8613 155.786 58.9822 155.341 60.1374 155.299C61.2845 155.23 62.4317 155.501 63.5791 156.112C64.8855 156.808 65.832 157.753 66.4186 158.95C67.0053 160.146 67.1444 161.523 66.836 163.08L78.5185 163.354L78.6774 163.438L76.1674 168.152L65.1872 167.709L63.3118 171.23L72.05 175.884L69.7093 180.279ZM60.0812 169.51L62.0694 165.776C62.6805 164.629 62.961 163.634 62.9111 162.792C62.8705 161.932 62.3471 161.234 61.3409 160.698C60.317 160.153 59.4458 160.108 58.7273 160.564C57.9911 161.01 57.3222 161.798 56.7206 162.928L54.7324 166.662L60.0812 169.51Z" fill="black"/>
<path d="M84.4812 156.585C82.9655 158.986 81.0885 160.368 78.8503 160.729C76.6227 161.073 74.2743 160.466 71.805 158.908C70.1475 157.862 68.9029 156.686 68.0712 155.38C67.2502 154.058 66.8599 152.653 66.9004 151.165C66.9515 149.66 67.4734 148.121 68.4662 146.548C69.8965 144.282 71.6756 142.98 73.8035 142.644C75.942 142.291 78.339 142.952 80.9944 144.628L81.8569 145.173L75.3242 155.524C76.663 156.25 77.8859 156.561 78.9931 156.456C80.0939 156.323 80.9593 155.757 81.5891 154.759C82.0907 153.964 82.2542 153.181 82.0796 152.408C81.9155 151.619 81.5687 150.951 81.039 150.403L83.5047 146.496C84.3389 147.236 84.988 148.118 85.452 149.144C85.916 150.17 86.0944 151.312 85.9871 152.568C85.8798 153.825 85.3779 155.164 84.4812 156.585ZM72.7365 153.89L76.7394 147.548C75.5466 146.89 74.4772 146.617 73.5312 146.729C72.5682 146.831 71.7879 147.356 71.1901 148.303C70.603 149.233 70.4324 150.178 70.6784 151.137C70.9181 152.069 71.6041 152.987 72.7365 153.89Z" fill="black"/>
<path d="M92.714 145.103C91.7357 146.469 90.6069 147.358 89.3276 147.77C88.032 148.17 86.6557 148.169 85.1985 147.764C83.7413 147.36 82.281 146.634 80.8177 145.586C79.3056 144.503 78.1319 143.342 77.2965 142.104C76.4729 140.85 76.0584 139.557 76.0532 138.225C76.048 136.892 76.5229 135.56 77.478 134.226C78.2117 133.202 79.0147 132.51 79.8871 132.151C80.7548 131.764 81.6442 131.638 82.5554 131.775L82.9747 131.189L81.0724 129.827L83.6929 126.168L98.3261 136.65L95.7056 140.308L93.8033 138.946L93.384 139.531C93.7573 140.315 93.9224 141.184 93.8792 142.137C93.8361 143.09 93.4477 144.079 92.714 145.103ZM90.6674 142.087C91.3778 141.095 91.5118 139.998 91.0693 138.796C90.6223 137.565 89.6589 136.42 88.1794 135.36C86.6835 134.289 85.2893 133.745 83.9966 133.729C82.7156 133.697 81.7199 134.177 81.0095 135.169C80.3689 136.063 80.2688 137.062 80.709 138.165C81.1447 139.239 82.1673 140.353 83.777 141.506C85.3866 142.659 86.7785 143.275 87.9525 143.353C89.1218 143.403 90.0268 142.981 90.6674 142.087Z" fill="black"/>
<path d="M104.841 130.251C103.796 131.515 102.628 132.301 101.336 132.608C100.028 132.902 98.6616 132.798 97.2359 132.293C95.8102 131.789 94.4037 130.964 93.0164 129.817C91.583 128.632 90.4924 127.393 89.7448 126.1C89.0099 124.792 88.6796 123.48 88.7539 122.166C88.841 120.837 89.3943 119.556 90.4138 118.323C91.1657 117.413 91.9393 116.807 92.7345 116.505C93.5425 116.186 94.3641 116.087 95.1994 116.207L95.6582 115.652L89.508 110.567L92.6049 106.822L111.101 122.115L108.234 125.583L106.431 124.092L105.972 124.647C106.29 125.455 106.394 126.332 106.285 127.28C106.176 128.228 105.695 129.219 104.841 130.251ZM103.085 127.008C103.862 126.068 104.072 124.983 103.714 123.753C103.353 122.494 102.471 121.285 101.068 120.125C99.6503 118.953 98.2971 118.314 97.0086 118.209C95.7329 118.088 94.7063 118.498 93.9289 119.438C93.228 120.286 93.059 121.275 93.4218 122.406C93.782 123.508 94.7251 124.69 96.2511 125.952C97.7771 127.213 99.1229 127.924 100.289 128.083C101.452 128.215 102.384 127.856 103.085 127.008Z" fill="black"/>
<path d="M117.578 124.873L117.534 124.832C117.281 123.905 116.961 122.861 116.573 121.698C116.185 120.535 115.786 119.457 115.375 118.464L98.1728 110.73L98.0419 110.607L101.336 107.115L106.54 109.468C107.372 109.84 108.247 110.253 109.165 110.708C110.084 111.162 111.192 111.795 112.489 112.606L112.983 112.082C112.098 110.835 111.402 109.766 110.895 108.875C110.388 107.984 109.924 107.134 109.505 106.326L106.853 101.267L109.983 97.9506L110.114 98.0742L117.498 112.63C118.473 114.54 119.244 116.23 119.81 117.699C120.404 119.167 120.82 120.329 121.057 121.185L117.578 124.873Z" fill="black"/>
<path d="M133.447 101.713C132.746 101.611 132.039 101.366 131.327 100.979C130.631 100.579 129.781 99.8079 128.779 98.6651L122.706 91.7409L120.857 93.3629L118.602 90.7917L120.496 89.1301L117.529 85.7469L121.115 82.6017L124.082 85.9849L126.27 84.0661L128.525 86.6374L126.337 88.5561L132.074 95.097C133.116 96.2848 134.049 97.0758 134.873 97.47C135.698 97.8642 136.476 98.0994 137.208 98.1757L137.327 98.311L133.447 101.713Z" fill="black"/>
<path d="M146.452 91.7255C144.135 93.5992 141.866 94.3403 139.646 93.949C137.43 93.5295 135.416 92.2 133.605 89.9605C131.794 87.721 130.922 85.4812 130.988 83.2413C131.058 80.9733 132.251 78.9024 134.568 77.0288C136.886 75.1551 139.153 74.428 141.369 74.8475C143.589 75.2389 145.604 76.5543 147.415 78.7938C149.226 81.0333 150.097 83.2871 150.027 85.5551C149.961 87.795 148.769 89.8518 146.452 91.7255ZM144.415 89.206C145.441 88.3761 145.868 87.3619 145.697 86.1633C145.525 84.9648 144.785 83.5568 143.477 81.9394C142.182 80.3375 140.973 79.3349 139.849 78.9316C138.713 78.5127 137.632 78.7182 136.606 79.5482C135.579 80.3781 135.152 81.3924 135.324 82.5909C135.483 83.7739 136.21 85.1663 137.505 86.7682C138.813 88.3856 140.035 89.4038 141.171 89.8227C142.307 90.2415 143.388 90.036 144.415 89.206Z" fill="black"/>
<path d="M166.148 77.8168L147.505 62.2826L147.406 62.1321L151.668 59.3315L166.91 72.1472L167.511 71.7518L161.747 52.7089L165.809 50.0401L165.908 50.1906L172.767 73.4677L166.148 77.8168Z" fill="black"/>
<path d="M178.982 70.4177L170.23 54.6889L174.477 52.3257L183.229 68.0546L178.982 70.4177ZM171.347 51.6985C170.595 52.1167 169.92 52.2405 169.322 52.07C168.714 51.8819 168.235 51.4734 167.885 50.8442C167.535 50.2151 167.445 49.6013 167.615 49.0028C167.776 48.3869 168.232 47.8699 168.984 47.4517C169.735 47.0336 170.415 46.9185 171.023 47.1065C171.622 47.277 172.096 47.6769 172.446 48.306C172.796 48.9352 172.891 49.5577 172.73 50.1736C172.559 50.772 172.098 51.2803 171.347 51.6985Z" fill="black"/>
<path d="M194.118 63.0447C191.592 64.3424 189.273 64.5778 187.162 63.751C185.069 62.915 183.355 61.1983 182.021 58.601C181.126 56.8575 180.652 55.2124 180.599 53.6655C180.564 52.1095 180.942 50.701 181.734 49.4401C182.543 48.1701 183.775 47.1102 185.429 46.2604C187.813 45.0358 190.007 44.8197 192.01 45.6119C194.031 46.3949 195.759 48.183 197.194 50.9761L197.66 51.8834L186.772 57.476C187.556 58.7823 188.451 59.6715 189.458 60.1436C190.473 60.5888 191.506 60.5418 192.556 60.0026C193.392 59.5731 193.931 58.9814 194.173 58.2274C194.433 57.4642 194.474 56.7124 194.296 55.9719L198.406 53.861C198.748 54.9217 198.859 56.0118 198.737 57.1312C198.615 58.2507 198.188 59.3242 197.457 60.3519C196.725 61.3795 195.613 62.2771 194.118 63.0447ZM185.374 54.754L192.045 51.3272C191.353 50.154 190.571 49.3754 189.699 48.9913C188.818 48.5894 187.879 48.6443 186.883 49.1561C185.904 49.6587 185.277 50.3856 185.001 51.3367C184.734 52.2609 184.858 53.4 185.374 54.754Z" fill="black"/>
<path d="M202.792 58.8229L193.048 43.4796L193.036 43.4522L197.153 41.6375L204.909 53.9559L205.568 53.6655L202.04 39.4841L209.123 36.363L217.208 48.5361L217.867 48.2458L214.009 34.2096L217.853 32.5159L217.865 32.5434L222.613 50.0884L215.366 53.2822L207.189 41.0508L206.53 41.3412L210.04 55.6291L202.792 58.8229Z" fill="black"/>
<path d="M264.395 40.7783L260.363 17.7283L270.145 16.0173C272.115 15.6727 273.761 15.6792 275.082 16.0369C276.42 16.3714 277.46 16.9812 278.204 17.8663C278.964 18.7283 279.456 19.7995 279.68 21.0801C279.935 22.5379 279.771 23.866 279.189 25.0642C278.607 26.2625 277.606 27.2191 276.188 27.9341L283.159 37.3134L283.19 37.4907L277.93 38.4108L271.525 29.4808L267.595 30.1683L269.301 39.9202L264.395 40.7783ZM266.964 26.5631L271.131 25.8342C272.412 25.6102 273.369 25.2194 274.002 24.662C274.655 24.101 274.883 23.2591 274.687 22.1361C274.487 20.9935 273.986 20.2791 273.185 19.9929C272.38 19.6869 271.348 19.6443 270.087 19.8648L265.92 20.5937L266.964 26.5631Z" fill="black"/>
<path d="M289.96 38.0326C287.136 38.3277 284.889 37.7078 283.221 36.1728C281.572 34.6358 280.596 32.4152 280.293 29.511C280.089 27.5616 280.243 25.8564 280.753 24.3954C281.284 22.9324 282.147 21.7564 283.341 20.8675C284.555 19.9765 286.087 19.4344 287.937 19.2411C290.602 18.9627 292.725 19.5553 294.306 21.019C295.907 22.4806 296.87 24.7729 297.196 27.8959L297.302 28.9104L285.128 30.1822C285.386 31.6836 285.898 32.8365 286.666 33.6411C287.452 34.4237 288.431 34.7537 289.605 34.6311C290.54 34.5334 291.257 34.177 291.755 33.5619C292.274 32.9446 292.585 32.2587 292.687 31.504L297.282 31.0239C297.217 32.1367 296.925 33.1927 296.406 34.1921C295.887 35.1914 295.101 36.0377 294.047 36.7309C292.994 37.4241 291.631 37.858 289.96 38.0326ZM284.81 27.1387L292.27 26.3594C292.049 25.0151 291.602 24.0061 290.928 23.3325C290.252 22.6389 289.358 22.3503 288.244 22.4667C287.15 22.581 286.302 23.0315 285.7 23.8183C285.117 24.5831 284.82 25.6899 284.81 27.1387Z" fill="black"/>
<path d="M305.745 37.2877C304.067 37.359 302.671 37.0179 301.558 36.2645C300.444 35.491 299.597 34.406 299.017 33.0093C298.438 31.6127 298.11 30.0152 298.033 28.2168C297.954 26.3585 298.145 24.7189 298.605 23.2981C299.085 21.8764 299.848 20.753 300.894 19.9279C301.94 19.1028 303.282 18.6554 304.921 18.5858C306.18 18.5323 307.219 18.7384 308.04 19.204C308.879 19.6488 309.526 20.2719 309.981 21.0733L310.7 21.0428L310.601 18.7049L315.097 18.5139L315.861 36.4977L311.365 36.6887L311.265 34.3508L310.546 34.3813C310.159 35.1585 309.576 35.8238 308.799 36.3773C308.022 36.9307 307.004 37.2342 305.745 37.2877ZM306.859 33.8173C308.078 33.7655 309.024 33.1948 309.699 32.1052C310.392 30.9948 310.7 29.5304 310.623 27.712C310.545 25.8737 310.114 24.4407 309.33 23.4131C308.565 22.3846 307.574 21.8962 306.355 21.948C305.256 21.9947 304.408 22.5311 303.811 23.5574C303.233 24.5628 302.986 26.0547 303.07 28.0329C303.154 30.0111 303.527 31.4866 304.189 32.4594C304.87 33.4113 305.76 33.864 306.859 33.8173Z" fill="black"/>
<path d="M324.65 37.6518C323.01 37.6075 321.671 37.1712 320.633 36.3428C319.596 35.4945 318.837 34.3536 318.355 32.92C317.874 31.4865 317.657 29.8701 317.706 28.0707C317.756 26.2114 318.06 24.589 318.618 23.2036C319.195 21.8187 320.024 20.7507 321.105 19.9996C322.206 19.2491 323.556 18.8954 325.155 18.9386C326.335 18.9705 327.289 19.2064 328.017 19.6462C328.766 20.0866 329.35 20.6726 329.77 21.4042L330.49 21.4237L330.706 13.4466L335.564 13.5779L334.916 37.5691L330.417 37.4475L330.48 35.1084L329.761 35.0889C329.32 35.8373 328.693 36.4606 327.879 36.9588C327.066 37.457 325.989 37.688 324.65 37.6518ZM326.121 34.2703C327.341 34.3033 328.325 33.7997 329.073 32.7595C329.842 31.6999 330.251 30.2604 330.3 28.4411C330.35 26.6018 330.02 25.1423 329.308 24.0627C328.617 22.9836 327.662 22.4276 326.442 22.3947C325.343 22.365 324.46 22.8413 323.793 23.8236C323.147 24.7865 322.797 26.2576 322.743 28.2369C322.69 30.2161 322.959 31.714 323.552 32.7304C324.165 33.7273 325.022 34.2406 326.121 34.2703Z" fill="black"/>
<path d="M339.012 44.5373L339.018 44.4775C339.594 43.7095 340.223 42.8159 340.905 41.7967C341.586 40.7775 342.193 39.8014 342.725 38.8683L338.289 20.5362L338.306 20.357L343.084 20.819L344.415 26.373C344.631 27.2579 344.841 28.2025 345.046 29.2068C345.25 30.2111 345.429 31.4743 345.583 32.9962L346.3 33.0655C346.743 31.6013 347.161 30.3959 347.554 29.4494C347.947 28.5028 348.334 27.6159 348.715 26.7888L351.086 21.5929L355.625 22.0318L355.608 22.211L348.635 36.9683C347.724 38.9097 346.862 40.5543 346.048 41.9023C345.253 43.2721 344.589 44.313 344.058 45.0252L339.012 44.5373Z" fill="black"/>
<path d="M365.452 42.596C365.101 41.9794 364.859 41.2716 364.727 40.4726C364.614 39.6773 364.7 38.5331 364.984 37.04L366.71 27.9931L364.294 27.5322L364.934 24.1728L367.41 24.6449L368.253 20.2246L372.938 21.1183L372.095 25.5387L374.954 26.0839L374.313 29.4433L371.454 28.8981L369.824 37.444C369.528 38.996 369.479 40.2183 369.675 41.1109C369.871 42.0035 370.164 42.7618 370.554 43.386L370.52 43.5628L365.452 42.596Z" fill="black"/>
<path d="M380.136 46.3985C377.232 45.7289 375.25 44.3996 374.19 42.4105C373.154 40.4064 372.959 38.0012 373.607 35.1949C374.254 32.3885 375.48 30.3211 377.284 28.9926C379.113 27.6491 381.479 27.3122 384.383 27.9818C387.287 28.6514 389.257 29.9882 390.293 31.9923C391.353 33.9813 391.56 36.3791 390.912 39.1854C390.265 41.9918 389.027 44.0667 387.199 45.4102C385.394 46.7386 383.04 47.0681 380.136 46.3985ZM380.864 43.2413C382.15 43.5379 383.212 43.2492 384.05 42.3751C384.888 41.501 385.541 40.0505 386.008 38.0237C386.471 36.0164 386.515 34.4461 386.14 33.3129C385.769 32.1602 384.941 31.4355 383.655 31.1389C382.369 30.8423 381.307 31.1311 380.469 32.0052C379.635 32.8598 378.987 34.2908 378.524 36.2981C378.057 38.3249 378.009 39.9147 378.379 41.0674C378.75 42.2201 379.578 42.9447 380.864 43.2413Z" fill="black"/>
<path d="M404.566 53.7233L405.393 29.4707L405.452 29.3004L410.278 30.9477L409.51 50.8461L410.191 51.0786L421.692 34.843L426.291 36.4127L426.233 36.5831L412.061 56.2814L404.566 53.7233Z" fill="black"/>
<path d="M418.763 59.5094L425.837 42.9576L430.306 44.8675L423.232 61.4193L418.763 59.5094ZM428.885 42.0091C428.094 41.6711 427.583 41.2134 427.351 40.6359C427.127 40.04 427.157 39.411 427.44 38.7489C427.723 38.0868 428.153 37.64 428.73 37.4083C429.316 37.1582 430.004 37.2021 430.795 37.5401C431.586 37.8781 432.093 38.345 432.317 38.9409C432.548 39.5184 432.523 40.1382 432.24 40.8003C431.957 41.4624 431.523 41.9185 430.937 42.1685C430.36 42.4002 429.676 42.3471 428.885 42.0091Z" fill="black"/>
<path d="M433.957 67.0073C431.385 65.8043 429.779 64.1151 429.14 61.9398C428.52 59.7729 428.828 57.3669 430.065 54.7218C430.895 52.9463 431.906 51.5643 433.096 50.5757C434.306 49.5955 435.651 49.0323 437.132 48.8861C438.632 48.7483 440.224 49.0734 441.909 49.8613C444.336 50.9965 445.85 52.5986 446.45 54.6676C447.069 56.745 446.713 59.2059 445.383 62.0503L444.951 62.9743L433.863 57.7895C433.31 59.2088 433.155 60.461 433.398 61.5462C433.668 62.6217 434.337 63.4094 435.406 63.9093C436.257 64.3074 437.055 64.3715 437.8 64.1014C438.562 63.8398 439.182 63.412 439.659 62.8179L443.844 64.7749C443.215 65.6951 442.42 66.4496 441.46 67.0385C440.501 67.6274 439.391 67.9473 438.13 67.9983C436.87 68.0492 435.479 67.7189 433.957 67.0073ZM435.159 55.0176L441.953 58.1945C442.457 56.9287 442.593 55.8335 442.363 54.909C442.142 53.9664 441.524 53.2579 440.509 52.7835C439.513 52.3176 438.554 52.2667 437.633 52.6308C436.739 52.9854 435.914 53.7809 435.159 55.0176Z" fill="black"/>
<path d="M442.594 71.278L448.757 54.1787L448.772 54.1523L452.728 56.2967L447.738 69.9716L448.371 70.3147L457.423 58.8414L464.227 62.5298L459.554 76.3762L460.187 76.7193L468.922 65.0745L472.614 67.0759L472.6 67.1023L461.637 81.5998L454.674 77.8256L459.337 63.8715L458.704 63.5284L449.557 75.0522L442.594 71.278Z" fill="black"/>
<path d="M487.759 102.787L502.866 84.9168L510.45 91.3275C511.977 92.6187 513.027 93.886 513.599 95.1294C514.2 96.3705 514.399 97.5602 514.197 98.6983C514.022 99.834 513.515 100.898 512.676 101.891C511.721 103.021 510.596 103.747 509.303 104.068C508.011 104.39 506.635 104.235 505.177 103.605L502.447 114.967L502.331 115.105L498.253 111.657L501.001 101.017L497.954 98.4416L491.563 106.002L487.759 102.787ZM500.317 95.6465L503.547 98.3773C504.54 99.2166 505.453 99.7006 506.287 99.8294C507.136 99.9711 507.929 99.6067 508.665 98.7361C509.414 97.8502 509.641 97.008 509.347 96.2095C509.066 95.3958 508.437 94.5757 507.459 93.7494L504.229 91.0186L500.317 95.6465Z" fill="black"/>
<path d="M506.538 120.946C504.501 118.967 503.537 116.846 503.645 114.581C503.768 112.331 504.847 110.158 506.881 108.063C508.247 106.657 509.654 105.682 511.103 105.138C512.566 104.608 514.022 104.516 515.469 104.862C516.932 105.223 518.33 106.051 519.664 107.347C521.586 109.215 522.492 111.224 522.382 113.375C522.286 115.541 521.144 117.75 518.957 120.002L518.246 120.734L509.466 112.205C508.479 113.365 507.922 114.498 507.797 115.603C507.7 116.707 508.075 117.671 508.921 118.493C509.595 119.148 510.328 119.47 511.12 119.458C511.926 119.461 512.652 119.259 513.297 118.854L516.611 122.073C515.715 122.736 514.717 123.189 513.618 123.432C512.518 123.674 511.365 123.613 510.157 123.248C508.95 122.884 507.743 122.117 506.538 120.946ZM511.598 110.01L516.978 115.236C517.868 114.205 518.356 113.215 518.441 112.266C518.54 111.303 518.188 110.431 517.385 109.65C516.596 108.884 515.707 108.522 514.717 108.565C513.756 108.607 512.716 109.089 511.598 110.01Z" fill="black"/>
<path d="M517.174 132.578C516.043 131.335 515.411 130.045 515.276 128.708C515.155 127.357 515.446 126.012 516.146 124.672C516.847 123.332 517.862 122.056 519.194 120.845C520.57 119.593 521.951 118.688 523.336 118.131C524.735 117.588 526.086 117.454 527.39 117.728C528.694 118.002 529.897 118.746 531.001 119.959C531.849 120.891 532.357 121.821 532.526 122.749C532.722 123.679 532.659 124.575 532.335 125.437L532.819 125.97L534.55 124.395L537.578 127.724L524.264 139.836L521.236 136.508L522.966 134.933L522.482 134.4C521.637 134.601 520.753 134.581 519.83 134.339C518.907 134.097 518.022 133.51 517.174 132.578ZM520.552 131.209C521.373 132.111 522.417 132.472 523.686 132.291C524.983 132.112 526.304 131.41 527.651 130.185C529.012 128.947 529.835 127.697 530.121 126.437C530.421 125.191 530.16 124.117 529.339 123.214C528.599 122.401 527.644 122.094 526.473 122.293C525.331 122.494 524.028 123.261 522.563 124.593C521.099 125.925 520.205 127.157 519.883 128.289C519.588 129.422 519.811 130.395 520.552 131.209Z" fill="black"/>
<path d="M528.127 146.232C527.105 144.95 526.577 143.644 526.542 142.317C526.523 140.977 526.907 139.661 527.694 138.37C528.48 137.078 529.578 135.872 530.986 134.75C532.44 133.591 533.877 132.779 535.296 132.313C536.728 131.863 538.079 131.81 539.349 132.153C540.632 132.512 541.772 133.317 542.769 134.568C543.505 135.491 543.938 136.373 544.071 137.214C544.216 138.07 544.144 138.894 543.855 139.687L544.304 140.25L550.545 135.278L553.573 139.079L534.802 154.033L531.998 150.513L533.828 149.055L533.379 148.492C532.523 148.637 531.643 148.559 530.737 148.257C529.832 147.955 528.962 147.28 528.127 146.232ZM531.662 145.181C532.422 146.135 533.441 146.564 534.719 146.466C536.025 146.372 537.389 145.758 538.813 144.624C540.252 143.478 541.156 142.285 541.524 141.046C541.904 139.822 541.714 138.733 540.954 137.779C540.269 136.918 539.336 136.549 538.155 136.672C537.002 136.798 535.651 137.477 534.102 138.711C532.554 139.945 531.582 141.115 531.186 142.223C530.818 143.335 530.977 144.32 531.662 145.181Z" fill="black"/>
<path d="M531.807 161.285L531.857 161.251C532.815 161.197 533.904 161.103 535.123 160.968C536.341 160.833 537.479 160.668 538.535 160.475L549.703 145.275L549.851 145.173L552.575 149.126L549.183 153.721C548.645 154.456 548.058 155.225 547.421 156.028C546.784 156.831 545.933 157.782 544.868 158.88L545.277 159.473C546.682 158.869 547.874 158.412 548.851 158.103C549.828 157.794 550.756 157.519 551.634 157.279L557.136 155.746L559.723 159.501L559.575 159.604L543.795 163.773C541.723 164.326 539.909 164.725 538.354 164.971C536.794 165.245 535.571 165.408 534.684 165.46L531.807 161.285Z" fill="black"/>
<path d="M550.408 180.446C550.653 179.78 551.039 179.139 551.565 178.523C552.1 177.925 553.031 177.253 554.356 176.509L562.388 172.001L561.183 169.856L564.166 168.182L565.399 170.38L569.323 168.177L571.658 172.337L567.734 174.539L569.158 177.077L566.176 178.751L564.752 176.213L557.165 180.471C555.787 181.245 554.82 181.994 554.264 182.719C553.708 183.444 553.316 184.157 553.09 184.857L552.933 184.945L550.408 180.446Z" fill="black"/>
<path d="M557.487 195.247C556.135 192.591 555.881 190.218 556.725 188.128C557.596 186.047 559.314 184.353 561.881 183.046C564.448 181.74 566.82 181.352 568.997 181.882C571.201 182.421 572.979 184.018 574.331 186.674C575.683 189.329 575.923 191.698 575.053 193.779C574.209 195.87 572.504 197.568 569.937 198.874C567.37 200.181 564.985 200.564 562.781 200.026C560.603 199.496 558.839 197.903 557.487 195.247ZM560.375 193.777C560.973 194.954 561.877 195.582 563.085 195.663C564.293 195.744 565.824 195.312 567.678 194.369C569.513 193.434 570.745 192.46 571.373 191.444C572.019 190.42 572.042 189.32 571.443 188.143C570.845 186.967 569.941 186.338 568.733 186.258C567.543 186.168 566.03 186.59 564.194 187.525C562.34 188.468 561.09 189.452 560.445 190.476C559.799 191.501 559.776 192.601 560.375 193.777Z" fill="black"/>
<path d="M567.201 217.95L586.297 202.976L586.465 202.911L588.31 207.665L572.585 219.883L572.845 220.554L592.673 218.908L594.432 223.439L594.264 223.504L570.066 225.333L567.201 217.95Z" fill="black"/>
<path d="M571.887 232.594L589.109 227.362L590.522 232.012L573.299 237.244L571.887 232.594ZM591.796 229.085C591.546 228.262 591.568 227.576 591.861 227.027C592.173 226.473 592.674 226.091 593.363 225.881C594.052 225.672 594.671 225.714 595.22 226.007C595.788 226.294 596.197 226.849 596.447 227.672C596.697 228.495 596.665 229.184 596.353 229.739C596.06 230.288 595.569 230.667 594.88 230.876C594.191 231.085 593.563 231.046 592.995 230.759C592.446 230.466 592.046 229.908 591.796 229.085Z" fill="black"/>
<path d="M575.577 247.708C574.834 244.967 575.087 242.65 576.336 240.758C577.589 238.885 579.626 237.566 582.444 236.802C584.336 236.29 586.043 236.169 587.567 236.44C589.096 236.73 590.395 237.393 591.464 238.43C592.537 239.486 593.317 240.911 593.804 242.707C594.505 245.293 594.259 247.484 593.067 249.278C591.88 251.092 589.771 252.409 586.74 253.231L585.756 253.497L582.554 241.683C581.113 242.178 580.057 242.868 579.386 243.754C578.739 244.655 578.57 245.675 578.878 246.814C579.124 247.721 579.59 248.372 580.277 248.766C580.97 249.179 581.696 249.376 582.458 249.356L583.666 253.815C582.557 253.929 581.468 253.81 580.399 253.457C579.329 253.105 578.368 252.464 577.516 251.534C576.663 250.605 576.017 249.33 575.577 247.708ZM585.508 240.883L587.47 248.122C588.761 247.689 589.686 247.086 590.243 246.314C590.82 245.536 590.962 244.606 590.669 243.525C590.381 242.464 589.801 241.699 588.928 241.231C588.08 240.777 586.94 240.661 585.508 240.883Z" fill="black"/>
<path d="M578.084 258.007L595.13 251.697L595.159 251.691L596.07 256.098L582.399 261.098L582.544 261.803L597.15 261.328L598.717 268.908L585.118 274.26L585.264 274.965L599.797 274.137L600.647 278.25L600.618 278.256L582.467 279.219L580.864 271.463L594.539 266.034L594.393 265.329L579.687 265.763L578.084 258.007Z" fill="black"/>
<path d="M251 34.5C251 39.7467 246.747 44 241.5 44C236.253 44 232 39.7467 232 34.5C232 29.2533 236.253 25 241.5 25C246.747 25 251 29.2533 251 34.5Z" fill="black"/>
<path d="M61 194.5C61 199.747 56.7467 204 51.5 204C46.2533 204 42 199.747 42 194.5C42 189.253 46.2533 185 51.5 185C56.7467 185 61 189.253 61 194.5Z" fill="black"/>
<path d="M64 438.5C64 443.747 59.7467 448 54.5 448C49.2533 448 45 443.747 45 438.5C45 433.253 49.2533 429 54.5 429C59.7467 429 64 433.253 64 438.5Z" fill="black"/>
<path d="M255 587.5C255 592.747 250.747 597 245.5 597C240.253 597 236 592.747 236 587.5C236 582.253 240.253 578 245.5 578C250.747 578 255 582.253 255 587.5Z" fill="black"/>
<path d="M491 537.5C491 542.747 486.747 547 481.5 547C476.253 547 472 542.747 472 537.5C472 532.253 476.253 528 481.5 528C486.747 528 491 532.253 491 537.5Z" fill="black"/>
<path d="M604 311.5C604 316.747 599.747 321 594.5 321C589.253 321 585 316.747 585 311.5C585 306.253 589.253 302 594.5 302C599.747 302 604 306.253 604 311.5Z" fill="black"/>
<path d="M491 82.5C491 87.7467 486.747 92 481.5 92C476.253 92 472 87.7467 472 82.5C472 77.2533 476.253 73 481.5 73C486.747 73 491 77.2533 491 82.5Z" fill="black"/>
</svg>
