<svg width="106" height="93" viewBox="0 0 106 93" fill="none" xmlns="http://www.w3.org/2000/svg">
<path d="M48.7978 68.0649C52.5151 63.6537 56.1097 59.1424 59.8845 54.7797C64.1024 60.9783 68.2794 66.8667 72.368 73.1752C73.3577 74.7024 74.2944 76.7303 75.8284 77.8953C76.8686 78.6853 77.1533 74.8223 77.2284 74.3891C77.6604 71.8956 77.6618 69.3735 77.4639 66.7303C77.292 64.4346 76.302 62.3792 75.8129 60.0856C75.3118 57.7361 78.3047 60.913 79.337 61.6775C80.5915 62.6065 81.7841 63.3261 83.0967 64.1635C85.8268 65.9052 88.6504 67.3987 91.4268 69.0316C95.44 71.392 99.2519 74.3922 103.182 76.9396C105.599 78.507 103.482 76.1862 102.801 75.2684C101.009 72.8509 99.2898 70.4176 97.4417 68.0227C93.9369 63.481 90.212 59.513 86.0571 55.4106C83.4077 52.7946 79.525 49.8987 77.4668 46.7888C77.3023 46.5402 77.3043 46.1323 77.3337 45.8874C77.4218 45.1558 78.2605 44.5387 78.6956 44.0358C80.1131 42.3975 81.6246 40.9776 83.228 39.5196C83.483 39.2877 86.7258 36.3004 85.0928 36.2814C81.246 36.2366 77.656 36.7548 74.0493 37.465C71.6172 37.9439 69.1327 38.4644 66.568 38.5859C64.9625 38.6619 65.5336 37.8524 65.4358 36.5899C65.2668 34.4066 65.8532 32.3502 66.2052 30.3135C66.6321 27.8433 66.9146 25.3245 67.085 22.7711C67.2925 19.6604 67.641 16.5343 67.6066 13.3654C67.5707 10.0578 68.0538 6.85917 67.9355 3.54381C67.8465 1.04597 67.5704 0.911274 66.2438 2.44439L58.9753 10.8448C57.23 12.8619 55.3822 14.8168 53.7691 16.945C52.5187 18.5947 51.6288 20.4968 50.4054 22.1655C49.9665 22.764 45.8775 28.0845 45.1515 27.2656C42.8505 24.6697 41.6112 20.4193 40.4875 17.4385C39.495 14.806 39.072 12.0709 37.6312 9.52087C36.8595 8.1549 35.9791 6.70818 35.5394 8.4396C34.6432 11.9686 34.4092 15.8049 33.8784 19.4674C33.7078 20.6447 33.5006 21.8031 33.528 23.038C33.5345 23.3274 33.7925 24.2007 33.6058 24.4477C33.2801 24.8784 30.6405 23.939 30.2497 23.8834C24.846 23.1143 19.5967 21.979 14.1844 20.5685C11.1826 19.7862 8.20914 18.5045 5.2024 17.8978C4.82456 17.8215 0.53335 17.1532 2.11185 18.6371C3.68457 20.1157 6.31715 21.2202 8.11127 22.2557C13.967 25.6354 19.7136 29.2453 25.5789 32.6138C28.1466 34.0885 30.9501 35.3583 33.1277 37.4963C34.0685 38.4199 27.3114 43.089 26.8592 43.4635C22.4848 47.0868 18.67 50.7447 16.2836 55.9637C15.7188 57.1989 20.4476 56.9743 21.2638 56.7059C25.6796 55.254 29.3469 52.7542 33.6164 51.0937C35.1695 50.4896 36.4746 49.7464 37.7936 48.8207C38.4143 48.385 39.1632 47.6561 39.9923 47.5014C40.2896 47.446 40.1591 48.9565 40.141 49.1068C39.8932 51.1658 40.0177 53.1441 39.6543 55.1675C39.2354 57.5007 39.2475 59.948 38.7128 62.2537C37.7642 66.3449 36.4738 70.3247 35.3459 74.3368C34.4428 77.5492 32.9948 80.4344 32.2533 83.7424C31.7929 85.7966 30.5182 88.9577 31.2522 91.3141C31.6316 92.5321 32.7551 91.5765 33.067 91.216C35.9386 87.8973 37.928 83.6193 40.0584 79.7759C42.4534 75.4551 45.6479 71.8028 48.7978 68.0649Z" fill="#F6FB17" stroke="black" stroke-width="2" stroke-linecap="round"/>
</svg>
