<svg width="471" height="118" viewBox="0 0 471 118" fill="none" xmlns="http://www.w3.org/2000/svg">
<mask id="path-1-outside-1_10_3" maskUnits="userSpaceOnUse" x="0" y="0" width="471" height="118" fill="black">
<rect fill="white" width="471" height="118"/>
<path d="M32.0041 57.3125C34.5666 58.5312 37.0041 59.9219 39.3166 61.4844C41.6603 63.0469 43.9572 64.9375 46.2072 67.1562C48.4572 69.3438 50.3947 71.6875 52.0197 74.1875C53.6447 76.6562 54.9572 79.4844 55.9572 82.6719C56.9572 85.8594 57.4416 89.1562 57.4103 92.5625C57.3791 96.1562 56.7541 99.3906 55.5353 102.266C54.3166 105.141 52.6603 107.5 50.5666 109.344C48.5041 111.156 46.1916 112.609 43.6291 113.703C41.0978 114.766 38.3635 115.469 35.426 115.812C35.3947 115.812 35.3166 115.812 35.1916 115.812C35.0666 115.844 34.9885 115.859 34.9572 115.859C34.8322 115.922 34.7541 115.953 34.7228 115.953C32.0978 116.203 29.5197 116.266 26.9885 116.141C24.4885 116.047 22.0041 115.594 19.5353 114.781C17.0666 113.938 14.7697 112.844 12.6447 111.5C10.5197 110.156 8.53533 108.391 6.69158 106.203C4.84783 103.984 3.30095 101.438 2.05095 98.5625C1.8947 98.1875 2.09783 97.9531 2.66033 97.8594C3.22283 97.7344 3.59783 97.8594 3.78533 98.2344C5.22283 101.547 7.03533 104.375 9.22283 106.719C11.4416 109.062 13.8791 110.859 16.5353 112.109C19.1916 113.359 21.9416 114.203 24.7853 114.641C27.6603 115.078 30.6447 115.141 33.7385 114.828C38.551 114.203 42.551 111.672 45.7385 107.234C48.9572 102.766 50.4572 97.5 50.2385 91.4375C50.1135 87.875 49.3947 84.4844 48.0822 81.2656C46.801 78.0156 45.0978 75.1719 42.9728 72.7344C40.8791 70.2656 38.6135 68.125 36.176 66.3125C33.7385 64.4688 31.1447 62.8906 28.3947 61.5781C28.3635 61.5469 28.3166 61.5156 28.2541 61.4844C28.2228 61.4531 28.1916 61.4375 28.1603 61.4375C27.9103 61.3125 27.7385 61.2188 27.6447 61.1562H27.5978L27.5041 61.1094C27.4416 61.0781 27.4103 61.0469 27.4103 61.0156H27.3635C24.801 59.7969 22.3478 58.4062 20.0041 56.8438C17.6916 55.2812 15.4103 53.4062 13.1603 51.2188C10.9103 49.0312 8.97283 46.6875 7.34783 44.1875C5.72283 41.6875 4.41033 38.8438 3.41033 35.6562C2.44158 32.4688 1.97283 29.1719 2.00408 25.7656C2.03533 22.1719 2.66033 18.9375 3.87908 16.0625C5.09783 13.1562 6.73845 10.7969 8.80095 8.98438C10.8947 7.14062 13.2072 5.6875 15.7385 4.625C18.301 3.53125 21.051 2.8125 23.9885 2.46875H24.4572C24.5822 2.40625 24.6603 2.375 24.6916 2.375C27.3166 2.125 29.8791 2.0625 32.3791 2.1875C34.9103 2.28125 37.4103 2.75 39.8791 3.59375C42.3478 4.40625 44.6447 5.48438 46.7697 6.82812C48.8947 8.17188 50.8791 9.95312 52.7228 12.1719C54.5666 14.3594 56.1135 16.8906 57.3635 19.7656C57.5197 20.1406 57.3166 20.375 56.7541 20.4688C56.1916 20.5938 55.8166 20.4688 55.6291 20.0938C54.1916 16.7812 52.3635 13.9531 50.1447 11.6094C47.9572 9.26562 45.5353 7.46875 42.8791 6.21875C40.2228 4.96875 37.4572 4.125 34.5822 3.6875C31.7385 3.25 28.7697 3.1875 25.676 3.5C20.8635 4.125 16.8478 6.67188 13.6291 11.1406C10.4103 15.5781 8.91033 20.8281 9.12908 26.8906C9.25408 30.4531 9.9572 33.8594 11.2385 37.1094C12.551 40.3281 14.2697 43.1719 16.3947 45.6406C18.5197 48.0781 20.801 50.2188 23.2385 52.0625C25.676 53.875 28.2697 55.4375 31.0197 56.75C31.051 56.75 31.0822 56.7656 31.1135 56.7969C31.176 56.8281 31.2228 56.8438 31.2541 56.8438C31.3166 56.875 31.3947 56.9375 31.4885 57.0312C31.6135 57.125 31.6916 57.1719 31.7228 57.1719H31.8166H31.7697C31.801 57.2031 31.8322 57.2188 31.8635 57.2188C31.8947 57.2188 31.926 57.2344 31.9572 57.2656L32.0041 57.3125Z"/>
<path d="M122.52 2.1875H129.738V115.531H122.52V48.2188C118.801 66.4062 113.317 81.8438 106.067 94.5312C100.723 103.906 95.2228 110.297 89.5666 113.703C84.1603 116.953 79.4884 116.922 75.5509 113.609C70.4572 109.297 67.4103 100.156 66.4103 86.1875C66.1916 83.0938 66.0822 79.7812 66.0822 76.25L65.1916 2.1875H72.2697C72.2697 9.40625 72.3322 19.125 72.4572 31.3438C72.6134 43.5312 72.7697 53.9219 72.9259 62.5156L73.1603 75.4062C73.1603 91.9375 75.4103 102.781 79.9103 107.938C83.0978 111.594 87.0353 111.938 91.7228 108.969C96.6603 105.844 101.567 99.6562 106.442 90.4062C112.973 77.9375 117.91 62.8594 121.254 45.1719L122.52 37.8594V2.1875Z"/>
<path d="M175.442 58.9531C181.629 60.2969 186.754 63.4531 190.817 68.4219C194.91 73.3906 196.957 79.6406 196.957 87.1719C196.957 91.5156 196.223 95.5156 194.754 99.1719C193.285 102.797 191.317 105.797 188.848 108.172C186.379 110.547 183.551 112.422 180.363 113.797C177.176 115.141 173.832 115.859 170.332 115.953C165.02 115.953 154.317 115.844 138.223 115.625C138.192 115.625 138.035 115.578 137.754 115.484H137.473V2.1875H144.692V2.23438C161.098 2.07812 169.645 2 170.332 2C173.832 2.09375 177.176 2.82812 180.363 4.20312C183.551 5.54688 186.379 7.40625 188.848 9.78125C191.317 12.1562 193.285 15.1719 194.754 18.8281C196.223 22.4531 196.957 26.4375 196.957 30.7812C196.957 34.5938 196.395 38.1406 195.27 41.4219C194.145 44.7031 192.582 47.5156 190.582 49.8594C188.613 52.1719 186.332 54.1094 183.738 55.6719C181.176 57.2031 178.41 58.2969 175.442 58.9531ZM167.66 3.40625C165.192 3.40625 161.254 3.42188 155.848 3.45312C150.442 3.45312 146.723 3.45312 144.692 3.45312V58.1094C146.723 58.1094 150.442 58.125 155.848 58.1562C161.254 58.1875 165.192 58.2031 167.66 58.2031C172.254 58.2031 176.457 56.6875 180.27 53.6562C184.113 50.5938 186.879 46.5 188.567 41.375C189.692 37.8438 190.254 34.3125 190.254 30.7812C190.254 27.0938 189.692 23.5625 188.567 20.1875C186.91 15.0938 184.16 11.0312 180.317 8C176.473 4.9375 172.254 3.40625 167.66 3.40625ZM188.567 97.7656C189.692 94.3906 190.254 90.8594 190.254 87.1719C190.254 83.4844 189.692 79.9531 188.567 76.5781C186.879 71.4531 184.113 67.375 180.27 64.3438C176.457 61.2812 172.254 59.75 167.66 59.75C165.192 59.75 161.254 59.7656 155.848 59.7969C150.442 59.8281 146.723 59.8438 144.692 59.8438V114.5C146.723 114.5 150.442 114.516 155.848 114.547C161.254 114.547 165.192 114.547 167.66 114.547C172.254 114.547 176.473 113.031 180.317 110C184.16 106.938 186.91 102.859 188.567 97.7656Z"/>
<path d="M264.973 114.828C265.035 115.078 264.942 115.281 264.692 115.438C264.473 115.562 264.207 115.594 263.895 115.531C263.613 115.469 263.442 115.328 263.379 115.109C262.973 113.578 262.363 111.312 261.551 108.312C260.738 105.281 260.145 103 259.77 101.469C259.145 99.0938 258.207 95.5312 256.957 90.7812C255.738 86 254.817 82.4219 254.192 80.0469C251.379 80.0469 245.567 80.0781 236.754 80.1406C227.942 80.1719 221.129 80.1719 216.317 80.1406C215.254 84.0781 213.676 89.9844 211.582 97.8594C209.52 105.734 207.973 111.641 206.942 115.578L200.192 115.531C200.567 114.031 201.207 111.562 202.113 108.125C203.02 104.688 203.676 102.203 204.082 100.672C205.582 94.8594 209.301 80.4375 215.238 57.4062C221.207 34.3438 225.817 16.5781 229.067 4.10938C229.285 3.23438 229.926 2.65625 230.988 2.375C232.082 2.0625 233.145 2.10938 234.176 2.51562C235.238 2.89062 235.863 3.5 236.051 4.34375C236.082 4.375 236.129 4.45312 236.192 4.57812C236.598 6.07812 237.192 8.35938 237.973 11.4219C238.785 14.4531 239.379 16.7344 239.754 18.2656C242.535 28.9844 246.723 45.0781 252.317 66.5469C257.942 87.9844 262.16 104.078 264.973 114.828ZM216.598 78.9688C218.66 79.0312 224.863 79.0469 235.207 79.0156C245.582 78.9531 251.801 78.9219 253.863 78.9219C251.801 71.0469 248.707 59.25 244.582 43.5312C240.457 27.7812 237.363 15.9844 235.301 8.14062C234.207 12.3594 233.254 16 232.442 19.0625C230.692 25.7188 228.051 35.7031 224.52 49.0156C221.02 62.3281 218.379 72.3125 216.598 78.9688Z"/>
<path d="M335.567 114.828C335.629 115.078 335.535 115.281 335.285 115.438C335.067 115.562 334.801 115.594 334.488 115.531C334.207 115.469 334.035 115.328 333.973 115.109C333.567 113.578 332.957 111.312 332.145 108.312C331.332 105.281 330.738 103 330.363 101.469C329.738 99.0938 328.801 95.5312 327.551 90.7812C326.332 86 325.41 82.4219 324.785 80.0469C321.973 80.0469 316.16 80.0781 307.348 80.1406C298.535 80.1719 291.723 80.1719 286.91 80.1406C285.848 84.0781 284.27 89.9844 282.176 97.8594C280.113 105.734 278.567 111.641 277.535 115.578L270.785 115.531C271.16 114.031 271.801 111.562 272.707 108.125C273.613 104.688 274.27 102.203 274.676 100.672C276.176 94.8594 279.895 80.4375 285.832 57.4062C291.801 34.3438 296.41 16.5781 299.66 4.10938C299.879 3.23438 300.52 2.65625 301.582 2.375C302.676 2.0625 303.738 2.10938 304.77 2.51562C305.832 2.89062 306.457 3.5 306.645 4.34375C306.676 4.375 306.723 4.45312 306.785 4.57812C307.192 6.07812 307.785 8.35938 308.567 11.4219C309.379 14.4531 309.973 16.7344 310.348 18.2656C313.129 28.9844 317.317 45.0781 322.91 66.5469C328.535 87.9844 332.754 104.078 335.567 114.828ZM287.192 78.9688C289.254 79.0312 295.457 79.0469 305.801 79.0156C316.176 78.9531 322.395 78.9219 324.457 78.9219C322.395 71.0469 319.301 59.25 315.176 43.5312C311.051 27.7812 307.957 15.9844 305.895 8.14062C304.801 12.3594 303.848 16 303.035 19.0625C301.285 25.7188 298.645 35.7031 295.113 49.0156C291.613 62.3281 288.973 72.3125 287.192 78.9688Z"/>
<path d="M371.379 57.3125C373.942 58.5312 376.379 59.9219 378.692 61.4844C381.035 63.0469 383.332 64.9375 385.582 67.1562C387.832 69.3438 389.77 71.6875 391.395 74.1875C393.02 76.6562 394.332 79.4844 395.332 82.6719C396.332 85.8594 396.817 89.1562 396.785 92.5625C396.754 96.1562 396.129 99.3906 394.91 102.266C393.692 105.141 392.035 107.5 389.942 109.344C387.879 111.156 385.567 112.609 383.004 113.703C380.473 114.766 377.738 115.469 374.801 115.812C374.77 115.812 374.692 115.812 374.567 115.812C374.442 115.844 374.363 115.859 374.332 115.859C374.207 115.922 374.129 115.953 374.098 115.953C371.473 116.203 368.895 116.266 366.363 116.141C363.863 116.047 361.379 115.594 358.91 114.781C356.442 113.938 354.145 112.844 352.02 111.5C349.895 110.156 347.91 108.391 346.067 106.203C344.223 103.984 342.676 101.438 341.426 98.5625C341.27 98.1875 341.473 97.9531 342.035 97.8594C342.598 97.7344 342.973 97.8594 343.16 98.2344C344.598 101.547 346.41 104.375 348.598 106.719C350.817 109.062 353.254 110.859 355.91 112.109C358.567 113.359 361.317 114.203 364.16 114.641C367.035 115.078 370.02 115.141 373.113 114.828C377.926 114.203 381.926 111.672 385.113 107.234C388.332 102.766 389.832 97.5 389.613 91.4375C389.488 87.875 388.77 84.4844 387.457 81.2656C386.176 78.0156 384.473 75.1719 382.348 72.7344C380.254 70.2656 377.988 68.125 375.551 66.3125C373.113 64.4688 370.52 62.8906 367.77 61.5781C367.738 61.5469 367.692 61.5156 367.629 61.4844C367.598 61.4531 367.567 61.4375 367.535 61.4375C367.285 61.3125 367.113 61.2188 367.02 61.1562H366.973L366.879 61.1094C366.817 61.0781 366.785 61.0469 366.785 61.0156H366.738C364.176 59.7969 361.723 58.4062 359.379 56.8438C357.067 55.2812 354.785 53.4062 352.535 51.2188C350.285 49.0312 348.348 46.6875 346.723 44.1875C345.098 41.6875 343.785 38.8438 342.785 35.6562C341.817 32.4688 341.348 29.1719 341.379 25.7656C341.41 22.1719 342.035 18.9375 343.254 16.0625C344.473 13.1562 346.113 10.7969 348.176 8.98438C350.27 7.14062 352.582 5.6875 355.113 4.625C357.676 3.53125 360.426 2.8125 363.363 2.46875H363.832C363.957 2.40625 364.035 2.375 364.067 2.375C366.692 2.125 369.254 2.0625 371.754 2.1875C374.285 2.28125 376.785 2.75 379.254 3.59375C381.723 4.40625 384.02 5.48438 386.145 6.82812C388.27 8.17188 390.254 9.95312 392.098 12.1719C393.942 14.3594 395.488 16.8906 396.738 19.7656C396.895 20.1406 396.692 20.375 396.129 20.4688C395.567 20.5938 395.192 20.4688 395.004 20.0938C393.567 16.7812 391.738 13.9531 389.52 11.6094C387.332 9.26562 384.91 7.46875 382.254 6.21875C379.598 4.96875 376.832 4.125 373.957 3.6875C371.113 3.25 368.145 3.1875 365.051 3.5C360.238 4.125 356.223 6.67188 353.004 11.1406C349.785 15.5781 348.285 20.8281 348.504 26.8906C348.629 30.4531 349.332 33.8594 350.613 37.1094C351.926 40.3281 353.645 43.1719 355.77 45.6406C357.895 48.0781 360.176 50.2188 362.613 52.0625C365.051 53.875 367.645 55.4375 370.395 56.75C370.426 56.75 370.457 56.7656 370.488 56.7969C370.551 56.8281 370.598 56.8438 370.629 56.8438C370.692 56.875 370.77 56.9375 370.863 57.0312C370.988 57.125 371.067 57.1719 371.098 57.1719H371.192H371.145C371.176 57.2031 371.207 57.2188 371.238 57.2188C371.27 57.2188 371.301 57.2344 371.332 57.2656L371.379 57.3125Z"/>
<path d="M461.988 2.1875H469.207V115.531H461.988V61.9062H411.785V115.531H404.567V2.1875H411.785V60.8281H461.988V2.1875Z"/>
</mask>
<path d="M32.0041 57.3125C34.5666 58.5312 37.0041 59.9219 39.3166 61.4844C41.6603 63.0469 43.9572 64.9375 46.2072 67.1562C48.4572 69.3438 50.3947 71.6875 52.0197 74.1875C53.6447 76.6562 54.9572 79.4844 55.9572 82.6719C56.9572 85.8594 57.4416 89.1562 57.4103 92.5625C57.3791 96.1562 56.7541 99.3906 55.5353 102.266C54.3166 105.141 52.6603 107.5 50.5666 109.344C48.5041 111.156 46.1916 112.609 43.6291 113.703C41.0978 114.766 38.3635 115.469 35.426 115.812C35.3947 115.812 35.3166 115.812 35.1916 115.812C35.0666 115.844 34.9885 115.859 34.9572 115.859C34.8322 115.922 34.7541 115.953 34.7228 115.953C32.0978 116.203 29.5197 116.266 26.9885 116.141C24.4885 116.047 22.0041 115.594 19.5353 114.781C17.0666 113.938 14.7697 112.844 12.6447 111.5C10.5197 110.156 8.53533 108.391 6.69158 106.203C4.84783 103.984 3.30095 101.438 2.05095 98.5625C1.8947 98.1875 2.09783 97.9531 2.66033 97.8594C3.22283 97.7344 3.59783 97.8594 3.78533 98.2344C5.22283 101.547 7.03533 104.375 9.22283 106.719C11.4416 109.062 13.8791 110.859 16.5353 112.109C19.1916 113.359 21.9416 114.203 24.7853 114.641C27.6603 115.078 30.6447 115.141 33.7385 114.828C38.551 114.203 42.551 111.672 45.7385 107.234C48.9572 102.766 50.4572 97.5 50.2385 91.4375C50.1135 87.875 49.3947 84.4844 48.0822 81.2656C46.801 78.0156 45.0978 75.1719 42.9728 72.7344C40.8791 70.2656 38.6135 68.125 36.176 66.3125C33.7385 64.4688 31.1447 62.8906 28.3947 61.5781C28.3635 61.5469 28.3166 61.5156 28.2541 61.4844C28.2228 61.4531 28.1916 61.4375 28.1603 61.4375C27.9103 61.3125 27.7385 61.2188 27.6447 61.1562H27.5978L27.5041 61.1094C27.4416 61.0781 27.4103 61.0469 27.4103 61.0156H27.3635C24.801 59.7969 22.3478 58.4062 20.0041 56.8438C17.6916 55.2812 15.4103 53.4062 13.1603 51.2188C10.9103 49.0312 8.97283 46.6875 7.34783 44.1875C5.72283 41.6875 4.41033 38.8438 3.41033 35.6562C2.44158 32.4688 1.97283 29.1719 2.00408 25.7656C2.03533 22.1719 2.66033 18.9375 3.87908 16.0625C5.09783 13.1562 6.73845 10.7969 8.80095 8.98438C10.8947 7.14062 13.2072 5.6875 15.7385 4.625C18.301 3.53125 21.051 2.8125 23.9885 2.46875H24.4572C24.5822 2.40625 24.6603 2.375 24.6916 2.375C27.3166 2.125 29.8791 2.0625 32.3791 2.1875C34.9103 2.28125 37.4103 2.75 39.8791 3.59375C42.3478 4.40625 44.6447 5.48438 46.7697 6.82812C48.8947 8.17188 50.8791 9.95312 52.7228 12.1719C54.5666 14.3594 56.1135 16.8906 57.3635 19.7656C57.5197 20.1406 57.3166 20.375 56.7541 20.4688C56.1916 20.5938 55.8166 20.4688 55.6291 20.0938C54.1916 16.7812 52.3635 13.9531 50.1447 11.6094C47.9572 9.26562 45.5353 7.46875 42.8791 6.21875C40.2228 4.96875 37.4572 4.125 34.5822 3.6875C31.7385 3.25 28.7697 3.1875 25.676 3.5C20.8635 4.125 16.8478 6.67188 13.6291 11.1406C10.4103 15.5781 8.91033 20.8281 9.12908 26.8906C9.25408 30.4531 9.9572 33.8594 11.2385 37.1094C12.551 40.3281 14.2697 43.1719 16.3947 45.6406C18.5197 48.0781 20.801 50.2188 23.2385 52.0625C25.676 53.875 28.2697 55.4375 31.0197 56.75C31.051 56.75 31.0822 56.7656 31.1135 56.7969C31.176 56.8281 31.2228 56.8438 31.2541 56.8438C31.3166 56.875 31.3947 56.9375 31.4885 57.0312C31.6135 57.125 31.6916 57.1719 31.7228 57.1719H31.8166H31.7697C31.801 57.2031 31.8322 57.2188 31.8635 57.2188C31.8947 57.2188 31.926 57.2344 31.9572 57.2656L32.0041 57.3125Z" stroke="black" stroke-width="3" mask="url(#path-1-outside-1_10_3)"/>
<path d="M122.52 2.1875H129.738V115.531H122.52V48.2188C118.801 66.4062 113.317 81.8438 106.067 94.5312C100.723 103.906 95.2228 110.297 89.5666 113.703C84.1603 116.953 79.4884 116.922 75.5509 113.609C70.4572 109.297 67.4103 100.156 66.4103 86.1875C66.1916 83.0938 66.0822 79.7812 66.0822 76.25L65.1916 2.1875H72.2697C72.2697 9.40625 72.3322 19.125 72.4572 31.3438C72.6134 43.5312 72.7697 53.9219 72.9259 62.5156L73.1603 75.4062C73.1603 91.9375 75.4103 102.781 79.9103 107.938C83.0978 111.594 87.0353 111.938 91.7228 108.969C96.6603 105.844 101.567 99.6562 106.442 90.4062C112.973 77.9375 117.91 62.8594 121.254 45.1719L122.52 37.8594V2.1875Z" stroke="black" stroke-width="3" mask="url(#path-1-outside-1_10_3)"/>
<path d="M175.442 58.9531C181.629 60.2969 186.754 63.4531 190.817 68.4219C194.91 73.3906 196.957 79.6406 196.957 87.1719C196.957 91.5156 196.223 95.5156 194.754 99.1719C193.285 102.797 191.317 105.797 188.848 108.172C186.379 110.547 183.551 112.422 180.363 113.797C177.176 115.141 173.832 115.859 170.332 115.953C165.02 115.953 154.317 115.844 138.223 115.625C138.192 115.625 138.035 115.578 137.754 115.484H137.473V2.1875H144.692V2.23438C161.098 2.07812 169.645 2 170.332 2C173.832 2.09375 177.176 2.82812 180.363 4.20312C183.551 5.54688 186.379 7.40625 188.848 9.78125C191.317 12.1562 193.285 15.1719 194.754 18.8281C196.223 22.4531 196.957 26.4375 196.957 30.7812C196.957 34.5938 196.395 38.1406 195.27 41.4219C194.145 44.7031 192.582 47.5156 190.582 49.8594C188.613 52.1719 186.332 54.1094 183.738 55.6719C181.176 57.2031 178.41 58.2969 175.442 58.9531ZM167.66 3.40625C165.192 3.40625 161.254 3.42188 155.848 3.45312C150.442 3.45312 146.723 3.45312 144.692 3.45312V58.1094C146.723 58.1094 150.442 58.125 155.848 58.1562C161.254 58.1875 165.192 58.2031 167.66 58.2031C172.254 58.2031 176.457 56.6875 180.27 53.6562C184.113 50.5938 186.879 46.5 188.567 41.375C189.692 37.8438 190.254 34.3125 190.254 30.7812C190.254 27.0938 189.692 23.5625 188.567 20.1875C186.91 15.0938 184.16 11.0312 180.317 8C176.473 4.9375 172.254 3.40625 167.66 3.40625ZM188.567 97.7656C189.692 94.3906 190.254 90.8594 190.254 87.1719C190.254 83.4844 189.692 79.9531 188.567 76.5781C186.879 71.4531 184.113 67.375 180.27 64.3438C176.457 61.2812 172.254 59.75 167.66 59.75C165.192 59.75 161.254 59.7656 155.848 59.7969C150.442 59.8281 146.723 59.8438 144.692 59.8438V114.5C146.723 114.5 150.442 114.516 155.848 114.547C161.254 114.547 165.192 114.547 167.66 114.547C172.254 114.547 176.473 113.031 180.317 110C184.16 106.938 186.91 102.859 188.567 97.7656Z" stroke="black" stroke-width="3" mask="url(#path-1-outside-1_10_3)"/>
<path d="M264.973 114.828C265.035 115.078 264.942 115.281 264.692 115.438C264.473 115.562 264.207 115.594 263.895 115.531C263.613 115.469 263.442 115.328 263.379 115.109C262.973 113.578 262.363 111.312 261.551 108.312C260.738 105.281 260.145 103 259.77 101.469C259.145 99.0938 258.207 95.5312 256.957 90.7812C255.738 86 254.817 82.4219 254.192 80.0469C251.379 80.0469 245.567 80.0781 236.754 80.1406C227.942 80.1719 221.129 80.1719 216.317 80.1406C215.254 84.0781 213.676 89.9844 211.582 97.8594C209.52 105.734 207.973 111.641 206.942 115.578L200.192 115.531C200.567 114.031 201.207 111.562 202.113 108.125C203.02 104.688 203.676 102.203 204.082 100.672C205.582 94.8594 209.301 80.4375 215.238 57.4062C221.207 34.3438 225.817 16.5781 229.067 4.10938C229.285 3.23438 229.926 2.65625 230.988 2.375C232.082 2.0625 233.145 2.10938 234.176 2.51562C235.238 2.89062 235.863 3.5 236.051 4.34375C236.082 4.375 236.129 4.45312 236.192 4.57812C236.598 6.07812 237.192 8.35938 237.973 11.4219C238.785 14.4531 239.379 16.7344 239.754 18.2656C242.535 28.9844 246.723 45.0781 252.317 66.5469C257.942 87.9844 262.16 104.078 264.973 114.828ZM216.598 78.9688C218.66 79.0312 224.863 79.0469 235.207 79.0156C245.582 78.9531 251.801 78.9219 253.863 78.9219C251.801 71.0469 248.707 59.25 244.582 43.5312C240.457 27.7812 237.363 15.9844 235.301 8.14062C234.207 12.3594 233.254 16 232.442 19.0625C230.692 25.7188 228.051 35.7031 224.52 49.0156C221.02 62.3281 218.379 72.3125 216.598 78.9688Z" stroke="black" stroke-width="3" mask="url(#path-1-outside-1_10_3)"/>
<path d="M335.567 114.828C335.629 115.078 335.535 115.281 335.285 115.438C335.067 115.562 334.801 115.594 334.488 115.531C334.207 115.469 334.035 115.328 333.973 115.109C333.567 113.578 332.957 111.312 332.145 108.312C331.332 105.281 330.738 103 330.363 101.469C329.738 99.0938 328.801 95.5312 327.551 90.7812C326.332 86 325.41 82.4219 324.785 80.0469C321.973 80.0469 316.16 80.0781 307.348 80.1406C298.535 80.1719 291.723 80.1719 286.91 80.1406C285.848 84.0781 284.27 89.9844 282.176 97.8594C280.113 105.734 278.567 111.641 277.535 115.578L270.785 115.531C271.16 114.031 271.801 111.562 272.707 108.125C273.613 104.688 274.27 102.203 274.676 100.672C276.176 94.8594 279.895 80.4375 285.832 57.4062C291.801 34.3438 296.41 16.5781 299.66 4.10938C299.879 3.23438 300.52 2.65625 301.582 2.375C302.676 2.0625 303.738 2.10938 304.77 2.51562C305.832 2.89062 306.457 3.5 306.645 4.34375C306.676 4.375 306.723 4.45312 306.785 4.57812C307.192 6.07812 307.785 8.35938 308.567 11.4219C309.379 14.4531 309.973 16.7344 310.348 18.2656C313.129 28.9844 317.317 45.0781 322.91 66.5469C328.535 87.9844 332.754 104.078 335.567 114.828ZM287.192 78.9688C289.254 79.0312 295.457 79.0469 305.801 79.0156C316.176 78.9531 322.395 78.9219 324.457 78.9219C322.395 71.0469 319.301 59.25 315.176 43.5312C311.051 27.7812 307.957 15.9844 305.895 8.14062C304.801 12.3594 303.848 16 303.035 19.0625C301.285 25.7188 298.645 35.7031 295.113 49.0156C291.613 62.3281 288.973 72.3125 287.192 78.9688Z" stroke="black" stroke-width="3" mask="url(#path-1-outside-1_10_3)"/>
<path d="M371.379 57.3125C373.942 58.5312 376.379 59.9219 378.692 61.4844C381.035 63.0469 383.332 64.9375 385.582 67.1562C387.832 69.3438 389.77 71.6875 391.395 74.1875C393.02 76.6562 394.332 79.4844 395.332 82.6719C396.332 85.8594 396.817 89.1562 396.785 92.5625C396.754 96.1562 396.129 99.3906 394.91 102.266C393.692 105.141 392.035 107.5 389.942 109.344C387.879 111.156 385.567 112.609 383.004 113.703C380.473 114.766 377.738 115.469 374.801 115.812C374.77 115.812 374.692 115.812 374.567 115.812C374.442 115.844 374.363 115.859 374.332 115.859C374.207 115.922 374.129 115.953 374.098 115.953C371.473 116.203 368.895 116.266 366.363 116.141C363.863 116.047 361.379 115.594 358.91 114.781C356.442 113.938 354.145 112.844 352.02 111.5C349.895 110.156 347.91 108.391 346.067 106.203C344.223 103.984 342.676 101.438 341.426 98.5625C341.27 98.1875 341.473 97.9531 342.035 97.8594C342.598 97.7344 342.973 97.8594 343.16 98.2344C344.598 101.547 346.41 104.375 348.598 106.719C350.817 109.062 353.254 110.859 355.91 112.109C358.567 113.359 361.317 114.203 364.16 114.641C367.035 115.078 370.02 115.141 373.113 114.828C377.926 114.203 381.926 111.672 385.113 107.234C388.332 102.766 389.832 97.5 389.613 91.4375C389.488 87.875 388.77 84.4844 387.457 81.2656C386.176 78.0156 384.473 75.1719 382.348 72.7344C380.254 70.2656 377.988 68.125 375.551 66.3125C373.113 64.4688 370.52 62.8906 367.77 61.5781C367.738 61.5469 367.692 61.5156 367.629 61.4844C367.598 61.4531 367.567 61.4375 367.535 61.4375C367.285 61.3125 367.113 61.2188 367.02 61.1562H366.973L366.879 61.1094C366.817 61.0781 366.785 61.0469 366.785 61.0156H366.738C364.176 59.7969 361.723 58.4062 359.379 56.8438C357.067 55.2812 354.785 53.4062 352.535 51.2188C350.285 49.0312 348.348 46.6875 346.723 44.1875C345.098 41.6875 343.785 38.8438 342.785 35.6562C341.817 32.4688 341.348 29.1719 341.379 25.7656C341.41 22.1719 342.035 18.9375 343.254 16.0625C344.473 13.1562 346.113 10.7969 348.176 8.98438C350.27 7.14062 352.582 5.6875 355.113 4.625C357.676 3.53125 360.426 2.8125 363.363 2.46875H363.832C363.957 2.40625 364.035 2.375 364.067 2.375C366.692 2.125 369.254 2.0625 371.754 2.1875C374.285 2.28125 376.785 2.75 379.254 3.59375C381.723 4.40625 384.02 5.48438 386.145 6.82812C388.27 8.17188 390.254 9.95312 392.098 12.1719C393.942 14.3594 395.488 16.8906 396.738 19.7656C396.895 20.1406 396.692 20.375 396.129 20.4688C395.567 20.5938 395.192 20.4688 395.004 20.0938C393.567 16.7812 391.738 13.9531 389.52 11.6094C387.332 9.26562 384.91 7.46875 382.254 6.21875C379.598 4.96875 376.832 4.125 373.957 3.6875C371.113 3.25 368.145 3.1875 365.051 3.5C360.238 4.125 356.223 6.67188 353.004 11.1406C349.785 15.5781 348.285 20.8281 348.504 26.8906C348.629 30.4531 349.332 33.8594 350.613 37.1094C351.926 40.3281 353.645 43.1719 355.77 45.6406C357.895 48.0781 360.176 50.2188 362.613 52.0625C365.051 53.875 367.645 55.4375 370.395 56.75C370.426 56.75 370.457 56.7656 370.488 56.7969C370.551 56.8281 370.598 56.8438 370.629 56.8438C370.692 56.875 370.77 56.9375 370.863 57.0312C370.988 57.125 371.067 57.1719 371.098 57.1719H371.192H371.145C371.176 57.2031 371.207 57.2188 371.238 57.2188C371.27 57.2188 371.301 57.2344 371.332 57.2656L371.379 57.3125Z" stroke="black" stroke-width="3" mask="url(#path-1-outside-1_10_3)"/>
<path d="M461.988 2.1875H469.207V115.531H461.988V61.9062H411.785V115.531H404.567V2.1875H411.785V60.8281H461.988V2.1875Z" stroke="black" stroke-width="3" mask="url(#path-1-outside-1_10_3)"/>
</svg>
