<svg width="1212" height="101" viewBox="0 0 1212 101" fill="none" xmlns="http://www.w3.org/2000/svg">
<g filter="url(#filter0_d_18_3)">
<mask id="path-1-outside-1_18_3" maskUnits="userSpaceOnUse" x="0.106689" y="0.306671" width="1207" height="95" fill="black">
<rect fill="white" x="0.106689" y="0.306671" width="1207" height="95"/>
<path d="M4.10669 89V5.8H22.0267V89H4.10669Z"/>
<path d="M28.205 41V40.36C30.0539 37.3022 31.5472 34.4933 32.685 31.9333C33.8939 29.3733 34.8539 27.0622 35.565 25C33.0761 24.4311 31.2272 23.2933 30.0184 21.5867C28.8095 19.8089 28.205 17.6756 28.205 15.1867C28.205 12.2 29.0939 9.78223 30.8717 7.93334C32.6495 6.08445 35.1739 5.16 38.445 5.16C41.7161 5.16 44.2406 6.15556 46.0184 8.14668C47.7961 10.1378 48.685 13.1245 48.685 17.1067C48.685 20.5911 48.045 24.4667 46.765 28.7333C45.485 33 43.7784 37.0889 41.645 41H28.205Z"/>
<path d="M54.8717 89V5.8H86.445L101.912 74.92H105.752L121.218 5.8H152.792V89H136.152V20.52H133.378L118.232 89H88.5784L73.4317 20.52H70.6584V89H54.8717Z"/>
<path d="M210.408 90.4933C202.799 90.4933 196.293 88.7156 190.888 85.16C185.555 81.5333 181.466 76.4844 178.622 70.0133C175.777 63.4711 174.355 55.8622 174.355 47.1867C174.355 38.3689 175.813 30.76 178.728 24.36C181.715 17.96 186.053 13.0178 191.742 9.53334C197.502 6.04889 204.577 4.30667 212.968 4.30667C220.222 4.30667 226.302 5.55112 231.208 8.04001C236.115 10.5289 239.955 13.9778 242.728 18.3867C245.502 22.7245 247.279 27.7733 248.062 33.5333H230.995C230.142 28.4133 228.186 24.5022 225.128 21.8C222.071 19.0978 217.946 17.7467 212.755 17.7467C205.857 17.7467 200.702 20.3422 197.288 25.5333C193.946 30.6533 192.275 37.9067 192.275 47.2933C192.275 56.8933 194.017 64.2889 197.502 69.48C201.057 74.6711 206.284 77.2667 213.182 77.2667C218.942 77.2667 223.386 75.5956 226.515 72.2533C229.644 68.84 231.386 64.2533 231.742 58.4933H208.275V45.5867H248.168V89H235.262V79.4H232.702C231.279 82.2445 228.826 84.8045 225.342 87.08C221.928 89.3556 216.951 90.4933 210.408 90.4933Z"/>
<path d="M253.707 89V5.8H271.627V74.92H306.4V89H253.707Z"/>
<path d="M302.773 89V88.36L327.84 5.8H355.893L381.067 88.36V89H362.72L342.56 19.6667H340L319.627 89H302.773ZM323.573 68.2L327.307 54.76H355.253L358.987 68.2H323.573Z"/>
<path d="M382.347 89V5.8H412C426.791 5.8 437.529 9.46223 444.213 16.7867C450.898 24.04 454.24 34.2444 454.24 47.4C454.24 60.5556 450.898 70.7956 444.213 78.12C437.529 85.3733 426.791 89 412 89H382.347ZM400.267 75.1333H410.933C416.409 75.1333 420.96 74.3156 424.587 72.68C428.284 70.9733 431.058 68.1289 432.907 64.1467C434.756 60.0933 435.68 54.5111 435.68 47.4C435.68 40.2889 434.756 34.7422 432.907 30.76C431.058 26.7067 428.284 23.8622 424.587 22.2267C420.96 20.52 416.409 19.6667 410.933 19.6667H400.267V75.1333Z"/>
<path d="M495.062 89V54.44L468.502 6.44V5.8H487.808L498.262 25C499.257 26.7778 500.217 28.6267 501.142 30.5467C502.137 32.3956 503.097 34.5289 504.022 36.9467H506.155C507.151 34.5289 508.111 32.3956 509.035 30.5467C510.031 28.6267 510.991 26.7778 511.915 25L522.048 5.8H539.542V6.44L512.982 54.6533V89H495.062Z"/>
<path d="M570.992 90.4933C562.174 90.4933 554.814 88.7511 548.912 85.2667C543.081 81.7111 538.707 76.6978 535.792 70.2267C532.947 63.7556 531.525 56.1467 531.525 47.4C531.525 38.5822 532.947 30.9733 535.792 24.5733C538.707 18.1022 543.081 13.1244 548.912 9.64001C554.814 6.08445 562.174 4.30667 570.992 4.30667C579.881 4.30667 587.241 6.08445 593.072 9.64001C598.903 13.1244 603.241 18.1022 606.085 24.5733C609.001 30.9733 610.458 38.5822 610.458 47.4C610.458 56.1467 609.001 63.7556 606.085 70.2267C603.241 76.6978 598.903 81.7111 593.072 85.2667C587.241 88.7511 579.881 90.4933 570.992 90.4933ZM570.992 77.0533C578.174 77.0533 583.436 74.4933 586.778 69.3733C590.192 64.1822 591.898 56.8578 591.898 47.4C591.898 37.8711 590.192 30.5467 586.778 25.4267C583.436 20.3067 578.174 17.7467 570.992 17.7467C563.809 17.7467 558.512 20.3067 555.098 25.4267C551.756 30.5467 550.085 37.8711 550.085 47.4C550.085 56.8578 551.756 64.1822 555.098 69.3733C558.512 74.4933 563.809 77.0533 570.992 77.0533Z"/>
<path d="M648.687 90.6C636.669 90.6 627.709 87.5067 621.807 81.32C615.976 75.0622 613.06 66.1378 613.06 54.5467V5.8H631.193V54.0133C631.193 60.84 632.473 66.1733 635.033 70.0133C637.664 73.8533 642.287 75.7733 648.9 75.7733C655.584 75.7733 660.207 73.8533 662.767 70.0133C665.327 66.1733 666.607 60.84 666.607 54.0133V5.8H684.313V54.5467C684.313 66.1378 681.398 75.0622 675.567 81.32C669.736 87.5067 660.776 90.6 648.687 90.6Z"/>
<path d="M702.513 89V88.36L727.58 5.8H755.633L780.807 88.36V89H762.46L742.3 19.6667H739.74L719.367 89H702.513ZM723.313 68.2L727.047 54.76H754.993L758.727 68.2H723.313Z"/>
<path d="M782.087 89V5.8H817.393C824.504 5.8 830.264 6.83112 834.673 8.89334C839.153 10.8845 842.424 13.6578 844.487 17.2133C846.62 20.6978 847.687 24.7511 847.687 29.3733C847.687 34.6356 846.3 39.1867 843.527 43.0267C840.753 46.8667 836.664 49.6045 831.26 51.24L849.927 88.36V89H830.94L813.98 53.8H799.793V89H782.087ZM799.793 40.7867H814.833C819.456 40.7867 823.047 40.0045 825.607 38.44C828.238 36.8756 829.553 34.0667 829.553 30.0133C829.553 25.8889 828.238 23.08 825.607 21.5867C822.976 20.0222 819.384 19.24 814.833 19.24H799.793V40.7867Z"/>
<path d="M852.282 89V5.8H909.028V19.88H869.988V38.2267H900.068V51.24H869.988V74.92H909.668V89H852.282Z"/>
<path d="M932.922 89V5.8H950.842V37.48H986.255V5.8H1004.18V89H986.255V51.9867H950.842V89H932.922Z"/>
<path d="M1012.74 89V5.8H1069.49V19.88H1030.45V38.2267H1060.53V51.24H1030.45V74.92H1070.13V89H1012.74Z"/>
<path d="M1075.44 89V5.8H1110.74C1117.85 5.8 1123.61 6.83112 1128.02 8.89334C1132.5 10.8845 1135.77 13.6578 1137.84 17.2133C1139.97 20.6978 1141.04 24.7511 1141.04 29.3733C1141.04 34.6356 1139.65 39.1867 1136.88 43.0267C1134.1 46.8667 1130.01 49.6045 1124.61 51.24L1143.28 88.36V89H1124.29L1107.33 53.8H1093.14V89H1075.44ZM1093.14 40.7867H1108.18C1112.81 40.7867 1116.4 40.0045 1118.96 38.44C1121.59 36.8756 1122.9 34.0667 1122.9 30.0133C1122.9 25.8889 1121.59 23.08 1118.96 21.5867C1116.33 20.0222 1112.73 19.24 1108.18 19.24H1093.14V40.7867Z"/>
<path d="M1145.63 89V5.8H1202.38V19.88H1163.34V38.2267H1193.42V51.24H1163.34V74.92H1203.02V89H1145.63Z"/>
</mask>
<path d="M4.10669 89V5.8H22.0267V89H4.10669Z" fill="#00FFBF"/>
<path d="M28.205 41V40.36C30.0539 37.3022 31.5472 34.4933 32.685 31.9333C33.8939 29.3733 34.8539 27.0622 35.565 25C33.0761 24.4311 31.2272 23.2933 30.0184 21.5867C28.8095 19.8089 28.205 17.6756 28.205 15.1867C28.205 12.2 29.0939 9.78223 30.8717 7.93334C32.6495 6.08445 35.1739 5.16 38.445 5.16C41.7161 5.16 44.2406 6.15556 46.0184 8.14668C47.7961 10.1378 48.685 13.1245 48.685 17.1067C48.685 20.5911 48.045 24.4667 46.765 28.7333C45.485 33 43.7784 37.0889 41.645 41H28.205Z" fill="#00FFBF"/>
<path d="M54.8717 89V5.8H86.445L101.912 74.92H105.752L121.218 5.8H152.792V89H136.152V20.52H133.378L118.232 89H88.5784L73.4317 20.52H70.6584V89H54.8717Z" fill="#00FFBF"/>
<path d="M210.408 90.4933C202.799 90.4933 196.293 88.7156 190.888 85.16C185.555 81.5333 181.466 76.4844 178.622 70.0133C175.777 63.4711 174.355 55.8622 174.355 47.1867C174.355 38.3689 175.813 30.76 178.728 24.36C181.715 17.96 186.053 13.0178 191.742 9.53334C197.502 6.04889 204.577 4.30667 212.968 4.30667C220.222 4.30667 226.302 5.55112 231.208 8.04001C236.115 10.5289 239.955 13.9778 242.728 18.3867C245.502 22.7245 247.279 27.7733 248.062 33.5333H230.995C230.142 28.4133 228.186 24.5022 225.128 21.8C222.071 19.0978 217.946 17.7467 212.755 17.7467C205.857 17.7467 200.702 20.3422 197.288 25.5333C193.946 30.6533 192.275 37.9067 192.275 47.2933C192.275 56.8933 194.017 64.2889 197.502 69.48C201.057 74.6711 206.284 77.2667 213.182 77.2667C218.942 77.2667 223.386 75.5956 226.515 72.2533C229.644 68.84 231.386 64.2533 231.742 58.4933H208.275V45.5867H248.168V89H235.262V79.4H232.702C231.279 82.2445 228.826 84.8045 225.342 87.08C221.928 89.3556 216.951 90.4933 210.408 90.4933Z" fill="#00FFBF"/>
<path d="M253.707 89V5.8H271.627V74.92H306.4V89H253.707Z" fill="#00FFBF"/>
<path d="M302.773 89V88.36L327.84 5.8H355.893L381.067 88.36V89H362.72L342.56 19.6667H340L319.627 89H302.773ZM323.573 68.2L327.307 54.76H355.253L358.987 68.2H323.573Z" fill="#00FFBF"/>
<path d="M382.347 89V5.8H412C426.791 5.8 437.529 9.46223 444.213 16.7867C450.898 24.04 454.24 34.2444 454.24 47.4C454.24 60.5556 450.898 70.7956 444.213 78.12C437.529 85.3733 426.791 89 412 89H382.347ZM400.267 75.1333H410.933C416.409 75.1333 420.96 74.3156 424.587 72.68C428.284 70.9733 431.058 68.1289 432.907 64.1467C434.756 60.0933 435.68 54.5111 435.68 47.4C435.68 40.2889 434.756 34.7422 432.907 30.76C431.058 26.7067 428.284 23.8622 424.587 22.2267C420.96 20.52 416.409 19.6667 410.933 19.6667H400.267V75.1333Z" fill="#00FFBF"/>
<path d="M495.062 89V54.44L468.502 6.44V5.8H487.808L498.262 25C499.257 26.7778 500.217 28.6267 501.142 30.5467C502.137 32.3956 503.097 34.5289 504.022 36.9467H506.155C507.151 34.5289 508.111 32.3956 509.035 30.5467C510.031 28.6267 510.991 26.7778 511.915 25L522.048 5.8H539.542V6.44L512.982 54.6533V89H495.062Z" fill="#00FFBF"/>
<path d="M570.992 90.4933C562.174 90.4933 554.814 88.7511 548.912 85.2667C543.081 81.7111 538.707 76.6978 535.792 70.2267C532.947 63.7556 531.525 56.1467 531.525 47.4C531.525 38.5822 532.947 30.9733 535.792 24.5733C538.707 18.1022 543.081 13.1244 548.912 9.64001C554.814 6.08445 562.174 4.30667 570.992 4.30667C579.881 4.30667 587.241 6.08445 593.072 9.64001C598.903 13.1244 603.241 18.1022 606.085 24.5733C609.001 30.9733 610.458 38.5822 610.458 47.4C610.458 56.1467 609.001 63.7556 606.085 70.2267C603.241 76.6978 598.903 81.7111 593.072 85.2667C587.241 88.7511 579.881 90.4933 570.992 90.4933ZM570.992 77.0533C578.174 77.0533 583.436 74.4933 586.778 69.3733C590.192 64.1822 591.898 56.8578 591.898 47.4C591.898 37.8711 590.192 30.5467 586.778 25.4267C583.436 20.3067 578.174 17.7467 570.992 17.7467C563.809 17.7467 558.512 20.3067 555.098 25.4267C551.756 30.5467 550.085 37.8711 550.085 47.4C550.085 56.8578 551.756 64.1822 555.098 69.3733C558.512 74.4933 563.809 77.0533 570.992 77.0533Z" fill="#00FFBF"/>
<path d="M648.687 90.6C636.669 90.6 627.709 87.5067 621.807 81.32C615.976 75.0622 613.06 66.1378 613.06 54.5467V5.8H631.193V54.0133C631.193 60.84 632.473 66.1733 635.033 70.0133C637.664 73.8533 642.287 75.7733 648.9 75.7733C655.584 75.7733 660.207 73.8533 662.767 70.0133C665.327 66.1733 666.607 60.84 666.607 54.0133V5.8H684.313V54.5467C684.313 66.1378 681.398 75.0622 675.567 81.32C669.736 87.5067 660.776 90.6 648.687 90.6Z" fill="#00FFBF"/>
<path d="M702.513 89V88.36L727.58 5.8H755.633L780.807 88.36V89H762.46L742.3 19.6667H739.74L719.367 89H702.513ZM723.313 68.2L727.047 54.76H754.993L758.727 68.2H723.313Z" fill="#00FFBF"/>
<path d="M782.087 89V5.8H817.393C824.504 5.8 830.264 6.83112 834.673 8.89334C839.153 10.8845 842.424 13.6578 844.487 17.2133C846.62 20.6978 847.687 24.7511 847.687 29.3733C847.687 34.6356 846.3 39.1867 843.527 43.0267C840.753 46.8667 836.664 49.6045 831.26 51.24L849.927 88.36V89H830.94L813.98 53.8H799.793V89H782.087ZM799.793 40.7867H814.833C819.456 40.7867 823.047 40.0045 825.607 38.44C828.238 36.8756 829.553 34.0667 829.553 30.0133C829.553 25.8889 828.238 23.08 825.607 21.5867C822.976 20.0222 819.384 19.24 814.833 19.24H799.793V40.7867Z" fill="#00FFBF"/>
<path d="M852.282 89V5.8H909.028V19.88H869.988V38.2267H900.068V51.24H869.988V74.92H909.668V89H852.282Z" fill="#00FFBF"/>
<path d="M932.922 89V5.8H950.842V37.48H986.255V5.8H1004.18V89H986.255V51.9867H950.842V89H932.922Z" fill="#00FFBF"/>
<path d="M1012.74 89V5.8H1069.49V19.88H1030.45V38.2267H1060.53V51.24H1030.45V74.92H1070.13V89H1012.74Z" fill="#00FFBF"/>
<path d="M1075.44 89V5.8H1110.74C1117.85 5.8 1123.61 6.83112 1128.02 8.89334C1132.5 10.8845 1135.77 13.6578 1137.84 17.2133C1139.97 20.6978 1141.04 24.7511 1141.04 29.3733C1141.04 34.6356 1139.65 39.1867 1136.88 43.0267C1134.1 46.8667 1130.01 49.6045 1124.61 51.24L1143.28 88.36V89H1124.29L1107.33 53.8H1093.14V89H1075.44ZM1093.14 40.7867H1108.18C1112.81 40.7867 1116.4 40.0045 1118.96 38.44C1121.59 36.8756 1122.9 34.0667 1122.9 30.0133C1122.9 25.8889 1121.59 23.08 1118.96 21.5867C1116.33 20.0222 1112.73 19.24 1108.18 19.24H1093.14V40.7867Z" fill="#00FFBF"/>
<path d="M1145.63 89V5.8H1202.38V19.88H1163.34V38.2267H1193.42V51.24H1163.34V74.92H1203.02V89H1145.63Z" fill="#00FFBF"/>
<path d="M4.10669 89V5.8H22.0267V89H4.10669Z" stroke="black" stroke-width="8" mask="url(#path-1-outside-1_18_3)"/>
<path d="M28.205 41V40.36C30.0539 37.3022 31.5472 34.4933 32.685 31.9333C33.8939 29.3733 34.8539 27.0622 35.565 25C33.0761 24.4311 31.2272 23.2933 30.0184 21.5867C28.8095 19.8089 28.205 17.6756 28.205 15.1867C28.205 12.2 29.0939 9.78223 30.8717 7.93334C32.6495 6.08445 35.1739 5.16 38.445 5.16C41.7161 5.16 44.2406 6.15556 46.0184 8.14668C47.7961 10.1378 48.685 13.1245 48.685 17.1067C48.685 20.5911 48.045 24.4667 46.765 28.7333C45.485 33 43.7784 37.0889 41.645 41H28.205Z" stroke="black" stroke-width="8" mask="url(#path-1-outside-1_18_3)"/>
<path d="M54.8717 89V5.8H86.445L101.912 74.92H105.752L121.218 5.8H152.792V89H136.152V20.52H133.378L118.232 89H88.5784L73.4317 20.52H70.6584V89H54.8717Z" stroke="black" stroke-width="8" mask="url(#path-1-outside-1_18_3)"/>
<path d="M210.408 90.4933C202.799 90.4933 196.293 88.7156 190.888 85.16C185.555 81.5333 181.466 76.4844 178.622 70.0133C175.777 63.4711 174.355 55.8622 174.355 47.1867C174.355 38.3689 175.813 30.76 178.728 24.36C181.715 17.96 186.053 13.0178 191.742 9.53334C197.502 6.04889 204.577 4.30667 212.968 4.30667C220.222 4.30667 226.302 5.55112 231.208 8.04001C236.115 10.5289 239.955 13.9778 242.728 18.3867C245.502 22.7245 247.279 27.7733 248.062 33.5333H230.995C230.142 28.4133 228.186 24.5022 225.128 21.8C222.071 19.0978 217.946 17.7467 212.755 17.7467C205.857 17.7467 200.702 20.3422 197.288 25.5333C193.946 30.6533 192.275 37.9067 192.275 47.2933C192.275 56.8933 194.017 64.2889 197.502 69.48C201.057 74.6711 206.284 77.2667 213.182 77.2667C218.942 77.2667 223.386 75.5956 226.515 72.2533C229.644 68.84 231.386 64.2533 231.742 58.4933H208.275V45.5867H248.168V89H235.262V79.4H232.702C231.279 82.2445 228.826 84.8045 225.342 87.08C221.928 89.3556 216.951 90.4933 210.408 90.4933Z" stroke="black" stroke-width="8" mask="url(#path-1-outside-1_18_3)"/>
<path d="M253.707 89V5.8H271.627V74.92H306.4V89H253.707Z" stroke="black" stroke-width="8" mask="url(#path-1-outside-1_18_3)"/>
<path d="M302.773 89V88.36L327.84 5.8H355.893L381.067 88.36V89H362.72L342.56 19.6667H340L319.627 89H302.773ZM323.573 68.2L327.307 54.76H355.253L358.987 68.2H323.573Z" stroke="black" stroke-width="8" mask="url(#path-1-outside-1_18_3)"/>
<path d="M382.347 89V5.8H412C426.791 5.8 437.529 9.46223 444.213 16.7867C450.898 24.04 454.24 34.2444 454.24 47.4C454.24 60.5556 450.898 70.7956 444.213 78.12C437.529 85.3733 426.791 89 412 89H382.347ZM400.267 75.1333H410.933C416.409 75.1333 420.96 74.3156 424.587 72.68C428.284 70.9733 431.058 68.1289 432.907 64.1467C434.756 60.0933 435.68 54.5111 435.68 47.4C435.68 40.2889 434.756 34.7422 432.907 30.76C431.058 26.7067 428.284 23.8622 424.587 22.2267C420.96 20.52 416.409 19.6667 410.933 19.6667H400.267V75.1333Z" stroke="black" stroke-width="8" mask="url(#path-1-outside-1_18_3)"/>
<path d="M495.062 89V54.44L468.502 6.44V5.8H487.808L498.262 25C499.257 26.7778 500.217 28.6267 501.142 30.5467C502.137 32.3956 503.097 34.5289 504.022 36.9467H506.155C507.151 34.5289 508.111 32.3956 509.035 30.5467C510.031 28.6267 510.991 26.7778 511.915 25L522.048 5.8H539.542V6.44L512.982 54.6533V89H495.062Z" stroke="black" stroke-width="8" mask="url(#path-1-outside-1_18_3)"/>
<path d="M570.992 90.4933C562.174 90.4933 554.814 88.7511 548.912 85.2667C543.081 81.7111 538.707 76.6978 535.792 70.2267C532.947 63.7556 531.525 56.1467 531.525 47.4C531.525 38.5822 532.947 30.9733 535.792 24.5733C538.707 18.1022 543.081 13.1244 548.912 9.64001C554.814 6.08445 562.174 4.30667 570.992 4.30667C579.881 4.30667 587.241 6.08445 593.072 9.64001C598.903 13.1244 603.241 18.1022 606.085 24.5733C609.001 30.9733 610.458 38.5822 610.458 47.4C610.458 56.1467 609.001 63.7556 606.085 70.2267C603.241 76.6978 598.903 81.7111 593.072 85.2667C587.241 88.7511 579.881 90.4933 570.992 90.4933ZM570.992 77.0533C578.174 77.0533 583.436 74.4933 586.778 69.3733C590.192 64.1822 591.898 56.8578 591.898 47.4C591.898 37.8711 590.192 30.5467 586.778 25.4267C583.436 20.3067 578.174 17.7467 570.992 17.7467C563.809 17.7467 558.512 20.3067 555.098 25.4267C551.756 30.5467 550.085 37.8711 550.085 47.4C550.085 56.8578 551.756 64.1822 555.098 69.3733C558.512 74.4933 563.809 77.0533 570.992 77.0533Z" stroke="black" stroke-width="8" mask="url(#path-1-outside-1_18_3)"/>
<path d="M648.687 90.6C636.669 90.6 627.709 87.5067 621.807 81.32C615.976 75.0622 613.06 66.1378 613.06 54.5467V5.8H631.193V54.0133C631.193 60.84 632.473 66.1733 635.033 70.0133C637.664 73.8533 642.287 75.7733 648.9 75.7733C655.584 75.7733 660.207 73.8533 662.767 70.0133C665.327 66.1733 666.607 60.84 666.607 54.0133V5.8H684.313V54.5467C684.313 66.1378 681.398 75.0622 675.567 81.32C669.736 87.5067 660.776 90.6 648.687 90.6Z" stroke="black" stroke-width="8" mask="url(#path-1-outside-1_18_3)"/>
<path d="M702.513 89V88.36L727.58 5.8H755.633L780.807 88.36V89H762.46L742.3 19.6667H739.74L719.367 89H702.513ZM723.313 68.2L727.047 54.76H754.993L758.727 68.2H723.313Z" stroke="black" stroke-width="8" mask="url(#path-1-outside-1_18_3)"/>
<path d="M782.087 89V5.8H817.393C824.504 5.8 830.264 6.83112 834.673 8.89334C839.153 10.8845 842.424 13.6578 844.487 17.2133C846.62 20.6978 847.687 24.7511 847.687 29.3733C847.687 34.6356 846.3 39.1867 843.527 43.0267C840.753 46.8667 836.664 49.6045 831.26 51.24L849.927 88.36V89H830.94L813.98 53.8H799.793V89H782.087ZM799.793 40.7867H814.833C819.456 40.7867 823.047 40.0045 825.607 38.44C828.238 36.8756 829.553 34.0667 829.553 30.0133C829.553 25.8889 828.238 23.08 825.607 21.5867C822.976 20.0222 819.384 19.24 814.833 19.24H799.793V40.7867Z" stroke="black" stroke-width="8" mask="url(#path-1-outside-1_18_3)"/>
<path d="M852.282 89V5.8H909.028V19.88H869.988V38.2267H900.068V51.24H869.988V74.92H909.668V89H852.282Z" stroke="black" stroke-width="8" mask="url(#path-1-outside-1_18_3)"/>
<path d="M932.922 89V5.8H950.842V37.48H986.255V5.8H1004.18V89H986.255V51.9867H950.842V89H932.922Z" stroke="black" stroke-width="8" mask="url(#path-1-outside-1_18_3)"/>
<path d="M1012.74 89V5.8H1069.49V19.88H1030.45V38.2267H1060.53V51.24H1030.45V74.92H1070.13V89H1012.74Z" stroke="black" stroke-width="8" mask="url(#path-1-outside-1_18_3)"/>
<path d="M1075.44 89V5.8H1110.74C1117.85 5.8 1123.61 6.83112 1128.02 8.89334C1132.5 10.8845 1135.77 13.6578 1137.84 17.2133C1139.97 20.6978 1141.04 24.7511 1141.04 29.3733C1141.04 34.6356 1139.65 39.1867 1136.88 43.0267C1134.1 46.8667 1130.01 49.6045 1124.61 51.24L1143.28 88.36V89H1124.29L1107.33 53.8H1093.14V89H1075.44ZM1093.14 40.7867H1108.18C1112.81 40.7867 1116.4 40.0045 1118.96 38.44C1121.59 36.8756 1122.9 34.0667 1122.9 30.0133C1122.9 25.8889 1121.59 23.08 1118.96 21.5867C1116.33 20.0222 1112.73 19.24 1108.18 19.24H1093.14V40.7867Z" stroke="black" stroke-width="8" mask="url(#path-1-outside-1_18_3)"/>
<path d="M1145.63 89V5.8H1202.38V19.88H1163.34V38.2267H1193.42V51.24H1163.34V74.92H1203.02V89H1145.63Z" stroke="black" stroke-width="8" mask="url(#path-1-outside-1_18_3)"/>
</g>
<defs>
<filter id="filter0_d_18_3" x="0.106689" y="0.306671" width="1210.91" height="100.293" filterUnits="userSpaceOnUse" color-interpolation-filters="sRGB">
<feFlood flood-opacity="0" result="BackgroundImageFix"/>
<feColorMatrix in="SourceAlpha" type="matrix" values="0 0 0 0 0 0 0 0 0 0 0 0 0 0 0 0 0 0 127 0" result="hardAlpha"/>
<feOffset dx="4" dy="6"/>
<feComposite in2="hardAlpha" operator="out"/>
<feColorMatrix type="matrix" values="0 0 0 0 0 0 0 0 0 0 0 0 0 0 0 0 0 0 1 0"/>
<feBlend mode="normal" in2="BackgroundImageFix" result="effect1_dropShadow_18_3"/>
<feBlend mode="normal" in="SourceGraphic" in2="effect1_dropShadow_18_3" result="shape"/>
</filter>
</defs>
</svg>
