<svg width="559" height="101" viewBox="0 0 559 101" fill="none" xmlns="http://www.w3.org/2000/svg">
<g filter="url(#filter0_d_18_2)">
<mask id="path-1-outside-1_18_2" maskUnits="userSpaceOnUse" x="0.986694" y="0.200012" width="554" height="95" fill="black">
<rect fill="white" x="0.986694" y="0.200012" width="554" height="95"/>
<path d="M17.04 89L4.98669 6.44001V5.80001H22.48L32.4 74.92H34.96L46.9067 5.80001H76.56L88.6134 74.92H91.1734L100.987 5.80001H117.413V6.44001L105.36 89H74.4267L62.48 19.88H59.92L47.9734 89H17.04Z"/>
<path d="M120.802 89V5.80001H177.548V19.88H138.508V38.2267H168.588V51.24H138.508V74.92H178.188V89H120.802Z"/>
<path d="M183.497 89V5.80001H201.417V74.92H236.19V89H183.497Z"/>
<path d="M269.74 90.6C257.651 90.6 248.264 86.7956 241.58 79.1867C234.967 71.5778 231.66 60.9822 231.66 47.4C231.66 33.96 234.931 23.4 241.473 15.72C248.016 8.04001 257.402 4.20001 269.633 4.20001C276.958 4.20001 283.216 5.58668 288.407 8.36002C293.598 11.0622 297.651 14.8311 300.567 19.6667C303.482 24.5022 305.189 30.0489 305.687 36.3067H287.873C287.304 30.4756 285.42 25.9245 282.22 22.6533C279.02 19.3111 274.86 17.64 269.74 17.64C263.269 17.64 258.398 20.2356 255.127 25.4267C251.856 30.6178 250.22 37.9778 250.22 47.5067C250.22 57.3911 251.891 64.8222 255.233 69.8C258.647 74.7067 263.447 77.16 269.633 77.16C274.967 77.16 279.198 75.4534 282.327 72.04C285.527 68.6267 287.376 64.1111 287.873 58.4933H305.687C305.189 64.7511 303.482 70.2978 300.567 75.1333C297.651 79.9689 293.598 83.7734 288.407 86.5467C283.287 89.2489 277.064 90.6 269.74 90.6Z"/>
<path d="M343.447 90.4933C334.629 90.4933 327.269 88.7511 321.367 85.2667C315.536 81.7111 311.162 76.6978 308.247 70.2267C305.402 63.7556 303.98 56.1467 303.98 47.4C303.98 38.5822 305.402 30.9733 308.247 24.5733C311.162 18.1022 315.536 13.1245 321.367 9.64001C327.269 6.08446 334.629 4.30668 343.447 4.30668C352.336 4.30668 359.696 6.08446 365.527 9.64001C371.358 13.1245 375.696 18.1022 378.54 24.5733C381.456 30.9733 382.913 38.5822 382.913 47.4C382.913 56.1467 381.456 63.7556 378.54 70.2267C375.696 76.6978 371.358 81.7111 365.527 85.2667C359.696 88.7511 352.336 90.4933 343.447 90.4933ZM343.447 77.0533C350.629 77.0533 355.891 74.4934 359.233 69.3734C362.647 64.1822 364.353 56.8578 364.353 47.4C364.353 37.8711 362.647 30.5467 359.233 25.4267C355.891 20.3067 350.629 17.7467 343.447 17.7467C336.264 17.7467 330.967 20.3067 327.553 25.4267C324.211 30.5467 322.54 37.8711 322.54 47.4C322.54 56.8578 324.211 64.1822 327.553 69.3734C330.967 74.4934 336.264 77.0533 343.447 77.0533Z"/>
<path d="M386.582 89V5.80001H418.155L433.622 74.92H437.462L452.928 5.80001H484.502V89H467.862V20.52H465.088L449.942 89H420.288L405.142 20.52H402.368V89H386.582Z"/>
<path d="M493.027 89V5.80001H549.773V19.88H510.733V38.2267H540.813V51.24H510.733V74.92H550.413V89H493.027Z"/>
</mask>
<path d="M17.04 89L4.98669 6.44001V5.80001H22.48L32.4 74.92H34.96L46.9067 5.80001H76.56L88.6134 74.92H91.1734L100.987 5.80001H117.413V6.44001L105.36 89H74.4267L62.48 19.88H59.92L47.9734 89H17.04Z" fill="#00FFBF"/>
<path d="M120.802 89V5.80001H177.548V19.88H138.508V38.2267H168.588V51.24H138.508V74.92H178.188V89H120.802Z" fill="#00FFBF"/>
<path d="M183.497 89V5.80001H201.417V74.92H236.19V89H183.497Z" fill="#00FFBF"/>
<path d="M269.74 90.6C257.651 90.6 248.264 86.7956 241.58 79.1867C234.967 71.5778 231.66 60.9822 231.66 47.4C231.66 33.96 234.931 23.4 241.473 15.72C248.016 8.04001 257.402 4.20001 269.633 4.20001C276.958 4.20001 283.216 5.58668 288.407 8.36002C293.598 11.0622 297.651 14.8311 300.567 19.6667C303.482 24.5022 305.189 30.0489 305.687 36.3067H287.873C287.304 30.4756 285.42 25.9245 282.22 22.6533C279.02 19.3111 274.86 17.64 269.74 17.64C263.269 17.64 258.398 20.2356 255.127 25.4267C251.856 30.6178 250.22 37.9778 250.22 47.5067C250.22 57.3911 251.891 64.8222 255.233 69.8C258.647 74.7067 263.447 77.16 269.633 77.16C274.967 77.16 279.198 75.4534 282.327 72.04C285.527 68.6267 287.376 64.1111 287.873 58.4933H305.687C305.189 64.7511 303.482 70.2978 300.567 75.1333C297.651 79.9689 293.598 83.7734 288.407 86.5467C283.287 89.2489 277.064 90.6 269.74 90.6Z" fill="#00FFBF"/>
<path d="M343.447 90.4933C334.629 90.4933 327.269 88.7511 321.367 85.2667C315.536 81.7111 311.162 76.6978 308.247 70.2267C305.402 63.7556 303.98 56.1467 303.98 47.4C303.98 38.5822 305.402 30.9733 308.247 24.5733C311.162 18.1022 315.536 13.1245 321.367 9.64001C327.269 6.08446 334.629 4.30668 343.447 4.30668C352.336 4.30668 359.696 6.08446 365.527 9.64001C371.358 13.1245 375.696 18.1022 378.54 24.5733C381.456 30.9733 382.913 38.5822 382.913 47.4C382.913 56.1467 381.456 63.7556 378.54 70.2267C375.696 76.6978 371.358 81.7111 365.527 85.2667C359.696 88.7511 352.336 90.4933 343.447 90.4933ZM343.447 77.0533C350.629 77.0533 355.891 74.4934 359.233 69.3734C362.647 64.1822 364.353 56.8578 364.353 47.4C364.353 37.8711 362.647 30.5467 359.233 25.4267C355.891 20.3067 350.629 17.7467 343.447 17.7467C336.264 17.7467 330.967 20.3067 327.553 25.4267C324.211 30.5467 322.54 37.8711 322.54 47.4C322.54 56.8578 324.211 64.1822 327.553 69.3734C330.967 74.4934 336.264 77.0533 343.447 77.0533Z" fill="#00FFBF"/>
<path d="M386.582 89V5.80001H418.155L433.622 74.92H437.462L452.928 5.80001H484.502V89H467.862V20.52H465.088L449.942 89H420.288L405.142 20.52H402.368V89H386.582Z" fill="#00FFBF"/>
<path d="M493.027 89V5.80001H549.773V19.88H510.733V38.2267H540.813V51.24H510.733V74.92H550.413V89H493.027Z" fill="#00FFBF"/>
<path d="M17.04 89L4.98669 6.44001V5.80001H22.48L32.4 74.92H34.96L46.9067 5.80001H76.56L88.6134 74.92H91.1734L100.987 5.80001H117.413V6.44001L105.36 89H74.4267L62.48 19.88H59.92L47.9734 89H17.04Z" stroke="black" stroke-width="8" mask="url(#path-1-outside-1_18_2)"/>
<path d="M120.802 89V5.80001H177.548V19.88H138.508V38.2267H168.588V51.24H138.508V74.92H178.188V89H120.802Z" stroke="black" stroke-width="8" mask="url(#path-1-outside-1_18_2)"/>
<path d="M183.497 89V5.80001H201.417V74.92H236.19V89H183.497Z" stroke="black" stroke-width="8" mask="url(#path-1-outside-1_18_2)"/>
<path d="M269.74 90.6C257.651 90.6 248.264 86.7956 241.58 79.1867C234.967 71.5778 231.66 60.9822 231.66 47.4C231.66 33.96 234.931 23.4 241.473 15.72C248.016 8.04001 257.402 4.20001 269.633 4.20001C276.958 4.20001 283.216 5.58668 288.407 8.36002C293.598 11.0622 297.651 14.8311 300.567 19.6667C303.482 24.5022 305.189 30.0489 305.687 36.3067H287.873C287.304 30.4756 285.42 25.9245 282.22 22.6533C279.02 19.3111 274.86 17.64 269.74 17.64C263.269 17.64 258.398 20.2356 255.127 25.4267C251.856 30.6178 250.22 37.9778 250.22 47.5067C250.22 57.3911 251.891 64.8222 255.233 69.8C258.647 74.7067 263.447 77.16 269.633 77.16C274.967 77.16 279.198 75.4534 282.327 72.04C285.527 68.6267 287.376 64.1111 287.873 58.4933H305.687C305.189 64.7511 303.482 70.2978 300.567 75.1333C297.651 79.9689 293.598 83.7734 288.407 86.5467C283.287 89.2489 277.064 90.6 269.74 90.6Z" stroke="black" stroke-width="8" mask="url(#path-1-outside-1_18_2)"/>
<path d="M343.447 90.4933C334.629 90.4933 327.269 88.7511 321.367 85.2667C315.536 81.7111 311.162 76.6978 308.247 70.2267C305.402 63.7556 303.98 56.1467 303.98 47.4C303.98 38.5822 305.402 30.9733 308.247 24.5733C311.162 18.1022 315.536 13.1245 321.367 9.64001C327.269 6.08446 334.629 4.30668 343.447 4.30668C352.336 4.30668 359.696 6.08446 365.527 9.64001C371.358 13.1245 375.696 18.1022 378.54 24.5733C381.456 30.9733 382.913 38.5822 382.913 47.4C382.913 56.1467 381.456 63.7556 378.54 70.2267C375.696 76.6978 371.358 81.7111 365.527 85.2667C359.696 88.7511 352.336 90.4933 343.447 90.4933ZM343.447 77.0533C350.629 77.0533 355.891 74.4934 359.233 69.3734C362.647 64.1822 364.353 56.8578 364.353 47.4C364.353 37.8711 362.647 30.5467 359.233 25.4267C355.891 20.3067 350.629 17.7467 343.447 17.7467C336.264 17.7467 330.967 20.3067 327.553 25.4267C324.211 30.5467 322.54 37.8711 322.54 47.4C322.54 56.8578 324.211 64.1822 327.553 69.3734C330.967 74.4934 336.264 77.0533 343.447 77.0533Z" stroke="black" stroke-width="8" mask="url(#path-1-outside-1_18_2)"/>
<path d="M386.582 89V5.80001H418.155L433.622 74.92H437.462L452.928 5.80001H484.502V89H467.862V20.52H465.088L449.942 89H420.288L405.142 20.52H402.368V89H386.582Z" stroke="black" stroke-width="8" mask="url(#path-1-outside-1_18_2)"/>
<path d="M493.027 89V5.80001H549.773V19.88H510.733V38.2267H540.813V51.24H510.733V74.92H550.413V89H493.027Z" stroke="black" stroke-width="8" mask="url(#path-1-outside-1_18_2)"/>
</g>
<defs>
<filter id="filter0_d_18_2" x="0.986694" y="0.200012" width="557.427" height="100.4" filterUnits="userSpaceOnUse" color-interpolation-filters="sRGB">
<feFlood flood-opacity="0" result="BackgroundImageFix"/>
<feColorMatrix in="SourceAlpha" type="matrix" values="0 0 0 0 0 0 0 0 0 0 0 0 0 0 0 0 0 0 127 0" result="hardAlpha"/>
<feOffset dx="4" dy="6"/>
<feComposite in2="hardAlpha" operator="out"/>
<feColorMatrix type="matrix" values="0 0 0 0 0 0 0 0 0 0 0 0 0 0 0 0 0 0 1 0"/>
<feBlend mode="normal" in2="BackgroundImageFix" result="effect1_dropShadow_18_2"/>
<feBlend mode="normal" in="SourceGraphic" in2="effect1_dropShadow_18_2" result="shape"/>
</filter>
</defs>
</svg>
