<svg width="127" height="127" viewBox="0 0 127 127" fill="none" xmlns="http://www.w3.org/2000/svg">
<g filter="url(#filter0_d_18_114)">
<path d="M47.4405 53.7972C50.6486 58.4863 53.9575 63.1023 57.1169 67.825C51.3272 69.414 45.8043 71.0708 39.9397 72.5112C38.52 72.8598 36.686 72.9958 35.4973 73.9365C34.6912 74.5743 37.9038 76.1075 38.2582 76.3168C40.2983 77.5215 42.4207 78.3627 44.6722 79.0716C46.6278 79.6874 48.4921 79.5144 50.4889 79.8546C52.5344 80.2032 49.4542 81.7374 48.6707 82.377C47.7185 83.1542 46.9509 83.9475 46.0679 84.8056C44.2314 86.5902 42.5911 88.5386 40.8398 90.3995C38.3084 93.0895 35.2658 95.3921 32.5884 97.9474C30.941 99.5197 33.1817 98.4585 34.0465 98.1748C36.3246 97.4275 38.6059 96.7487 40.8725 95.9455C45.1707 94.4224 49.0161 92.5175 53.0329 90.285C55.5943 88.8614 58.5587 86.4628 61.4556 85.7159C61.6871 85.6562 62.0302 85.7937 62.2323 85.9008C62.8361 86.2208 63.2417 87.1527 63.6058 87.6971C64.7923 89.4706 65.7822 91.2527 66.7916 93.1271C66.9521 93.4252 69.0262 97.229 69.2639 95.8209C69.8238 92.5038 69.875 89.2216 69.7669 85.861C69.694 83.5949 69.5932 81.2695 69.8391 79.0076C69.9931 77.5916 70.5969 78.356 71.6728 78.6918C73.5332 79.2724 75.1844 80.4653 76.8508 81.4486C78.8719 82.641 80.9535 83.7246 83.0794 84.7226C85.6694 85.9384 88.2531 87.2814 90.9248 88.3071C93.7136 89.3776 96.3401 90.8613 99.1465 91.8632C101.261 92.6179 101.412 92.4236 100.302 90.764L94.2181 81.6704C92.7573 79.4868 91.3628 77.2352 89.7906 75.1292C88.5719 73.4966 87.0918 72.0923 85.8534 70.4768C85.4092 69.8974 81.4863 64.5835 82.2742 64.2275C84.7714 63.0989 88.5169 63.4411 91.1783 63.4605C93.5287 63.4777 95.888 64.0222 98.2299 63.6236C99.4843 63.41 100.821 63.1293 99.4239 62.1718C96.5754 60.2202 93.3783 58.7397 90.3678 57.0602C89.4001 56.5203 88.4533 55.955 87.4102 55.5675C87.1658 55.4767 86.3957 55.4093 86.2132 55.1653C85.895 54.7398 87.0439 52.7663 87.1438 52.4463C88.5247 48.0219 90.1928 43.8532 92.1147 39.635C93.1806 37.2955 94.6629 35.1468 95.5818 32.7445C95.6973 32.4426 96.8423 28.9483 95.3791 29.8213C93.9211 30.6911 92.6342 32.6035 91.5191 33.8126C87.8796 37.7591 84.0612 41.5343 80.4299 45.4928C78.8402 47.2258 77.3908 49.2312 75.2958 50.4053C74.3907 50.9126 71.3783 43.5046 71.1244 42.9882C68.6687 37.9925 66.108 33.4699 62.0394 29.6646C61.0765 28.764 60.6235 32.9348 60.7386 33.7311C61.3611 38.0396 62.9673 42.0487 63.7853 46.2998C64.0828 47.8463 64.5311 49.2243 65.1312 50.6751C65.4136 51.3579 65.9255 52.2493 65.9431 53.0189C65.9494 53.2949 64.6958 52.6788 64.5718 52.6131C62.8724 51.7127 61.1905 51.1616 59.5369 50.173C57.63 49.033 55.5686 48.2284 53.7006 46.9973C50.386 44.813 47.2116 42.3698 43.9879 40.0566C41.4068 38.2045 39.1751 35.9893 36.4915 34.2453C34.8251 33.1623 32.3376 31.0054 30.2548 30.8563C29.1781 30.7793 29.8299 32.0708 30.0909 32.461C32.4943 36.0536 35.8248 39.2016 38.7704 42.3269C42.0819 45.8405 44.7221 49.824 47.4405 53.7972Z" fill="#17D2FB" stroke="black" stroke-width="2" stroke-linecap="round"/>
</g>
<defs>
<filter id="filter0_d_18_114" x="0" y="0" width="130.378" height="130.09" filterUnits="userSpaceOnUse" color-interpolation-filters="sRGB">
<feFlood flood-opacity="0" result="BackgroundImageFix"/>
<feColorMatrix in="SourceAlpha" type="matrix" values="0 0 0 0 0 0 0 0 0 0 0 0 0 0 0 0 0 0 127 0" result="hardAlpha"/>
<feOffset dx="4" dy="4"/>
<feComposite in2="hardAlpha" operator="out"/>
<feColorMatrix type="matrix" values="0 0 0 0 0 0 0 0 0 0 0 0 0 0 0 0 0 0 1 0"/>
<feBlend mode="normal" in2="BackgroundImageFix" result="effect1_dropShadow_18_114"/>
<feBlend mode="normal" in="SourceGraphic" in2="effect1_dropShadow_18_114" result="shape"/>
</filter>
</defs>
</svg>
