<svg width="46" height="46" viewBox="0 0 46 46" fill="none" xmlns="http://www.w3.org/2000/svg">
<path d="M23 1.11361L27.2079 5.73208L27.5317 6.0875L27.9898 5.94161L33.9432 4.04583L35.2781 10.1495L35.3808 10.6192L35.8505 10.7219L41.9542 12.0568L40.0584 18.0102L39.9125 18.4683L40.2679 18.7921L44.8864 23L40.2679 27.2079L39.9125 27.5317L40.0584 27.9898L41.9542 33.9432L35.8505 35.2781L35.3808 35.3808L35.2781 35.8505L33.9432 41.9542L27.9898 40.0584L27.5317 39.9125L27.2079 40.2679L23 44.8864L18.7921 40.2679L18.4683 39.9125L18.0102 40.0584L12.0568 41.9542L10.7219 35.8505L10.6192 35.3808L10.1495 35.2781L4.04583 33.9432L5.94161 27.9898L6.0875 27.5317L5.73208 27.2079L1.11361 23L5.73208 18.7921L6.0875 18.4683L5.94161 18.0102L4.04583 12.0568L10.1495 10.7219L10.6192 10.6192L10.7219 10.1495L12.0568 4.04583L18.0102 5.94161L18.4683 6.0875L18.7921 5.73208L23 1.11361Z" fill="#7DF9FF" stroke="black" stroke-width="1.5"/>
</svg>
