<svg width="433" height="467" viewBox="0 0 433 467" fill="none" xmlns="http://www.w3.org/2000/svg">
<circle cx="50" cy="50" r="5" fill="black"/>
<circle cx="103" cy="50" r="5" fill="black"/>
<circle cx="103" cy="50" r="5" fill="black"/>
<circle cx="150" cy="50" r="5" fill="black"/>
<circle cx="200" cy="50" r="5" fill="black"/>
<circle cx="250" cy="50" r="5" fill="black"/>
<circle cx="300" cy="50" r="5" fill="black"/>
<circle cx="350" cy="50" r="5" fill="black"/>
<circle cx="400" cy="50" r="5" fill="black"/>
<circle cx="50" cy="100" r="5" fill="black"/>
<circle cx="103" cy="100" r="5" fill="black"/>
<circle cx="150" cy="100" r="5" fill="black"/>
<circle cx="200" cy="100" r="5" fill="black"/>
<circle cx="250" cy="100" r="5" fill="black"/>
<circle cx="300" cy="100" r="5" fill="black"/>
<circle cx="350" cy="100" r="5" fill="black"/>
<circle cx="400" cy="100" r="5" fill="black"/>
<circle cx="50" cy="250" r="5" fill="black"/>
<circle cx="103" cy="250" r="5" fill="black"/>
<circle cx="150" cy="250" r="5" fill="black"/>
<circle cx="200" cy="250" r="5" fill="black"/>
<circle cx="250" cy="250" r="5" fill="black"/>
<circle cx="300" cy="250" r="5" fill="black"/>
<circle cx="350" cy="250" r="5" fill="black"/>
<circle cx="400" cy="250" r="5" fill="black"/>
<circle cx="50" cy="150" r="5" fill="black"/>
<circle cx="103" cy="150" r="5" fill="black"/>
<circle cx="150" cy="150" r="5" fill="black"/>
<circle cx="200" cy="150" r="5" fill="black"/>
<circle cx="250" cy="150" r="5" fill="black"/>
<circle cx="300" cy="150" r="5" fill="black"/>
<circle cx="350" cy="150" r="5" fill="black"/>
<circle cx="400" cy="150" r="5" fill="black"/>
<circle cx="50" cy="300" r="5" fill="black"/>
<circle cx="103" cy="300" r="5" fill="black"/>
<circle cx="150" cy="300" r="5" fill="black"/>
<circle cx="200" cy="300" r="5" fill="black"/>
<circle cx="250" cy="300" r="5" fill="black"/>
<circle cx="300" cy="300" r="5" fill="black"/>
<circle cx="350" cy="300" r="5" fill="black"/>
<circle cx="400" cy="300" r="5" fill="black"/>
<circle cx="50" cy="200" r="5" fill="black"/>
<circle cx="103" cy="200" r="5" fill="black"/>
<circle cx="150" cy="200" r="5" fill="black"/>
<circle cx="200" cy="200" r="5" fill="black"/>
<circle cx="250" cy="200" r="5" fill="black"/>
<circle cx="300" cy="200" r="5" fill="black"/>
<circle cx="350" cy="200" r="5" fill="black"/>
<circle cx="400" cy="200" r="5" fill="black"/>
<circle cx="50" cy="350" r="5" fill="black"/>
<circle cx="103" cy="350" r="5" fill="black"/>
<circle cx="150" cy="350" r="5" fill="black"/>
<circle cx="200" cy="350" r="5" fill="black"/>
<circle cx="250" cy="350" r="5" fill="black"/>
<circle cx="300" cy="350" r="5" fill="black"/>
<circle cx="350" cy="350" r="5" fill="black"/>
<circle cx="400" cy="350" r="5" fill="black"/>
<circle cx="50" cy="400" r="5" fill="black"/>
<circle cx="103" cy="400" r="5" fill="black"/>
<circle cx="150" cy="400" r="5" fill="black"/>
<circle cx="200" cy="400" r="5" fill="black"/>
<circle cx="250" cy="400" r="5" fill="black"/>
<circle cx="300" cy="400" r="5" fill="black"/>
<circle cx="350" cy="400" r="5" fill="black"/>
<circle cx="400" cy="400" r="5" fill="black"/>
</svg>
