<svg width="712" height="132" viewBox="0 0 712 132" fill="none" xmlns="http://www.w3.org/2000/svg">
<path d="M39.552 131.84C28.928 131.84 19.712 128.896 11.776 123.008C3.84 117.12 0 110.208 0 102.4C0 100.096 2.048 97.28 6.4 93.952C10.624 90.624 15.232 87.936 20.224 85.632C25.088 83.328 28.672 82.304 30.976 82.304C33.024 82.432 34.688 83.2 35.968 84.48C37.248 85.76 37.76 87.552 37.504 89.856C37.12 92.416 36.864 94.464 36.736 96C36.48 97.536 36.352 99.456 36.352 102.016C36.224 104.576 36.352 106.624 36.608 108.16C36.864 109.696 37.376 111.488 38.144 113.408C38.912 115.456 39.808 116.992 41.088 118.016C42.368 119.04 44.032 119.936 46.08 120.704C48.128 121.472 50.56 121.856 53.376 121.856C58.368 121.856 62.72 120.192 66.432 116.864C70.144 113.536 72.064 109.44 72.064 104.576C72.064 98.688 69.888 93.824 65.536 90.24C61.184 86.656 55.424 83.712 48 81.408C43.648 80.128 40.064 78.976 37.248 77.952C34.432 77.056 31.232 75.904 27.648 74.368C23.936 72.832 20.992 71.424 18.688 69.888C16.384 68.48 14.08 66.688 11.52 64.512C8.96 62.464 7.04 60.16 5.632 57.728C4.224 55.424 3.072 52.608 2.176 49.408C1.28 46.208 0.896 42.752 0.896 38.912C0.896 28.16 4.736 19.072 12.544 11.392C20.352 3.84 29.696 0 40.448 0C43.52 0 48.256 0.896011 54.528 2.56001C60.672 4.35201 65.792 5.12001 69.888 5.12001C73.216 5.12001 76.288 4.35201 79.36 2.56001C82.304 0.896011 84.224 0 85.248 0C87.936 0 88.832 2.81601 88.064 8.32001C87.04 14.976 84.352 21.248 80 27.008C75.776 32.64 71.424 35.456 66.944 35.456C62.72 35.456 58.368 34.688 53.888 33.024C49.408 31.488 45.568 29.696 42.368 27.776C39.168 25.984 35.456 24.192 31.232 22.528C27.008 20.992 23.04 20.096 19.2 20.096C16.768 20.096 14.72 20.992 13.056 22.784C11.392 24.576 10.624 26.624 10.624 29.056C10.624 30.976 11.008 32.768 12.032 34.304C13.056 35.968 14.208 37.376 15.744 38.4C17.152 39.552 19.2 40.576 21.76 41.472C24.32 42.496 26.624 43.264 28.8 43.776C30.976 44.288 33.792 44.8 37.12 45.312C40.448 45.824 43.264 46.208 45.568 46.464C47.744 46.72 50.56 46.976 54.144 47.232C64.896 48.256 73.6 52.096 80.256 58.624C86.912 65.28 90.24 73.472 90.24 83.2C90.24 89.216 89.216 94.976 87.168 100.48C85.12 106.112 82.176 111.232 78.336 115.968C74.368 120.832 68.992 124.672 62.336 127.488C55.68 130.432 48 131.84 39.552 131.84Z" fill="black"/>
<path d="M100.126 17.024C100.126 13.184 99.742 10.112 98.974 7.80801C98.206 5.50401 96.798 3.58401 94.75 1.92001H132.894C135.326 1.92001 137.246 3.2 138.782 5.50401C140.318 7.80801 141.086 10.368 141.086 13.056C141.086 18.304 139.806 23.424 137.502 28.544C135.07 33.664 132.126 38.272 128.798 42.368C125.47 46.464 122.014 50.56 118.686 54.656C115.23 58.752 112.286 63.104 109.982 67.712C107.55 72.32 106.398 76.928 106.398 81.536C106.398 86.656 107.934 91.008 111.134 94.464C114.334 98.048 118.046 100.48 122.398 101.76C126.622 103.168 131.102 103.808 135.966 103.808C142.622 103.808 148.126 101.76 152.478 97.536C156.83 93.312 159.134 87.424 159.134 79.872V17.024C159.134 13.184 158.75 10.112 157.982 7.80801C157.214 5.50401 155.806 3.58401 153.758 1.92001H197.79C195.742 3.58401 194.334 5.50401 193.566 7.80801C192.798 10.112 192.414 13.184 192.414 17.024V82.688C192.414 90.24 191.39 97.024 189.342 102.912C187.294 108.8 184.606 113.536 181.534 117.12C178.334 120.704 174.622 123.52 170.398 125.824C166.046 128.128 161.95 129.792 158.11 130.56C154.142 131.456 150.174 131.84 146.078 131.84C141.982 131.84 137.886 131.456 134.046 130.56C130.078 129.792 125.982 128.128 121.886 125.824C117.662 123.52 113.95 120.704 110.878 117.12C107.678 113.536 105.118 108.8 103.07 102.912C101.022 97.024 100.126 90.24 100.126 82.688V17.024Z" fill="black"/>
<path d="M204.855 17.024C204.855 9.98401 203.319 4.992 200.375 1.92001H255.415C267.063 1.92001 276.023 5.12001 282.295 11.264C288.439 17.408 291.639 24.96 291.639 33.664C291.639 41.856 288.439 49.28 282.039 55.936C275.639 62.592 266.935 65.92 256.055 65.92C250.679 65.92 243.895 65.024 235.831 63.232C227.639 61.44 222.775 60.416 220.983 60.416C218.935 60.416 218.039 61.184 218.039 62.464C218.039 63.104 218.295 63.616 218.807 64.128C219.319 64.64 220.087 65.024 221.111 65.408C222.135 65.92 223.287 66.304 224.567 66.56C225.719 66.944 227.255 67.328 229.047 67.584C230.839 67.84 232.375 68.096 233.911 68.352C235.447 68.608 237.239 68.736 239.415 68.992C241.591 69.248 243.383 69.376 244.791 69.504C246.199 69.632 247.991 69.76 250.295 70.016C252.471 70.272 254.135 70.4 255.159 70.4C280.247 72.96 292.919 83.456 292.919 102.016C292.919 109.696 289.847 116.224 283.831 121.728C277.687 127.232 270.391 129.92 261.687 129.92H200.375C203.319 126.976 204.855 121.984 204.855 114.816V17.024ZM246.071 27.52C237.111 27.52 229.047 29.312 222.135 32.768C215.095 36.352 211.639 40.576 211.639 45.568C211.639 48.384 212.919 50.688 215.479 52.224C218.039 53.888 221.111 54.656 224.823 54.656C235.063 54.656 243.383 52.864 249.783 49.024C256.183 45.312 259.511 41.344 259.511 36.992C259.511 34.432 258.231 32.128 255.927 30.336C253.495 28.544 250.167 27.52 246.071 27.52ZM213.303 70.4C212.279 70.4 211.767 70.912 211.767 71.808C211.767 72.32 211.895 72.832 212.279 73.6C212.663 74.368 213.175 75.136 213.943 76.16C214.711 77.184 215.351 77.952 215.991 78.72C216.631 79.488 217.527 80.512 218.551 81.664C219.575 82.944 220.343 83.712 220.855 84.224C223.415 87.296 225.463 89.6 226.871 91.136C228.279 92.672 230.455 94.72 233.271 97.28C236.087 99.84 238.903 101.76 241.719 102.912C244.535 104.192 247.351 104.704 250.295 104.704C253.751 104.704 256.311 103.808 257.975 101.888C259.639 100.096 260.535 97.92 260.535 95.616C260.535 88.32 252.087 82.048 235.319 76.8C232.503 76.032 229.687 75.136 226.615 74.112C223.543 73.088 221.367 72.448 220.087 71.936C218.807 71.552 217.527 71.168 216.247 70.912C214.967 70.656 214.071 70.4 213.303 70.4Z" fill="black"/>
<path d="M290.345 129.92C291.881 128.64 293.417 126.464 294.953 123.52C296.489 120.576 297.513 118.016 298.281 115.84C298.921 113.664 300.073 110.08 301.609 105.088C306.473 88.96 310.185 74.752 312.873 62.592C315.561 50.56 318.761 34.56 322.345 14.848C323.369 9.08801 322.345 4.73601 319.529 1.92001H376.233C373.289 4.73601 372.393 9.08801 373.417 14.848C374.871 22.8462 376.241 30.2332 377.535 36.992C379.431 46.8908 381.164 55.442 382.761 62.592C385.449 74.752 389.289 88.96 394.153 105.088C395.689 110.08 396.713 113.664 397.481 115.84C398.121 118.016 399.145 120.576 400.681 123.52C402.217 126.464 403.753 128.64 405.417 129.92H352.553C355.625 126.464 357.161 121.856 357.161 115.968C357.161 111.104 355.753 100.608 352.937 84.48H334.121C336.041 89.216 337.449 92.928 338.473 95.488C339.497 98.176 340.393 101.504 341.417 105.472C342.441 109.44 342.953 113.024 342.953 116.352C342.953 120.064 342.185 123.264 340.777 125.952C339.369 128.64 336.937 129.92 333.609 129.92H290.345ZM331.689 78.72H351.785C345.129 44.288 338.729 27.008 332.713 27.008C326.825 27.008 323.881 33.664 323.881 46.848C323.881 55.296 326.441 65.92 331.689 78.72Z" fill="black"/>
<path d="M405.47 129.92C407.006 128.64 408.542 126.464 410.078 123.52C411.614 120.576 412.638 118.016 413.406 115.84C414.046 113.664 415.198 110.08 416.734 105.088C421.598 88.96 425.31 74.752 427.998 62.592C430.686 50.56 433.886 34.56 437.47 14.848C438.494 9.08801 437.47 4.73601 434.654 1.92001H491.358C488.414 4.73601 487.518 9.08801 488.542 14.848C492.126 34.56 495.198 50.56 497.886 62.592C500.574 74.752 504.414 88.96 509.278 105.088C510.814 110.08 511.838 113.664 512.606 115.84C513.246 118.016 514.27 120.576 515.806 123.52C517.342 126.464 518.878 128.64 520.542 129.92H467.678C470.75 126.464 472.286 121.856 472.286 115.968C472.286 111.104 470.878 100.608 468.062 84.48H449.246C451.166 89.216 452.574 92.928 453.598 95.488C454.622 98.176 455.518 101.504 456.542 105.472C457.566 109.44 458.078 113.024 458.078 116.352C458.078 120.064 457.31 123.264 455.902 125.952C454.494 128.64 452.062 129.92 448.734 129.92H405.47ZM446.814 78.72H466.91C460.254 44.288 453.854 27.008 447.838 27.008C441.95 27.008 439.006 33.664 439.006 46.848C439.006 55.296 441.566 65.92 446.814 78.72Z" fill="black"/>
<path d="M557.552 131.84C546.928 131.84 537.712 128.896 529.776 123.008C521.84 117.12 518 110.208 518 102.4C518 100.096 520.048 97.28 524.4 93.952C528.624 90.624 533.232 87.936 538.224 85.632C543.088 83.328 546.672 82.304 548.976 82.304C551.024 82.432 552.688 83.2 553.968 84.48C555.248 85.76 555.76 87.552 555.504 89.856C555.12 92.416 554.864 94.464 554.736 96C554.48 97.536 554.352 99.456 554.352 102.016C554.224 104.576 554.352 106.624 554.608 108.16C554.864 109.696 555.376 111.488 556.144 113.408C556.912 115.456 557.808 116.992 559.088 118.016C560.368 119.04 562.032 119.936 564.08 120.704C566.128 121.472 568.56 121.856 571.376 121.856C576.368 121.856 580.72 120.192 584.432 116.864C588.144 113.536 590.064 109.44 590.064 104.576C590.064 98.688 587.888 93.824 583.536 90.24C579.184 86.656 573.424 83.712 566 81.408C561.648 80.128 558.064 78.976 555.248 77.952C552.432 77.056 549.232 75.904 545.648 74.368C541.936 72.832 538.992 71.424 536.688 69.888C534.384 68.48 532.08 66.688 529.52 64.512C526.96 62.464 525.04 60.16 523.632 57.728C522.224 55.424 521.072 52.608 520.176 49.408C519.28 46.208 518.896 42.752 518.896 38.912C518.896 28.16 522.736 19.072 530.544 11.392C538.352 3.84 547.696 0 558.448 0C561.52 0 566.256 0.896011 572.528 2.56001C578.672 4.35201 583.792 5.12001 587.888 5.12001C591.216 5.12001 594.288 4.35201 597.36 2.56001C600.304 0.896011 602.224 0 603.248 0C605.936 0 606.832 2.81601 606.064 8.32001C605.04 14.976 602.352 21.248 598 27.008C593.776 32.64 589.424 35.456 584.944 35.456C580.72 35.456 576.368 34.688 571.888 33.024C567.408 31.488 563.568 29.696 560.368 27.776C557.168 25.984 553.456 24.192 549.232 22.528C545.008 20.992 541.04 20.096 537.2 20.096C534.768 20.096 532.72 20.992 531.056 22.784C529.392 24.576 528.624 26.624 528.624 29.056C528.624 30.976 529.008 32.768 530.032 34.304C531.056 35.968 532.208 37.376 533.744 38.4C535.152 39.552 537.2 40.576 539.76 41.472C542.32 42.496 544.624 43.264 546.8 43.776C548.976 44.288 551.792 44.8 555.12 45.312C558.448 45.824 561.264 46.208 563.568 46.464C565.744 46.72 568.56 46.976 572.144 47.232C582.896 48.256 591.6 52.096 598.256 58.624C604.912 65.28 608.24 73.472 608.24 83.2C608.24 89.216 607.216 94.976 605.168 100.48C603.12 106.112 600.176 111.232 596.336 115.968C592.368 120.832 586.992 124.672 580.336 127.488C573.68 130.432 566 131.84 557.552 131.84Z" fill="black"/>
<path d="M642.958 129.92H612.75C615.694 126.976 617.23 121.984 617.23 114.816V17.024C617.23 9.98401 615.694 4.992 612.75 1.92001H646.67C648.206 1.92001 649.742 2.94401 651.278 4.992C652.686 7.04001 653.454 9.08801 653.454 11.264C653.454 15.616 652.43 19.2 650.382 22.272C648.334 25.344 645.774 27.648 642.83 29.184C639.886 30.72 636.942 32.128 634.126 33.408C631.182 34.688 628.75 36.096 626.702 37.76C624.654 39.424 623.63 41.344 623.63 43.648C623.63 44.416 623.758 44.928 624.27 45.44C624.782 45.952 625.294 46.208 626.062 46.208C627.086 46.208 629.006 45.568 631.566 44.032C634.126 42.624 638.094 41.216 643.214 39.68C648.334 38.144 654.478 37.376 661.774 37.376C668.942 37.376 675.086 38.144 680.334 39.68C685.582 41.216 689.55 42.624 692.366 44.032C695.054 45.568 696.974 46.208 698.126 46.208C698.766 46.208 699.278 45.952 699.79 45.44C700.302 44.928 700.558 44.416 700.558 43.648C700.558 41.344 699.534 39.424 697.486 37.76C695.438 36.096 692.878 34.688 689.934 33.408C686.99 32.128 684.046 30.72 681.23 29.184C678.286 27.648 675.854 25.344 673.806 22.272C671.758 19.2 670.734 15.616 670.734 11.264C670.734 9.08801 671.374 7.04001 672.91 4.992C674.318 2.94401 675.854 1.92001 677.518 1.92001H711.438C708.366 4.992 706.958 9.98401 706.958 17.024V114.816C706.958 121.984 708.366 126.976 711.438 129.92H681.23C676.494 129.92 673.038 128.896 670.99 126.592C668.942 124.288 667.918 121.6 667.918 118.528C667.918 113.92 668.942 109.312 671.246 104.576C673.55 99.968 676.238 95.744 679.438 91.904C682.51 88.064 685.71 84.48 688.91 81.024C692.11 77.696 694.798 74.368 697.102 71.04C699.406 67.84 700.558 65.024 700.558 62.592C700.558 61.184 699.918 60.416 698.638 60.416C697.87 60.416 696.59 61.056 694.798 62.08C693.006 63.232 690.958 64.384 688.782 65.664C686.478 66.944 682.894 68.224 678.03 69.248C673.166 70.4 667.534 70.912 661.262 70.912C654.862 70.912 649.358 70.4 644.622 69.248C639.886 68.224 636.558 66.944 634.51 65.664C632.462 64.384 630.67 63.232 629.134 62.08C627.47 61.056 626.318 60.416 625.55 60.416C624.27 60.416 623.63 61.184 623.63 62.592C623.63 65.024 624.654 67.84 626.958 71.04C629.262 74.368 631.95 77.696 635.15 81.024C638.222 84.48 641.422 88.064 644.622 91.904C647.822 95.744 650.51 99.968 652.814 104.576C655.118 109.312 656.27 113.92 656.27 118.528C656.27 121.6 655.118 124.288 653.07 126.592C651.022 128.896 647.566 129.92 642.958 129.92Z" fill="black"/>
</svg>
