<svg width="727" height="141" viewBox="0 0 727 141" fill="none" xmlns="http://www.w3.org/2000/svg">
<path d="M39.552 132.84C28.928 132.84 19.712 129.896 11.776 124.008C3.84 118.12 0 111.208 0 103.4C0 101.096 2.048 98.28 6.4 94.952C10.624 91.624 15.232 88.936 20.224 86.632C25.088 84.328 28.672 83.304 30.976 83.304C33.024 83.432 34.688 84.2 35.968 85.48C37.248 86.76 37.76 88.552 37.504 90.856C37.12 93.416 36.864 95.464 36.736 97C36.48 98.536 36.352 100.456 36.352 103.016C36.224 105.576 36.352 107.624 36.608 109.16C36.864 110.696 37.376 112.488 38.144 114.408C38.912 116.456 39.808 117.992 41.088 119.016C42.368 120.04 44.032 120.936 46.08 121.704C48.128 122.472 50.56 122.856 53.376 122.856C58.368 122.856 62.72 121.192 66.432 117.864C70.144 114.536 72.064 110.44 72.064 105.576C72.064 99.688 69.888 94.824 65.536 91.24C61.184 87.656 55.424 84.712 48 82.408C43.648 81.128 40.064 79.976 37.248 78.952C34.432 78.056 31.232 76.904 27.648 75.368C23.936 73.832 20.992 72.424 18.688 70.888C16.384 69.48 14.08 67.688 11.52 65.512C8.96 63.464 7.04 61.16 5.632 58.728C4.224 56.424 3.072 53.608 2.176 50.408C1.28 47.208 0.896 43.752 0.896 39.912C0.896 29.16 4.736 20.072 12.544 12.392C20.352 4.84 29.696 1 40.448 1C43.52 1 48.256 1.89601 54.528 3.56001C60.672 5.35201 65.792 6.12001 69.888 6.12001C73.216 6.12001 76.288 5.35201 79.36 3.56001C82.304 1.89601 84.224 1 85.248 1C87.936 1 88.832 3.81601 88.064 9.32001C87.04 15.976 84.352 22.248 80 28.008C75.776 33.64 71.424 36.456 66.944 36.456C62.72 36.456 58.368 35.688 53.888 34.024C49.408 32.488 45.568 30.696 42.368 28.776C39.168 26.984 35.456 25.192 31.232 23.528C27.008 21.992 23.04 21.096 19.2 21.096C16.768 21.096 14.72 21.992 13.056 23.784C11.392 25.576 10.624 27.624 10.624 30.056C10.624 31.976 11.008 33.768 12.032 35.304C13.056 36.968 14.208 38.376 15.744 39.4C17.152 40.552 19.2 41.576 21.76 42.472C24.32 43.496 26.624 44.264 28.8 44.776C30.976 45.288 33.792 45.8 37.12 46.312C40.448 46.824 43.264 47.208 45.568 47.464C47.744 47.72 50.56 47.976 54.144 48.232C64.896 49.256 73.6 53.096 80.256 59.624C86.912 66.28 90.24 74.472 90.24 84.2C90.24 90.216 89.216 95.976 87.168 101.48C85.12 107.112 82.176 112.232 78.336 116.968C74.368 121.832 68.992 125.672 62.336 128.488C55.68 131.432 48 132.84 39.552 132.84Z" fill="black"/>
<path d="M100.126 18.024C100.126 14.184 99.742 11.112 98.974 8.80801C98.206 6.50401 96.798 4.58401 94.75 2.92001H132.894C135.326 2.92001 137.246 4.2 138.782 6.50401C140.318 8.80801 141.086 11.368 141.086 14.056C141.086 19.304 139.806 24.424 137.502 29.544C135.07 34.664 132.126 39.272 128.798 43.368C125.47 47.464 122.014 51.56 118.686 55.656C115.23 59.752 112.286 64.104 109.982 68.712C107.55 73.32 106.398 77.928 106.398 82.536C106.398 87.656 107.934 92.008 111.134 95.464C114.334 99.048 118.046 101.48 122.398 102.76C126.622 104.168 131.102 104.808 135.966 104.808C142.622 104.808 148.126 102.76 152.478 98.536C156.83 94.312 159.134 88.424 159.134 80.872V18.024C159.134 14.184 158.75 11.112 157.982 8.80801C157.214 6.50401 155.806 4.58401 153.758 2.92001H197.79C195.742 4.58401 194.334 6.50401 193.566 8.80801C192.798 11.112 192.414 14.184 192.414 18.024V83.688C192.414 91.24 191.39 98.024 189.342 103.912C187.294 109.8 184.606 114.536 181.534 118.12C178.334 121.704 174.622 124.52 170.398 126.824C166.046 129.128 161.95 130.792 158.11 131.56C154.142 132.456 150.174 132.84 146.078 132.84C141.982 132.84 137.886 132.456 134.046 131.56C130.078 130.792 125.982 129.128 121.886 126.824C117.662 124.52 113.95 121.704 110.878 118.12C107.678 114.536 105.118 109.8 103.07 103.912C101.022 98.024 100.126 91.24 100.126 83.688V18.024Z" fill="black"/>
<path d="M204.855 18.024C204.855 10.984 203.319 5.992 200.375 2.92001H255.415C267.063 2.92001 276.023 6.12001 282.295 12.264C288.439 18.408 291.639 25.96 291.639 34.664C291.639 42.856 288.439 50.28 282.039 56.936C275.639 63.592 266.935 66.92 256.055 66.92C250.679 66.92 243.895 66.024 235.831 64.232C227.639 62.44 222.775 61.416 220.983 61.416C218.935 61.416 218.039 62.184 218.039 63.464C218.039 64.104 218.295 64.616 218.807 65.128C219.319 65.64 220.087 66.024 221.111 66.408C222.135 66.92 223.287 67.304 224.567 67.56C225.719 67.944 227.255 68.328 229.047 68.584C230.839 68.84 232.375 69.096 233.911 69.352C235.447 69.608 237.239 69.736 239.415 69.992C241.591 70.248 243.383 70.376 244.791 70.504C246.199 70.632 247.991 70.76 250.295 71.016C252.471 71.272 254.135 71.4 255.159 71.4C280.247 73.96 292.919 84.456 292.919 103.016C292.919 110.696 289.847 117.224 283.831 122.728C277.687 128.232 270.391 130.92 261.687 130.92H200.375C203.319 127.976 204.855 122.984 204.855 115.816V18.024ZM246.071 28.52C237.111 28.52 229.047 30.312 222.135 33.768C215.095 37.352 211.639 41.576 211.639 46.568C211.639 49.384 212.919 51.688 215.479 53.224C218.039 54.888 221.111 55.656 224.823 55.656C235.063 55.656 243.383 53.864 249.783 50.024C256.183 46.312 259.511 42.344 259.511 37.992C259.511 35.432 258.231 33.128 255.927 31.336C253.495 29.544 250.167 28.52 246.071 28.52ZM213.303 71.4C212.279 71.4 211.767 71.912 211.767 72.808C211.767 73.32 211.895 73.832 212.279 74.6C212.663 75.368 213.175 76.136 213.943 77.16C214.711 78.184 215.351 78.952 215.991 79.72C216.631 80.488 217.527 81.512 218.551 82.664C219.575 83.944 220.343 84.712 220.855 85.224C223.415 88.296 225.463 90.6 226.871 92.136C228.279 93.672 230.455 95.72 233.271 98.28C236.087 100.84 238.903 102.76 241.719 103.912C244.535 105.192 247.351 105.704 250.295 105.704C253.751 105.704 256.311 104.808 257.975 102.888C259.639 101.096 260.535 98.92 260.535 96.616C260.535 89.32 252.087 83.048 235.319 77.8C232.503 77.032 229.687 76.136 226.615 75.112C223.543 74.088 221.367 73.448 220.087 72.936C218.807 72.552 217.527 72.168 216.247 71.912C214.967 71.656 214.071 71.4 213.303 71.4Z" fill="black"/>
<path d="M290.345 130.92C291.881 129.64 293.417 127.464 294.953 124.52C296.489 121.576 297.513 119.016 298.281 116.84C298.921 114.664 300.073 111.08 301.609 106.088C306.473 89.96 310.185 75.752 312.873 63.592C315.561 51.56 318.761 35.56 322.345 15.848C323.369 10.088 322.345 5.73601 319.529 2.92001H376.233C373.289 5.73601 372.393 10.088 373.417 15.848C377.001 35.56 380.073 51.56 382.761 63.592C385.449 75.752 389.289 89.96 394.153 106.088C395.689 111.08 396.713 114.664 397.481 116.84C398.121 119.016 399.145 121.576 400.681 124.52C402.217 127.464 403.753 129.64 405.417 130.92H352.553C355.625 127.464 357.161 122.856 357.161 116.968C357.161 112.104 355.753 101.608 352.937 85.48H334.121C336.041 90.216 337.449 93.928 338.473 96.488C339.497 99.176 340.393 102.504 341.417 106.472C342.441 110.44 342.953 114.024 342.953 117.352C342.953 121.064 342.185 124.264 340.777 126.952C339.369 129.64 336.937 130.92 333.609 130.92H290.345ZM331.689 79.72H351.785C345.129 45.288 338.729 28.008 332.713 28.008C326.825 28.008 323.881 34.664 323.881 47.848C323.881 56.296 326.441 66.92 331.689 79.72Z" fill="black"/>
<path d="M405.47 130.92C407.006 129.64 408.542 127.464 410.078 124.52C411.614 121.576 412.638 119.016 413.406 116.84C414.046 114.664 415.198 111.08 416.734 106.088C421.598 89.96 425.31 75.752 427.998 63.592C430.686 51.56 433.886 35.56 437.47 15.848C438.494 10.088 437.47 5.73601 434.654 2.92001H491.358C488.414 5.73601 487.518 10.088 488.542 15.848C492.126 35.56 495.198 51.56 497.886 63.592C500.574 75.752 504.414 89.96 509.278 106.088C510.814 111.08 511.838 114.664 512.606 116.84C513.246 119.016 514.27 121.576 515.806 124.52C517.342 127.464 518.878 129.64 520.542 130.92H467.678C470.75 127.464 472.286 122.856 472.286 116.968C472.286 112.104 470.878 101.608 468.062 85.48H449.246C451.166 90.216 452.574 93.928 453.598 96.488C454.622 99.176 455.518 102.504 456.542 106.472C457.566 110.44 458.078 114.024 458.078 117.352C458.078 121.064 457.31 124.264 455.902 126.952C454.494 129.64 452.062 130.92 448.734 130.92H405.47ZM446.814 79.72H466.91C460.254 45.288 453.854 28.008 447.838 28.008C441.95 28.008 439.006 34.664 439.006 47.848C439.006 56.296 441.566 66.92 446.814 79.72Z" fill="black"/>
<path d="M557.552 132.84C546.928 132.84 537.712 129.896 529.776 124.008C521.84 118.12 518 111.208 518 103.4C518 101.096 520.048 98.28 524.4 94.952C528.624 91.624 533.232 88.936 538.224 86.632C543.088 84.328 546.672 83.304 548.976 83.304C551.024 83.432 552.688 84.2 553.968 85.48C555.248 86.76 555.76 88.552 555.504 90.856C555.12 93.416 554.864 95.464 554.736 97C554.48 98.536 554.352 100.456 554.352 103.016C554.224 105.576 554.352 107.624 554.608 109.16C554.864 110.696 555.376 112.488 556.144 114.408C556.912 116.456 557.808 117.992 559.088 119.016C560.368 120.04 562.032 120.936 564.08 121.704C566.128 122.472 568.56 122.856 571.376 122.856C576.368 122.856 580.72 121.192 584.432 117.864C588.144 114.536 590.064 110.44 590.064 105.576C590.064 99.688 587.888 94.824 583.536 91.24C579.184 87.656 573.424 84.712 566 82.408C561.648 81.128 558.064 79.976 555.248 78.952C552.432 78.056 549.232 76.904 545.648 75.368C541.936 73.832 538.992 72.424 536.688 70.888C534.384 69.48 532.08 67.688 529.52 65.512C526.96 63.464 525.04 61.16 523.632 58.728C522.224 56.424 521.072 53.608 520.176 50.408C519.28 47.208 518.896 43.752 518.896 39.912C518.896 29.16 522.736 20.072 530.544 12.392C538.352 4.84 547.696 1 558.448 1C561.52 1 566.256 1.89601 572.528 3.56001C578.672 5.35201 583.792 6.12001 587.888 6.12001C591.216 6.12001 594.288 5.35201 597.36 3.56001C600.304 1.89601 602.224 1 603.248 1C605.936 1 606.832 3.81601 606.064 9.32001C605.04 15.976 602.352 22.248 598 28.008C593.776 33.64 589.424 36.456 584.944 36.456C580.72 36.456 576.368 35.688 571.888 34.024C567.408 32.488 563.568 30.696 560.368 28.776C557.168 26.984 553.456 25.192 549.232 23.528C545.008 21.992 541.04 21.096 537.2 21.096C534.768 21.096 532.72 21.992 531.056 23.784C529.392 25.576 528.624 27.624 528.624 30.056C528.624 31.976 529.008 33.768 530.032 35.304C531.056 36.968 532.208 38.376 533.744 39.4C535.152 40.552 537.2 41.576 539.76 42.472C542.32 43.496 544.624 44.264 546.8 44.776C548.976 45.288 551.792 45.8 555.12 46.312C558.448 46.824 561.264 47.208 563.568 47.464C565.744 47.72 568.56 47.976 572.144 48.232C582.896 49.256 591.6 53.096 598.256 59.624C604.912 66.28 608.24 74.472 608.24 84.2C608.24 90.216 607.216 95.976 605.168 101.48C603.12 107.112 600.176 112.232 596.336 116.968C592.368 121.832 586.992 125.672 580.336 128.488C573.68 131.432 566 132.84 557.552 132.84Z" fill="black"/>
<path d="M642.958 130.92H612.75C615.694 127.976 617.23 122.984 617.23 115.816V18.024C617.23 10.984 615.694 5.992 612.75 2.92001H646.67C648.206 2.92001 649.742 3.94401 651.278 5.992C652.686 8.04001 653.454 10.088 653.454 12.264C653.454 16.616 652.43 20.2 650.382 23.272C648.334 26.344 645.774 28.648 642.83 30.184C639.886 31.72 636.942 33.128 634.126 34.408C631.182 35.688 628.75 37.096 626.702 38.76C624.654 40.424 623.63 42.344 623.63 44.648C623.63 45.416 623.758 45.928 624.27 46.44C624.782 46.952 625.294 47.208 626.062 47.208C627.086 47.208 629.006 46.568 631.566 45.032C634.126 43.624 638.094 42.216 643.214 40.68C648.334 39.144 654.478 38.376 661.774 38.376C668.942 38.376 675.086 39.144 680.334 40.68C685.582 42.216 689.55 43.624 692.366 45.032C695.054 46.568 696.974 47.208 698.126 47.208C698.766 47.208 699.278 46.952 699.79 46.44C700.302 45.928 700.558 45.416 700.558 44.648C700.558 42.344 699.534 40.424 697.486 38.76C695.438 37.096 692.878 35.688 689.934 34.408C686.99 33.128 684.046 31.72 681.23 30.184C678.286 28.648 675.854 26.344 673.806 23.272C671.758 20.2 670.734 16.616 670.734 12.264C670.734 10.088 671.374 8.04001 672.91 5.992C674.318 3.94401 675.854 2.92001 677.518 2.92001H711.438C708.366 5.992 706.958 10.984 706.958 18.024V115.816C706.958 122.984 708.366 127.976 711.438 130.92H681.23C676.494 130.92 673.038 129.896 670.99 127.592C668.942 125.288 667.918 122.6 667.918 119.528C667.918 114.92 668.942 110.312 671.246 105.576C673.55 100.968 676.238 96.744 679.438 92.904C682.51 89.064 685.71 85.48 688.91 82.024C692.11 78.696 694.798 75.368 697.102 72.04C699.406 68.84 700.558 66.024 700.558 63.592C700.558 62.184 699.918 61.416 698.638 61.416C697.87 61.416 696.59 62.056 694.798 63.08C693.006 64.232 690.958 65.384 688.782 66.664C686.478 67.944 682.894 69.224 678.03 70.248C673.166 71.4 667.534 71.912 661.262 71.912C654.862 71.912 649.358 71.4 644.622 70.248C639.886 69.224 636.558 67.944 634.51 66.664C632.462 65.384 630.67 64.232 629.134 63.08C627.47 62.056 626.318 61.416 625.55 61.416C624.27 61.416 623.63 62.184 623.63 63.592C623.63 66.024 624.654 68.84 626.958 72.04C629.262 75.368 631.95 78.696 635.15 82.024C638.222 85.48 641.422 89.064 644.622 92.904C647.822 96.744 650.51 100.968 652.814 105.576C655.118 110.312 656.27 114.92 656.27 119.528C656.27 122.6 655.118 125.288 653.07 127.592C651.022 129.896 647.566 130.92 642.958 130.92Z" fill="black"/>
<mask id="path-2-outside-1_13_11" maskUnits="userSpaceOnUse" x="0.720001" y="0.920013" width="726" height="140" fill="black">
<rect fill="white" x="0.720001" y="0.920013" width="726" height="140"/>
<path d="M44.272 136.76C33.648 136.76 24.432 133.816 16.496 127.928C8.56 122.04 4.72 115.128 4.72 107.32C4.72 105.016 6.768 102.2 11.12 98.872C15.344 95.544 19.952 92.856 24.944 90.552C29.808 88.248 33.392 87.224 35.696 87.224C37.744 87.352 39.408 88.12 40.688 89.4C41.968 90.68 42.48 92.472 42.224 94.776C41.84 97.336 41.584 99.384 41.456 100.92C41.2 102.456 41.072 104.376 41.072 106.936C40.944 109.496 41.072 111.544 41.328 113.08C41.584 114.616 42.096 116.408 42.864 118.328C43.632 120.376 44.528 121.912 45.808 122.936C47.088 123.96 48.752 124.856 50.8 125.624C52.848 126.392 55.28 126.776 58.096 126.776C63.088 126.776 67.44 125.112 71.152 121.784C74.864 118.456 76.784 114.36 76.784 109.496C76.784 103.608 74.608 98.744 70.256 95.16C65.904 91.576 60.144 88.632 52.72 86.328C48.368 85.048 44.784 83.896 41.968 82.872C39.152 81.976 35.952 80.824 32.368 79.288C28.656 77.752 25.712 76.344 23.408 74.808C21.104 73.4 18.8 71.608 16.24 69.432C13.68 67.384 11.76 65.08 10.352 62.648C8.944 60.344 7.792 57.528 6.896 54.328C6 51.128 5.616 47.672 5.616 43.832C5.616 33.08 9.456 23.992 17.264 16.312C25.072 8.76002 34.416 4.92001 45.168 4.92001C48.24 4.92001 52.976 5.81602 59.248 7.48002C65.392 9.27202 70.512 10.04 74.608 10.04C77.936 10.04 81.008 9.27202 84.08 7.48002C87.024 5.81602 88.944 4.92001 89.968 4.92001C92.656 4.92001 93.552 7.73602 92.784 13.24C91.76 19.896 89.072 26.168 84.72 31.928C80.496 37.56 76.144 40.376 71.664 40.376C67.44 40.376 63.088 39.608 58.608 37.944C54.128 36.408 50.288 34.616 47.088 32.696C43.888 30.904 40.176 29.112 35.952 27.448C31.728 25.912 27.76 25.016 23.92 25.016C21.488 25.016 19.44 25.912 17.776 27.704C16.112 29.496 15.344 31.544 15.344 33.976C15.344 35.896 15.728 37.688 16.752 39.224C17.776 40.888 18.928 42.296 20.464 43.32C21.872 44.472 23.92 45.496 26.48 46.392C29.04 47.416 31.344 48.184 33.52 48.696C35.696 49.208 38.512 49.72 41.84 50.232C45.168 50.744 47.984 51.128 50.288 51.384C52.464 51.64 55.28 51.896 58.864 52.152C69.616 53.176 78.32 57.016 84.976 63.544C91.632 70.2 94.96 78.392 94.96 88.12C94.96 94.136 93.936 99.896 91.888 105.4C89.84 111.032 86.896 116.152 83.056 120.888C79.088 125.752 73.712 129.592 67.056 132.408C60.4 135.352 52.72 136.76 44.272 136.76ZM104.846 21.944C104.846 18.104 104.462 15.032 103.694 12.728C102.926 10.424 101.518 8.50402 99.47 6.84003H137.614C140.046 6.84003 141.966 8.12002 143.502 10.424C145.038 12.728 145.806 15.288 145.806 17.976C145.806 23.224 144.526 28.344 142.222 33.464C139.79 38.584 136.846 43.192 133.518 47.288C130.19 51.384 126.734 55.48 123.406 59.576C119.95 63.672 117.006 68.024 114.702 72.632C112.27 77.24 111.118 81.848 111.118 86.456C111.118 91.576 112.654 95.928 115.854 99.384C119.054 102.968 122.766 105.4 127.118 106.68C131.342 108.088 135.822 108.728 140.686 108.728C147.342 108.728 152.846 106.68 157.198 102.456C161.55 98.232 163.854 92.344 163.854 84.792V21.944C163.854 18.104 163.47 15.032 162.702 12.728C161.934 10.424 160.526 8.50402 158.478 6.84003H202.51C200.462 8.50402 199.054 10.424 198.286 12.728C197.518 15.032 197.134 18.104 197.134 21.944V87.608C197.134 95.16 196.11 101.944 194.062 107.832C192.014 113.72 189.326 118.456 186.254 122.04C183.054 125.624 179.342 128.44 175.118 130.744C170.766 133.048 166.67 134.712 162.83 135.48C158.862 136.376 154.894 136.76 150.798 136.76C146.702 136.76 142.606 136.376 138.766 135.48C134.798 134.712 130.702 133.048 126.606 130.744C122.382 128.44 118.67 125.624 115.598 122.04C112.398 118.456 109.838 113.72 107.79 107.832C105.742 101.944 104.846 95.16 104.846 87.608V21.944ZM209.575 21.944C209.575 14.904 208.039 9.91202 205.095 6.84003H260.135C271.783 6.84003 280.743 10.04 287.015 16.184C293.159 22.328 296.359 29.88 296.359 38.584C296.359 46.776 293.159 54.2 286.759 60.856C280.359 67.512 271.655 70.84 260.775 70.84C255.399 70.84 248.615 69.944 240.551 68.152C232.359 66.36 227.495 65.336 225.703 65.336C223.655 65.336 222.759 66.104 222.759 67.384C222.759 68.024 223.015 68.536 223.527 69.048C224.039 69.56 224.807 69.944 225.831 70.328C226.855 70.84 228.007 71.224 229.287 71.48C230.439 71.864 231.975 72.248 233.767 72.504C235.559 72.76 237.095 73.016 238.631 73.272C240.167 73.528 241.959 73.656 244.135 73.912C246.311 74.168 248.103 74.296 249.511 74.424C250.919 74.552 252.711 74.68 255.015 74.936C257.191 75.192 258.855 75.32 259.879 75.32C284.967 77.88 297.639 88.376 297.639 106.936C297.639 114.616 294.567 121.144 288.551 126.648C282.407 132.152 275.111 134.84 266.407 134.84H205.095C208.039 131.896 209.575 126.904 209.575 119.736V21.944ZM250.791 32.44C241.831 32.44 233.767 34.232 226.855 37.688C219.815 41.272 216.359 45.496 216.359 50.488C216.359 53.304 217.639 55.608 220.199 57.144C222.759 58.808 225.831 59.576 229.543 59.576C239.783 59.576 248.103 57.784 254.503 53.944C260.903 50.232 264.231 46.264 264.231 41.912C264.231 39.352 262.951 37.048 260.647 35.256C258.215 33.464 254.887 32.44 250.791 32.44ZM218.023 75.32C216.999 75.32 216.487 75.832 216.487 76.728C216.487 77.24 216.615 77.752 216.999 78.52C217.383 79.288 217.895 80.056 218.663 81.08C219.431 82.104 220.071 82.872 220.711 83.64C221.351 84.408 222.247 85.432 223.271 86.584C224.295 87.864 225.063 88.632 225.575 89.144C228.135 92.216 230.183 94.52 231.591 96.056C232.999 97.592 235.175 99.64 237.991 102.2C240.807 104.76 243.623 106.68 246.439 107.832C249.255 109.112 252.071 109.624 255.015 109.624C258.471 109.624 261.031 108.728 262.695 106.808C264.359 105.016 265.255 102.84 265.255 100.536C265.255 93.24 256.807 86.968 240.039 81.72C237.223 80.952 234.407 80.056 231.335 79.032C228.263 78.008 226.087 77.368 224.807 76.856C223.527 76.472 222.247 76.088 220.967 75.832C219.687 75.576 218.791 75.32 218.023 75.32ZM295.065 134.84C296.601 133.56 298.137 131.384 299.673 128.44C301.209 125.496 302.233 122.936 303.001 120.76C303.641 118.584 304.793 115 306.329 110.008C311.193 93.88 314.905 79.672 317.593 67.512C320.281 55.48 323.481 39.48 327.065 19.768C328.089 14.008 327.065 9.65602 324.249 6.84003H380.953C378.009 9.65602 377.113 14.008 378.137 19.768C381.721 39.48 384.793 55.48 387.481 67.512C390.169 79.672 394.009 93.88 398.873 110.008C400.409 115 401.433 118.584 402.201 120.76C402.841 122.936 403.865 125.496 405.401 128.44C406.937 131.384 408.473 133.56 410.137 134.84H357.273C360.345 131.384 361.881 126.776 361.881 120.888C361.881 116.024 360.473 105.528 357.657 89.4H338.841C340.761 94.136 342.169 97.848 343.193 100.408C344.217 103.096 345.113 106.424 346.137 110.392C347.161 114.36 347.673 117.944 347.673 121.272C347.673 124.984 346.905 128.184 345.497 130.872C344.089 133.56 341.657 134.84 338.329 134.84H295.065ZM336.409 83.64H356.505C349.849 49.208 343.449 31.928 337.433 31.928C331.545 31.928 328.601 38.584 328.601 51.768C328.601 60.216 331.161 70.84 336.409 83.64ZM410.19 134.84C411.726 133.56 413.262 131.384 414.798 128.44C416.334 125.496 417.358 122.936 418.126 120.76C418.766 118.584 419.918 115 421.454 110.008C426.318 93.88 430.03 79.672 432.718 67.512C435.406 55.48 438.606 39.48 442.19 19.768C443.214 14.008 442.19 9.65602 439.374 6.84003H496.078C493.134 9.65602 492.238 14.008 493.262 19.768C496.846 39.48 499.918 55.48 502.606 67.512C505.294 79.672 509.134 93.88 513.998 110.008C515.534 115 516.558 118.584 517.326 120.76C517.966 122.936 518.99 125.496 520.526 128.44C522.062 131.384 523.598 133.56 525.262 134.84H472.398C475.47 131.384 477.006 126.776 477.006 120.888C477.006 116.024 475.598 105.528 472.782 89.4H453.966C455.886 94.136 457.294 97.848 458.318 100.408C459.342 103.096 460.238 106.424 461.262 110.392C462.286 114.36 462.798 117.944 462.798 121.272C462.798 124.984 462.03 128.184 460.622 130.872C459.214 133.56 456.782 134.84 453.454 134.84H410.19ZM451.534 83.64H471.63C464.974 49.208 458.574 31.928 452.558 31.928C446.67 31.928 443.726 38.584 443.726 51.768C443.726 60.216 446.286 70.84 451.534 83.64ZM562.272 136.76C551.648 136.76 542.432 133.816 534.496 127.928C526.56 122.04 522.72 115.128 522.72 107.32C522.72 105.016 524.768 102.2 529.12 98.872C533.344 95.544 537.952 92.856 542.944 90.552C547.808 88.248 551.392 87.224 553.696 87.224C555.744 87.352 557.408 88.12 558.688 89.4C559.968 90.68 560.48 92.472 560.224 94.776C559.84 97.336 559.584 99.384 559.456 100.92C559.2 102.456 559.072 104.376 559.072 106.936C558.944 109.496 559.072 111.544 559.328 113.08C559.584 114.616 560.096 116.408 560.864 118.328C561.632 120.376 562.528 121.912 563.808 122.936C565.088 123.96 566.752 124.856 568.8 125.624C570.848 126.392 573.28 126.776 576.096 126.776C581.088 126.776 585.44 125.112 589.152 121.784C592.864 118.456 594.784 114.36 594.784 109.496C594.784 103.608 592.608 98.744 588.256 95.16C583.904 91.576 578.144 88.632 570.72 86.328C566.368 85.048 562.784 83.896 559.968 82.872C557.152 81.976 553.952 80.824 550.368 79.288C546.656 77.752 543.712 76.344 541.408 74.808C539.104 73.4 536.8 71.608 534.24 69.432C531.68 67.384 529.76 65.08 528.352 62.648C526.944 60.344 525.792 57.528 524.896 54.328C524 51.128 523.616 47.672 523.616 43.832C523.616 33.08 527.456 23.992 535.264 16.312C543.072 8.76002 552.416 4.92001 563.168 4.92001C566.24 4.92001 570.976 5.81602 577.248 7.48002C583.392 9.27202 588.512 10.04 592.608 10.04C595.936 10.04 599.008 9.27202 602.08 7.48002C605.024 5.81602 606.944 4.92001 607.968 4.92001C610.656 4.92001 611.552 7.73602 610.784 13.24C609.76 19.896 607.072 26.168 602.72 31.928C598.496 37.56 594.144 40.376 589.664 40.376C585.44 40.376 581.088 39.608 576.608 37.944C572.128 36.408 568.288 34.616 565.088 32.696C561.888 30.904 558.176 29.112 553.952 27.448C549.728 25.912 545.76 25.016 541.92 25.016C539.488 25.016 537.44 25.912 535.776 27.704C534.112 29.496 533.344 31.544 533.344 33.976C533.344 35.896 533.728 37.688 534.752 39.224C535.776 40.888 536.928 42.296 538.464 43.32C539.872 44.472 541.92 45.496 544.48 46.392C547.04 47.416 549.344 48.184 551.52 48.696C553.696 49.208 556.512 49.72 559.84 50.232C563.168 50.744 565.984 51.128 568.288 51.384C570.464 51.64 573.28 51.896 576.864 52.152C587.616 53.176 596.32 57.016 602.976 63.544C609.632 70.2 612.96 78.392 612.96 88.12C612.96 94.136 611.936 99.896 609.888 105.4C607.84 111.032 604.896 116.152 601.056 120.888C597.088 125.752 591.712 129.592 585.056 132.408C578.4 135.352 570.72 136.76 562.272 136.76ZM647.678 134.84H617.47C620.414 131.896 621.95 126.904 621.95 119.736V21.944C621.95 14.904 620.414 9.91202 617.47 6.84003H651.39C652.926 6.84003 654.462 7.86402 655.998 9.91202C657.406 11.96 658.174 14.008 658.174 16.184C658.174 20.536 657.15 24.12 655.102 27.192C653.054 30.264 650.494 32.568 647.55 34.104C644.606 35.64 641.662 37.048 638.846 38.328C635.902 39.608 633.47 41.016 631.422 42.68C629.374 44.344 628.35 46.264 628.35 48.568C628.35 49.336 628.478 49.848 628.99 50.36C629.502 50.872 630.014 51.128 630.782 51.128C631.806 51.128 633.726 50.488 636.286 48.952C638.846 47.544 642.814 46.136 647.934 44.6C653.054 43.064 659.198 42.296 666.494 42.296C673.662 42.296 679.806 43.064 685.054 44.6C690.302 46.136 694.27 47.544 697.086 48.952C699.774 50.488 701.694 51.128 702.846 51.128C703.486 51.128 703.998 50.872 704.51 50.36C705.022 49.848 705.278 49.336 705.278 48.568C705.278 46.264 704.254 44.344 702.206 42.68C700.158 41.016 697.598 39.608 694.654 38.328C691.71 37.048 688.766 35.64 685.95 34.104C683.006 32.568 680.574 30.264 678.526 27.192C676.478 24.12 675.454 20.536 675.454 16.184C675.454 14.008 676.094 11.96 677.63 9.91202C679.038 7.86402 680.574 6.84003 682.238 6.84003H716.158C713.086 9.91202 711.678 14.904 711.678 21.944V119.736C711.678 126.904 713.086 131.896 716.158 134.84H685.95C681.214 134.84 677.758 133.816 675.71 131.512C673.662 129.208 672.638 126.52 672.638 123.448C672.638 118.84 673.662 114.232 675.966 109.496C678.27 104.888 680.958 100.664 684.158 96.824C687.23 92.984 690.43 89.4 693.63 85.944C696.83 82.616 699.518 79.288 701.822 75.96C704.126 72.76 705.278 69.944 705.278 67.512C705.278 66.104 704.638 65.336 703.358 65.336C702.59 65.336 701.31 65.976 699.518 67C697.726 68.152 695.678 69.304 693.502 70.584C691.198 71.864 687.614 73.144 682.75 74.168C677.886 75.32 672.254 75.832 665.982 75.832C659.582 75.832 654.078 75.32 649.342 74.168C644.606 73.144 641.278 71.864 639.23 70.584C637.182 69.304 635.39 68.152 633.854 67C632.19 65.976 631.038 65.336 630.27 65.336C628.99 65.336 628.35 66.104 628.35 67.512C628.35 69.944 629.374 72.76 631.678 75.96C633.982 79.288 636.67 82.616 639.87 85.944C642.942 89.4 646.142 92.984 649.342 96.824C652.542 100.664 655.23 104.888 657.534 109.496C659.838 114.232 660.99 118.84 660.99 123.448C660.99 126.52 659.838 129.208 657.79 131.512C655.742 133.816 652.286 134.84 647.678 134.84Z"/>
</mask>
<path d="M44.272 136.76C33.648 136.76 24.432 133.816 16.496 127.928C8.56 122.04 4.72 115.128 4.72 107.32C4.72 105.016 6.768 102.2 11.12 98.872C15.344 95.544 19.952 92.856 24.944 90.552C29.808 88.248 33.392 87.224 35.696 87.224C37.744 87.352 39.408 88.12 40.688 89.4C41.968 90.68 42.48 92.472 42.224 94.776C41.84 97.336 41.584 99.384 41.456 100.92C41.2 102.456 41.072 104.376 41.072 106.936C40.944 109.496 41.072 111.544 41.328 113.08C41.584 114.616 42.096 116.408 42.864 118.328C43.632 120.376 44.528 121.912 45.808 122.936C47.088 123.96 48.752 124.856 50.8 125.624C52.848 126.392 55.28 126.776 58.096 126.776C63.088 126.776 67.44 125.112 71.152 121.784C74.864 118.456 76.784 114.36 76.784 109.496C76.784 103.608 74.608 98.744 70.256 95.16C65.904 91.576 60.144 88.632 52.72 86.328C48.368 85.048 44.784 83.896 41.968 82.872C39.152 81.976 35.952 80.824 32.368 79.288C28.656 77.752 25.712 76.344 23.408 74.808C21.104 73.4 18.8 71.608 16.24 69.432C13.68 67.384 11.76 65.08 10.352 62.648C8.944 60.344 7.792 57.528 6.896 54.328C6 51.128 5.616 47.672 5.616 43.832C5.616 33.08 9.456 23.992 17.264 16.312C25.072 8.76002 34.416 4.92001 45.168 4.92001C48.24 4.92001 52.976 5.81602 59.248 7.48002C65.392 9.27202 70.512 10.04 74.608 10.04C77.936 10.04 81.008 9.27202 84.08 7.48002C87.024 5.81602 88.944 4.92001 89.968 4.92001C92.656 4.92001 93.552 7.73602 92.784 13.24C91.76 19.896 89.072 26.168 84.72 31.928C80.496 37.56 76.144 40.376 71.664 40.376C67.44 40.376 63.088 39.608 58.608 37.944C54.128 36.408 50.288 34.616 47.088 32.696C43.888 30.904 40.176 29.112 35.952 27.448C31.728 25.912 27.76 25.016 23.92 25.016C21.488 25.016 19.44 25.912 17.776 27.704C16.112 29.496 15.344 31.544 15.344 33.976C15.344 35.896 15.728 37.688 16.752 39.224C17.776 40.888 18.928 42.296 20.464 43.32C21.872 44.472 23.92 45.496 26.48 46.392C29.04 47.416 31.344 48.184 33.52 48.696C35.696 49.208 38.512 49.72 41.84 50.232C45.168 50.744 47.984 51.128 50.288 51.384C52.464 51.64 55.28 51.896 58.864 52.152C69.616 53.176 78.32 57.016 84.976 63.544C91.632 70.2 94.96 78.392 94.96 88.12C94.96 94.136 93.936 99.896 91.888 105.4C89.84 111.032 86.896 116.152 83.056 120.888C79.088 125.752 73.712 129.592 67.056 132.408C60.4 135.352 52.72 136.76 44.272 136.76ZM104.846 21.944C104.846 18.104 104.462 15.032 103.694 12.728C102.926 10.424 101.518 8.50402 99.47 6.84003H137.614C140.046 6.84003 141.966 8.12002 143.502 10.424C145.038 12.728 145.806 15.288 145.806 17.976C145.806 23.224 144.526 28.344 142.222 33.464C139.79 38.584 136.846 43.192 133.518 47.288C130.19 51.384 126.734 55.48 123.406 59.576C119.95 63.672 117.006 68.024 114.702 72.632C112.27 77.24 111.118 81.848 111.118 86.456C111.118 91.576 112.654 95.928 115.854 99.384C119.054 102.968 122.766 105.4 127.118 106.68C131.342 108.088 135.822 108.728 140.686 108.728C147.342 108.728 152.846 106.68 157.198 102.456C161.55 98.232 163.854 92.344 163.854 84.792V21.944C163.854 18.104 163.47 15.032 162.702 12.728C161.934 10.424 160.526 8.50402 158.478 6.84003H202.51C200.462 8.50402 199.054 10.424 198.286 12.728C197.518 15.032 197.134 18.104 197.134 21.944V87.608C197.134 95.16 196.11 101.944 194.062 107.832C192.014 113.72 189.326 118.456 186.254 122.04C183.054 125.624 179.342 128.44 175.118 130.744C170.766 133.048 166.67 134.712 162.83 135.48C158.862 136.376 154.894 136.76 150.798 136.76C146.702 136.76 142.606 136.376 138.766 135.48C134.798 134.712 130.702 133.048 126.606 130.744C122.382 128.44 118.67 125.624 115.598 122.04C112.398 118.456 109.838 113.72 107.79 107.832C105.742 101.944 104.846 95.16 104.846 87.608V21.944ZM209.575 21.944C209.575 14.904 208.039 9.91202 205.095 6.84003H260.135C271.783 6.84003 280.743 10.04 287.015 16.184C293.159 22.328 296.359 29.88 296.359 38.584C296.359 46.776 293.159 54.2 286.759 60.856C280.359 67.512 271.655 70.84 260.775 70.84C255.399 70.84 248.615 69.944 240.551 68.152C232.359 66.36 227.495 65.336 225.703 65.336C223.655 65.336 222.759 66.104 222.759 67.384C222.759 68.024 223.015 68.536 223.527 69.048C224.039 69.56 224.807 69.944 225.831 70.328C226.855 70.84 228.007 71.224 229.287 71.48C230.439 71.864 231.975 72.248 233.767 72.504C235.559 72.76 237.095 73.016 238.631 73.272C240.167 73.528 241.959 73.656 244.135 73.912C246.311 74.168 248.103 74.296 249.511 74.424C250.919 74.552 252.711 74.68 255.015 74.936C257.191 75.192 258.855 75.32 259.879 75.32C284.967 77.88 297.639 88.376 297.639 106.936C297.639 114.616 294.567 121.144 288.551 126.648C282.407 132.152 275.111 134.84 266.407 134.84H205.095C208.039 131.896 209.575 126.904 209.575 119.736V21.944ZM250.791 32.44C241.831 32.44 233.767 34.232 226.855 37.688C219.815 41.272 216.359 45.496 216.359 50.488C216.359 53.304 217.639 55.608 220.199 57.144C222.759 58.808 225.831 59.576 229.543 59.576C239.783 59.576 248.103 57.784 254.503 53.944C260.903 50.232 264.231 46.264 264.231 41.912C264.231 39.352 262.951 37.048 260.647 35.256C258.215 33.464 254.887 32.44 250.791 32.44ZM218.023 75.32C216.999 75.32 216.487 75.832 216.487 76.728C216.487 77.24 216.615 77.752 216.999 78.52C217.383 79.288 217.895 80.056 218.663 81.08C219.431 82.104 220.071 82.872 220.711 83.64C221.351 84.408 222.247 85.432 223.271 86.584C224.295 87.864 225.063 88.632 225.575 89.144C228.135 92.216 230.183 94.52 231.591 96.056C232.999 97.592 235.175 99.64 237.991 102.2C240.807 104.76 243.623 106.68 246.439 107.832C249.255 109.112 252.071 109.624 255.015 109.624C258.471 109.624 261.031 108.728 262.695 106.808C264.359 105.016 265.255 102.84 265.255 100.536C265.255 93.24 256.807 86.968 240.039 81.72C237.223 80.952 234.407 80.056 231.335 79.032C228.263 78.008 226.087 77.368 224.807 76.856C223.527 76.472 222.247 76.088 220.967 75.832C219.687 75.576 218.791 75.32 218.023 75.32ZM295.065 134.84C296.601 133.56 298.137 131.384 299.673 128.44C301.209 125.496 302.233 122.936 303.001 120.76C303.641 118.584 304.793 115 306.329 110.008C311.193 93.88 314.905 79.672 317.593 67.512C320.281 55.48 323.481 39.48 327.065 19.768C328.089 14.008 327.065 9.65602 324.249 6.84003H380.953C378.009 9.65602 377.113 14.008 378.137 19.768C381.721 39.48 384.793 55.48 387.481 67.512C390.169 79.672 394.009 93.88 398.873 110.008C400.409 115 401.433 118.584 402.201 120.76C402.841 122.936 403.865 125.496 405.401 128.44C406.937 131.384 408.473 133.56 410.137 134.84H357.273C360.345 131.384 361.881 126.776 361.881 120.888C361.881 116.024 360.473 105.528 357.657 89.4H338.841C340.761 94.136 342.169 97.848 343.193 100.408C344.217 103.096 345.113 106.424 346.137 110.392C347.161 114.36 347.673 117.944 347.673 121.272C347.673 124.984 346.905 128.184 345.497 130.872C344.089 133.56 341.657 134.84 338.329 134.84H295.065ZM336.409 83.64H356.505C349.849 49.208 343.449 31.928 337.433 31.928C331.545 31.928 328.601 38.584 328.601 51.768C328.601 60.216 331.161 70.84 336.409 83.64ZM410.19 134.84C411.726 133.56 413.262 131.384 414.798 128.44C416.334 125.496 417.358 122.936 418.126 120.76C418.766 118.584 419.918 115 421.454 110.008C426.318 93.88 430.03 79.672 432.718 67.512C435.406 55.48 438.606 39.48 442.19 19.768C443.214 14.008 442.19 9.65602 439.374 6.84003H496.078C493.134 9.65602 492.238 14.008 493.262 19.768C496.846 39.48 499.918 55.48 502.606 67.512C505.294 79.672 509.134 93.88 513.998 110.008C515.534 115 516.558 118.584 517.326 120.76C517.966 122.936 518.99 125.496 520.526 128.44C522.062 131.384 523.598 133.56 525.262 134.84H472.398C475.47 131.384 477.006 126.776 477.006 120.888C477.006 116.024 475.598 105.528 472.782 89.4H453.966C455.886 94.136 457.294 97.848 458.318 100.408C459.342 103.096 460.238 106.424 461.262 110.392C462.286 114.36 462.798 117.944 462.798 121.272C462.798 124.984 462.03 128.184 460.622 130.872C459.214 133.56 456.782 134.84 453.454 134.84H410.19ZM451.534 83.64H471.63C464.974 49.208 458.574 31.928 452.558 31.928C446.67 31.928 443.726 38.584 443.726 51.768C443.726 60.216 446.286 70.84 451.534 83.64ZM562.272 136.76C551.648 136.76 542.432 133.816 534.496 127.928C526.56 122.04 522.72 115.128 522.72 107.32C522.72 105.016 524.768 102.2 529.12 98.872C533.344 95.544 537.952 92.856 542.944 90.552C547.808 88.248 551.392 87.224 553.696 87.224C555.744 87.352 557.408 88.12 558.688 89.4C559.968 90.68 560.48 92.472 560.224 94.776C559.84 97.336 559.584 99.384 559.456 100.92C559.2 102.456 559.072 104.376 559.072 106.936C558.944 109.496 559.072 111.544 559.328 113.08C559.584 114.616 560.096 116.408 560.864 118.328C561.632 120.376 562.528 121.912 563.808 122.936C565.088 123.96 566.752 124.856 568.8 125.624C570.848 126.392 573.28 126.776 576.096 126.776C581.088 126.776 585.44 125.112 589.152 121.784C592.864 118.456 594.784 114.36 594.784 109.496C594.784 103.608 592.608 98.744 588.256 95.16C583.904 91.576 578.144 88.632 570.72 86.328C566.368 85.048 562.784 83.896 559.968 82.872C557.152 81.976 553.952 80.824 550.368 79.288C546.656 77.752 543.712 76.344 541.408 74.808C539.104 73.4 536.8 71.608 534.24 69.432C531.68 67.384 529.76 65.08 528.352 62.648C526.944 60.344 525.792 57.528 524.896 54.328C524 51.128 523.616 47.672 523.616 43.832C523.616 33.08 527.456 23.992 535.264 16.312C543.072 8.76002 552.416 4.92001 563.168 4.92001C566.24 4.92001 570.976 5.81602 577.248 7.48002C583.392 9.27202 588.512 10.04 592.608 10.04C595.936 10.04 599.008 9.27202 602.08 7.48002C605.024 5.81602 606.944 4.92001 607.968 4.92001C610.656 4.92001 611.552 7.73602 610.784 13.24C609.76 19.896 607.072 26.168 602.72 31.928C598.496 37.56 594.144 40.376 589.664 40.376C585.44 40.376 581.088 39.608 576.608 37.944C572.128 36.408 568.288 34.616 565.088 32.696C561.888 30.904 558.176 29.112 553.952 27.448C549.728 25.912 545.76 25.016 541.92 25.016C539.488 25.016 537.44 25.912 535.776 27.704C534.112 29.496 533.344 31.544 533.344 33.976C533.344 35.896 533.728 37.688 534.752 39.224C535.776 40.888 536.928 42.296 538.464 43.32C539.872 44.472 541.92 45.496 544.48 46.392C547.04 47.416 549.344 48.184 551.52 48.696C553.696 49.208 556.512 49.72 559.84 50.232C563.168 50.744 565.984 51.128 568.288 51.384C570.464 51.64 573.28 51.896 576.864 52.152C587.616 53.176 596.32 57.016 602.976 63.544C609.632 70.2 612.96 78.392 612.96 88.12C612.96 94.136 611.936 99.896 609.888 105.4C607.84 111.032 604.896 116.152 601.056 120.888C597.088 125.752 591.712 129.592 585.056 132.408C578.4 135.352 570.72 136.76 562.272 136.76ZM647.678 134.84H617.47C620.414 131.896 621.95 126.904 621.95 119.736V21.944C621.95 14.904 620.414 9.91202 617.47 6.84003H651.39C652.926 6.84003 654.462 7.86402 655.998 9.91202C657.406 11.96 658.174 14.008 658.174 16.184C658.174 20.536 657.15 24.12 655.102 27.192C653.054 30.264 650.494 32.568 647.55 34.104C644.606 35.64 641.662 37.048 638.846 38.328C635.902 39.608 633.47 41.016 631.422 42.68C629.374 44.344 628.35 46.264 628.35 48.568C628.35 49.336 628.478 49.848 628.99 50.36C629.502 50.872 630.014 51.128 630.782 51.128C631.806 51.128 633.726 50.488 636.286 48.952C638.846 47.544 642.814 46.136 647.934 44.6C653.054 43.064 659.198 42.296 666.494 42.296C673.662 42.296 679.806 43.064 685.054 44.6C690.302 46.136 694.27 47.544 697.086 48.952C699.774 50.488 701.694 51.128 702.846 51.128C703.486 51.128 703.998 50.872 704.51 50.36C705.022 49.848 705.278 49.336 705.278 48.568C705.278 46.264 704.254 44.344 702.206 42.68C700.158 41.016 697.598 39.608 694.654 38.328C691.71 37.048 688.766 35.64 685.95 34.104C683.006 32.568 680.574 30.264 678.526 27.192C676.478 24.12 675.454 20.536 675.454 16.184C675.454 14.008 676.094 11.96 677.63 9.91202C679.038 7.86402 680.574 6.84003 682.238 6.84003H716.158C713.086 9.91202 711.678 14.904 711.678 21.944V119.736C711.678 126.904 713.086 131.896 716.158 134.84H685.95C681.214 134.84 677.758 133.816 675.71 131.512C673.662 129.208 672.638 126.52 672.638 123.448C672.638 118.84 673.662 114.232 675.966 109.496C678.27 104.888 680.958 100.664 684.158 96.824C687.23 92.984 690.43 89.4 693.63 85.944C696.83 82.616 699.518 79.288 701.822 75.96C704.126 72.76 705.278 69.944 705.278 67.512C705.278 66.104 704.638 65.336 703.358 65.336C702.59 65.336 701.31 65.976 699.518 67C697.726 68.152 695.678 69.304 693.502 70.584C691.198 71.864 687.614 73.144 682.75 74.168C677.886 75.32 672.254 75.832 665.982 75.832C659.582 75.832 654.078 75.32 649.342 74.168C644.606 73.144 641.278 71.864 639.23 70.584C637.182 69.304 635.39 68.152 633.854 67C632.19 65.976 631.038 65.336 630.27 65.336C628.99 65.336 628.35 66.104 628.35 67.512C628.35 69.944 629.374 72.76 631.678 75.96C633.982 79.288 636.67 82.616 639.87 85.944C642.942 89.4 646.142 92.984 649.342 96.824C652.542 100.664 655.23 104.888 657.534 109.496C659.838 114.232 660.99 118.84 660.99 123.448C660.99 126.52 659.838 129.208 657.79 131.512C655.742 133.816 652.286 134.84 647.678 134.84Z" stroke="black" stroke-width="8" mask="url(#path-2-outside-1_13_11)"/>
</svg>
