<svg width="81" height="87" viewBox="0 0 81 87" fill="none" xmlns="http://www.w3.org/2000/svg">
<g filter="url(#filter0_d_18_123)">
<rect width="65" height="73" transform="translate(76.3677 71.9569) rotate(170.303)" fill="#FF44DD"/>
<path d="M45.9823 53.5795C45.1688 49.0683 44.2687 44.5756 43.4965 40.0566C47.7418 40.8852 51.8305 41.573 56.084 42.5353C57.1137 42.7683 58.357 43.2981 59.3984 43.0211C60.1046 42.8334 58.4161 40.6167 58.241 40.3429C57.2326 38.7671 56.0697 37.4276 54.7853 36.14C53.6698 35.0217 52.3964 34.5085 51.1776 33.5765C49.9292 32.6217 52.3781 32.5613 53.0699 32.3646C53.9106 32.1256 54.6344 31.8115 55.452 31.4899C57.1525 30.821 58.7691 29.9657 60.4347 29.2121C62.8421 28.1227 65.4786 27.4905 67.9448 26.5491C69.4623 25.9699 67.696 25.9738 67.049 25.8838C65.3449 25.6466 63.6575 25.3585 61.9455 25.1659C58.6989 24.8007 55.6445 24.8685 52.3869 25.1158C50.3097 25.2735 47.698 26.0025 45.5872 25.553C45.4185 25.517 45.2309 25.2993 45.1277 25.1521C44.8191 24.7124 44.81 23.8953 44.721 23.3744C44.431 21.6774 44.2726 20.0415 44.1268 18.3318C44.1036 18.0599 43.7911 14.5815 43.2457 15.5245C41.9611 17.7459 41.0206 20.1163 40.1632 22.5983C39.585 24.2721 39.0088 25.9984 38.2222 27.5598C37.7297 28.5372 37.544 27.7742 36.9294 27.1611C35.8667 26.1009 35.1108 24.667 34.2869 23.3804C33.2877 21.82 32.2185 20.3181 31.0966 18.8633C29.7298 17.0909 28.4023 15.2282 26.9291 13.5661C25.3915 11.8313 24.0747 9.85149 22.5065 8.16062C21.3249 6.88669 21.1721 6.97636 21.4435 8.56441L22.9304 17.2658C23.2875 19.3552 23.5822 21.4713 24.0339 23.5425C24.3841 25.148 24.9691 26.6771 25.3369 28.2769C25.4689 28.8508 26.5797 34.0616 25.9634 34.0506C24.0099 34.0156 21.642 32.4828 19.8977 31.5564C18.3572 30.7382 16.9565 29.5333 15.3068 29.0206C14.4231 28.7459 13.4665 28.4918 14.1207 29.6675C15.4541 32.0638 17.147 34.2368 18.6621 36.4908C19.1492 37.2152 19.6155 37.9511 20.1941 38.5906C20.3297 38.7404 20.8174 39.0534 20.87 39.2935C20.9616 39.7122 19.661 40.7542 19.507 40.9527C17.3767 43.6984 15.1282 46.1595 12.6993 48.5697C11.3521 49.9064 9.78392 50.9616 8.51612 52.3944C8.3568 52.5744 6.63854 54.7242 7.84175 54.5907C9.04055 54.4576 10.415 53.5074 11.4822 53.0099C14.9652 51.3862 18.5186 49.9484 21.9997 48.3131C23.5236 47.5973 25.0305 46.635 26.7322 46.499C27.4675 46.4402 27.4012 52.8624 27.4254 53.3251C27.6595 57.8016 28.0935 61.9698 29.717 66.1329C30.1012 67.1182 31.5513 64.2391 31.6957 63.6202C32.4768 60.2722 32.5285 56.8048 33.1653 53.4315C33.397 52.2044 33.483 51.0481 33.4893 49.7869C33.4923 49.1934 33.4021 48.3693 33.6031 47.8034C33.6752 47.6004 34.3292 48.4784 34.3925 48.5687C35.261 49.8063 36.2145 50.7838 37.0285 52.0699C37.9671 53.5529 39.1 54.8449 39.988 56.3809C41.5636 59.1063 42.9755 61.972 44.4557 64.76C45.6409 66.9923 46.4961 69.3689 47.7785 71.5577C48.5748 72.9168 49.6142 75.3387 50.9424 76.1612C51.6289 76.5863 51.5572 75.4232 51.4934 75.0499C50.906 71.6122 49.5862 68.1802 48.5132 64.8967C47.3069 61.2053 46.6717 57.4021 45.9823 53.5795Z" fill="white" stroke="black" stroke-width="2" stroke-linecap="round"/>
</g>
<defs>
<filter id="filter0_d_18_123" x="0" y="0" width="80.3677" height="86.9059" filterUnits="userSpaceOnUse" color-interpolation-filters="sRGB">
<feFlood flood-opacity="0" result="BackgroundImageFix"/>
<feColorMatrix in="SourceAlpha" type="matrix" values="0 0 0 0 0 0 0 0 0 0 0 0 0 0 0 0 0 0 127 0" result="hardAlpha"/>
<feOffset dx="4" dy="4"/>
<feComposite in2="hardAlpha" operator="out"/>
<feColorMatrix type="matrix" values="0 0 0 0 0 0 0 0 0 0 0 0 0 0 0 0 0 0 1 0"/>
<feBlend mode="normal" in2="BackgroundImageFix" result="effect1_dropShadow_18_123"/>
<feBlend mode="normal" in="SourceGraphic" in2="effect1_dropShadow_18_123" result="shape"/>
</filter>
</defs>
</svg>
