<svg width="628" height="630" viewBox="0 0 628 630" fill="none" xmlns="http://www.w3.org/2000/svg">
<path d="M627 314C627 486.865 486.865 627 314 627C141.135 627 1 486.865 1 314C1 141.135 141.135 1 314 1C486.865 1 627 141.135 627 314Z" fill="#FF7543"/>
<path d="M536.758 352.14C537.356 348.644 538.366 345.645 539.788 343.142C541.203 340.685 542.918 338.682 544.935 337.133C546.989 335.638 549.253 334.581 551.726 333.962C554.191 333.39 556.773 333.239 559.473 333.512L558.199 340.963C556.059 340.74 553.906 341.011 551.739 341.776C549.619 342.55 547.756 343.889 546.153 345.792C544.541 347.742 543.46 350.327 542.909 353.547C542.312 357.043 542.603 359.909 543.782 362.147C545.008 364.392 546.955 365.743 549.623 366.199C552.291 366.655 554.503 366.039 556.259 364.351C558.008 362.709 559.613 360.522 561.074 357.789L563.684 352.909C565.006 350.436 566.447 348.102 568.006 345.907C569.611 343.72 571.509 342.032 573.701 340.844C575.892 339.657 578.552 339.33 581.68 339.865C584.716 340.384 587.166 341.561 589.03 343.394C590.894 345.228 592.154 347.55 592.81 350.361C593.512 353.18 593.568 356.314 592.978 359.764C592.262 363.95 590.913 367.27 588.931 369.724C586.995 372.187 584.69 373.899 582.016 374.863C579.342 375.826 576.518 376.148 573.542 375.828L574.816 368.376C576.542 368.529 578.234 368.322 579.894 367.753C581.546 367.231 582.996 366.224 584.245 364.733C585.494 363.242 586.351 361.14 586.815 358.426C587.318 355.482 587.056 352.999 586.029 350.977C585.04 349.009 583.396 347.828 581.096 347.435C578.52 346.995 576.369 347.668 574.643 349.456C572.909 351.29 571.338 353.555 569.93 356.249L567.309 361.198C566.032 363.679 564.6 365.967 563.01 368.062C561.413 370.204 559.504 371.818 557.282 372.906C555.098 374.048 552.374 374.339 549.108 373.781C544.14 372.931 540.594 370.55 538.47 366.636C536.346 362.722 535.775 357.89 536.758 352.14Z" fill="white"/>
<path d="M527.14 389.262C529.673 382.189 533.984 377.487 540.073 375.158C546.19 372.887 553.467 373.263 561.902 376.284C570.381 379.321 576.233 383.673 579.458 389.339C582.683 395.005 583.037 401.352 580.519 408.382C579.055 412.468 576.998 415.721 574.346 418.142C571.723 420.623 568.69 422.238 565.249 422.988C561.792 423.782 558.112 423.679 554.208 422.677L556.875 415.23C560.942 416.191 564.573 415.881 567.767 414.298C570.945 412.76 573.234 410.036 574.635 406.126C576.35 401.337 575.849 396.993 573.131 393.095C570.441 389.257 565.801 386.157 559.211 383.797C552.577 381.421 546.995 380.883 542.464 382.185C537.917 383.531 534.809 386.532 533.141 391.189C531.662 395.319 531.736 398.989 533.362 402.198C534.973 405.452 537.538 407.907 541.059 409.565L538.391 417.012C534.783 415.323 531.874 413.066 529.663 410.242C527.481 407.478 526.134 404.318 525.622 400.764C525.155 397.226 525.66 393.392 527.14 389.262Z" fill="white"/>
<path d="M521.243 408.954L568.657 436.029L558.556 453.718C556.265 457.73 553.858 460.628 551.335 462.411C548.811 464.195 546.285 465.09 543.756 465.096C541.226 465.103 538.786 464.435 536.436 463.093C533.356 461.334 531.26 458.982 530.147 456.036C529.012 453.13 529 449.765 530.11 445.938L501.266 444.783L500.902 444.575L504.998 437.402L533.051 438.67L539.126 428.032L517.424 415.64L521.243 408.954ZM544.353 431.017L538.313 441.594C536.231 445.242 535.398 448.206 535.815 450.486C536.273 452.79 537.698 454.624 540.089 455.989C542.52 457.378 544.804 457.661 546.94 456.838C549.116 456.039 551.245 453.816 553.328 450.168L559.368 439.591L544.353 431.017Z" fill="white"/>
<path d="M488.393 457.802C491.963 453.548 495.809 450.744 499.93 449.39C504.057 448.101 508.333 448.125 512.756 449.46C517.148 450.832 521.543 453.362 525.941 457.052C530.373 460.771 533.628 464.66 535.706 468.719C537.789 472.843 538.536 477.034 537.948 481.292C537.366 485.616 535.29 489.905 531.72 494.159C528.121 498.449 524.257 501.238 520.13 502.526C516.038 503.845 511.796 503.818 507.403 502.447C503.016 501.141 498.606 498.629 494.173 494.909C489.776 491.219 486.536 487.313 484.453 483.189C482.34 479.1 481.559 474.912 482.112 470.624C482.7 466.366 484.794 462.092 488.393 457.802ZM493.219 461.852C489.56 466.213 488.326 470.66 489.517 475.193C490.714 479.792 493.976 484.326 499.303 488.796C504.629 493.266 509.643 495.676 514.344 496.027C519.051 496.443 523.235 494.47 526.894 490.109C530.554 485.748 531.785 481.268 530.588 476.669C529.396 472.136 526.137 467.634 520.811 463.165C515.484 458.695 510.468 456.252 505.761 455.836C501.06 455.485 496.879 457.49 493.219 461.852Z" fill="white"/>
<path d="M473.74 476.053L509.292 517.493L503.341 522.597L472.074 486.152L452.523 502.925L448.239 497.931L473.74 476.053Z" fill="white"/>
<path d="M448.322 497.773L477.293 544.053L470.648 548.213L445.168 507.511L423.333 521.179L419.842 515.602L448.322 497.773Z" fill="white"/>
<path d="M402.442 524.282L418.707 576.403L401.668 581.721C392.669 584.529 385.449 584.264 380.008 580.927C374.536 577.648 370.514 571.888 367.942 563.647C365.37 555.406 365.395 548.358 368.017 542.505C370.609 536.71 376.404 532.408 385.402 529.6L402.442 524.282ZM396.851 532.92L388.031 535.672C383.531 537.077 380.145 538.915 377.873 541.189C375.57 543.521 374.275 546.345 373.99 549.66C373.66 552.99 374.184 556.859 375.56 561.27C376.95 565.725 378.721 569.205 380.872 571.711C382.992 574.276 385.656 575.84 388.862 576.404C392.039 577.026 395.876 576.635 400.376 575.231L409.196 572.478L396.851 532.92Z" fill="white"/>
<path d="M341.292 538.404C346.811 537.784 351.529 538.405 355.448 540.266C359.326 542.179 362.406 545.144 364.688 549.161C366.924 553.183 368.362 558.047 369.002 563.751C369.648 569.501 369.324 574.563 368.03 578.934C366.695 583.357 364.347 586.908 360.984 589.587C357.581 592.317 353.12 593.991 347.601 594.611C342.036 595.236 337.315 594.592 333.437 592.679C329.565 590.812 326.511 587.868 324.275 583.846C321.998 579.875 320.536 575.014 319.891 569.264C319.25 563.56 319.598 558.496 320.933 554.073C322.221 549.655 324.544 546.083 327.901 543.359C331.263 540.68 335.727 539.029 341.292 538.404ZM341.995 544.665C336.337 545.3 332.376 547.67 330.114 551.774C327.81 555.931 327.045 561.464 327.821 568.374C328.597 575.284 330.566 580.486 333.729 583.982C336.851 587.529 341.241 588.985 346.899 588.35C352.556 587.715 356.537 585.319 358.841 581.163C361.104 577.058 361.848 571.551 361.072 564.641C360.296 557.731 358.348 552.503 355.226 548.955C352.063 545.46 347.652 544.029 341.995 544.665Z" fill="white"/>
<path d="M314.939 542.456L319.471 597.444L319.426 597.862L311.771 597.032L307.972 547.615L306.302 547.434L290.545 594.732L277.323 593.299L271.923 543.709L270.253 543.528L256.097 590.999L248.859 590.215L248.904 589.797L264.971 537.041L278.542 538.512L283.948 588.032L285.619 588.213L301.438 540.993L314.939 542.456Z" fill="white"/>
<path d="M261.94 536.269L244.11 587.875L230.613 583.212L225.898 530.408L224.31 529.859L208.515 575.577L201.766 573.246L219.596 521.639L233.093 526.302L237.808 579.107L239.396 579.655L255.192 533.937L261.94 536.269Z" fill="white"/>
<path d="M168.91 487.22C171.627 489.5 173.707 491.885 175.151 494.376C176.558 496.836 177.422 499.328 177.742 501.85C177.996 504.379 177.767 506.867 177.053 509.314C176.304 511.731 175.131 514.037 173.534 516.23L167.743 511.37C169.016 509.636 169.868 507.64 170.3 505.383C170.702 503.162 170.486 500.879 169.651 498.534C168.781 496.158 167.095 493.921 164.592 491.821C161.875 489.541 159.253 488.346 156.726 488.236C154.169 488.162 152.021 489.161 150.281 491.235C148.541 493.308 147.957 495.529 148.528 497.897C149.064 500.235 150.143 502.724 151.765 505.365L154.662 510.08C156.13 512.469 157.418 514.89 158.527 517.344C159.606 519.833 160.105 522.324 160.025 524.815C159.945 527.306 158.885 529.767 156.845 532.198C154.865 534.558 152.614 536.08 150.09 536.764C147.566 537.449 144.925 537.365 142.168 536.513C139.38 535.697 136.646 534.164 133.965 531.914C130.711 529.184 128.525 526.345 127.406 523.395C126.257 520.481 125.941 517.627 126.458 514.832C126.976 512.038 128.123 509.437 129.9 507.029L135.691 511.888C134.688 513.301 134.014 514.867 133.667 516.587C133.285 518.277 133.423 520.037 134.08 521.867C134.737 523.698 136.12 525.498 138.229 527.268C140.517 529.188 142.793 530.214 145.057 530.348C147.255 530.487 149.104 529.662 150.604 527.875C152.284 525.873 152.787 523.676 152.114 521.284C151.406 518.861 150.243 516.363 148.627 513.788L145.676 509.028C144.179 506.674 142.926 504.283 141.918 501.854C140.875 499.394 140.444 496.931 140.626 494.464C140.742 492.003 141.865 489.503 143.995 486.965C147.235 483.104 151.08 481.244 155.531 481.385C159.982 481.525 164.442 483.47 168.91 487.22Z" fill="white"/>
<path d="M141.93 460.454C146.781 466.192 148.688 472.279 147.652 478.716C146.55 485.147 142.578 491.255 135.735 497.039C128.857 502.854 122.158 505.736 115.639 505.687C109.119 505.637 103.45 502.761 98.6292 497.059C95.8274 493.744 94.0436 490.333 93.2779 486.825C92.4465 483.312 92.5687 479.878 93.6445 476.524C94.6901 473.135 96.6249 470.002 99.4488 467.126L104.555 473.167C101.685 476.205 100.134 479.502 99.9018 483.059C99.6398 486.58 100.849 489.927 103.531 493.099C106.815 496.983 110.824 498.727 115.56 498.329C120.23 497.925 125.237 495.464 130.583 490.945C135.965 486.396 139.228 481.835 140.373 477.261C141.487 472.653 140.448 468.459 137.255 464.682C134.423 461.332 131.21 459.556 127.618 459.354C123.995 459.117 120.584 460.106 117.385 462.321L112.279 456.28C115.549 454.005 118.96 452.618 122.512 452.121C125.998 451.619 129.407 452.037 132.738 453.376C136.034 454.745 139.098 457.104 141.93 460.454Z" fill="white"/>
<path d="M127.927 445.557L80.8151 473.154L70.5191 455.578C68.1839 451.592 66.8724 448.06 66.5847 444.984C66.2969 441.907 66.7808 439.271 68.0365 437.075C69.2921 434.88 71.0877 433.098 73.4232 431.73C76.4834 429.937 79.5676 429.293 82.6758 429.798C85.7603 430.263 88.6841 431.93 91.4472 434.8L106.831 410.375L107.194 410.163L111.369 417.29L96.2806 440.974L102.472 451.544L124.035 438.913L127.927 445.557ZM97.2779 454.587L91.1216 444.077C88.9987 440.453 86.8448 438.254 84.6599 437.478C82.4348 436.727 80.1344 437.047 77.7586 438.438C75.3426 439.854 73.9587 441.692 73.6067 443.953C73.2145 446.238 74.0799 449.193 76.2028 452.817L82.3591 463.326L97.2779 454.587Z" fill="white"/>
<path d="M102.036 392.729C103.929 397.95 104.428 402.683 103.534 406.928C102.581 411.145 100.418 414.833 97.0456 417.991C93.6573 421.105 89.2649 423.64 83.8684 425.596C78.428 427.568 73.4314 428.436 68.8785 428.2C64.2658 427.935 60.2644 426.482 56.8743 423.839C53.4244 421.168 50.7533 417.222 48.8611 412.001C46.953 406.736 46.4756 401.995 47.429 397.778C48.3386 393.576 50.4875 389.919 53.8758 386.804C57.2043 383.662 61.5888 381.105 67.0291 379.133C72.4257 377.178 77.4303 376.332 82.0429 376.596C86.6397 376.816 90.6551 378.24 94.0891 380.867C97.4792 383.51 100.128 387.464 102.036 392.729ZM96.1135 394.875C94.1735 389.523 90.9436 386.226 86.4237 384.985C81.8439 383.716 76.2855 384.267 69.7482 386.636C63.211 389.005 58.6126 392.136 55.9531 396.029C53.2338 399.893 52.8442 404.502 54.7841 409.854C56.724 415.207 59.9838 418.518 64.5636 419.786C69.0835 421.027 74.6121 420.463 81.1493 418.094C87.6865 415.724 92.3148 412.608 95.0341 408.743C97.6936 404.851 98.0534 400.228 96.1135 394.875Z" fill="white"/>
<path d="M93.6916 371.484L39.9818 381.303L38.5719 373.591L85.8089 364.955L81.1762 339.615L87.6489 338.431L93.6916 371.484Z" fill="white"/>
<path d="M87.7191 338.74L33.152 340.637L32.8797 332.801L80.8708 331.134L79.9762 305.389L86.5522 305.161L87.7191 338.74Z" fill="white"/>
<path d="M87.6584 285.002L34.4545 272.734L38.4653 255.34C40.5834 246.154 44.4562 240.055 50.0837 237.043C55.6762 233.974 62.6787 233.41 71.0913 235.35C79.5039 237.29 85.5749 240.869 89.3045 246.087C92.9991 251.249 93.7873 258.423 91.6692 267.608L87.6584 285.002ZM83.024 275.816L85.1001 266.812C86.1592 262.219 86.281 258.368 85.4654 255.259C84.6149 252.093 82.8306 249.551 80.1125 247.631C77.4048 245.665 73.8001 244.164 69.2982 243.126C64.7509 242.077 60.8525 241.849 57.6032 242.44C54.3188 242.976 51.624 244.486 49.5187 246.97C47.3785 249.398 45.7788 252.908 44.7198 257.501L42.6436 266.504L83.024 275.816Z" fill="white"/>
<path d="M106.165 224.944C103.926 230.026 101.017 233.793 97.4374 236.244C93.8343 238.634 89.7228 239.806 85.1028 239.758C80.5016 239.669 75.5747 238.467 70.3221 236.152C65.0268 233.818 60.815 230.993 57.6868 227.677C54.5346 224.299 52.6462 220.484 52.0216 216.231C51.373 211.916 52.1684 207.218 54.4079 202.136C56.6661 197.012 59.5967 193.254 63.1998 190.864C66.7601 188.455 70.8409 187.296 75.4421 187.386C80.0193 187.414 84.9556 188.595 90.251 190.928C95.5036 193.243 99.7059 196.089 102.858 199.467C106.029 202.802 107.948 206.606 108.616 210.878C109.24 215.131 108.423 219.82 106.165 224.944ZM100.4 222.404C102.696 217.194 102.639 212.579 100.229 208.559C97.7944 204.477 93.3959 201.035 87.033 198.231C80.6701 195.427 75.1826 194.513 70.5706 195.489C65.9347 196.404 62.4688 199.467 60.1729 204.677C57.877 209.886 57.9462 214.532 60.3803 218.614C62.7906 222.634 67.1772 226.046 73.5401 228.849C79.903 231.653 85.4024 232.598 90.0383 231.683C94.6504 230.707 98.1043 227.613 100.4 222.404Z" fill="white"/>
<path d="M115.135 201.129L65.3574 177.328L65.0196 177.079L69.5944 170.885L114.19 192.512L115.188 191.161L82.2793 153.712L90.1814 143.014L135.733 163.346L136.731 161.994L102.866 125.841L107.192 119.985L107.529 120.235L144.996 160.702L136.886 171.681L91.3906 151.391L90.3925 152.743L123.203 190.206L115.135 201.129Z" fill="white"/>
<path d="M146.925 158.357L111.223 117.047L122.027 107.71L170.074 130.117L171.345 129.018L139.716 92.4218L145.119 87.7531L180.821 129.063L170.016 138.401L121.97 115.993L120.699 117.092L152.327 153.688L146.925 158.357Z" fill="white"/>
<path d="M235.981 101.852C232.647 103.061 229.54 103.666 226.661 103.667C223.827 103.652 221.238 103.15 218.894 102.163C216.579 101.116 214.541 99.6706 212.781 97.8267C211.064 95.9669 209.657 93.7965 208.56 91.3154L215.667 88.7394C216.53 90.7099 217.83 92.4476 219.567 93.9526C221.288 95.4137 223.372 96.3708 225.819 96.8239C228.311 97.2612 231.092 96.9233 234.163 95.8102C237.498 94.6017 239.846 92.9317 241.208 90.8001C242.554 88.6246 242.766 86.2646 241.843 83.7199C240.921 81.1752 239.292 79.5567 236.956 78.8644C234.665 78.1563 231.97 77.8424 228.872 77.9228L223.34 78.0664C220.537 78.1392 217.796 78.0406 215.117 77.7706C212.422 77.4567 210.017 76.6408 207.901 75.3228C205.785 74.0048 204.187 71.8541 203.106 68.8707C202.056 65.975 201.868 63.2636 202.54 60.7366C203.213 58.2095 204.608 55.9664 206.728 54.007C208.831 52.0038 211.528 50.4059 214.818 49.2133C218.811 47.7663 222.364 47.2977 225.477 47.8073C228.575 48.2732 231.203 49.4302 233.362 51.2785C235.521 53.1268 237.197 55.4231 238.39 58.1674L231.282 60.7434C230.562 59.1678 229.545 57.7991 228.231 56.6375C226.96 55.46 225.368 54.6968 223.455 54.3479C221.541 53.9989 219.29 54.2936 216.702 55.2317C213.894 56.2494 211.865 57.7045 210.615 59.597C209.393 61.4297 209.18 63.4429 209.975 65.6366C210.865 68.0935 212.514 69.6303 214.922 70.2469C217.373 70.8476 220.118 71.0937 223.156 70.9853L228.754 70.8179C231.541 70.7012 234.238 70.8158 236.845 71.1614C239.496 71.4912 241.844 72.3529 243.887 73.7466C245.959 75.0804 247.56 77.3049 248.689 80.42C250.406 85.1584 250.088 89.4181 247.736 93.1993C245.384 96.9804 241.465 99.8648 235.981 101.852Z" fill="white"/>
<path d="M271.725 91.9696C264.329 93.2925 258.105 91.8932 253.054 87.7715C248.04 83.5957 244.744 77.0978 243.167 68.2778C241.581 59.4119 242.443 52.1703 245.752 46.5532C249.061 40.9361 254.391 37.4702 261.741 36.1554C266.013 35.3913 269.859 35.5567 273.279 36.6517C276.736 37.6925 279.646 39.5186 282.01 42.1299C284.419 44.7331 286.161 47.9771 287.235 51.8619L279.448 53.2547C278.258 49.2484 276.181 46.2539 273.219 44.2712C270.303 42.2802 266.801 41.6504 262.712 42.3817C257.705 43.2773 254.188 45.8739 252.159 50.1716C250.169 54.415 249.79 59.9821 251.022 66.8727C252.263 73.8093 254.575 78.9186 257.959 82.2007C261.389 85.4746 265.539 86.676 270.409 85.805C274.727 85.0326 277.873 83.1424 279.848 80.1344C281.868 77.1182 282.721 73.6708 282.407 69.7922L290.193 68.3995C290.524 72.3699 290.015 76.0165 288.665 79.3394C287.354 82.6081 285.284 85.3486 282.456 87.5611C279.62 89.7277 276.043 91.1972 271.725 91.9696Z" fill="white"/>
<path d="M292.781 86.998V32.398H313.151C317.771 32.398 321.481 33.0514 324.281 34.358C327.081 35.6647 329.111 37.4147 330.371 39.608C331.631 41.8014 332.261 44.2514 332.261 46.958C332.261 50.5047 331.258 53.4914 329.251 55.918C327.291 58.3447 324.375 60.0247 320.501 60.958L333.801 86.578V86.998H325.541L312.731 62.008H300.481V86.998H292.781ZM300.481 55.988H312.661C316.861 55.988 319.848 55.2414 321.621 53.748C323.395 52.208 324.281 50.0614 324.281 47.308C324.281 44.508 323.395 42.3847 321.621 40.938C319.848 39.4447 316.861 38.698 312.661 38.698H300.481V55.988Z" fill="white"/>
<path d="M353.135 91.3329C347.672 90.3342 343.333 88.3786 340.118 85.4662C336.957 82.5163 334.863 78.789 333.837 74.2842C332.856 69.7879 332.882 64.7165 333.914 59.0701C334.955 53.3778 336.725 48.6253 339.225 44.8127C341.779 40.9626 345.052 38.2402 349.044 36.6454C353.09 35.0131 357.844 34.6964 363.307 35.6951C368.816 36.7022 373.151 38.6807 376.312 41.6306C379.481 44.5346 381.556 48.2348 382.537 52.7312C383.572 57.19 383.569 62.2656 382.528 67.9579C381.496 73.6043 379.703 78.3526 377.149 82.2027C374.641 86.0612 371.386 88.8108 367.386 90.4514C363.394 92.0462 358.644 92.34 353.135 91.3329ZM354.268 85.1356C359.869 86.1595 364.344 85.0327 367.695 81.7552C371.1 78.4402 373.428 73.3627 374.678 66.5228C375.929 59.6828 375.544 54.1331 373.524 49.8737C371.558 45.5767 367.775 42.9163 362.174 41.8924C356.573 40.8685 352.071 42.014 348.666 45.329C345.315 48.6065 343.014 53.6653 341.764 60.5052C340.513 67.3452 340.871 72.9137 342.837 77.2106C344.857 81.4701 348.668 84.1117 354.268 85.1356Z" fill="white"/>
<path d="M375.045 94.5835L393.649 43.2509L401.02 45.9223L384.658 91.0687L408.876 99.8461L406.634 106.032L375.045 94.5835Z" fill="white"/>
<path d="M407.047 106.164L433.066 58.1621L439.959 61.8982L417.076 104.115L439.723 116.391L436.587 122.176L407.047 106.164Z" fill="white"/>
<path d="M452.059 132.285L489.384 92.4355L502.411 104.638C509.292 111.082 512.621 117.494 512.401 123.873C512.246 130.25 509.218 136.589 503.316 142.89C497.414 149.191 491.271 152.644 484.885 153.249C478.566 153.852 471.966 150.932 465.086 144.488L452.059 132.285ZM462.33 132.89L469.074 139.207C472.514 142.429 475.783 144.468 478.881 145.324C482.046 146.178 485.141 145.912 488.166 144.525C491.225 143.17 494.334 140.807 497.492 137.435C500.682 134.029 502.837 130.773 503.957 127.666C505.143 124.556 505.191 121.468 504.1 118.4C503.075 115.33 500.842 112.184 497.402 108.962L490.659 102.645L462.33 132.89Z" fill="white"/>
<path d="M494.995 178.572C491.712 174.093 489.903 169.691 489.568 165.365C489.298 161.05 490.337 156.903 492.686 152.925C495.063 148.984 498.566 145.317 503.195 141.923C507.862 138.502 512.414 136.265 516.85 135.213C521.351 134.17 525.599 134.44 529.596 136.024C533.657 137.618 537.329 140.655 540.612 145.134C543.923 149.65 545.714 154.066 545.984 158.381C546.291 162.669 545.257 166.783 542.88 170.724C540.569 174.675 537.079 178.361 532.412 181.782C527.783 185.175 523.218 187.393 518.717 188.436C514.243 189.517 509.99 189.279 505.956 187.722C501.959 186.138 498.306 183.088 494.995 178.572ZM500.076 174.847C503.442 179.439 507.469 181.695 512.155 181.616C516.907 181.547 522.087 179.457 527.695 175.346C533.303 171.235 536.836 166.938 538.294 162.455C539.818 157.982 538.897 153.45 535.531 148.858C532.165 144.266 528.107 142.005 523.355 142.074C518.668 142.154 513.521 144.249 507.913 148.359C502.305 152.47 498.739 156.762 497.215 161.235C495.757 165.718 496.711 170.255 500.076 174.847Z" fill="white"/>
<path d="M511.358 198.493L556.849 167.27L557.234 167.102L560.312 174.16L519.295 201.981L519.967 203.521L568.849 193.729L574.167 205.919L533.793 235.216L534.465 236.756L582.703 225.488L585.614 232.161L585.229 232.329L531.454 244.561L525.997 232.049L566.306 202.781L565.634 201.241L516.788 210.94L511.358 198.493Z" fill="white"/>
<path d="M532.673 248.096L586.345 238.071L588.967 252.108L545.403 282.32L545.712 283.972L593.26 275.091L594.571 282.11L540.899 292.134L538.277 278.097L581.84 247.885L581.532 246.234L533.984 255.114L532.673 248.096Z" fill="white"/>
</svg>
